<?xml version="1.0" encoding="UTF-8" standalone="no"?><!DOCTYPE svg PUBLIC "-//W3C//DTD SVG 1.1//EN" "http://www.w3.org/Graphics/SVG/1.1/DTD/svg11.dtd"><svg width="100%" height="100%" viewBox="0 0 321 116" version="1.1" xmlns="http://www.w3.org/2000/svg" xmlns:xlink="http://www.w3.org/1999/xlink" xml:space="preserve" xmlns:serif="http://www.serif.com/" style="fill-rule:evenodd;clip-rule:evenodd;stroke-linecap:round;stroke-linejoin:round;stroke-miterlimit:1.5;"><rect id="community" x="0" y="0" width="321" height="116" style="fill:none;"/><clipPath id="_clip1"><rect x="0" y="0" width="321" height="116"/></clipPath><g clip-path="url(#_clip1)"><rect x="0" y="0" width="321" height="116" style="fill:#ebebeb;"/><rect x="-21.221" y="108.309" width="387.574" height="13.191" style="fill:#1ed2f4;"/><path d="M90.735,86.35C91.875,87.21 92.585,88.33 92.865,89.71L88.125,91.27C87.925,89.55 87.155,88.69 85.815,88.69C83.835,88.69 82.845,90.1 82.845,92.92C82.845,95.66 83.835,97.03 85.815,97.03C87.235,97.03 88.065,96.22 88.305,94.6L92.895,96.07C92.675,97.43 91.95,98.535 90.72,99.385C89.49,100.235 87.865,100.66 85.845,100.66C83.245,100.66 81.245,99.98 79.845,98.62C78.445,97.26 77.745,95.34 77.745,92.86C77.745,90.4 78.44,88.485 79.83,87.115C81.22,85.745 83.155,85.06 85.635,85.06C87.895,85.06 89.595,85.49 90.735,86.35Z" style="fill:#414141;fill-rule:nonzero;"/><path d="M108.63,87.115C110.02,88.485 110.715,90.4 110.715,92.86C110.715,95.32 110.02,97.235 108.63,98.605C107.24,99.975 105.295,100.66 102.795,100.66C100.295,100.66 98.35,99.975 96.96,98.605C95.57,97.235 94.875,95.32 94.875,92.86C94.875,90.4 95.57,88.485 96.96,87.115C98.35,85.745 100.295,85.06 102.795,85.06C105.295,85.06 107.24,85.745 108.63,87.115ZM100.665,89.68C100.205,90.34 99.975,91.4 99.975,92.86C99.975,94.32 100.205,95.38 100.665,96.04C101.125,96.7 101.835,97.03 102.795,97.03C103.755,97.03 104.465,96.7 104.925,96.04C105.385,95.38 105.615,94.32 105.615,92.86C105.615,91.4 105.385,90.34 104.925,89.68C104.465,89.02 103.755,88.69 102.795,88.69C101.835,88.69 101.125,89.02 100.665,89.68Z" style="fill:#414141;fill-rule:nonzero;"/><path d="M136.89,86.44C137.84,87.36 138.315,88.67 138.315,90.37L138.315,100.36L133.215,100.36L133.215,91.54C133.215,89.82 132.535,88.96 131.175,88.96C130.375,88.96 129.735,89.25 129.255,89.83C128.775,90.41 128.535,91.25 128.535,92.35L128.535,100.36L123.435,100.36L123.435,91.54C123.435,89.82 122.755,88.96 121.395,88.96C120.635,88.96 120.005,89.25 119.505,89.83C119.005,90.41 118.755,91.28 118.755,92.44L118.755,100.36L113.655,100.36L113.655,85.36L118.215,85.36L118.365,88.24C118.845,87.2 119.515,86.41 120.375,85.87C121.235,85.33 122.245,85.06 123.405,85.06C124.545,85.06 125.53,85.32 126.36,85.84C127.19,86.36 127.785,87.11 128.145,88.09C128.625,87.11 129.31,86.36 130.2,85.84C131.09,85.32 132.085,85.06 133.185,85.06C134.705,85.06 135.94,85.52 136.89,86.44Z" style="fill:#414141;fill-rule:nonzero;"/><path d="M165.12,86.44C166.07,87.36 166.545,88.67 166.545,90.37L166.545,100.36L161.445,100.36L161.445,91.54C161.445,89.82 160.765,88.96 159.405,88.96C158.605,88.96 157.965,89.25 157.485,89.83C157.005,90.41 156.765,91.25 156.765,92.35L156.765,100.36L151.665,100.36L151.665,91.54C151.665,89.82 150.985,88.96 149.625,88.96C148.865,88.96 148.235,89.25 147.735,89.83C147.235,90.41 146.985,91.28 146.985,92.44L146.985,100.36L141.885,100.36L141.885,85.36L146.445,85.36L146.595,88.24C147.075,87.2 147.745,86.41 148.605,85.87C149.465,85.33 150.475,85.06 151.635,85.06C152.775,85.06 153.76,85.32 154.59,85.84C155.42,86.36 156.015,87.11 156.375,88.09C156.855,87.11 157.54,86.36 158.43,85.84C159.32,85.32 160.315,85.06 161.415,85.06C162.935,85.06 164.17,85.52 165.12,86.44Z" style="fill:#414141;fill-rule:nonzero;"/><path d="M185.055,85.36L185.055,100.36L180.495,100.36L180.345,97.57C179.405,99.63 177.675,100.66 175.155,100.66C173.555,100.66 172.3,100.235 171.39,99.385C170.48,98.535 170.025,97.2 170.025,95.38L170.025,85.36L175.125,85.36L175.125,94.09C175.125,95.07 175.295,95.76 175.635,96.16C175.975,96.56 176.495,96.76 177.195,96.76C178.035,96.76 178.705,96.475 179.205,95.905C179.705,95.335 179.955,94.47 179.955,93.31L179.955,85.36L185.055,85.36Z" style="fill:#414141;fill-rule:nonzero;"/><path d="M202.335,86.44C203.275,87.36 203.745,88.67 203.745,90.37L203.745,100.36L198.645,100.36L198.645,91.78C198.645,90.76 198.46,90.035 198.09,89.605C197.72,89.175 197.195,88.96 196.515,88.96C195.715,88.96 195.065,89.245 194.565,89.815C194.065,90.385 193.815,91.26 193.815,92.44L193.815,100.36L188.715,100.36L188.715,85.36L193.275,85.36L193.425,88.24C193.905,87.18 194.585,86.385 195.465,85.855C196.345,85.325 197.375,85.06 198.555,85.06C200.135,85.06 201.395,85.52 202.335,86.44Z" style="fill:#414141;fill-rule:nonzero;"/><path d="M207.6,83.035C207.13,82.645 206.895,82.03 206.895,81.19C206.895,80.33 207.13,79.705 207.6,79.315C208.07,78.925 208.825,78.73 209.865,78.73C210.905,78.73 211.66,78.925 212.13,79.315C212.6,79.705 212.835,80.33 212.835,81.19C212.835,82.03 212.6,82.645 212.13,83.035C211.66,83.425 210.905,83.62 209.865,83.62C208.825,83.62 208.07,83.425 207.6,83.035ZM212.415,100.36L207.315,100.36L207.315,85.36L212.415,85.36L212.415,100.36Z" style="fill:#414141;fill-rule:nonzero;"/><path d="M226.935,99.52C226.435,99.86 225.8,100.135 225.03,100.345C224.26,100.555 223.485,100.66 222.705,100.66C220.925,100.66 219.565,100.28 218.625,99.52C217.685,98.76 217.205,97.54 217.185,95.86L217.185,88.99L214.605,88.99L214.605,85.36L217.185,85.36L217.185,82L222.285,80.59L222.285,85.36L226.785,85.36L226.785,88.99L222.285,88.99L222.285,95.02C222.285,96.36 222.945,97.03 224.265,97.03C225.085,97.03 225.805,96.81 226.425,96.37L226.935,99.52Z" style="fill:#414141;fill-rule:nonzero;"/><path d="M238.875,100.36C238.315,101.96 237.705,103.23 237.045,104.17C236.385,105.11 235.605,105.785 234.705,106.195C233.805,106.605 232.715,106.81 231.435,106.81C229.735,106.81 228.375,106.44 227.355,105.7L228.435,102.28C228.755,102.58 229.11,102.785 229.5,102.895C229.89,103.005 230.395,103.06 231.015,103.06C231.635,103.06 232.125,102.955 232.485,102.745C232.845,102.535 233.135,102.16 233.355,101.62L233.715,100.69L231.975,96.61L227.505,85.36L233.115,85.36L235.425,93.91L236.145,97.09L236.955,93.79L239.265,85.36L244.365,85.36L238.875,100.36Z" style="fill:#414141;fill-rule:nonzero;"/><g><g id="Woman"><path d="M8.88,32.547C8.88,26.697 11.204,21.087 15.34,16.951C19.477,12.814 25.087,10.491 30.936,10.491C30.937,10.491 30.938,10.491 30.938,10.491C36.788,10.491 42.398,12.814 46.534,16.951C50.671,21.087 52.994,26.697 52.994,32.547C52.994,39.284 52.994,46.031 52.994,50.291C52.994,51.477 52.523,52.614 51.685,53.452C50.847,54.29 49.71,54.761 48.524,54.761C40.066,54.761 21.809,54.761 13.35,54.761C12.165,54.761 11.028,54.29 10.189,53.452C9.351,52.614 8.88,51.477 8.88,50.291C8.88,46.031 8.88,39.284 8.88,32.547Z" style="fill:#ebebeb;stroke:#00a1f4;stroke-width:2.18px;"/><circle cx="45.813" cy="31.992" r="3.154" style="fill:#ebebeb;stroke:#00a1f4;stroke-width:2.18px;"/><circle cx="15.958" cy="31.992" r="3.154" style="fill:#ebebeb;stroke:#00a1f4;stroke-width:2.18px;"/><path d="M46.039,25.863C44.043,24.642 41.662,22.548 39.535,22.763C35.549,23.166 29.775,28.489 25.221,28.804C22.452,28.996 18.572,28.866 15.753,27.857L15.753,32.934C15.753,36.608 17.323,40.131 20.118,42.729C21.371,43.893 22.823,44.828 24.4,45.506C24.4,45.506 24.083,45.69 23.554,45.997C16.902,49.855 12.807,56.962 12.807,64.652C12.807,69.233 12.807,73.327 12.807,73.327L49.785,73.327C49.785,73.327 49.785,69.476 49.785,65.07C49.785,57.192 45.489,49.94 38.579,46.156C37.845,45.755 37.392,45.506 37.392,45.506C38.969,44.828 40.422,43.893 41.674,42.729C44.469,40.131 46.039,36.608 46.039,32.934L46.039,25.863Z" style="fill:#ebebeb;stroke:#00a1f4;stroke-width:2.18px;"/><path d="M23.782,38.575C23.782,40.558 27.001,42.168 30.967,42.168C34.933,42.168 38.152,40.558 38.152,38.575" style="fill:#ebebeb;stroke:#00a1f4;stroke-width:2.18px;"/><path d="M37.026,45.646C37.026,45.646 37.026,48.896 37.026,52.015C37.026,55.133 34.499,57.66 31.382,57.66C31.14,57.66 30.898,57.66 30.657,57.66C27.54,57.66 25.013,55.133 25.013,52.015C25.013,48.896 25.013,45.646 25.013,45.646" style="fill:#ebebeb;stroke:#00a1f4;stroke-width:2.18px;"/></g><g id="Man"><circle cx="98.574" cy="28.15" r="3.154" style="fill:#ebebeb;stroke:#00a1f4;stroke-width:2.18px;"/><circle cx="68.719" cy="28.15" r="3.154" style="fill:#ebebeb;stroke:#00a1f4;stroke-width:2.18px;"/><path d="M105.12,50.696L90.176,43.393C91.754,42.664 93.206,41.657 94.459,40.405C97.254,37.609 98.824,33.818 98.824,29.866C98.824,22.215 98.824,8.673 98.824,8.673C98.824,8.673 93.469,14.483 75.045,14.483C71.451,14.483 68.538,17.397 68.538,20.99C68.538,23.608 68.538,26.744 68.538,29.866C68.538,33.818 70.108,37.609 72.903,40.405C74.155,41.657 75.608,42.664 77.185,43.393L62.383,50.626L62.383,73.327L105.12,73.327L105.12,50.696Z" style="fill:#ebebeb;stroke:#00a1f4;stroke-width:2.18px;"/><path d="M76.566,34.733C76.566,36.716 79.786,38.326 83.752,38.326C87.717,38.326 90.937,36.716 90.937,34.733" style="fill:#ebebeb;stroke:#00a1f4;stroke-width:2.18px;"/><path d="M85.225,50.462C86.225,49.892 86.9,48.816 86.9,47.583C86.9,45.756 85.416,44.272 83.589,44.272C81.761,44.272 80.278,45.756 80.278,47.583C80.278,48.872 81.015,49.989 82.091,50.536L80.58,69.104L80.572,69.104L80.579,69.119L80.572,69.196L80.611,69.196L82.304,73.224L85.018,73.224L86.711,69.196L86.75,69.196L86.743,69.119L86.75,69.104L86.742,69.104L85.225,50.462Z" style="fill:#ebebeb;stroke:#00a1f4;stroke-width:2.18px;"/></g></g><g><g id="Woman1" serif:id="Woman"><path d="M112.38,32.547C112.38,26.697 114.704,21.087 118.84,16.951C122.977,12.814 128.587,10.491 134.436,10.491C134.437,10.491 134.438,10.491 134.438,10.491C140.288,10.491 145.898,12.814 150.034,16.951C154.171,21.087 156.494,26.697 156.494,32.547C156.494,39.284 156.494,46.031 156.494,50.291C156.494,51.477 156.023,52.614 155.185,53.452C154.347,54.29 153.21,54.761 152.024,54.761C143.566,54.761 125.309,54.761 116.85,54.761C115.665,54.761 114.528,54.29 113.689,53.452C112.851,52.614 112.38,51.477 112.38,50.291C112.38,46.031 112.38,39.284 112.38,32.547Z" style="fill:#ebebeb;stroke:#00a1f4;stroke-width:2.18px;"/><circle cx="149.313" cy="31.992" r="3.154" style="fill:#ebebeb;stroke:#00a1f4;stroke-width:2.18px;"/><circle cx="119.458" cy="31.992" r="3.154" style="fill:#ebebeb;stroke:#00a1f4;stroke-width:2.18px;"/><path d="M149.539,25.863C147.543,24.642 145.162,22.548 143.035,22.763C139.049,23.166 133.275,28.489 128.721,28.804C125.952,28.996 122.072,28.866 119.253,27.857L119.253,32.934C119.253,36.608 120.823,40.131 123.618,42.729C124.871,43.893 126.323,44.828 127.9,45.506C127.9,45.506 127.583,45.69 127.054,45.997C120.402,49.855 116.307,56.962 116.307,64.652C116.307,69.233 116.307,73.327 116.307,73.327L153.285,73.327C153.285,73.327 153.285,69.476 153.285,65.07C153.285,57.192 148.989,49.94 142.079,46.156C141.345,45.755 140.892,45.506 140.892,45.506C142.469,44.828 143.922,43.893 145.174,42.729C147.969,40.131 149.539,36.608 149.539,32.934L149.539,25.863Z" style="fill:#ebebeb;stroke:#00a1f4;stroke-width:2.18px;"/><path d="M127.282,38.575C127.282,40.558 130.501,42.168 134.467,42.168C138.433,42.168 141.652,40.558 141.652,38.575" style="fill:#ebebeb;stroke:#00a1f4;stroke-width:2.18px;"/><path d="M140.526,45.646C140.526,45.646 140.526,48.896 140.526,52.015C140.526,55.133 137.999,57.66 134.882,57.66C134.64,57.66 134.398,57.66 134.157,57.66C131.04,57.66 128.513,55.133 128.513,52.015C128.513,48.896 128.513,45.646 128.513,45.646" style="fill:#ebebeb;stroke:#00a1f4;stroke-width:2.18px;"/></g><g id="Man1" serif:id="Man"><circle cx="202.074" cy="28.15" r="3.154" style="fill:#ebebeb;stroke:#00a1f4;stroke-width:2.18px;"/><circle cx="172.219" cy="28.15" r="3.154" style="fill:#ebebeb;stroke:#00a1f4;stroke-width:2.18px;"/><path d="M208.62,50.696L193.676,43.393C195.254,42.664 196.706,41.657 197.959,40.405C200.754,37.609 202.324,33.818 202.324,29.866C202.324,22.215 202.324,8.673 202.324,8.673C202.324,8.673 196.969,14.483 178.545,14.483C174.951,14.483 172.038,17.397 172.038,20.99C172.038,23.608 172.038,26.744 172.038,29.866C172.038,33.818 173.608,37.609 176.403,40.405C177.655,41.657 179.108,42.664 180.685,43.393L165.883,50.626L165.883,73.327L208.62,73.327L208.62,50.696Z" style="fill:#ebebeb;stroke:#00a1f4;stroke-width:2.18px;"/><path d="M180.066,34.733C180.066,36.716 183.286,38.326 187.252,38.326C191.217,38.326 194.437,36.716 194.437,34.733" style="fill:#ebebeb;stroke:#00a1f4;stroke-width:2.18px;"/><path d="M188.725,50.462C189.725,49.892 190.4,48.816 190.4,47.583C190.4,45.756 188.916,44.272 187.089,44.272C185.261,44.272 183.778,45.756 183.778,47.583C183.778,48.872 184.515,49.989 185.591,50.536L184.08,69.104L184.072,69.104L184.079,69.119L184.072,69.196L184.111,69.196L185.804,73.224L188.518,73.224L190.211,69.196L190.25,69.196L190.243,69.119L190.25,69.104L190.242,69.104L188.725,50.462Z" style="fill:#ebebeb;stroke:#00a1f4;stroke-width:2.18px;"/></g></g><g><g id="Woman2" serif:id="Woman"><path d="M218.88,32.547C218.88,26.697 221.204,21.087 225.34,16.951C229.477,12.814 235.087,10.491 240.936,10.491C240.937,10.491 240.938,10.491 240.938,10.491C246.788,10.491 252.398,12.814 256.534,16.951C260.671,21.087 262.994,26.697 262.994,32.547C262.994,39.284 262.994,46.031 262.994,50.291C262.994,51.477 262.523,52.614 261.685,53.452C260.847,54.29 259.71,54.761 258.524,54.761C250.066,54.761 231.809,54.761 223.35,54.761C222.165,54.761 221.028,54.29 220.189,53.452C219.351,52.614 218.88,51.477 218.88,50.291C218.88,46.031 218.88,39.284 218.88,32.547Z" style="fill:#ebebeb;stroke:#00a1f4;stroke-width:2.18px;"/><circle cx="255.813" cy="31.992" r="3.154" style="fill:#ebebeb;stroke:#00a1f4;stroke-width:2.18px;"/><circle cx="225.958" cy="31.992" r="3.154" style="fill:#ebebeb;stroke:#00a1f4;stroke-width:2.18px;"/><path d="M256.039,25.863C254.043,24.642 251.662,22.548 249.535,22.763C245.549,23.166 239.775,28.489 235.221,28.804C232.452,28.996 228.572,28.866 225.753,27.857L225.753,32.934C225.753,36.608 227.323,40.131 230.118,42.729C231.371,43.893 232.823,44.828 234.4,45.506C234.4,45.506 234.083,45.69 233.554,45.997C226.902,49.855 222.807,56.962 222.807,64.652C222.807,69.233 222.807,73.327 222.807,73.327L259.785,73.327C259.785,73.327 259.785,69.476 259.785,65.07C259.785,57.192 255.489,49.94 248.579,46.156C247.845,45.755 247.392,45.506 247.392,45.506C248.969,44.828 250.422,43.893 251.674,42.729C254.469,40.131 256.039,36.608 256.039,32.934L256.039,25.863Z" style="fill:#ebebeb;stroke:#00a1f4;stroke-width:2.18px;"/><path d="M233.782,38.575C233.782,40.558 237.001,42.168 240.967,42.168C244.933,42.168 248.152,40.558 248.152,38.575" style="fill:#ebebeb;stroke:#00a1f4;stroke-width:2.18px;"/><path d="M247.026,45.646C247.026,45.646 247.026,48.896 247.026,52.015C247.026,55.133 244.499,57.66 241.382,57.66C241.14,57.66 240.898,57.66 240.657,57.66C237.54,57.66 235.013,55.133 235.013,52.015C235.013,48.896 235.013,45.646 235.013,45.646" style="fill:#ebebeb;stroke:#00a1f4;stroke-width:2.18px;"/></g><g id="Man2" serif:id="Man"><circle cx="308.574" cy="28.15" r="3.154" style="fill:#ebebeb;stroke:#00a1f4;stroke-width:2.18px;"/><circle cx="278.719" cy="28.15" r="3.154" style="fill:#ebebeb;stroke:#00a1f4;stroke-width:2.18px;"/><path d="M315.12,50.696L300.176,43.393C301.754,42.664 303.206,41.657 304.459,40.405C307.254,37.609 308.824,33.818 308.824,29.866C308.824,22.215 308.824,8.673 308.824,8.673C308.824,8.673 303.469,14.483 285.045,14.483C281.451,14.483 278.538,17.397 278.538,20.99C278.538,23.608 278.538,26.744 278.538,29.866C278.538,33.818 280.108,37.609 282.903,40.405C284.155,41.657 285.608,42.664 287.185,43.393L272.383,50.626L272.383,73.327L315.12,73.327L315.12,50.696Z" style="fill:#ebebeb;stroke:#00a1f4;stroke-width:2.18px;"/><path d="M286.566,34.733C286.566,36.716 289.786,38.326 293.752,38.326C297.717,38.326 300.937,36.716 300.937,34.733" style="fill:#ebebeb;stroke:#00a1f4;stroke-width:2.18px;"/><path d="M295.225,50.462C296.225,49.892 296.9,48.816 296.9,47.583C296.9,45.756 295.416,44.272 293.589,44.272C291.761,44.272 290.278,45.756 290.278,47.583C290.278,48.872 291.015,49.989 292.091,50.536L290.58,69.104L290.572,69.104L290.579,69.119L290.572,69.196L290.611,69.196L292.304,73.224L295.018,73.224L296.711,69.196L296.75,69.196L296.743,69.119L296.75,69.104L296.742,69.104L295.225,50.462Z" style="fill:#ebebeb;stroke:#00a1f4;stroke-width:2.18px;"/></g></g></g></svg>