<?xml version="1.0" encoding="UTF-8" standalone="no"?><!DOCTYPE svg PUBLIC "-//W3C//DTD SVG 1.1//EN" "http://www.w3.org/Graphics/SVG/1.1/DTD/svg11.dtd"><svg width="100%" height="100%" viewBox="0 0 321 117" version="1.1" xmlns="http://www.w3.org/2000/svg" xmlns:xlink="http://www.w3.org/1999/xlink" xml:space="preserve" xmlns:serif="http://www.serif.com/" style="fill-rule:evenodd;clip-rule:evenodd;stroke-linecap:round;stroke-linejoin:round;stroke-miterlimit:1.5;"><rect id="community" x="0" y="0.036" width="321" height="116" style="fill:none;"/><clipPath id="_clip1"><rect x="0" y="0.036" width="321" height="116"/></clipPath><g clip-path="url(#_clip1)"><rect x="0" y="0.036" width="321" height="116" style="fill:#ebebeb;"/><rect x="-21.221" y="108.345" width="387.574" height="13.191" style="fill:#1ed2f4;"/><path d="M81.105,99.256c-1.46,-1.4 -2.19,-3.31 -2.19,-5.73c0,-1.6 0.355,-3.01 1.065,-4.23c0.71,-1.22 1.705,-2.165 2.985,-2.835c1.28,-0.67 2.76,-1.005 4.44,-1.005c1.12,0 2.22,0.165 3.3,0.495c1.08,0.33 1.94,0.775 2.58,1.335l-1.38,3.75c-0.54,-0.44 -1.17,-0.79 -1.89,-1.05c-0.72,-0.26 -1.41,-0.39 -2.07,-0.39c-1.12,0 -1.98,0.32 -2.58,0.96c-0.6,0.64 -0.9,1.59 -0.9,2.85c0,1.28 0.3,2.245 0.9,2.895c0.6,0.65 1.47,0.975 2.61,0.975c0.66,0 1.345,-0.13 2.055,-0.39c0.71,-0.26 1.335,-0.61 1.875,-1.05l1.38,3.69c-0.66,0.58 -1.535,1.03 -2.625,1.35c-1.09,0.32 -2.255,0.48 -3.495,0.48c-2.58,0 -4.6,-0.7 -6.06,-2.1Z" style="fill:#414141;fill-rule:nonzero;"/><path d="M98.295,100.396c-1.26,-0.64 -2.23,-1.56 -2.91,-2.76c-0.68,-1.2 -1.02,-2.61 -1.02,-4.23c0,-1.62 0.34,-3.03 1.02,-4.23c0.68,-1.2 1.65,-2.12 2.91,-2.76c1.26,-0.64 2.74,-0.96 4.44,-0.96c1.68,0 3.145,0.325 4.395,0.975c1.25,0.65 2.215,1.57 2.895,2.76c0.68,1.19 1.02,2.595 1.02,4.215c0,1.62 -0.34,3.025 -1.02,4.215c-0.68,1.19 -1.645,2.11 -2.895,2.76c-1.25,0.65 -2.715,0.975 -4.395,0.975c-1.7,0 -3.18,-0.32 -4.44,-0.96Zm7.38,-6.99c0,-1.32 -0.245,-2.295 -0.735,-2.925c-0.49,-0.63 -1.225,-0.945 -2.205,-0.945c-1,0 -1.75,0.315 -2.25,0.945c-0.5,0.63 -0.75,1.605 -0.75,2.925c0,1.34 0.25,2.325 0.75,2.955c0.5,0.63 1.25,0.945 2.25,0.945c1.96,0 2.94,-1.3 2.94,-3.9Z" style="fill:#414141;fill-rule:nonzero;"/><path d="M136.92,87.076c0.85,1.08 1.275,2.73 1.275,4.95l0,9.09l-5.43,0l0,-8.94c0,-0.9 -0.135,-1.55 -0.405,-1.95c-0.27,-0.4 -0.725,-0.6 -1.365,-0.6c-0.76,0 -1.35,0.28 -1.77,0.84c-0.42,0.56 -0.63,1.35 -0.63,2.37l0,8.28l-5.43,0l0,-8.94c0,-0.9 -0.14,-1.55 -0.42,-1.95c-0.28,-0.4 -0.73,-0.6 -1.35,-0.6c-0.76,0 -1.345,0.28 -1.755,0.84c-0.41,0.56 -0.615,1.35 -0.615,2.37l0,8.28l-5.43,0l0,-10.86c0,-1.64 -0.08,-3.1 -0.24,-4.38l5.1,0l0.27,2.13c0.46,-0.82 1.105,-1.45 1.935,-1.89c0.83,-0.44 1.785,-0.66 2.865,-0.66c2.18,0 3.66,0.92 4.44,2.76c0.54,-0.84 1.255,-1.51 2.145,-2.01c0.89,-0.5 1.855,-0.75 2.895,-0.75c1.76,0 3.065,0.54 3.915,1.62Z" style="fill:#414141;fill-rule:nonzero;"/><path d="M164.67,87.076c0.85,1.08 1.275,2.73 1.275,4.95l0,9.09l-5.43,0l0,-8.94c0,-0.9 -0.135,-1.55 -0.405,-1.95c-0.27,-0.4 -0.725,-0.6 -1.365,-0.6c-0.76,0 -1.35,0.28 -1.77,0.84c-0.42,0.56 -0.63,1.35 -0.63,2.37l0,8.28l-5.43,0l0,-8.94c0,-0.9 -0.14,-1.55 -0.42,-1.95c-0.28,-0.4 -0.73,-0.6 -1.35,-0.6c-0.76,0 -1.345,0.28 -1.755,0.84c-0.41,0.56 -0.615,1.35 -0.615,2.37l0,8.28l-5.43,0l0,-10.86c0,-1.64 -0.08,-3.1 -0.24,-4.38l5.1,0l0.27,2.13c0.46,-0.82 1.105,-1.45 1.935,-1.89c0.83,-0.44 1.785,-0.66 2.865,-0.66c2.18,0 3.66,0.92 4.44,2.76c0.54,-0.84 1.255,-1.51 2.145,-2.01c0.89,-0.5 1.855,-0.75 2.895,-0.75c1.76,0 3.065,0.54 3.915,1.62Z" style="fill:#414141;fill-rule:nonzero;"/><path d="M184.425,85.876l0,15.24l-5.31,0l0,-2.04c-0.98,1.52 -2.43,2.28 -4.35,2.28c-1.94,0 -3.385,-0.54 -4.335,-1.62c-0.95,-1.08 -1.425,-2.73 -1.425,-4.95l0,-8.91l5.43,0l0,9.06c0,1.5 0.65,2.25 1.95,2.25c0.76,0 1.375,-0.27 1.845,-0.81c0.47,-0.54 0.705,-1.26 0.705,-2.16l0,-8.34l5.49,0Z" style="fill:#414141;fill-rule:nonzero;"/><path d="M201.9,87.091c0.89,1.09 1.335,2.735 1.335,4.935l0,9.09l-5.43,0l0,-8.85c0,-0.94 -0.16,-1.615 -0.48,-2.025c-0.32,-0.41 -0.82,-0.615 -1.5,-0.615c-0.82,0 -1.48,0.275 -1.98,0.825c-0.5,0.55 -0.75,1.275 -0.75,2.175l0,8.49l-5.43,0l0,-10.86c0,-1.64 -0.08,-3.1 -0.24,-4.38l5.1,0l0.27,2.25c0.58,-0.86 1.3,-1.52 2.16,-1.98c0.86,-0.46 1.83,-0.69 2.91,-0.69c1.8,0 3.145,0.545 4.035,1.635Z" style="fill:#414141;fill-rule:nonzero;"/><path d="M206.385,101.116l0,-15.24l5.43,0l0,15.24l-5.43,0Zm-0.15,-22.71l5.67,0l0,4.89l-5.67,0l0,-4.89Z" style="fill:#414141;fill-rule:nonzero;"/><path d="M225.495,96.796l0,4.11c-0.74,0.3 -1.68,0.45 -2.82,0.45c-2.06,0 -3.625,-0.58 -4.695,-1.74c-1.07,-1.16 -1.605,-2.77 -1.605,-4.83l0,-4.92l-2.85,0l0,-3.99l2.85,0l0,-3.45l5.43,-1.74l0,5.19l3.66,0l0,3.99l-3.66,0l0,4.92c0,0.72 0.215,1.265 0.645,1.635c0.43,0.37 0.965,0.555 1.605,0.555c0.36,0 0.84,-0.06 1.44,-0.18Z" style="fill:#414141;fill-rule:nonzero;"/><path d="M243.615,85.876l-6.99,15.78c-0.92,2.06 -2.075,3.565 -3.465,4.515c-1.39,0.95 -3.105,1.545 -5.145,1.785l-1.26,-4.14c1.4,-0.28 2.45,-0.64 3.15,-1.08c0.7,-0.44 1.23,-1.05 1.59,-1.83l0.39,-0.84l-6.21,-14.19l5.64,0l3.42,8.79l3.54,-8.79l5.34,0Z" style="fill:#414141;fill-rule:nonzero;"/><g><g id="Woman"><path d="M8.88,32.583c0,-5.849 2.324,-11.46 6.46,-15.596c4.137,-4.136 9.747,-6.46 15.596,-6.46c0.001,0 0.002,0 0.002,0c5.85,0 11.46,2.324 15.596,6.46c4.137,4.136 6.46,9.747 6.46,15.596c0,6.737 0,13.484 0,17.745c0,1.185 -0.471,2.322 -1.309,3.16c-0.838,0.839 -1.975,1.31 -3.161,1.31c-8.458,0 -26.715,0 -35.174,0c-1.185,0 -2.322,-0.471 -3.161,-1.31c-0.838,-0.838 -1.309,-1.975 -1.309,-3.16c0,-4.261 0,-11.008 0,-17.745Z" style="fill:#ebebeb;stroke:#00a1f4;stroke-width:2.18px;"/><circle cx="45.813" cy="32.028" r="3.154" style="fill:#ebebeb;stroke:#00a1f4;stroke-width:2.18px;"/><circle cx="15.958" cy="32.028" r="3.154" style="fill:#ebebeb;stroke:#00a1f4;stroke-width:2.18px;"/><path d="M46.039,25.899c-1.996,-1.221 -4.377,-3.314 -6.504,-3.099c-3.986,0.402 -9.76,5.725 -14.314,6.04c-2.769,0.192 -6.649,0.063 -9.468,-0.947l0,5.077c0,3.674 1.57,7.197 4.365,9.795c1.253,1.164 2.705,2.1 4.282,2.778c0,0 -0.317,0.184 -0.846,0.491c-6.652,3.857 -10.747,10.965 -10.747,18.654c0,4.581 0,8.675 0,8.675l36.978,0c0,0 0,-3.85 0,-8.256c0,-7.879 -4.296,-15.13 -11.206,-18.914c-0.734,-0.402 -1.187,-0.65 -1.187,-0.65c1.577,-0.678 3.03,-1.614 4.282,-2.778c2.795,-2.598 4.365,-6.121 4.365,-9.795l0,-7.071Z" style="fill:#ebebeb;stroke:#00a1f4;stroke-width:2.18px;"/><path d="M23.782,38.611c0,1.983 3.219,3.593 7.185,3.593c3.966,0 7.185,-1.61 7.185,-3.593" style="fill:#ebebeb;stroke:#00a1f4;stroke-width:2.18px;"/><path d="M37.026,45.683c0,0 0,3.25 0,6.369c0,3.117 -2.527,5.644 -5.644,5.644c-0.242,0 -0.484,0 -0.725,0c-3.117,0 -5.644,-2.527 -5.644,-5.644c0,-3.119 0,-6.369 0,-6.369" style="fill:#ebebeb;stroke:#00a1f4;stroke-width:2.18px;"/></g><g id="Man"><circle cx="98.574" cy="28.186" r="3.154" style="fill:#ebebeb;stroke:#00a1f4;stroke-width:2.18px;"/><circle cx="68.719" cy="28.186" r="3.154" style="fill:#ebebeb;stroke:#00a1f4;stroke-width:2.18px;"/><path d="M105.12,50.732l-14.944,-7.303c1.578,-0.729 3.03,-1.736 4.283,-2.988c2.795,-2.795 4.365,-6.586 4.365,-10.539c0,-7.65 0,-21.192 0,-21.192c0,0 -5.355,5.81 -23.779,5.81c-3.594,0 -6.507,2.913 -6.507,6.507c0,2.618 0,5.753 0,8.875c0,3.953 1.57,7.744 4.365,10.539c1.252,1.252 2.705,2.259 4.282,2.988l-14.802,7.234l0,22.7l42.737,0l0,-22.631Z" style="fill:#ebebeb;stroke:#00a1f4;stroke-width:2.18px;"/><path d="M76.566,34.769c0,1.983 3.22,3.593 7.186,3.593c3.965,0 7.185,-1.61 7.185,-3.593" style="fill:#ebebeb;stroke:#00a1f4;stroke-width:2.18px;"/><path d="M85.225,50.498c1,-0.57 1.675,-1.646 1.675,-2.878c0,-1.828 -1.484,-3.312 -3.311,-3.312c-1.828,0 -3.311,1.484 -3.311,3.312c0,1.288 0.737,2.406 1.813,2.953l-1.511,18.567l-0.008,0l0.007,0.015l-0.007,0.077l0.039,0l1.693,4.028l2.714,0l1.693,-4.028l0.039,0l-0.007,-0.077l0.007,-0.015l-0.008,0l-1.517,-18.642Z" style="fill:#ebebeb;stroke:#00a1f4;stroke-width:2.18px;"/></g></g><g><g id="Woman1" serif:id="Woman"><path d="M112.38,32.583c0,-5.849 2.324,-11.46 6.46,-15.596c4.137,-4.136 9.747,-6.46 15.596,-6.46c0.001,0 0.002,0 0.002,0c5.85,0 11.46,2.324 15.596,6.46c4.137,4.136 6.46,9.747 6.46,15.596c0,6.737 0,13.484 0,17.745c0,1.185 -0.471,2.322 -1.309,3.16c-0.838,0.839 -1.975,1.31 -3.161,1.31c-8.458,0 -26.715,0 -35.174,0c-1.185,0 -2.322,-0.471 -3.161,-1.31c-0.838,-0.838 -1.309,-1.975 -1.309,-3.16c0,-4.261 0,-11.008 0,-17.745Z" style="fill:#ebebeb;stroke:#00a1f4;stroke-width:2.18px;"/><circle cx="149.313" cy="32.028" r="3.154" style="fill:#ebebeb;stroke:#00a1f4;stroke-width:2.18px;"/><circle cx="119.458" cy="32.028" r="3.154" style="fill:#ebebeb;stroke:#00a1f4;stroke-width:2.18px;"/><path d="M149.539,25.899c-1.996,-1.221 -4.377,-3.314 -6.504,-3.099c-3.986,0.402 -9.76,5.725 -14.314,6.04c-2.769,0.192 -6.649,0.063 -9.468,-0.947l0,5.077c0,3.674 1.57,7.197 4.365,9.795c1.253,1.164 2.705,2.1 4.282,2.778c0,0 -0.317,0.184 -0.846,0.491c-6.652,3.857 -10.747,10.965 -10.747,18.654c0,4.581 0,8.675 0,8.675l36.978,0c0,0 0,-3.85 0,-8.256c0,-7.879 -4.296,-15.13 -11.206,-18.914c-0.734,-0.402 -1.187,-0.65 -1.187,-0.65c1.577,-0.678 3.03,-1.614 4.282,-2.778c2.795,-2.598 4.365,-6.121 4.365,-9.795l0,-7.071Z" style="fill:#ebebeb;stroke:#00a1f4;stroke-width:2.18px;"/><path d="M127.282,38.611c0,1.983 3.219,3.593 7.185,3.593c3.966,0 7.185,-1.61 7.185,-3.593" style="fill:#ebebeb;stroke:#00a1f4;stroke-width:2.18px;"/><path d="M140.526,45.683c0,0 0,3.25 0,6.369c0,3.117 -2.527,5.644 -5.644,5.644c-0.242,0 -0.484,0 -0.725,0c-3.117,0 -5.644,-2.527 -5.644,-5.644c0,-3.119 0,-6.369 0,-6.369" style="fill:#ebebeb;stroke:#00a1f4;stroke-width:2.18px;"/></g><g id="Man1" serif:id="Man"><circle cx="202.074" cy="28.186" r="3.154" style="fill:#ebebeb;stroke:#00a1f4;stroke-width:2.18px;"/><circle cx="172.219" cy="28.186" r="3.154" style="fill:#ebebeb;stroke:#00a1f4;stroke-width:2.18px;"/><path d="M208.62,50.732l-14.944,-7.303c1.578,-0.729 3.03,-1.736 4.283,-2.988c2.795,-2.795 4.365,-6.586 4.365,-10.539c0,-7.65 0,-21.192 0,-21.192c0,0 -5.355,5.81 -23.779,5.81c-3.594,0 -6.507,2.913 -6.507,6.507c0,2.618 0,5.753 0,8.875c0,3.953 1.57,7.744 4.365,10.539c1.252,1.252 2.705,2.259 4.282,2.988l-14.802,7.234l0,22.7l42.737,0l0,-22.631Z" style="fill:#ebebeb;stroke:#00a1f4;stroke-width:2.18px;"/><path d="M180.066,34.769c0,1.983 3.22,3.593 7.186,3.593c3.965,0 7.185,-1.61 7.185,-3.593" style="fill:#ebebeb;stroke:#00a1f4;stroke-width:2.18px;"/><path d="M188.725,50.498c1,-0.57 1.675,-1.646 1.675,-2.878c0,-1.828 -1.484,-3.312 -3.311,-3.312c-1.828,0 -3.311,1.484 -3.311,3.312c0,1.288 0.737,2.406 1.813,2.953l-1.511,18.567l-0.008,0l0.007,0.015l-0.007,0.077l0.039,0l1.693,4.028l2.714,0l1.693,-4.028l0.039,0l-0.007,-0.077l0.007,-0.015l-0.008,0l-1.517,-18.642Z" style="fill:#ebebeb;stroke:#00a1f4;stroke-width:2.18px;"/></g></g><g><g id="Woman2" serif:id="Woman"><path d="M218.88,32.583c0,-5.849 2.324,-11.46 6.46,-15.596c4.137,-4.136 9.747,-6.46 15.596,-6.46c0.001,0 0.002,0 0.002,0c5.85,0 11.46,2.324 15.596,6.46c4.137,4.136 6.46,9.747 6.46,15.596c0,6.737 0,13.484 0,17.745c0,1.185 -0.471,2.322 -1.309,3.16c-0.838,0.839 -1.975,1.31 -3.161,1.31c-8.458,0 -26.715,0 -35.174,0c-1.185,0 -2.322,-0.471 -3.161,-1.31c-0.838,-0.838 -1.309,-1.975 -1.309,-3.16c0,-4.261 0,-11.008 0,-17.745Z" style="fill:#ebebeb;stroke:#00a1f4;stroke-width:2.18px;"/><circle cx="255.813" cy="32.028" r="3.154" style="fill:#ebebeb;stroke:#00a1f4;stroke-width:2.18px;"/><circle cx="225.958" cy="32.028" r="3.154" style="fill:#ebebeb;stroke:#00a1f4;stroke-width:2.18px;"/><path d="M256.039,25.899c-1.996,-1.221 -4.377,-3.314 -6.504,-3.099c-3.986,0.402 -9.76,5.725 -14.314,6.04c-2.769,0.192 -6.649,0.063 -9.468,-0.947l0,5.077c0,3.674 1.57,7.197 4.365,9.795c1.253,1.164 2.705,2.1 4.282,2.778c0,0 -0.317,0.184 -0.846,0.491c-6.652,3.857 -10.747,10.965 -10.747,18.654c0,4.581 0,8.675 0,8.675l36.978,0c0,0 0,-3.85 0,-8.256c0,-7.879 -4.296,-15.13 -11.206,-18.914c-0.734,-0.402 -1.187,-0.65 -1.187,-0.65c1.577,-0.678 3.03,-1.614 4.282,-2.778c2.795,-2.598 4.365,-6.121 4.365,-9.795l0,-7.071Z" style="fill:#ebebeb;stroke:#00a1f4;stroke-width:2.18px;"/><path d="M233.782,38.611c0,1.983 3.219,3.593 7.185,3.593c3.966,0 7.185,-1.61 7.185,-3.593" style="fill:#ebebeb;stroke:#00a1f4;stroke-width:2.18px;"/><path d="M247.026,45.683c0,0 0,3.25 0,6.369c0,3.117 -2.527,5.644 -5.644,5.644c-0.242,0 -0.484,0 -0.725,0c-3.117,0 -5.644,-2.527 -5.644,-5.644c0,-3.119 0,-6.369 0,-6.369" style="fill:#ebebeb;stroke:#00a1f4;stroke-width:2.18px;"/></g><g id="Man2" serif:id="Man"><circle cx="308.574" cy="28.186" r="3.154" style="fill:#ebebeb;stroke:#00a1f4;stroke-width:2.18px;"/><circle cx="278.719" cy="28.186" r="3.154" style="fill:#ebebeb;stroke:#00a1f4;stroke-width:2.18px;"/><path d="M315.12,50.732l-14.944,-7.303c1.578,-0.729 3.03,-1.736 4.283,-2.988c2.795,-2.795 4.365,-6.586 4.365,-10.539c0,-7.65 0,-21.192 0,-21.192c0,0 -5.355,5.81 -23.779,5.81c-3.594,0 -6.507,2.913 -6.507,6.507c0,2.618 0,5.753 0,8.875c0,3.953 1.57,7.744 4.365,10.539c1.252,1.252 2.705,2.259 4.282,2.988l-14.802,7.234l0,22.7l42.737,0l0,-22.631Z" style="fill:#ebebeb;stroke:#00a1f4;stroke-width:2.18px;"/><path d="M286.566,34.769c0,1.983 3.22,3.593 7.186,3.593c3.965,0 7.185,-1.61 7.185,-3.593" style="fill:#ebebeb;stroke:#00a1f4;stroke-width:2.18px;"/><path d="M295.225,50.498c1,-0.57 1.675,-1.646 1.675,-2.878c0,-1.828 -1.484,-3.312 -3.311,-3.312c-1.828,0 -3.311,1.484 -3.311,3.312c0,1.288 0.737,2.406 1.813,2.953l-1.511,18.567l-0.008,0l0.007,0.015l-0.007,0.077l0.039,0l1.693,4.028l2.714,0l1.693,-4.028l0.039,0l-0.007,-0.077l0.007,-0.015l-0.008,0l-1.517,-18.642Z" style="fill:#ebebeb;stroke:#00a1f4;stroke-width:2.18px;"/></g></g></g></svg>