<?xml version="1.0" encoding="UTF-8" standalone="no"?><!DOCTYPE svg PUBLIC "-//W3C//DTD SVG 1.1//EN" "http://www.w3.org/Graphics/SVG/1.1/DTD/svg11.dtd"><svg width="100%" height="100%" viewBox="0 0 321 116" version="1.1" xmlns="http://www.w3.org/2000/svg" xmlns:xlink="http://www.w3.org/1999/xlink" xml:space="preserve" xmlns:serif="http://www.serif.com/" style="fill-rule:evenodd;clip-rule:evenodd;stroke-linecap:round;stroke-linejoin:round;stroke-miterlimit:1.5;"><rect id="community" x="0" y="0" width="321" height="116" style="fill:none;"/><clipPath id="_clip1"><rect x="0" y="0" width="321" height="116"/></clipPath><g clip-path="url(#_clip1)"><rect x="0" y="0" width="321" height="116" style="fill:#ebebeb;"/><rect x="-21.221" y="108.309" width="387.574" height="13.191" style="fill:#1ed2f4;"/><path d="M90.735,86.35c1.14,0.86 1.85,1.98 2.13,3.36l-4.74,1.56c-0.2,-1.72 -0.97,-2.58 -2.31,-2.58c-1.98,0 -2.97,1.41 -2.97,4.23c0,2.74 0.99,4.11 2.97,4.11c1.42,0 2.25,-0.81 2.49,-2.43l4.59,1.47c-0.22,1.36 -0.945,2.465 -2.175,3.315c-1.23,0.85 -2.855,1.275 -4.875,1.275c-2.6,0 -4.6,-0.68 -6,-2.04c-1.4,-1.36 -2.1,-3.28 -2.1,-5.76c0,-2.46 0.695,-4.375 2.085,-5.745c1.39,-1.37 3.325,-2.055 5.805,-2.055c2.26,0 3.96,0.43 5.1,1.29Z" style="fill:#414141;fill-rule:nonzero;"/><path d="M108.63,87.115c1.39,1.37 2.085,3.285 2.085,5.745c0,2.46 -0.695,4.375 -2.085,5.745c-1.39,1.37 -3.335,2.055 -5.835,2.055c-2.5,0 -4.445,-0.685 -5.835,-2.055c-1.39,-1.37 -2.085,-3.285 -2.085,-5.745c0,-2.46 0.695,-4.375 2.085,-5.745c1.39,-1.37 3.335,-2.055 5.835,-2.055c2.5,0 4.445,0.685 5.835,2.055Zm-7.965,2.565c-0.46,0.66 -0.69,1.72 -0.69,3.18c0,1.46 0.23,2.52 0.69,3.18c0.46,0.66 1.17,0.99 2.13,0.99c0.96,0 1.67,-0.33 2.13,-0.99c0.46,-0.66 0.69,-1.72 0.69,-3.18c0,-1.46 -0.23,-2.52 -0.69,-3.18c-0.46,-0.66 -1.17,-0.99 -2.13,-0.99c-0.96,0 -1.67,0.33 -2.13,0.99Z" style="fill:#414141;fill-rule:nonzero;"/><path d="M136.89,86.44c0.95,0.92 1.425,2.23 1.425,3.93l0,9.99l-5.1,0l0,-8.82c0,-1.72 -0.68,-2.58 -2.04,-2.58c-0.8,0 -1.44,0.29 -1.92,0.87c-0.48,0.58 -0.72,1.42 -0.72,2.52l0,8.01l-5.1,0l0,-8.82c0,-1.72 -0.68,-2.58 -2.04,-2.58c-0.76,0 -1.39,0.29 -1.89,0.87c-0.5,0.58 -0.75,1.45 -0.75,2.61l0,7.92l-5.1,0l0,-15l4.56,0l0.15,2.88c0.48,-1.04 1.15,-1.83 2.01,-2.37c0.86,-0.54 1.87,-0.81 3.03,-0.81c1.14,0 2.125,0.26 2.955,0.78c0.83,0.52 1.425,1.27 1.785,2.25c0.48,-0.98 1.165,-1.73 2.055,-2.25c0.89,-0.52 1.885,-0.78 2.985,-0.78c1.52,0 2.755,0.46 3.705,1.38Z" style="fill:#414141;fill-rule:nonzero;"/><path d="M165.12,86.44c0.95,0.92 1.425,2.23 1.425,3.93l0,9.99l-5.1,0l0,-8.82c0,-1.72 -0.68,-2.58 -2.04,-2.58c-0.8,0 -1.44,0.29 -1.92,0.87c-0.48,0.58 -0.72,1.42 -0.72,2.52l0,8.01l-5.1,0l0,-8.82c0,-1.72 -0.68,-2.58 -2.04,-2.58c-0.76,0 -1.39,0.29 -1.89,0.87c-0.5,0.58 -0.75,1.45 -0.75,2.61l0,7.92l-5.1,0l0,-15l4.56,0l0.15,2.88c0.48,-1.04 1.15,-1.83 2.01,-2.37c0.86,-0.54 1.87,-0.81 3.03,-0.81c1.14,0 2.125,0.26 2.955,0.78c0.83,0.52 1.425,1.27 1.785,2.25c0.48,-0.98 1.165,-1.73 2.055,-2.25c0.89,-0.52 1.885,-0.78 2.985,-0.78c1.52,0 2.755,0.46 3.705,1.38Z" style="fill:#414141;fill-rule:nonzero;"/><path d="M185.055,85.36l0,15l-4.56,0l-0.15,-2.79c-0.94,2.06 -2.67,3.09 -5.19,3.09c-1.6,0 -2.855,-0.425 -3.765,-1.275c-0.91,-0.85 -1.365,-2.185 -1.365,-4.005l0,-10.02l5.1,0l0,8.73c0,0.98 0.17,1.67 0.51,2.07c0.34,0.4 0.86,0.6 1.56,0.6c0.84,0 1.51,-0.285 2.01,-0.855c0.5,-0.57 0.75,-1.435 0.75,-2.595l0,-7.95l5.1,0Z" style="fill:#414141;fill-rule:nonzero;"/><path d="M202.335,86.44c0.94,0.92 1.41,2.23 1.41,3.93l0,9.99l-5.1,0l0,-8.58c0,-1.02 -0.185,-1.745 -0.555,-2.175c-0.37,-0.43 -0.895,-0.645 -1.575,-0.645c-0.8,0 -1.45,0.285 -1.95,0.855c-0.5,0.57 -0.75,1.445 -0.75,2.625l0,7.92l-5.1,0l0,-15l4.56,0l0.15,2.88c0.48,-1.06 1.16,-1.855 2.04,-2.385c0.88,-0.53 1.91,-0.795 3.09,-0.795c1.58,0 2.84,0.46 3.78,1.38Z" style="fill:#414141;fill-rule:nonzero;"/><path d="M207.6,83.035c-0.47,-0.39 -0.705,-1.005 -0.705,-1.845c0,-0.86 0.235,-1.485 0.705,-1.875c0.47,-0.39 1.225,-0.585 2.265,-0.585c1.04,0 1.795,0.195 2.265,0.585c0.47,0.39 0.705,1.015 0.705,1.875c0,0.84 -0.235,1.455 -0.705,1.845c-0.47,0.39 -1.225,0.585 -2.265,0.585c-1.04,0 -1.795,-0.195 -2.265,-0.585Zm4.815,17.325l-5.1,0l0,-15l5.1,0l0,15Z" style="fill:#414141;fill-rule:nonzero;"/><path d="M226.935,99.52c-0.5,0.34 -1.135,0.615 -1.905,0.825c-0.77,0.21 -1.545,0.315 -2.325,0.315c-1.78,0 -3.14,-0.38 -4.08,-1.14c-0.94,-0.76 -1.42,-1.98 -1.44,-3.66l0,-6.87l-2.58,0l0,-3.63l2.58,0l0,-3.36l5.1,-1.41l0,4.77l4.5,0l0,3.63l-4.5,0l0,6.03c0,1.34 0.66,2.01 1.98,2.01c0.82,0 1.54,-0.22 2.16,-0.66l0.51,3.15Z" style="fill:#414141;fill-rule:nonzero;"/><path d="M238.875,100.36c-0.56,1.6 -1.17,2.87 -1.83,3.81c-0.66,0.94 -1.44,1.615 -2.34,2.025c-0.9,0.41 -1.99,0.615 -3.27,0.615c-1.7,0 -3.06,-0.37 -4.08,-1.11l1.08,-3.42c0.32,0.3 0.675,0.505 1.065,0.615c0.39,0.11 0.895,0.165 1.515,0.165c0.62,0 1.11,-0.105 1.47,-0.315c0.36,-0.21 0.65,-0.585 0.87,-1.125l0.36,-0.93l-1.74,-4.08l-4.47,-11.25l5.61,0l2.31,8.55l0.72,3.18l0.81,-3.3l2.31,-8.43l5.1,0l-5.49,15Z" style="fill:#414141;fill-rule:nonzero;"/><g><g id="Woman"><path d="M8.88,32.547c0,-5.85 2.324,-11.46 6.46,-15.596c4.137,-4.137 9.747,-6.46 15.596,-6.46c0.001,0 0.002,0 0.002,0c5.85,0 11.46,2.323 15.596,6.46c4.137,4.136 6.46,9.746 6.46,15.596c0,6.737 0,13.484 0,17.744c0,1.186 -0.471,2.323 -1.309,3.161c-0.838,0.838 -1.975,1.309 -3.161,1.309c-8.458,0 -26.715,0 -35.174,0c-1.185,0 -2.322,-0.471 -3.161,-1.309c-0.838,-0.838 -1.309,-1.975 -1.309,-3.161c0,-4.26 0,-11.007 0,-17.744Z" style="fill:#ebebeb;stroke:#00a1f4;stroke-width:2.18px;"/><circle cx="45.813" cy="31.992" r="3.154" style="fill:#ebebeb;stroke:#00a1f4;stroke-width:2.18px;"/><circle cx="15.958" cy="31.992" r="3.154" style="fill:#ebebeb;stroke:#00a1f4;stroke-width:2.18px;"/><path d="M46.039,25.863c-1.996,-1.221 -4.377,-3.315 -6.504,-3.1c-3.986,0.403 -9.76,5.726 -14.314,6.041c-2.769,0.192 -6.649,0.062 -9.468,-0.947l0,5.077c0,3.674 1.57,7.197 4.365,9.795c1.253,1.164 2.705,2.099 4.282,2.777c0,0 -0.317,0.184 -0.846,0.491c-6.652,3.858 -10.747,10.965 -10.747,18.655c0,4.581 0,8.675 0,8.675l36.978,0c0,0 0,-3.851 0,-8.257c0,-7.878 -4.296,-15.13 -11.206,-18.914c-0.734,-0.401 -1.187,-0.65 -1.187,-0.65c1.577,-0.678 3.03,-1.613 4.282,-2.777c2.795,-2.598 4.365,-6.121 4.365,-9.795l0,-7.071Z" style="fill:#ebebeb;stroke:#00a1f4;stroke-width:2.18px;"/><path d="M23.782,38.575c0,1.983 3.219,3.593 7.185,3.593c3.966,0 7.185,-1.61 7.185,-3.593" style="fill:#ebebeb;stroke:#00a1f4;stroke-width:2.18px;"/><path d="M37.026,45.646c0,0 0,3.25 0,6.369c0,3.118 -2.527,5.645 -5.644,5.645c-0.242,0 -0.484,0 -0.725,0c-3.117,0 -5.644,-2.527 -5.644,-5.645c0,-3.119 0,-6.369 0,-6.369" style="fill:#ebebeb;stroke:#00a1f4;stroke-width:2.18px;"/></g><g id="Man"><circle cx="98.574" cy="28.15" r="3.154" style="fill:#ebebeb;stroke:#00a1f4;stroke-width:2.18px;"/><circle cx="68.719" cy="28.15" r="3.154" style="fill:#ebebeb;stroke:#00a1f4;stroke-width:2.18px;"/><path d="M105.12,50.696l-14.944,-7.303c1.578,-0.729 3.03,-1.736 4.283,-2.988c2.795,-2.796 4.365,-6.587 4.365,-10.539c0,-7.651 0,-21.193 0,-21.193c0,0 -5.355,5.81 -23.779,5.81c-3.594,0 -6.507,2.914 -6.507,6.507c0,2.618 0,5.754 0,8.876c0,3.952 1.57,7.743 4.365,10.539c1.252,1.252 2.705,2.259 4.282,2.988l-14.802,7.233l0,22.701l42.737,0l0,-22.631Z" style="fill:#ebebeb;stroke:#00a1f4;stroke-width:2.18px;"/><path d="M76.566,34.733c0,1.983 3.22,3.593 7.186,3.593c3.965,0 7.185,-1.61 7.185,-3.593" style="fill:#ebebeb;stroke:#00a1f4;stroke-width:2.18px;"/><path d="M85.225,50.462c1,-0.57 1.675,-1.646 1.675,-2.879c0,-1.827 -1.484,-3.311 -3.311,-3.311c-1.828,0 -3.311,1.484 -3.311,3.311c0,1.289 0.737,2.406 1.813,2.953l-1.511,18.568l-0.008,0l0.007,0.015l-0.007,0.077l0.039,0l1.693,4.028l2.714,0l1.693,-4.028l0.039,0l-0.007,-0.077l0.007,-0.015l-0.008,0l-1.517,-18.642Z" style="fill:#ebebeb;stroke:#00a1f4;stroke-width:2.18px;"/></g></g><g><g id="Woman1" serif:id="Woman"><path d="M112.38,32.547c0,-5.85 2.324,-11.46 6.46,-15.596c4.137,-4.137 9.747,-6.46 15.596,-6.46c0.001,0 0.002,0 0.002,0c5.85,0 11.46,2.323 15.596,6.46c4.137,4.136 6.46,9.746 6.46,15.596c0,6.737 0,13.484 0,17.744c0,1.186 -0.471,2.323 -1.309,3.161c-0.838,0.838 -1.975,1.309 -3.161,1.309c-8.458,0 -26.715,0 -35.174,0c-1.185,0 -2.322,-0.471 -3.161,-1.309c-0.838,-0.838 -1.309,-1.975 -1.309,-3.161c0,-4.26 0,-11.007 0,-17.744Z" style="fill:#ebebeb;stroke:#00a1f4;stroke-width:2.18px;"/><circle cx="149.313" cy="31.992" r="3.154" style="fill:#ebebeb;stroke:#00a1f4;stroke-width:2.18px;"/><circle cx="119.458" cy="31.992" r="3.154" style="fill:#ebebeb;stroke:#00a1f4;stroke-width:2.18px;"/><path d="M149.539,25.863c-1.996,-1.221 -4.377,-3.315 -6.504,-3.1c-3.986,0.403 -9.76,5.726 -14.314,6.041c-2.769,0.192 -6.649,0.062 -9.468,-0.947l0,5.077c0,3.674 1.57,7.197 4.365,9.795c1.253,1.164 2.705,2.099 4.282,2.777c0,0 -0.317,0.184 -0.846,0.491c-6.652,3.858 -10.747,10.965 -10.747,18.655c0,4.581 0,8.675 0,8.675l36.978,0c0,0 0,-3.851 0,-8.257c0,-7.878 -4.296,-15.13 -11.206,-18.914c-0.734,-0.401 -1.187,-0.65 -1.187,-0.65c1.577,-0.678 3.03,-1.613 4.282,-2.777c2.795,-2.598 4.365,-6.121 4.365,-9.795l0,-7.071Z" style="fill:#ebebeb;stroke:#00a1f4;stroke-width:2.18px;"/><path d="M127.282,38.575c0,1.983 3.219,3.593 7.185,3.593c3.966,0 7.185,-1.61 7.185,-3.593" style="fill:#ebebeb;stroke:#00a1f4;stroke-width:2.18px;"/><path d="M140.526,45.646c0,0 0,3.25 0,6.369c0,3.118 -2.527,5.645 -5.644,5.645c-0.242,0 -0.484,0 -0.725,0c-3.117,0 -5.644,-2.527 -5.644,-5.645c0,-3.119 0,-6.369 0,-6.369" style="fill:#ebebeb;stroke:#00a1f4;stroke-width:2.18px;"/></g><g id="Man1" serif:id="Man"><circle cx="202.074" cy="28.15" r="3.154" style="fill:#ebebeb;stroke:#00a1f4;stroke-width:2.18px;"/><circle cx="172.219" cy="28.15" r="3.154" style="fill:#ebebeb;stroke:#00a1f4;stroke-width:2.18px;"/><path d="M208.62,50.696l-14.944,-7.303c1.578,-0.729 3.03,-1.736 4.283,-2.988c2.795,-2.796 4.365,-6.587 4.365,-10.539c0,-7.651 0,-21.193 0,-21.193c0,0 -5.355,5.81 -23.779,5.81c-3.594,0 -6.507,2.914 -6.507,6.507c0,2.618 0,5.754 0,8.876c0,3.952 1.57,7.743 4.365,10.539c1.252,1.252 2.705,2.259 4.282,2.988l-14.802,7.233l0,22.701l42.737,0l0,-22.631Z" style="fill:#ebebeb;stroke:#00a1f4;stroke-width:2.18px;"/><path d="M180.066,34.733c0,1.983 3.22,3.593 7.186,3.593c3.965,0 7.185,-1.61 7.185,-3.593" style="fill:#ebebeb;stroke:#00a1f4;stroke-width:2.18px;"/><path d="M188.725,50.462c1,-0.57 1.675,-1.646 1.675,-2.879c0,-1.827 -1.484,-3.311 -3.311,-3.311c-1.828,0 -3.311,1.484 -3.311,3.311c0,1.289 0.737,2.406 1.813,2.953l-1.511,18.568l-0.008,0l0.007,0.015l-0.007,0.077l0.039,0l1.693,4.028l2.714,0l1.693,-4.028l0.039,0l-0.007,-0.077l0.007,-0.015l-0.008,0l-1.517,-18.642Z" style="fill:#ebebeb;stroke:#00a1f4;stroke-width:2.18px;"/></g></g><g><g id="Woman2" serif:id="Woman"><path d="M218.88,32.547c0,-5.85 2.324,-11.46 6.46,-15.596c4.137,-4.137 9.747,-6.46 15.596,-6.46c0.001,0 0.002,0 0.002,0c5.85,0 11.46,2.323 15.596,6.46c4.137,4.136 6.46,9.746 6.46,15.596c0,6.737 0,13.484 0,17.744c0,1.186 -0.471,2.323 -1.309,3.161c-0.838,0.838 -1.975,1.309 -3.161,1.309c-8.458,0 -26.715,0 -35.174,0c-1.185,0 -2.322,-0.471 -3.161,-1.309c-0.838,-0.838 -1.309,-1.975 -1.309,-3.161c0,-4.26 0,-11.007 0,-17.744Z" style="fill:#ebebeb;stroke:#00a1f4;stroke-width:2.18px;"/><circle cx="255.813" cy="31.992" r="3.154" style="fill:#ebebeb;stroke:#00a1f4;stroke-width:2.18px;"/><circle cx="225.958" cy="31.992" r="3.154" style="fill:#ebebeb;stroke:#00a1f4;stroke-width:2.18px;"/><path d="M256.039,25.863c-1.996,-1.221 -4.377,-3.315 -6.504,-3.1c-3.986,0.403 -9.76,5.726 -14.314,6.041c-2.769,0.192 -6.649,0.062 -9.468,-0.947l0,5.077c0,3.674 1.57,7.197 4.365,9.795c1.253,1.164 2.705,2.099 4.282,2.777c0,0 -0.317,0.184 -0.846,0.491c-6.652,3.858 -10.747,10.965 -10.747,18.655c0,4.581 0,8.675 0,8.675l36.978,0c0,0 0,-3.851 0,-8.257c0,-7.878 -4.296,-15.13 -11.206,-18.914c-0.734,-0.401 -1.187,-0.65 -1.187,-0.65c1.577,-0.678 3.03,-1.613 4.282,-2.777c2.795,-2.598 4.365,-6.121 4.365,-9.795l0,-7.071Z" style="fill:#ebebeb;stroke:#00a1f4;stroke-width:2.18px;"/><path d="M233.782,38.575c0,1.983 3.219,3.593 7.185,3.593c3.966,0 7.185,-1.61 7.185,-3.593" style="fill:#ebebeb;stroke:#00a1f4;stroke-width:2.18px;"/><path d="M247.026,45.646c0,0 0,3.25 0,6.369c0,3.118 -2.527,5.645 -5.644,5.645c-0.242,0 -0.484,0 -0.725,0c-3.117,0 -5.644,-2.527 -5.644,-5.645c0,-3.119 0,-6.369 0,-6.369" style="fill:#ebebeb;stroke:#00a1f4;stroke-width:2.18px;"/></g><g id="Man2" serif:id="Man"><circle cx="308.574" cy="28.15" r="3.154" style="fill:#ebebeb;stroke:#00a1f4;stroke-width:2.18px;"/><circle cx="278.719" cy="28.15" r="3.154" style="fill:#ebebeb;stroke:#00a1f4;stroke-width:2.18px;"/><path d="M315.12,50.696l-14.944,-7.303c1.578,-0.729 3.03,-1.736 4.283,-2.988c2.795,-2.796 4.365,-6.587 4.365,-10.539c0,-7.651 0,-21.193 0,-21.193c0,0 -5.355,5.81 -23.779,5.81c-3.594,0 -6.507,2.914 -6.507,6.507c0,2.618 0,5.754 0,8.876c0,3.952 1.57,7.743 4.365,10.539c1.252,1.252 2.705,2.259 4.282,2.988l-14.802,7.233l0,22.701l42.737,0l0,-22.631Z" style="fill:#ebebeb;stroke:#00a1f4;stroke-width:2.18px;"/><path d="M286.566,34.733c0,1.983 3.22,3.593 7.186,3.593c3.965,0 7.185,-1.61 7.185,-3.593" style="fill:#ebebeb;stroke:#00a1f4;stroke-width:2.18px;"/><path d="M295.225,50.462c1,-0.57 1.675,-1.646 1.675,-2.879c0,-1.827 -1.484,-3.311 -3.311,-3.311c-1.828,0 -3.311,1.484 -3.311,3.311c0,1.289 0.737,2.406 1.813,2.953l-1.511,18.568l-0.008,0l0.007,0.015l-0.007,0.077l0.039,0l1.693,4.028l2.714,0l1.693,-4.028l0.039,0l-0.007,-0.077l0.007,-0.015l-0.008,0l-1.517,-18.642Z" style="fill:#ebebeb;stroke:#00a1f4;stroke-width:2.18px;"/></g></g></g></svg>