<?xml version="1.0" encoding="UTF-8" standalone="no"?><!DOCTYPE svg PUBLIC "-//W3C//DTD SVG 1.1//EN" "http://www.w3.org/Graphics/SVG/1.1/DTD/svg11.dtd"><svg width="100%" height="100%" viewBox="0 0 321 116" version="1.1" xmlns="http://www.w3.org/2000/svg" xmlns:xlink="http://www.w3.org/1999/xlink" xml:space="preserve" xmlns:serif="http://www.serif.com/" style="fill-rule:evenodd;clip-rule:evenodd;stroke-linecap:round;stroke-linejoin:round;stroke-miterlimit:1.5;"><rect id="format" x="0" y="0" width="321" height="116" style="fill:none;"/><clipPath id="_clip1"><rect x="0" y="0" width="321" height="116"/></clipPath><g clip-path="url(#_clip1)"><rect x="0" y="0" width="321" height="116" style="fill:#ebebeb;"/><g id="Laptop"><path d="M99.472,20.67C99.472,19.389 98.434,18.351 97.153,18.351C86.607,18.351 43.227,18.351 32.68,18.351C31.4,18.351 30.362,19.389 30.362,20.67C30.362,28.161 30.362,51.662 30.362,59.153C30.362,60.434 31.4,61.472 32.68,61.472C43.227,61.472 86.607,61.472 97.153,61.472C98.434,61.472 99.472,60.434 99.472,59.153C99.472,51.662 99.472,28.161 99.472,20.67Z" style="fill:#414141;stroke:#00a1f4;stroke-width:1.57px;"/><rect x="32.539" y="20.817" width="64.756" height="35.113" style="fill:#9df;stroke:#00a1f4;stroke-width:1.57px;"/><path d="M102.936,59.895C102.936,59.209 102.38,58.653 101.694,58.653C92.663,58.653 37.171,58.653 28.139,58.653C27.453,58.653 26.897,59.209 26.897,59.895C26.897,60.538 26.897,61.321 26.897,61.964C26.897,62.65 27.453,63.206 28.139,63.206C37.171,63.206 92.663,63.206 101.694,63.206C102.38,63.206 102.936,62.65 102.936,61.964C102.936,61.321 102.936,60.538 102.936,59.895Z" style="fill:#414141;stroke:#00a1f4;stroke-width:1.57px;"/><path d="M56.003,60.212L73.83,60.212" style="fill:#9df;stroke:#00a1f4;stroke-width:1.57px;"/></g><path id="Cloud" d="M237.092,63.552C227.346,63.521 219.444,55.599 219.444,45.846C219.444,36.074 227.377,28.14 237.149,28.14C238.2,28.14 239.23,28.232 240.23,28.408C241.975,19.069 250.177,11.991 260.018,11.991C271.129,11.991 280.149,21.012 280.149,32.122C280.149,32.81 280.114,33.489 280.047,34.159C280.966,33.98 281.916,33.887 282.887,33.887C291.073,33.887 297.72,40.533 297.72,48.719C297.72,56.873 291.125,63.5 282.983,63.551L282.887,63.552L237.149,63.552L237.092,63.552Z" style="fill:#9df;stroke:#00a1f4;stroke-width:3.41px;"/><rect x="-21.221" y="108.309" width="387.574" height="13.191" style="fill:#1ed2f4;"/><path d="M90.9,99.52C90.4,99.86 89.765,100.135 88.995,100.345C88.225,100.555 87.45,100.66 86.67,100.66C84.89,100.66 83.53,100.28 82.59,99.52C81.65,98.76 81.17,97.54 81.15,95.86L81.15,88.99L78.57,88.99L78.57,85.36L81.15,85.36L81.15,82L86.25,80.59L86.25,85.36L90.75,85.36L90.75,88.99L86.25,88.99L86.25,95.02C86.25,96.36 86.91,97.03 88.23,97.03C89.05,97.03 89.77,96.81 90.39,96.37L90.9,99.52Z" style="fill:#414141;fill-rule:nonzero;"/><path d="M107.52,94.33L97.29,94.33C97.45,95.27 97.795,95.96 98.325,96.4C98.855,96.84 99.56,97.06 100.44,97.06C101.18,97.06 101.785,96.92 102.255,96.64C102.725,96.36 103.04,95.95 103.2,95.41L107.34,96.73C106.92,98.01 106.105,98.985 104.895,99.655C103.685,100.325 102.2,100.66 100.44,100.66C97.82,100.66 95.815,99.98 94.425,98.62C93.035,97.26 92.34,95.34 92.34,92.86C92.34,90.38 93.02,88.46 94.38,87.1C95.74,85.74 97.67,85.06 100.17,85.06C102.59,85.06 104.445,85.725 105.735,87.055C107.025,88.385 107.67,90.25 107.67,92.65C107.67,93.33 107.62,93.89 107.52,94.33ZM97.26,91.57L102.9,91.57C102.66,89.61 101.74,88.63 100.14,88.63C98.52,88.63 97.56,89.61 97.26,91.57Z" style="fill:#414141;fill-rule:nonzero;"/><path d="M122.79,86.35C123.93,87.21 124.64,88.33 124.92,89.71L120.18,91.27C119.98,89.55 119.21,88.69 117.87,88.69C115.89,88.69 114.9,90.1 114.9,92.92C114.9,95.66 115.89,97.03 117.87,97.03C119.29,97.03 120.12,96.22 120.36,94.6L124.95,96.07C124.73,97.43 124.005,98.535 122.775,99.385C121.545,100.235 119.92,100.66 117.9,100.66C115.3,100.66 113.3,99.98 111.9,98.62C110.5,97.26 109.8,95.34 109.8,92.86C109.8,90.4 110.495,88.485 111.885,87.115C113.275,85.745 115.21,85.06 117.69,85.06C119.95,85.06 121.65,85.49 122.79,86.35Z" style="fill:#414141;fill-rule:nonzero;"/><path d="M141.27,86.44C142.21,87.36 142.68,88.67 142.68,90.37L142.68,100.36L137.58,100.36L137.58,91.78C137.58,89.88 136.87,88.93 135.45,88.93C134.65,88.93 134,89.22 133.5,89.8C133,90.38 132.75,91.27 132.75,92.47L132.75,100.36L127.65,100.36L127.65,79L132.75,79L132.75,88.09C133.19,87.09 133.815,86.335 134.625,85.825C135.435,85.315 136.39,85.06 137.49,85.06C139.07,85.06 140.33,85.52 141.27,86.44Z" style="fill:#414141;fill-rule:nonzero;"/><path d="M159.87,86.44C160.81,87.36 161.28,88.67 161.28,90.37L161.28,100.36L156.18,100.36L156.18,91.78C156.18,90.76 155.995,90.035 155.625,89.605C155.255,89.175 154.73,88.96 154.05,88.96C153.25,88.96 152.6,89.245 152.1,89.815C151.6,90.385 151.35,91.26 151.35,92.44L151.35,100.36L146.25,100.36L146.25,85.36L150.81,85.36L150.96,88.24C151.44,87.18 152.12,86.385 153,85.855C153.88,85.325 154.91,85.06 156.09,85.06C157.67,85.06 158.93,85.52 159.87,86.44Z" style="fill:#414141;fill-rule:nonzero;"/><path d="M177.885,87.115C179.275,88.485 179.97,90.4 179.97,92.86C179.97,95.32 179.275,97.235 177.885,98.605C176.495,99.975 174.55,100.66 172.05,100.66C169.55,100.66 167.605,99.975 166.215,98.605C164.825,97.235 164.13,95.32 164.13,92.86C164.13,90.4 164.825,88.485 166.215,87.115C167.605,85.745 169.55,85.06 172.05,85.06C174.55,85.06 176.495,85.745 177.885,87.115ZM169.92,89.68C169.46,90.34 169.23,91.4 169.23,92.86C169.23,94.32 169.46,95.38 169.92,96.04C170.38,96.7 171.09,97.03 172.05,97.03C173.01,97.03 173.72,96.7 174.18,96.04C174.64,95.38 174.87,94.32 174.87,92.86C174.87,91.4 174.64,90.34 174.18,89.68C173.72,89.02 173.01,88.69 172.05,88.69C171.09,88.69 170.38,89.02 169.92,89.68Z" style="fill:#414141;fill-rule:nonzero;"/><path d="M187.95,95.17C187.95,95.85 188.05,96.33 188.25,96.61C188.45,96.89 188.81,97.03 189.33,97.03C189.81,97.03 190.32,96.94 190.86,96.76L190.53,99.91C190.17,100.13 189.7,100.31 189.12,100.45C188.54,100.59 187.97,100.66 187.41,100.66C185.81,100.66 184.65,100.285 183.93,99.535C183.21,98.785 182.85,97.58 182.85,95.92L182.85,79L187.95,79L187.95,95.17Z" style="fill:#414141;fill-rule:nonzero;"/><path d="M205.755,87.115C207.145,88.485 207.84,90.4 207.84,92.86C207.84,95.32 207.145,97.235 205.755,98.605C204.365,99.975 202.42,100.66 199.92,100.66C197.42,100.66 195.475,99.975 194.085,98.605C192.695,97.235 192,95.32 192,92.86C192,90.4 192.695,88.485 194.085,87.115C195.475,85.745 197.42,85.06 199.92,85.06C202.42,85.06 204.365,85.745 205.755,87.115ZM197.79,89.68C197.33,90.34 197.1,91.4 197.1,92.86C197.1,94.32 197.33,95.38 197.79,96.04C198.25,96.7 198.96,97.03 199.92,97.03C200.88,97.03 201.59,96.7 202.05,96.04C202.51,95.38 202.74,94.32 202.74,92.86C202.74,91.4 202.51,90.34 202.05,89.68C201.59,89.02 200.88,88.69 199.92,88.69C198.96,88.69 198.25,89.02 197.79,89.68Z" style="fill:#414141;fill-rule:nonzero;"/><path d="M224.115,98.17C225.065,98.93 225.54,100.05 225.54,101.53C225.54,103.23 224.785,104.535 223.275,105.445C221.765,106.355 219.71,106.81 217.11,106.81C214.49,106.81 212.555,106.5 211.305,105.88C210.055,105.26 209.43,104.39 209.43,103.27C209.43,102.61 209.66,102.03 210.12,101.53C210.58,101.03 211.28,100.67 212.22,100.45C210.68,99.79 209.91,98.75 209.91,97.33C209.91,96.63 210.13,96.01 210.57,95.47C211.01,94.93 211.61,94.53 212.37,94.27C210.73,93.39 209.91,92.02 209.91,90.16C209.91,88.54 210.55,87.285 211.83,86.395C213.11,85.505 214.91,85.06 217.23,85.06C218.31,85.06 219.31,85.17 220.23,85.39C220.43,84.19 220.88,83.21 221.58,82.45C222.28,81.69 223.25,81.31 224.49,81.31L224.97,81.34L225.54,84.73C225.14,84.69 224.86,84.67 224.7,84.67C224.02,84.67 223.455,84.79 223.005,85.03C222.555,85.27 222.23,85.6 222.03,86.02C223.71,86.9 224.55,88.28 224.55,90.16C224.55,91.78 223.91,93.03 222.63,93.91C221.35,94.79 219.55,95.23 217.23,95.23C216.15,95.23 215.19,95.14 214.35,94.96C213.73,95.12 213.42,95.47 213.42,96.01C213.42,96.69 213.94,97.03 214.98,97.03L220.08,97.03C221.82,97.03 223.165,97.41 224.115,98.17ZM215.625,88.57C215.215,88.97 215.01,89.5 215.01,90.16C215.01,90.82 215.215,91.345 215.625,91.735C216.035,92.125 216.57,92.32 217.23,92.32C217.89,92.32 218.425,92.125 218.835,91.735C219.245,91.345 219.45,90.82 219.45,90.16C219.45,89.5 219.245,88.97 218.835,88.57C218.425,88.17 217.89,87.97 217.23,87.97C216.57,87.97 216.035,88.17 215.625,88.57ZM220.485,103.105C221.175,102.835 221.52,102.48 221.52,102.04C221.52,101.72 221.38,101.48 221.1,101.32C220.82,101.16 220.35,101.08 219.69,101.08L215.58,101.08C214.76,101.08 214.175,101.165 213.825,101.335C213.475,101.505 213.3,101.77 213.3,102.13C213.3,103.05 214.69,103.51 217.47,103.51C218.79,103.51 219.795,103.375 220.485,103.105Z" style="fill:#414141;fill-rule:nonzero;"/><path d="M237.33,100.36C236.77,101.96 236.16,103.23 235.5,104.17C234.84,105.11 234.06,105.785 233.16,106.195C232.26,106.605 231.17,106.81 229.89,106.81C228.19,106.81 226.83,106.44 225.81,105.7L226.89,102.28C227.21,102.58 227.565,102.785 227.955,102.895C228.345,103.005 228.85,103.06 229.47,103.06C230.09,103.06 230.58,102.955 230.94,102.745C231.3,102.535 231.59,102.16 231.81,101.62L232.17,100.69L230.43,96.61L225.96,85.36L231.57,85.36L233.88,93.91L234.6,97.09L235.41,93.79L237.72,85.36L242.82,85.36L237.33,100.36Z" style="fill:#414141;fill-rule:nonzero;"/><g><path d="M146.217,31.281C146.409,24.524 151.954,19.098 158.757,19.098C165.681,19.098 171.303,24.719 171.303,31.644L165.03,31.644C165.03,28.182 162.219,25.371 158.757,25.371C155.352,25.371 152.577,28.09 152.487,31.474L152.487,50.4L146.211,50.4L146.211,31.281L146.217,31.281Z" style="fill:#9df;stroke:#00a1f4;stroke-width:2.76px;"/><path d="M173.503,47.105C173.503,44.88 172.619,42.746 171.046,41.173C169.473,39.6 167.339,38.716 165.114,38.716C160.263,38.716 154.177,38.716 149.326,38.716C147.101,38.716 144.968,39.6 143.394,41.173C141.821,42.746 140.937,44.88 140.937,47.105C140.937,50.114 140.937,53.505 140.937,56.514C140.937,58.738 141.821,60.872 143.394,62.445C144.968,64.018 147.101,64.902 149.326,64.902C154.177,64.902 160.263,64.902 165.114,64.902C167.339,64.902 169.473,64.018 171.046,62.445C172.619,60.872 173.503,58.738 173.503,56.514C173.503,53.505 173.503,50.114 173.503,47.105Z" style="fill:#414141;stroke:#00a1f4;stroke-width:2.76px;"/></g></g></svg>