<?xml version="1.0" encoding="UTF-8" standalone="no"?><!DOCTYPE svg PUBLIC "-//W3C//DTD SVG 1.1//EN" "http://www.w3.org/Graphics/SVG/1.1/DTD/svg11.dtd"><svg width="100%" height="100%" viewBox="0 0 321 116" version="1.1" xmlns="http://www.w3.org/2000/svg" xmlns:xlink="http://www.w3.org/1999/xlink" xml:space="preserve" xmlns:serif="http://www.serif.com/" style="fill-rule:evenodd;clip-rule:evenodd;stroke-linecap:round;stroke-linejoin:round;stroke-miterlimit:1.5;"><rect id="format" x="0" y="0" width="321" height="116" style="fill:none;"/><clipPath id="_clip1"><rect x="0" y="0" width="321" height="116"/></clipPath><g clip-path="url(#_clip1)"><rect x="0" y="0" width="321" height="116" style="fill:#ebebeb;"/><g id="Laptop"><path d="M99.472,20.67c0,-1.281 -1.038,-2.319 -2.319,-2.319c-10.546,0 -53.926,0 -64.473,0c-1.28,0 -2.318,1.038 -2.318,2.319c0,7.491 0,30.992 0,38.483c0,1.281 1.038,2.319 2.318,2.319c10.547,0 53.927,0 64.473,0c1.281,0 2.319,-1.038 2.319,-2.319c0,-7.491 0,-30.992 0,-38.483Z" style="fill:#414141;stroke:#00a1f4;stroke-width:1.57px;"/><rect x="32.539" y="20.817" width="64.756" height="35.113" style="fill:#9df;stroke:#00a1f4;stroke-width:1.57px;"/><path d="M102.936,59.895c0,-0.686 -0.556,-1.242 -1.242,-1.242c-9.031,0 -64.523,0 -73.555,0c-0.686,0 -1.242,0.556 -1.242,1.242c0,0.643 0,1.426 0,2.069c0,0.686 0.556,1.242 1.242,1.242c9.032,0 64.524,0 73.555,0c0.686,0 1.242,-0.556 1.242,-1.242c0,-0.643 0,-1.426 0,-2.069Z" style="fill:#414141;stroke:#00a1f4;stroke-width:1.57px;"/><path d="M56.003,60.212l17.827,0" style="fill:#9df;stroke:#00a1f4;stroke-width:1.57px;"/></g><path id="Cloud" d="M237.092,63.552c-9.746,-0.031 -17.648,-7.953 -17.648,-17.706c0,-9.772 7.933,-17.706 17.705,-17.706c1.051,0 2.081,0.092 3.081,0.268c1.745,-9.339 9.947,-16.417 19.788,-16.417c11.111,0 20.131,9.021 20.131,20.131c0,0.688 -0.035,1.367 -0.102,2.037c0.919,-0.179 1.869,-0.272 2.84,-0.272c8.186,0 14.833,6.646 14.833,14.832c0,8.154 -6.595,14.781 -14.737,14.832l-0.096,0.001l-45.738,0l-0.057,0Z" style="fill:#9df;stroke:#00a1f4;stroke-width:3.41px;"/><rect x="-21.221" y="108.309" width="387.574" height="13.191" style="fill:#1ed2f4;"/><path d="M90.9,99.52c-0.5,0.34 -1.135,0.615 -1.905,0.825c-0.77,0.21 -1.545,0.315 -2.325,0.315c-1.78,0 -3.14,-0.38 -4.08,-1.14c-0.94,-0.76 -1.42,-1.98 -1.44,-3.66l0,-6.87l-2.58,0l0,-3.63l2.58,0l0,-3.36l5.1,-1.41l0,4.77l4.5,0l0,3.63l-4.5,0l0,6.03c0,1.34 0.66,2.01 1.98,2.01c0.82,0 1.54,-0.22 2.16,-0.66l0.51,3.15Z" style="fill:#414141;fill-rule:nonzero;"/><path d="M107.52,94.33l-10.23,0c0.16,0.94 0.505,1.63 1.035,2.07c0.53,0.44 1.235,0.66 2.115,0.66c0.74,0 1.345,-0.14 1.815,-0.42c0.47,-0.28 0.785,-0.69 0.945,-1.23l4.14,1.32c-0.42,1.28 -1.235,2.255 -2.445,2.925c-1.21,0.67 -2.695,1.005 -4.455,1.005c-2.62,0 -4.625,-0.68 -6.015,-2.04c-1.39,-1.36 -2.085,-3.28 -2.085,-5.76c0,-2.48 0.68,-4.4 2.04,-5.76c1.36,-1.36 3.29,-2.04 5.79,-2.04c2.42,0 4.275,0.665 5.565,1.995c1.29,1.33 1.935,3.195 1.935,5.595c0,0.68 -0.05,1.24 -0.15,1.68Zm-10.26,-2.76l5.64,0c-0.24,-1.96 -1.16,-2.94 -2.76,-2.94c-1.62,0 -2.58,0.98 -2.88,2.94Z" style="fill:#414141;fill-rule:nonzero;"/><path d="M122.79,86.35c1.14,0.86 1.85,1.98 2.13,3.36l-4.74,1.56c-0.2,-1.72 -0.97,-2.58 -2.31,-2.58c-1.98,0 -2.97,1.41 -2.97,4.23c0,2.74 0.99,4.11 2.97,4.11c1.42,0 2.25,-0.81 2.49,-2.43l4.59,1.47c-0.22,1.36 -0.945,2.465 -2.175,3.315c-1.23,0.85 -2.855,1.275 -4.875,1.275c-2.6,0 -4.6,-0.68 -6,-2.04c-1.4,-1.36 -2.1,-3.28 -2.1,-5.76c0,-2.46 0.695,-4.375 2.085,-5.745c1.39,-1.37 3.325,-2.055 5.805,-2.055c2.26,0 3.96,0.43 5.1,1.29Z" style="fill:#414141;fill-rule:nonzero;"/><path d="M141.27,86.44c0.94,0.92 1.41,2.23 1.41,3.93l0,9.99l-5.1,0l0,-8.58c0,-1.9 -0.71,-2.85 -2.13,-2.85c-0.8,0 -1.45,0.29 -1.95,0.87c-0.5,0.58 -0.75,1.47 -0.75,2.67l0,7.89l-5.1,0l0,-21.36l5.1,0l0,9.09c0.44,-1 1.065,-1.755 1.875,-2.265c0.81,-0.51 1.765,-0.765 2.865,-0.765c1.58,0 2.84,0.46 3.78,1.38Z" style="fill:#414141;fill-rule:nonzero;"/><path d="M159.87,86.44c0.94,0.92 1.41,2.23 1.41,3.93l0,9.99l-5.1,0l0,-8.58c0,-1.02 -0.185,-1.745 -0.555,-2.175c-0.37,-0.43 -0.895,-0.645 -1.575,-0.645c-0.8,0 -1.45,0.285 -1.95,0.855c-0.5,0.57 -0.75,1.445 -0.75,2.625l0,7.92l-5.1,0l0,-15l4.56,0l0.15,2.88c0.48,-1.06 1.16,-1.855 2.04,-2.385c0.88,-0.53 1.91,-0.795 3.09,-0.795c1.58,0 2.84,0.46 3.78,1.38Z" style="fill:#414141;fill-rule:nonzero;"/><path d="M177.885,87.115c1.39,1.37 2.085,3.285 2.085,5.745c0,2.46 -0.695,4.375 -2.085,5.745c-1.39,1.37 -3.335,2.055 -5.835,2.055c-2.5,0 -4.445,-0.685 -5.835,-2.055c-1.39,-1.37 -2.085,-3.285 -2.085,-5.745c0,-2.46 0.695,-4.375 2.085,-5.745c1.39,-1.37 3.335,-2.055 5.835,-2.055c2.5,0 4.445,0.685 5.835,2.055Zm-7.965,2.565c-0.46,0.66 -0.69,1.72 -0.69,3.18c0,1.46 0.23,2.52 0.69,3.18c0.46,0.66 1.17,0.99 2.13,0.99c0.96,0 1.67,-0.33 2.13,-0.99c0.46,-0.66 0.69,-1.72 0.69,-3.18c0,-1.46 -0.23,-2.52 -0.69,-3.18c-0.46,-0.66 -1.17,-0.99 -2.13,-0.99c-0.96,0 -1.67,0.33 -2.13,0.99Z" style="fill:#414141;fill-rule:nonzero;"/><path d="M187.95,95.17c0,0.68 0.1,1.16 0.3,1.44c0.2,0.28 0.56,0.42 1.08,0.42c0.48,0 0.99,-0.09 1.53,-0.27l-0.33,3.15c-0.36,0.22 -0.83,0.4 -1.41,0.54c-0.58,0.14 -1.15,0.21 -1.71,0.21c-1.6,0 -2.76,-0.375 -3.48,-1.125c-0.72,-0.75 -1.08,-1.955 -1.08,-3.615l0,-16.92l5.1,0l0,16.17Z" style="fill:#414141;fill-rule:nonzero;"/><path d="M205.755,87.115c1.39,1.37 2.085,3.285 2.085,5.745c0,2.46 -0.695,4.375 -2.085,5.745c-1.39,1.37 -3.335,2.055 -5.835,2.055c-2.5,0 -4.445,-0.685 -5.835,-2.055c-1.39,-1.37 -2.085,-3.285 -2.085,-5.745c0,-2.46 0.695,-4.375 2.085,-5.745c1.39,-1.37 3.335,-2.055 5.835,-2.055c2.5,0 4.445,0.685 5.835,2.055Zm-7.965,2.565c-0.46,0.66 -0.69,1.72 -0.69,3.18c0,1.46 0.23,2.52 0.69,3.18c0.46,0.66 1.17,0.99 2.13,0.99c0.96,0 1.67,-0.33 2.13,-0.99c0.46,-0.66 0.69,-1.72 0.69,-3.18c0,-1.46 -0.23,-2.52 -0.69,-3.18c-0.46,-0.66 -1.17,-0.99 -2.13,-0.99c-0.96,0 -1.67,0.33 -2.13,0.99Z" style="fill:#414141;fill-rule:nonzero;"/><path d="M224.115,98.17c0.95,0.76 1.425,1.88 1.425,3.36c0,1.7 -0.755,3.005 -2.265,3.915c-1.51,0.91 -3.565,1.365 -6.165,1.365c-2.62,0 -4.555,-0.31 -5.805,-0.93c-1.25,-0.62 -1.875,-1.49 -1.875,-2.61c0,-0.66 0.23,-1.24 0.69,-1.74c0.46,-0.5 1.16,-0.86 2.1,-1.08c-1.54,-0.66 -2.31,-1.7 -2.31,-3.12c0,-0.7 0.22,-1.32 0.66,-1.86c0.44,-0.54 1.04,-0.94 1.8,-1.2c-1.64,-0.88 -2.46,-2.25 -2.46,-4.11c0,-1.62 0.64,-2.875 1.92,-3.765c1.28,-0.89 3.08,-1.335 5.4,-1.335c1.08,0 2.08,0.11 3,0.33c0.2,-1.2 0.65,-2.18 1.35,-2.94c0.7,-0.76 1.67,-1.14 2.91,-1.14l0.48,0.03l0.57,3.39c-0.4,-0.04 -0.68,-0.06 -0.84,-0.06c-0.68,0 -1.245,0.12 -1.695,0.36c-0.45,0.24 -0.775,0.57 -0.975,0.99c1.68,0.88 2.52,2.26 2.52,4.14c0,1.62 -0.64,2.87 -1.92,3.75c-1.28,0.88 -3.08,1.32 -5.4,1.32c-1.08,0 -2.04,-0.09 -2.88,-0.27c-0.62,0.16 -0.93,0.51 -0.93,1.05c0,0.68 0.52,1.02 1.56,1.02l5.1,0c1.74,0 3.085,0.38 4.035,1.14Zm-8.49,-9.6c-0.41,0.4 -0.615,0.93 -0.615,1.59c0,0.66 0.205,1.185 0.615,1.575c0.41,0.39 0.945,0.585 1.605,0.585c0.66,0 1.195,-0.195 1.605,-0.585c0.41,-0.39 0.615,-0.915 0.615,-1.575c0,-0.66 -0.205,-1.19 -0.615,-1.59c-0.41,-0.4 -0.945,-0.6 -1.605,-0.6c-0.66,0 -1.195,0.2 -1.605,0.6Zm4.86,14.535c0.69,-0.27 1.035,-0.625 1.035,-1.065c0,-0.32 -0.14,-0.56 -0.42,-0.72c-0.28,-0.16 -0.75,-0.24 -1.41,-0.24l-4.11,0c-0.82,0 -1.405,0.085 -1.755,0.255c-0.35,0.17 -0.525,0.435 -0.525,0.795c0,0.92 1.39,1.38 4.17,1.38c1.32,0 2.325,-0.135 3.015,-0.405Z" style="fill:#414141;fill-rule:nonzero;"/><path d="M237.33,100.36c-0.56,1.6 -1.17,2.87 -1.83,3.81c-0.66,0.94 -1.44,1.615 -2.34,2.025c-0.9,0.41 -1.99,0.615 -3.27,0.615c-1.7,0 -3.06,-0.37 -4.08,-1.11l1.08,-3.42c0.32,0.3 0.675,0.505 1.065,0.615c0.39,0.11 0.895,0.165 1.515,0.165c0.62,0 1.11,-0.105 1.47,-0.315c0.36,-0.21 0.65,-0.585 0.87,-1.125l0.36,-0.93l-1.74,-4.08l-4.47,-11.25l5.61,0l2.31,8.55l0.72,3.18l0.81,-3.3l2.31,-8.43l5.1,0l-5.49,15Z" style="fill:#414141;fill-rule:nonzero;"/><g><path d="M146.217,31.281c0.192,-6.757 5.737,-12.183 12.54,-12.183c6.924,0 12.546,5.621 12.546,12.546l-6.273,0c0,-3.462 -2.811,-6.273 -6.273,-6.273c-3.405,0 -6.18,2.719 -6.27,6.103l0,18.926l-6.276,0l0,-19.119l0.006,0Z" style="fill:#9df;stroke:#00a1f4;stroke-width:2.76px;"/><path d="M173.503,47.105c0,-2.225 -0.884,-4.359 -2.457,-5.932c-1.573,-1.573 -3.707,-2.457 -5.932,-2.457c-4.851,0 -10.937,0 -15.788,0c-2.225,0 -4.358,0.884 -5.932,2.457c-1.573,1.573 -2.457,3.707 -2.457,5.932c0,3.009 0,6.4 0,9.409c0,2.224 0.884,4.358 2.457,5.931c1.574,1.573 3.707,2.457 5.932,2.457c4.851,0 10.937,0 15.788,0c2.225,0 4.359,-0.884 5.932,-2.457c1.573,-1.573 2.457,-3.707 2.457,-5.931c0,-3.009 0,-6.4 0,-9.409Z" style="fill:#9df;stroke:#00a1f4;stroke-width:2.76px;"/></g></g></svg>