<?xml version="1.0" encoding="UTF-8" standalone="no"?><!DOCTYPE svg PUBLIC "-//W3C//DTD SVG 1.1//EN" "http://www.w3.org/Graphics/SVG/1.1/DTD/svg11.dtd"><svg width="100%" height="100%" viewBox="0 0 321 117" version="1.1" xmlns="http://www.w3.org/2000/svg" xmlns:xlink="http://www.w3.org/1999/xlink" xml:space="preserve" xmlns:serif="http://www.serif.com/" style="fill-rule:evenodd;clip-rule:evenodd;stroke-linecap:round;stroke-linejoin:round;stroke-miterlimit:1.5;"><rect id="governance" x="0" y="0.036" width="321" height="116" style="fill:none;"/><clipPath id="_clip1"><rect x="0" y="0.036" width="321" height="116"/></clipPath><g clip-path="url(#_clip1)"><rect x="0" y="0.036" width="321" height="116" style="fill:#ebebeb;"/><rect x="-21.221" y="108.345" width="387.574" height="13.191" style="fill:#1ed2f4;"/><path d="M92.19,85.876l0,14.28c0,2.5 -0.75,4.405 -2.25,5.715c-1.5,1.31 -3.7,1.965 -6.6,1.965c-2.48,0 -4.63,-0.44 -6.45,-1.32l0.81,-3.96c0.9,0.4 1.825,0.715 2.775,0.945c0.95,0.23 1.845,0.345 2.685,0.345c1.24,0 2.155,-0.265 2.745,-0.795c0.59,-0.53 0.885,-1.355 0.885,-2.475l0,-2.25c-0.5,0.66 -1.175,1.22 -2.025,1.68c-0.85,0.46 -1.755,0.69 -2.715,0.69c-1.3,0 -2.465,-0.315 -3.495,-0.945c-1.03,-0.63 -1.835,-1.52 -2.415,-2.67c-0.58,-1.15 -0.87,-2.485 -0.87,-4.005c0,-1.5 0.29,-2.825 0.87,-3.975c0.58,-1.15 1.385,-2.045 2.415,-2.685c1.03,-0.64 2.195,-0.96 3.495,-0.96c1.02,0 1.95,0.21 2.79,0.63c0.84,0.42 1.49,0.99 1.95,1.71l0,-1.92l5.4,0Zm-6.21,9.825c0.54,-0.63 0.81,-1.505 0.81,-2.625c0,-1.08 -0.27,-1.935 -0.81,-2.565c-0.54,-0.63 -1.29,-0.945 -2.25,-0.945c-0.96,0 -1.715,0.31 -2.265,0.93c-0.55,0.62 -0.825,1.48 -0.825,2.58c0,1.1 0.28,1.97 0.84,2.61c0.56,0.64 1.31,0.96 2.25,0.96c0.96,0 1.71,-0.315 2.25,-0.945Z" style="fill:#414141;fill-rule:nonzero;"/><path d="M98.61,100.396c-1.26,-0.64 -2.23,-1.56 -2.91,-2.76c-0.68,-1.2 -1.02,-2.61 -1.02,-4.23c0,-1.62 0.34,-3.03 1.02,-4.23c0.68,-1.2 1.65,-2.12 2.91,-2.76c1.26,-0.64 2.74,-0.96 4.44,-0.96c1.68,0 3.145,0.325 4.395,0.975c1.25,0.65 2.215,1.57 2.895,2.76c0.68,1.19 1.02,2.595 1.02,4.215c0,1.62 -0.34,3.025 -1.02,4.215c-0.68,1.19 -1.645,2.11 -2.895,2.76c-1.25,0.65 -2.715,0.975 -4.395,0.975c-1.7,0 -3.18,-0.32 -4.44,-0.96Zm7.38,-6.99c0,-1.32 -0.245,-2.295 -0.735,-2.925c-0.49,-0.63 -1.225,-0.945 -2.205,-0.945c-1,0 -1.75,0.315 -2.25,0.945c-0.5,0.63 -0.75,1.605 -0.75,2.925c0,1.34 0.25,2.325 0.75,2.955c0.5,0.63 1.25,0.945 2.25,0.945c1.96,0 2.94,-1.3 2.94,-3.9Z" style="fill:#414141;fill-rule:nonzero;"/><path d="M123.99,85.906l5.34,0l-6.78,15.21l-4.47,0l-6.69,-15.21l5.64,0l3.42,8.76l3.54,-8.76Z" style="fill:#414141;fill-rule:nonzero;"/><path d="M144.09,94.036l-9.57,0c0.1,1.18 0.44,2.03 1.02,2.55c0.58,0.52 1.43,0.78 2.55,0.78c0.76,0 1.52,-0.125 2.28,-0.375c0.76,-0.25 1.45,-0.595 2.07,-1.035l1.38,3.6c-0.76,0.56 -1.68,1 -2.76,1.32c-1.08,0.32 -2.16,0.48 -3.24,0.48c-1.74,0 -3.25,-0.32 -4.53,-0.96c-1.28,-0.64 -2.26,-1.555 -2.94,-2.745c-0.68,-1.19 -1.02,-2.595 -1.02,-4.215c0,-1.54 0.325,-2.915 0.975,-4.125c0.65,-1.21 1.55,-2.155 2.7,-2.835c1.15,-0.68 2.465,-1.02 3.945,-1.02c1.44,0 2.7,0.32 3.78,0.96c1.08,0.64 1.91,1.555 2.49,2.745c0.58,1.19 0.87,2.575 0.87,4.155l0,0.72Zm-9.51,-2.52l4.86,0c-0.2,-1.56 -0.98,-2.34 -2.34,-2.34c-1.34,0 -2.18,0.78 -2.52,2.34Z" style="fill:#414141;fill-rule:nonzero;"/><path d="M157.95,85.846l0,4.95c-0.86,-0.4 -1.69,-0.6 -2.49,-0.6c-2.28,0 -3.42,1.09 -3.42,3.27l0,7.65l-5.43,0l0,-10.86c0,-1.64 -0.08,-3.1 -0.24,-4.38l5.1,0l0.33,2.55c0.36,-0.94 0.94,-1.66 1.74,-2.16c0.8,-0.5 1.7,-0.75 2.7,-0.75c0.74,0 1.31,0.11 1.71,0.33Z" style="fill:#414141;fill-rule:nonzero;"/><path d="M173.745,87.091c0.89,1.09 1.335,2.735 1.335,4.935l0,9.09l-5.43,0l0,-8.85c0,-0.94 -0.16,-1.615 -0.48,-2.025c-0.32,-0.41 -0.82,-0.615 -1.5,-0.615c-0.82,0 -1.48,0.275 -1.98,0.825c-0.5,0.55 -0.75,1.275 -0.75,2.175l0,8.49l-5.43,0l0,-10.86c0,-1.64 -0.08,-3.1 -0.24,-4.38l5.1,0l0.27,2.25c0.58,-0.86 1.3,-1.52 2.16,-1.98c0.86,-0.46 1.83,-0.69 2.91,-0.69c1.8,0 3.145,0.545 4.035,1.635Z" style="fill:#414141;fill-rule:nonzero;"/><path d="M194.28,85.876l0,15.24l-5.34,0l0,-2.07c-0.44,0.72 -1.08,1.285 -1.92,1.695c-0.84,0.41 -1.76,0.615 -2.76,0.615c-1.3,0 -2.46,-0.32 -3.48,-0.96c-1.02,-0.64 -1.815,-1.555 -2.385,-2.745c-0.57,-1.19 -0.855,-2.565 -0.855,-4.125c0,-1.58 0.29,-2.98 0.87,-4.2c0.58,-1.22 1.38,-2.17 2.4,-2.85c1.02,-0.68 2.17,-1.02 3.45,-1.02c1,0 1.915,0.215 2.745,0.645c0.83,0.43 1.475,1.005 1.935,1.725l0,-1.95l5.34,0Zm-6.12,10.44c0.52,-0.66 0.78,-1.61 0.78,-2.85c0,-1.26 -0.26,-2.225 -0.78,-2.895c-0.52,-0.67 -1.26,-1.005 -2.22,-1.005c-0.94,0 -1.68,0.345 -2.22,1.035c-0.54,0.69 -0.81,1.665 -0.81,2.925c0,1.22 0.26,2.155 0.78,2.805c0.52,0.65 1.27,0.975 2.25,0.975c0.96,0 1.7,-0.33 2.22,-0.99Z" style="fill:#414141;fill-rule:nonzero;"/><path d="M211.755,87.091c0.89,1.09 1.335,2.735 1.335,4.935l0,9.09l-5.43,0l0,-8.85c0,-0.94 -0.16,-1.615 -0.48,-2.025c-0.32,-0.41 -0.82,-0.615 -1.5,-0.615c-0.82,0 -1.48,0.275 -1.98,0.825c-0.5,0.55 -0.75,1.275 -0.75,2.175l0,8.49l-5.43,0l0,-10.86c0,-1.64 -0.08,-3.1 -0.24,-4.38l5.1,0l0.27,2.25c0.58,-0.86 1.3,-1.52 2.16,-1.98c0.86,-0.46 1.83,-0.69 2.91,-0.69c1.8,0 3.145,0.545 4.035,1.635Z" style="fill:#414141;fill-rule:nonzero;"/><path d="M217.74,99.256c-1.46,-1.4 -2.19,-3.31 -2.19,-5.73c0,-1.6 0.355,-3.01 1.065,-4.23c0.71,-1.22 1.705,-2.165 2.985,-2.835c1.28,-0.67 2.76,-1.005 4.44,-1.005c1.12,0 2.22,0.165 3.3,0.495c1.08,0.33 1.94,0.775 2.58,1.335l-1.38,3.75c-0.54,-0.44 -1.17,-0.79 -1.89,-1.05c-0.72,-0.26 -1.41,-0.39 -2.07,-0.39c-1.12,0 -1.98,0.32 -2.58,0.96c-0.6,0.64 -0.9,1.59 -0.9,2.85c0,1.28 0.3,2.245 0.9,2.895c0.6,0.65 1.47,0.975 2.61,0.975c0.66,0 1.345,-0.13 2.055,-0.39c0.71,-0.26 1.335,-0.61 1.875,-1.05l1.38,3.69c-0.66,0.58 -1.535,1.03 -2.625,1.35c-1.09,0.32 -2.255,0.48 -3.495,0.48c-2.58,0 -4.6,-0.7 -6.06,-2.1Z" style="fill:#414141;fill-rule:nonzero;"/><path d="M245.76,94.036l-9.57,0c0.1,1.18 0.44,2.03 1.02,2.55c0.58,0.52 1.43,0.78 2.55,0.78c0.76,0 1.52,-0.125 2.28,-0.375c0.76,-0.25 1.45,-0.595 2.07,-1.035l1.38,3.6c-0.76,0.56 -1.68,1 -2.76,1.32c-1.08,0.32 -2.16,0.48 -3.24,0.48c-1.74,0 -3.25,-0.32 -4.53,-0.96c-1.28,-0.64 -2.26,-1.555 -2.94,-2.745c-0.68,-1.19 -1.02,-2.595 -1.02,-4.215c0,-1.54 0.325,-2.915 0.975,-4.125c0.65,-1.21 1.55,-2.155 2.7,-2.835c1.15,-0.68 2.465,-1.02 3.945,-1.02c1.44,0 2.7,0.32 3.78,0.96c1.08,0.64 1.91,1.555 2.49,2.745c0.58,1.19 0.87,2.575 0.87,4.155l0,0.72Zm-9.51,-2.52l4.86,0c-0.2,-1.56 -0.98,-2.34 -2.34,-2.34c-1.34,0 -2.18,0.78 -2.52,2.34Z" style="fill:#414141;fill-rule:nonzero;"/><g><path d="M158.7,29.499l6.662,0" style="fill:none;stroke:#00a1f4;stroke-width:1.17px;"/><path d="M158.7,39.865l6.662,0" style="fill:none;stroke:#00a1f4;stroke-width:1.17px;"/><path d="M162.029,18.894c-0.931,-0.984 -1.941,-1.925 -3.12,-2.319c-0.698,-0.235 -1.448,-0.189 -2.126,0.128c-1.132,0.521 -2.068,1.568 -3.197,2.096c-0.663,0.324 -1.391,0.413 -2.089,0.264c-1.034,-0.22 -1.976,-0.873 -2.843,-1.613c-0.004,-3.933 -0.002,-3.432 -0.001,-7.365c0.887,0.754 1.853,1.422 2.913,1.627c0.764,0.154 1.556,-0.003 2.263,-0.402c0.958,-0.516 1.783,-1.367 2.746,-1.869c0.673,-0.361 1.428,-0.482 2.143,-0.286c1.256,0.344 2.331,1.335 3.309,2.371c0.008,3.934 0.003,3.434 0.002,7.368Z" style="fill:#00a1f4;fill-rule:nonzero;"/><path d="M162.031,9.513l0,33.31" style="fill:none;stroke:#00a1f4;stroke-width:1.17px;"/><path d="M158.7,26.168l0,16.655l-14.99,13.325" style="fill:none;stroke:#00a1f4;stroke-width:1.17px;"/><path d="M156.147,29.499l0,11.659l-18.321,14.99" style="fill:none;stroke:#00a1f4;stroke-width:1.17px;"/><path d="M165.362,26.168l0,16.655l14.99,13.325" style="fill:none;stroke:#00a1f4;stroke-width:1.17px;"/><path d="M167.916,29.499l0,11.659l18.321,14.99" style="fill:none;stroke:#00a1f4;stroke-width:1.17px;"/><path d="M82.186,59.81l0,-8.108c7.648,-0.543 16.446,0.216 26.552,4.36l0,-5.159c8.732,-0.619 17.759,1.197 26.851,4.187l-53.403,4.72Z" style="fill:#00a1f4;"/><clipPath id="_clip2"><path d="M82.186,59.81l0,-8.108c7.648,-0.543 16.446,0.216 26.552,4.36l0,-5.159c8.732,-0.619 17.759,1.197 26.851,4.187l-53.403,4.72Z"/></clipPath><g clip-path="url(#_clip2)"><path d="M87.638,54.116l-4.235,-0.272l0,2.944l4.235,0.272l0,-2.944Z" style="fill:#9df;"/><path d="M113.72,52.454l-3.471,-0.245l0,2.644l3.471,0.244l0,-2.643Z" style="fill:#9df;"/></g><path d="M241.224,59.81l0,-8.108c-7.648,-0.543 -16.446,0.216 -26.551,4.36l0,-5.159c-8.733,-0.619 -17.76,1.197 -26.851,4.187l53.402,4.72Z" style="fill:#00a1f4;"/><clipPath id="_clip3"><path d="M241.224,59.81l0,-8.108c-7.648,-0.543 -16.446,0.216 -26.551,4.36l0,-5.159c-8.733,-0.619 -17.76,1.197 -26.851,4.187l53.402,4.72Z"/></clipPath><g clip-path="url(#_clip3)"><path d="M235.772,54.116l4.236,-0.272l0,2.944l-4.236,0.272l0,-2.944Z" style="fill:#9df;"/><path d="M209.691,52.454l3.47,-0.245l0,2.644l-3.47,0.244l0,-2.643Z" style="fill:#9df;"/></g><path d="M257.068,61.738c-64.082,-10.415 -128.461,-10.375 -193.136,0l0,11.634l193.136,0l0,-11.634Z" style="fill:#9df;"/><rect x="103.49" y="59.411" width="116.346" height="13.962" style="fill:#00a1f4;"/><clipPath id="_clip4"><rect x="103.49" y="59.411" width="116.346" height="13.962"/></clipPath><g clip-path="url(#_clip4)"><g><rect x="109.296" y="60.448" width="3.026" height="4.534" style="fill:#9df;"/><rect x="114.776" y="60.448" width="3.026" height="4.534" style="fill:#9df;"/><rect x="120.183" y="60.448" width="3.026" height="4.534" style="fill:#9df;"/><rect x="125.511" y="60.448" width="3.026" height="4.534" style="fill:#9df;"/><rect x="130.524" y="60.448" width="3.026" height="4.534" style="fill:#9df;"/><rect x="109.296" y="66.39" width="3.026" height="8.379" style="fill:#9df;"/><rect x="114.776" y="66.39" width="3.026" height="8.379" style="fill:#9df;"/><rect x="120.183" y="66.39" width="3.026" height="8.379" style="fill:#9df;"/><rect x="125.511" y="66.39" width="3.026" height="8.379" style="fill:#9df;"/><rect x="130.524" y="66.39" width="3.026" height="8.379" style="fill:#9df;"/><rect x="136.223" y="65.544" width="1.945" height="8.785" style="fill:#9df;"/><rect x="140.92" y="60.008" width="1.945" height="4.534" style="fill:#9df;"/><rect x="140.92" y="65.544" width="1.945" height="8.785" style="fill:#9df;"/><rect x="145.736" y="60.008" width="1.945" height="4.534" style="fill:#9df;"/><rect x="145.736" y="65.544" width="1.945" height="8.785" style="fill:#9df;"/><rect x="150.557" y="60.008" width="1.945" height="4.534" style="fill:#9df;"/><rect x="136.223" y="65.544" width="1.945" height="8.785" style="fill:#9df;"/><rect x="140.92" y="60.008" width="1.945" height="4.534" style="fill:#9df;"/><rect x="140.92" y="65.544" width="1.945" height="8.785" style="fill:#9df;"/><rect x="145.736" y="60.008" width="1.945" height="4.534" style="fill:#9df;"/><rect x="145.736" y="65.544" width="1.945" height="8.785" style="fill:#9df;"/><rect x="150.557" y="60.008" width="1.945" height="4.534" style="fill:#9df;"/><rect x="155.201" y="65.88" width="3.549" height="8.785" style="fill:#9df;"/><rect x="160.826" y="65.88" width="3.549" height="8.785" style="fill:#9df;"/><rect x="160.826" y="55.17" width="3.549" height="8.785" style="fill:#9df;"/><rect x="166.566" y="65.88" width="3.549" height="8.785" style="fill:#9df;"/><rect x="172.61" y="60.008" width="1.945" height="4.534" style="fill:#9df;"/><rect x="177.307" y="60.008" width="1.945" height="4.534" style="fill:#9df;"/><rect x="177.307" y="65.544" width="1.945" height="8.785" style="fill:#9df;"/><rect x="182.122" y="60.008" width="1.945" height="4.534" style="fill:#9df;"/><rect x="182.122" y="65.544" width="1.945" height="8.785" style="fill:#9df;"/><rect x="186.943" y="65.544" width="1.945" height="8.785" style="fill:#9df;"/><rect x="191.354" y="60.448" width="3.026" height="4.534" style="fill:#9df;"/><rect x="196.835" y="60.448" width="3.026" height="4.534" style="fill:#9df;"/><rect x="202.242" y="60.448" width="3.026" height="4.534" style="fill:#9df;"/><rect x="207.57" y="60.448" width="3.026" height="4.534" style="fill:#9df;"/><rect x="212.583" y="60.448" width="3.026" height="4.534" style="fill:#9df;"/><rect x="191.354" y="66.39" width="3.026" height="8.379" style="fill:#9df;"/><rect x="196.835" y="66.39" width="3.026" height="8.379" style="fill:#9df;"/><rect x="202.242" y="66.39" width="3.026" height="8.379" style="fill:#9df;"/><rect x="207.57" y="66.39" width="3.026" height="8.379" style="fill:#9df;"/><rect x="212.583" y="66.39" width="3.026" height="8.379" style="fill:#9df;"/></g></g><rect x="157.868" y="56.16" width="9.466" height="6.238" style="fill:#9df;"/></g><g><path d="M27.123,45.004l0,-16.329c0,-0.465 -0.185,-0.91 -0.514,-1.239c-0.328,-0.329 -0.774,-0.513 -1.239,-0.513c-0.11,0 -0.222,0 -0.333,0c-0.464,0 -0.91,0.184 -1.239,0.513c-0.328,0.329 -0.513,0.774 -0.513,1.239l0,15.764l-1.475,-0.217l0,-12.555c0,-0.968 -0.785,-1.753 -1.753,-1.753c-0.11,0 -0.222,0 -0.332,0c-0.968,0 -1.753,0.785 -1.753,1.753l0,15.453l-2.186,-3.762c-0.234,-0.402 -0.617,-0.694 -1.067,-0.813c-0.449,-0.119 -0.927,-0.055 -1.329,0.178c-0.243,0.142 -0.494,0.288 -0.737,0.429c-0.402,0.233 -0.695,0.617 -0.814,1.066c-0.119,0.45 -0.054,0.928 0.179,1.33c1.505,2.589 4.614,7.939 6.735,11.588c0.114,0.195 0.24,0.379 0.378,0.55c0.777,1.438 2.163,2.493 3.807,2.828l-0.942,13.424l11.928,0l-0.94,-13.407c2.591,-0.486 4.554,-2.757 4.561,-5.489l0.009,-3.699l0.011,0l0,-4.375l0.002,-0.425l-0.002,0l0,-12.393c0,-0.968 -0.784,-1.752 -1.752,-1.752c-0.111,0 -0.222,0 -0.333,0c-0.967,0 -1.752,0.784 -1.752,1.752l0,11.828l-1.481,-0.219l0,-14.092c0,-0.968 -0.784,-1.753 -1.752,-1.753c-0.111,0 -0.222,0 -0.333,0c-0.968,0 -1.752,0.785 -1.752,1.753l0,13.527l-1.287,-0.19Z" style="fill:#00a1f4;"/><path d="M47.962,56.36l0,-9.42c0,-0.639 -0.518,-1.158 -1.158,-1.158c0,0 -0.001,0 -0.001,0c-0.64,0 -1.158,0.519 -1.158,1.158l0,9.762l-0.777,0.114l0,-8.069c0,-0.307 -0.122,-0.602 -0.339,-0.819c-0.218,-0.217 -0.512,-0.339 -0.819,-0.339c-0.001,0 -0.001,0 -0.002,0c-0.307,0 -0.601,0.122 -0.819,0.339c-0.217,0.217 -0.339,0.512 -0.339,0.819l0,8.411l-0.894,0.131l0,-7.043c0,-0.307 -0.122,-0.601 -0.339,-0.818c-0.217,-0.218 -0.512,-0.34 -0.819,-0.34c-0.001,0 -0.001,0 -0.002,0c-0.307,0 -0.601,0.122 -0.818,0.34c-0.218,0.217 -0.34,0.511 -0.34,0.818l0,7.385l0,0l0,0.257l0,2.642l0.007,0l0,0.021c0.005,2.047 1.109,3.836 2.751,4.808l-0.58,8.277l7.203,0l-0.577,-8.238c0.09,-0.052 0.178,-0.106 0.265,-0.163c0.723,-0.138 1.384,-0.576 1.783,-1.262c1.223,-2.105 2.991,-5.146 3.939,-6.778c0.365,-0.627 0.152,-1.432 -0.476,-1.797c-0.001,0 -0.002,-0.001 -0.003,-0.001c-0.627,-0.365 -1.432,-0.152 -1.796,0.476l-0.683,1.175l0,-8.301c0,-0.307 -0.122,-0.602 -0.339,-0.819c-0.217,-0.217 -0.512,-0.339 -0.819,-0.339c-0.001,0 -0.001,0 -0.002,0c-0.307,0 -0.601,0.122 -0.818,0.339c-0.218,0.217 -0.34,0.512 -0.34,0.819l0,7.482l-0.891,0.131Z" style="fill:#9df;"/><path d="M15.006,63.882l0,-5.809c0,-0.381 -0.309,-0.689 -0.69,-0.689c0,0 0,0 0,0c-0.381,0 -0.69,0.308 -0.69,0.689l0,5.605l-0.53,-0.078l0,-4.452c0,-0.381 -0.308,-0.689 -0.689,-0.689c0,0 0,0 -0.001,0c-0.38,0 -0.689,0.308 -0.689,0.689l0,4.939l-0.406,-0.698c-0.217,-0.374 -0.696,-0.501 -1.07,-0.284c0,0 0,0.001 0,0.001c-0.374,0.217 -0.501,0.696 -0.284,1.07c0.565,0.971 1.616,2.78 2.344,4.032c0.209,0.359 0.551,0.621 0.953,0.727c0.089,0.024 0.18,0.039 0.271,0.047l-0.349,4.976l4.286,0l-0.341,-4.873c0.972,-0.548 1.63,-1.59 1.633,-2.785l0,-0.141l0.004,0l0,-1.572l0.001,-0.153l-0.001,0l0,-4.394c0,-0.38 -0.308,-0.689 -0.689,-0.689c0,0 0,0 -0.001,0c-0.38,0 -0.689,0.309 -0.689,0.689l0,4.191l-0.532,-0.078l0,-5.005c0,-0.381 -0.308,-0.689 -0.689,-0.689c0,0 -0.001,0 -0.001,0c-0.38,0 -0.689,0.308 -0.689,0.689l0,4.802l-0.462,-0.068Z" style="fill:#414141;"/></g><g><path d="M291.31,44.365l0,-16.329c0,-0.465 0.185,-0.911 0.514,-1.239c0.328,-0.329 0.774,-0.514 1.239,-0.514c0.11,0 0.222,0 0.332,0c0.465,0 0.911,0.185 1.24,0.514c0.328,0.328 0.513,0.774 0.513,1.239l0,15.764l1.475,-0.218l0,-12.555c0,-0.968 0.785,-1.752 1.753,-1.752c0.11,0 0.222,0 0.332,0c0.968,0 1.753,0.784 1.753,1.752l0,15.454l2.186,-3.762c0.234,-0.402 0.617,-0.695 1.067,-0.814c0.449,-0.119 0.927,-0.055 1.329,0.179c0.243,0.141 0.494,0.287 0.737,0.428c0.402,0.234 0.694,0.618 0.813,1.067c0.119,0.449 0.055,0.927 -0.178,1.329c-1.505,2.589 -4.615,7.939 -6.735,11.588c-0.114,0.196 -0.241,0.379 -0.378,0.55c-0.777,1.438 -2.163,2.494 -3.807,2.829l0.941,13.424l-11.927,0l0.94,-13.407c-2.591,-0.486 -4.554,-2.757 -4.561,-5.489l-0.009,-3.699l-0.012,0l0,-4.375l-0.001,-0.425l0.001,-0.001l0,-12.392c0,-0.968 0.785,-1.753 1.753,-1.753c0.11,0 0.222,0 0.333,0c0.967,0 1.752,0.785 1.752,1.753l0,11.827l1.481,-0.218l0,-14.093c0,-0.968 0.784,-1.752 1.752,-1.752c0.111,0 0.222,0 0.333,0c0.968,0 1.752,0.784 1.752,1.752l0,13.528l1.287,-0.19Z" style="fill:#414141;"/><path d="M270.47,55.721l0,-9.42c0,-0.64 0.519,-1.158 1.158,-1.158c0.001,0 0.001,0 0.002,0c0.64,0 1.158,0.518 1.158,1.158l0,9.761l0.777,0.115l0,-8.07c0,-0.307 0.122,-0.601 0.339,-0.819c0.218,-0.217 0.512,-0.339 0.819,-0.339c0.001,0 0.001,0 0.002,0c0.307,0 0.601,0.122 0.819,0.339c0.217,0.218 0.339,0.512 0.339,0.819l0,8.411l0.894,0.132l0,-7.043c0,-0.307 0.122,-0.602 0.339,-0.819c0.217,-0.217 0.512,-0.339 0.819,-0.339c0.001,0 0.001,0 0.002,0c0.307,0 0.601,0.122 0.818,0.339c0.218,0.217 0.34,0.512 0.34,0.819l0,7.384l0,0.001l0,0.256l0,2.642l-0.007,0l0,0.022c-0.005,2.047 -1.109,3.835 -2.751,4.808l0.58,8.276l-7.203,0l0.577,-8.238c-0.09,-0.052 -0.179,-0.106 -0.266,-0.162c-0.722,-0.138 -1.383,-0.577 -1.782,-1.263c-1.223,-2.104 -2.991,-5.146 -3.939,-6.777c-0.365,-0.628 -0.152,-1.432 0.476,-1.797c0.001,-0.001 0.002,-0.001 0.002,-0.001c0.628,-0.365 1.432,-0.152 1.797,0.475l0.683,1.175l0,-8.301c0,-0.307 0.122,-0.601 0.339,-0.819c0.217,-0.217 0.512,-0.339 0.819,-0.339c0,0 0.001,0 0.001,0c0.308,0 0.602,0.122 0.819,0.339c0.218,0.218 0.34,0.512 0.34,0.819l0,7.483l0.89,0.131Z" style="fill:#00a1f4;"/><path d="M303.427,63.242l0,-5.809c0,-0.38 0.309,-0.689 0.689,-0.689c0.001,0 0.001,0 0.001,0c0.381,0 0.689,0.309 0.689,0.689l0,5.606l0.531,-0.078l0,-4.453c0,-0.38 0.308,-0.689 0.689,-0.689c0,0 0,0 0.001,0c0.38,0 0.689,0.309 0.689,0.689l0,4.94l0.406,-0.699c0.217,-0.373 0.696,-0.5 1.07,-0.283c0,0 0,0 0,0c0.374,0.217 0.501,0.696 0.283,1.07c-0.564,0.971 -1.616,2.781 -2.343,4.033c-0.209,0.359 -0.551,0.62 -0.953,0.726c-0.089,0.024 -0.18,0.04 -0.271,0.047l0.349,4.977l-4.286,0l0.341,-4.874c-0.972,-0.548 -1.63,-1.589 -1.633,-2.785l0,-0.14l-0.004,0l0,-1.572l-0.001,-0.153l0.001,0l0,-4.394c0,-0.381 0.308,-0.689 0.689,-0.689c0,0 0,0 0.001,0c0.38,0 0.689,0.308 0.689,0.689l0,4.191l0.532,-0.079l0,-5.005c0,-0.38 0.308,-0.689 0.689,-0.689c0,0 0,0 0.001,0c0.38,0 0.689,0.309 0.689,0.689l0,4.802l0.462,-0.068Z" style="fill:#9df;"/></g></g></svg>