<?xml version="1.0" encoding="UTF-8" standalone="no"?><!DOCTYPE svg PUBLIC "-//W3C//DTD SVG 1.1//EN" "http://www.w3.org/Graphics/SVG/1.1/DTD/svg11.dtd"><svg width="100%" height="100%" viewBox="0 0 321 116" version="1.1" xmlns="http://www.w3.org/2000/svg" xmlns:xlink="http://www.w3.org/1999/xlink" xml:space="preserve" xmlns:serif="http://www.serif.com/" style="fill-rule:evenodd;clip-rule:evenodd;stroke-linecap:round;stroke-linejoin:round;stroke-miterlimit:1.5;"><rect id="governance" x="0" y="0" width="321" height="116" style="fill:none;"/><clipPath id="_clip1"><rect x="0" y="0" width="321" height="116"/></clipPath><g clip-path="url(#_clip1)"><rect x="0" y="0" width="321" height="116" style="fill:#ebebeb;"/><rect x="-21.221" y="108.309" width="387.574" height="13.191" style="fill:#1ed2f4;"/><path d="M90.48,98.17c0.95,0.76 1.425,1.88 1.425,3.36c0,1.7 -0.755,3.005 -2.265,3.915c-1.51,0.91 -3.565,1.365 -6.165,1.365c-2.62,0 -4.555,-0.31 -5.805,-0.93c-1.25,-0.62 -1.875,-1.49 -1.875,-2.61c0,-0.66 0.23,-1.24 0.69,-1.74c0.46,-0.5 1.16,-0.86 2.1,-1.08c-1.54,-0.66 -2.31,-1.7 -2.31,-3.12c0,-0.7 0.22,-1.32 0.66,-1.86c0.44,-0.54 1.04,-0.94 1.8,-1.2c-1.64,-0.88 -2.46,-2.25 -2.46,-4.11c0,-1.62 0.64,-2.875 1.92,-3.765c1.28,-0.89 3.08,-1.335 5.4,-1.335c1.08,0 2.08,0.11 3,0.33c0.2,-1.2 0.65,-2.18 1.35,-2.94c0.7,-0.76 1.67,-1.14 2.91,-1.14l0.48,0.03l0.57,3.39c-0.4,-0.04 -0.68,-0.06 -0.84,-0.06c-0.68,0 -1.245,0.12 -1.695,0.36c-0.45,0.24 -0.775,0.57 -0.975,0.99c1.68,0.88 2.52,2.26 2.52,4.14c0,1.62 -0.64,2.87 -1.92,3.75c-1.28,0.88 -3.08,1.32 -5.4,1.32c-1.08,0 -2.04,-0.09 -2.88,-0.27c-0.62,0.16 -0.93,0.51 -0.93,1.05c0,0.68 0.52,1.02 1.56,1.02l5.1,0c1.74,0 3.085,0.38 4.035,1.14Zm-8.49,-9.6c-0.41,0.4 -0.615,0.93 -0.615,1.59c0,0.66 0.205,1.185 0.615,1.575c0.41,0.39 0.945,0.585 1.605,0.585c0.66,0 1.195,-0.195 1.605,-0.585c0.41,-0.39 0.615,-0.915 0.615,-1.575c0,-0.66 -0.205,-1.19 -0.615,-1.59c-0.41,-0.4 -0.945,-0.6 -1.605,-0.6c-0.66,0 -1.195,0.2 -1.605,0.6Zm4.86,14.535c0.69,-0.27 1.035,-0.625 1.035,-1.065c0,-0.32 -0.14,-0.56 -0.42,-0.72c-0.28,-0.16 -0.75,-0.24 -1.41,-0.24l-4.11,0c-0.82,0 -1.405,0.085 -1.755,0.255c-0.35,0.17 -0.525,0.435 -0.525,0.795c0,0.92 1.39,1.38 4.17,1.38c1.32,0 2.325,-0.135 3.015,-0.405Z" style="fill:#414141;fill-rule:nonzero;"/><path d="M106.95,87.115c1.39,1.37 2.085,3.285 2.085,5.745c0,2.46 -0.695,4.375 -2.085,5.745c-1.39,1.37 -3.335,2.055 -5.835,2.055c-2.5,0 -4.445,-0.685 -5.835,-2.055c-1.39,-1.37 -2.085,-3.285 -2.085,-5.745c0,-2.46 0.695,-4.375 2.085,-5.745c1.39,-1.37 3.335,-2.055 5.835,-2.055c2.5,0 4.445,0.685 5.835,2.055Zm-7.965,2.565c-0.46,0.66 -0.69,1.72 -0.69,3.18c0,1.46 0.23,2.52 0.69,3.18c0.46,0.66 1.17,0.99 2.13,0.99c0.96,0 1.67,-0.33 2.13,-0.99c0.46,-0.66 0.69,-1.72 0.69,-3.18c0,-1.46 -0.23,-2.52 -0.69,-3.18c-0.46,-0.66 -1.17,-0.99 -2.13,-0.99c-0.96,0 -1.67,0.33 -2.13,0.99Z" style="fill:#414141;fill-rule:nonzero;"/><path d="M126.675,85.36l-5.4,15l-6.09,0l-5.4,-15l5.37,0l3.09,11.76l3.15,-11.76l5.28,0Z" style="fill:#414141;fill-rule:nonzero;"/><path d="M142.605,94.33l-10.23,0c0.16,0.94 0.505,1.63 1.035,2.07c0.53,0.44 1.235,0.66 2.115,0.66c0.74,0 1.345,-0.14 1.815,-0.42c0.47,-0.28 0.785,-0.69 0.945,-1.23l4.14,1.32c-0.42,1.28 -1.235,2.255 -2.445,2.925c-1.21,0.67 -2.695,1.005 -4.455,1.005c-2.62,0 -4.625,-0.68 -6.015,-2.04c-1.39,-1.36 -2.085,-3.28 -2.085,-5.76c0,-2.48 0.68,-4.4 2.04,-5.76c1.36,-1.36 3.29,-2.04 5.79,-2.04c2.42,0 4.275,0.665 5.565,1.995c1.29,1.33 1.935,3.195 1.935,5.595c0,0.68 -0.05,1.24 -0.15,1.68Zm-10.26,-2.76l5.64,0c-0.24,-1.96 -1.16,-2.94 -2.76,-2.94c-1.62,0 -2.58,0.98 -2.88,2.94Z" style="fill:#414141;fill-rule:nonzero;"/><path d="M156.495,85.39l-0.54,4.32c-0.2,-0.12 -0.47,-0.225 -0.81,-0.315c-0.34,-0.09 -0.7,-0.135 -1.08,-0.135c-0.96,0 -1.76,0.305 -2.4,0.915c-0.64,0.61 -0.96,1.485 -0.96,2.625l0,7.56l-5.1,0l0,-15l4.5,0l0.21,3.24c0.36,-1.14 0.925,-2.015 1.695,-2.625c0.77,-0.61 1.725,-0.915 2.865,-0.915c0.68,0 1.22,0.11 1.62,0.33Z" style="fill:#414141;fill-rule:nonzero;"/><path d="M172.125,86.44c0.94,0.92 1.41,2.23 1.41,3.93l0,9.99l-5.1,0l0,-8.58c0,-1.02 -0.185,-1.745 -0.555,-2.175c-0.37,-0.43 -0.895,-0.645 -1.575,-0.645c-0.8,0 -1.45,0.285 -1.95,0.855c-0.5,0.57 -0.75,1.445 -0.75,2.625l0,7.92l-5.1,0l0,-15l4.56,0l0.15,2.88c0.48,-1.06 1.16,-1.855 2.04,-2.385c0.88,-0.53 1.91,-0.795 3.09,-0.795c1.58,0 2.84,0.46 3.78,1.38Z" style="fill:#414141;fill-rule:nonzero;"/><path d="M192.525,97.33l-0.39,2.85c-0.58,0.32 -1.26,0.48 -2.04,0.48c-2.16,0 -3.45,-0.77 -3.87,-2.31c-0.9,1.54 -2.68,2.31 -5.34,2.31c-1.5,0 -2.65,-0.32 -3.45,-0.96c-0.8,-0.64 -1.2,-1.57 -1.2,-2.79c0,-1.28 0.455,-2.315 1.365,-3.105c0.91,-0.79 2.405,-1.395 4.485,-1.815l3.39,-0.66l0,-0.54c0,-0.68 -0.19,-1.22 -0.57,-1.62c-0.38,-0.4 -0.9,-0.6 -1.56,-0.6c-0.76,0 -1.38,0.18 -1.86,0.54c-0.48,0.36 -0.79,0.95 -0.93,1.77l-4.14,-1.2c0.26,-1.46 0.98,-2.595 2.16,-3.405c1.18,-0.81 2.77,-1.215 4.77,-1.215c2.34,0 4.12,0.48 5.34,1.44c1.22,0.96 1.83,2.4 1.83,4.32l0,5.46c0,0.78 0.36,1.17 1.08,1.17c0.38,0 0.69,-0.04 0.93,-0.12Zm-7.89,-0.555c0.56,-0.39 0.84,-0.905 0.84,-1.545l0,-1.29l-2.43,0.57c-0.64,0.16 -1.095,0.355 -1.365,0.585c-0.27,0.23 -0.405,0.555 -0.405,0.975c0,0.42 0.13,0.74 0.39,0.96c0.26,0.22 0.62,0.33 1.08,0.33c0.7,0 1.33,-0.195 1.89,-0.585Z" style="fill:#414141;fill-rule:nonzero;"/><path d="M208.155,86.44c0.94,0.92 1.41,2.23 1.41,3.93l0,9.99l-5.1,0l0,-8.58c0,-1.02 -0.185,-1.745 -0.555,-2.175c-0.37,-0.43 -0.895,-0.645 -1.575,-0.645c-0.8,0 -1.45,0.285 -1.95,0.855c-0.5,0.57 -0.75,1.445 -0.75,2.625l0,7.92l-5.1,0l0,-15l4.56,0l0.15,2.88c0.48,-1.06 1.16,-1.855 2.04,-2.385c0.88,-0.53 1.91,-0.795 3.09,-0.795c1.58,0 2.84,0.46 3.78,1.38Z" style="fill:#414141;fill-rule:nonzero;"/><path d="M225.405,86.35c1.14,0.86 1.85,1.98 2.13,3.36l-4.74,1.56c-0.2,-1.72 -0.97,-2.58 -2.31,-2.58c-1.98,0 -2.97,1.41 -2.97,4.23c0,2.74 0.99,4.11 2.97,4.11c1.42,0 2.25,-0.81 2.49,-2.43l4.59,1.47c-0.22,1.36 -0.945,2.465 -2.175,3.315c-1.23,0.85 -2.855,1.275 -4.875,1.275c-2.6,0 -4.6,-0.68 -6,-2.04c-1.4,-1.36 -2.1,-3.28 -2.1,-5.76c0,-2.46 0.695,-4.375 2.085,-5.745c1.39,-1.37 3.325,-2.055 5.805,-2.055c2.26,0 3.96,0.43 5.1,1.29Z" style="fill:#414141;fill-rule:nonzero;"/><path d="M244.725,94.33l-10.23,0c0.16,0.94 0.505,1.63 1.035,2.07c0.53,0.44 1.235,0.66 2.115,0.66c0.74,0 1.345,-0.14 1.815,-0.42c0.47,-0.28 0.785,-0.69 0.945,-1.23l4.14,1.32c-0.42,1.28 -1.235,2.255 -2.445,2.925c-1.21,0.67 -2.695,1.005 -4.455,1.005c-2.62,0 -4.625,-0.68 -6.015,-2.04c-1.39,-1.36 -2.085,-3.28 -2.085,-5.76c0,-2.48 0.68,-4.4 2.04,-5.76c1.36,-1.36 3.29,-2.04 5.79,-2.04c2.42,0 4.275,0.665 5.565,1.995c1.29,1.33 1.935,3.195 1.935,5.595c0,0.68 -0.05,1.24 -0.15,1.68Zm-10.26,-2.76l5.64,0c-0.24,-1.96 -1.16,-2.94 -2.76,-2.94c-1.62,0 -2.58,0.98 -2.88,2.94Z" style="fill:#414141;fill-rule:nonzero;"/><g><path d="M158.7,29.463l6.662,0" style="fill:none;stroke:#00a1f4;stroke-width:1.17px;"/><path d="M158.7,39.829l6.662,0" style="fill:none;stroke:#00a1f4;stroke-width:1.17px;"/><path d="M162.029,18.858c-0.931,-0.985 -1.941,-1.925 -3.12,-2.32c-0.698,-0.234 -1.448,-0.188 -2.126,0.129c-1.132,0.521 -2.068,1.567 -3.197,2.095c-0.663,0.325 -1.391,0.414 -2.089,0.264c-1.034,-0.22 -1.976,-0.873 -2.843,-1.613c-0.004,-3.933 -0.002,-3.431 -0.001,-7.365c0.887,0.755 1.853,1.423 2.913,1.627c0.764,0.154 1.556,-0.002 2.263,-0.402c0.958,-0.515 1.783,-1.366 2.746,-1.868c0.673,-0.362 1.428,-0.483 2.143,-0.286c1.256,0.343 2.331,1.335 3.309,2.371c0.008,3.934 0.003,3.433 0.002,7.368Z" style="fill:#00a1f4;fill-rule:nonzero;"/><path d="M162.031,9.476l0,33.311" style="fill:none;stroke:#00a1f4;stroke-width:1.17px;"/><path d="M158.7,26.132l0,16.655l-14.99,13.324" style="fill:none;stroke:#00a1f4;stroke-width:1.17px;"/><path d="M156.147,29.463l0,11.658l-18.321,14.99" style="fill:none;stroke:#00a1f4;stroke-width:1.17px;"/><path d="M165.362,26.132l0,16.655l14.99,13.324" style="fill:none;stroke:#00a1f4;stroke-width:1.17px;"/><path d="M167.916,29.463l0,11.658l18.321,14.99" style="fill:none;stroke:#00a1f4;stroke-width:1.17px;"/><path d="M82.186,59.774l0,-8.109c7.648,-0.542 16.446,0.217 26.552,4.361l0,-5.159c8.732,-0.619 17.759,1.196 26.851,4.186l-53.403,4.721Z" style="fill:#00a1f4;"/><clipPath id="_clip2"><path d="M82.186,59.774l0,-8.109c7.648,-0.542 16.446,0.217 26.552,4.361l0,-5.159c8.732,-0.619 17.759,1.196 26.851,4.186l-53.403,4.721Z"/></clipPath><g clip-path="url(#_clip2)"><path d="M87.638,54.079l-4.235,-0.272l0,2.944l4.235,0.272l0,-2.944Z" style="fill:#9df;"/><path d="M113.72,52.417l-3.471,-0.244l0,2.643l3.471,0.245l0,-2.644Z" style="fill:#9df;"/></g><path d="M241.224,59.774l0,-8.109c-7.648,-0.542 -16.446,0.217 -26.551,4.361l0,-5.159c-8.733,-0.619 -17.76,1.196 -26.851,4.186l53.402,4.721Z" style="fill:#00a1f4;"/><clipPath id="_clip3"><path d="M241.224,59.774l0,-8.109c-7.648,-0.542 -16.446,0.217 -26.551,4.361l0,-5.159c-8.733,-0.619 -17.76,1.196 -26.851,4.186l53.402,4.721Z"/></clipPath><g clip-path="url(#_clip3)"><path d="M235.772,54.079l4.236,-0.272l0,2.944l-4.236,0.272l0,-2.944Z" style="fill:#9df;"/><path d="M209.691,52.417l3.47,-0.244l0,2.643l-3.47,0.245l0,-2.644Z" style="fill:#9df;"/></g><path d="M257.068,61.701c-64.082,-10.415 -128.461,-10.374 -193.136,0l0,11.635l193.136,0l0,-11.635Z" style="fill:#9df;"/><rect x="103.49" y="59.374" width="116.346" height="13.962" style="fill:#00a1f4;"/><clipPath id="_clip4"><rect x="103.49" y="59.374" width="116.346" height="13.962"/></clipPath><g clip-path="url(#_clip4)"><g><rect x="109.296" y="60.411" width="3.026" height="4.534" style="fill:#9df;"/><rect x="114.776" y="60.411" width="3.026" height="4.534" style="fill:#9df;"/><rect x="120.183" y="60.411" width="3.026" height="4.534" style="fill:#9df;"/><rect x="125.511" y="60.411" width="3.026" height="4.534" style="fill:#9df;"/><rect x="130.524" y="60.411" width="3.026" height="4.534" style="fill:#9df;"/><rect x="109.296" y="66.353" width="3.026" height="8.379" style="fill:#9df;"/><rect x="114.776" y="66.353" width="3.026" height="8.379" style="fill:#9df;"/><rect x="120.183" y="66.353" width="3.026" height="8.379" style="fill:#9df;"/><rect x="125.511" y="66.353" width="3.026" height="8.379" style="fill:#9df;"/><rect x="130.524" y="66.353" width="3.026" height="8.379" style="fill:#9df;"/><rect x="136.223" y="65.508" width="1.945" height="8.785" style="fill:#9df;"/><rect x="140.92" y="59.972" width="1.945" height="4.534" style="fill:#9df;"/><rect x="140.92" y="65.508" width="1.945" height="8.785" style="fill:#9df;"/><rect x="145.736" y="59.972" width="1.945" height="4.534" style="fill:#9df;"/><rect x="145.736" y="65.508" width="1.945" height="8.785" style="fill:#9df;"/><rect x="150.557" y="59.972" width="1.945" height="4.534" style="fill:#9df;"/><rect x="136.223" y="65.508" width="1.945" height="8.785" style="fill:#9df;"/><rect x="140.92" y="59.972" width="1.945" height="4.534" style="fill:#9df;"/><rect x="140.92" y="65.508" width="1.945" height="8.785" style="fill:#9df;"/><rect x="145.736" y="59.972" width="1.945" height="4.534" style="fill:#9df;"/><rect x="145.736" y="65.508" width="1.945" height="8.785" style="fill:#9df;"/><rect x="150.557" y="59.972" width="1.945" height="4.534" style="fill:#9df;"/><rect x="155.201" y="65.843" width="3.549" height="8.785" style="fill:#9df;"/><rect x="160.826" y="65.843" width="3.549" height="8.785" style="fill:#9df;"/><rect x="160.826" y="55.133" width="3.549" height="8.785" style="fill:#9df;"/><rect x="166.566" y="65.843" width="3.549" height="8.785" style="fill:#9df;"/><rect x="172.61" y="59.972" width="1.945" height="4.534" style="fill:#9df;"/><rect x="177.307" y="59.972" width="1.945" height="4.534" style="fill:#9df;"/><rect x="177.307" y="65.508" width="1.945" height="8.785" style="fill:#9df;"/><rect x="182.122" y="59.972" width="1.945" height="4.534" style="fill:#9df;"/><rect x="182.122" y="65.508" width="1.945" height="8.785" style="fill:#9df;"/><rect x="186.943" y="65.508" width="1.945" height="8.785" style="fill:#9df;"/><rect x="191.354" y="60.411" width="3.026" height="4.534" style="fill:#9df;"/><rect x="196.835" y="60.411" width="3.026" height="4.534" style="fill:#9df;"/><rect x="202.242" y="60.411" width="3.026" height="4.534" style="fill:#9df;"/><rect x="207.57" y="60.411" width="3.026" height="4.534" style="fill:#9df;"/><rect x="212.583" y="60.411" width="3.026" height="4.534" style="fill:#9df;"/><rect x="191.354" y="66.353" width="3.026" height="8.379" style="fill:#9df;"/><rect x="196.835" y="66.353" width="3.026" height="8.379" style="fill:#9df;"/><rect x="202.242" y="66.353" width="3.026" height="8.379" style="fill:#9df;"/><rect x="207.57" y="66.353" width="3.026" height="8.379" style="fill:#9df;"/><rect x="212.583" y="66.353" width="3.026" height="8.379" style="fill:#9df;"/></g></g><rect x="157.868" y="56.124" width="9.466" height="6.238" style="fill:#9df;"/></g><g><path d="M27.123,44.968l0,-16.329c0,-0.465 -0.185,-0.911 -0.514,-1.239c-0.328,-0.329 -0.774,-0.514 -1.239,-0.514c-0.11,0 -0.222,0 -0.333,0c-0.464,0 -0.91,0.185 -1.239,0.514c-0.328,0.328 -0.513,0.774 -0.513,1.239l0,15.764l-1.475,-0.218l0,-12.555c0,-0.968 -0.785,-1.752 -1.753,-1.752c-0.11,0 -0.222,0 -0.332,0c-0.968,0 -1.753,0.784 -1.753,1.752l0,15.454l-2.186,-3.762c-0.234,-0.402 -0.617,-0.695 -1.067,-0.814c-0.449,-0.119 -0.927,-0.054 -1.329,0.179c-0.243,0.141 -0.494,0.287 -0.737,0.428c-0.402,0.234 -0.695,0.618 -0.814,1.067c-0.119,0.449 -0.054,0.927 0.179,1.329c1.505,2.59 4.614,7.939 6.735,11.588c0.114,0.196 0.24,0.38 0.378,0.55c0.777,1.438 2.163,2.494 3.807,2.829l-0.942,13.424l11.928,0l-0.94,-13.407c2.591,-0.486 4.554,-2.757 4.561,-5.489l0.009,-3.699l0.011,0l0,-4.375l0.002,-0.425l-0.002,0l0,-12.393c0,-0.968 -0.784,-1.753 -1.752,-1.753c-0.111,0 -0.222,0 -0.333,0c-0.967,0 -1.752,0.785 -1.752,1.753l0,11.827l-1.481,-0.218l0,-14.093c0,-0.968 -0.784,-1.752 -1.752,-1.752c-0.111,0 -0.222,0 -0.333,0c-0.968,0 -1.752,0.784 -1.752,1.752l0,13.528l-1.287,-0.19Z" style="fill:#00a1f4;"/><path d="M47.962,56.324l0,-9.42c0,-0.64 -0.518,-1.158 -1.158,-1.158c0,0 -0.001,0 -0.001,0c-0.64,0 -1.158,0.518 -1.158,1.158l0,9.761l-0.777,0.115l0,-8.07c0,-0.307 -0.122,-0.601 -0.339,-0.819c-0.218,-0.217 -0.512,-0.339 -0.819,-0.339c-0.001,0 -0.001,0 -0.002,0c-0.307,0 -0.601,0.122 -0.819,0.339c-0.217,0.218 -0.339,0.512 -0.339,0.819l0,8.411l-0.894,0.132l0,-7.043c0,-0.307 -0.122,-0.602 -0.339,-0.819c-0.217,-0.217 -0.512,-0.339 -0.819,-0.339c-0.001,0 -0.001,0 -0.002,0c-0.307,0 -0.601,0.122 -0.818,0.339c-0.218,0.217 -0.34,0.512 -0.34,0.819l0,7.385l0,0l0,0.256l0,2.642l0.007,0l0,0.022c0.005,2.047 1.109,3.835 2.751,4.808l-0.58,8.276l7.203,0l-0.577,-8.238c0.09,-0.052 0.178,-0.106 0.265,-0.162c0.723,-0.138 1.384,-0.577 1.783,-1.263c1.223,-2.104 2.991,-5.146 3.939,-6.777c0.365,-0.628 0.152,-1.432 -0.476,-1.797c-0.001,0 -0.002,-0.001 -0.003,-0.001c-0.627,-0.365 -1.432,-0.152 -1.796,0.476l-0.683,1.174l0,-8.301c0,-0.307 -0.122,-0.601 -0.339,-0.819c-0.217,-0.217 -0.512,-0.339 -0.819,-0.339c-0.001,0 -0.001,0 -0.002,0c-0.307,0 -0.601,0.122 -0.818,0.339c-0.218,0.218 -0.34,0.512 -0.34,0.819l0,7.483l-0.891,0.131Z" style="fill:#9df;"/><path d="M15.006,63.845l0,-5.809c0,-0.38 -0.309,-0.689 -0.69,-0.689c0,0 0,0 0,0c-0.381,0 -0.69,0.309 -0.69,0.689l0,5.606l-0.53,-0.078l0,-4.453c0,-0.38 -0.308,-0.689 -0.689,-0.689c0,0 0,0 -0.001,0c-0.38,0 -0.689,0.309 -0.689,0.689l0,4.94l-0.406,-0.699c-0.217,-0.373 -0.696,-0.5 -1.07,-0.283c0,0 0,0 0,0c-0.374,0.217 -0.501,0.697 -0.284,1.07c0.565,0.971 1.616,2.781 2.344,4.033c0.209,0.359 0.551,0.62 0.953,0.726c0.089,0.024 0.18,0.04 0.271,0.047l-0.349,4.977l4.286,0l-0.341,-4.874c0.972,-0.548 1.63,-1.589 1.633,-2.785l0,-0.14l0.004,0l0,-1.572l0.001,-0.153l-0.001,0l0,-4.394c0,-0.381 -0.308,-0.689 -0.689,-0.689c0,0 0,0 -0.001,0c-0.38,0 -0.689,0.308 -0.689,0.689l0,4.191l-0.532,-0.079l0,-5.005c0,-0.38 -0.308,-0.689 -0.689,-0.689c0,0 -0.001,0 -0.001,0c-0.38,0 -0.689,0.309 -0.689,0.689l0,4.802l-0.462,-0.068Z" style="fill:#414141;"/></g><g><path d="M291.31,44.329l0,-16.33c0,-0.464 0.185,-0.91 0.514,-1.239c0.328,-0.328 0.774,-0.513 1.239,-0.513c0.11,0 0.222,0 0.332,0c0.465,0 0.911,0.185 1.24,0.513c0.328,0.329 0.513,0.775 0.513,1.239l0,15.764l1.475,-0.217l0,-12.555c0,-0.968 0.785,-1.753 1.753,-1.753c0.11,0 0.222,0 0.332,0c0.968,0 1.753,0.785 1.753,1.753l0,15.453l2.186,-3.762c0.234,-0.402 0.617,-0.694 1.067,-0.813c0.449,-0.119 0.927,-0.055 1.329,0.179c0.243,0.141 0.494,0.287 0.737,0.428c0.402,0.234 0.694,0.617 0.813,1.066c0.119,0.45 0.055,0.928 -0.178,1.33c-1.505,2.589 -4.615,7.939 -6.735,11.588c-0.114,0.196 -0.241,0.379 -0.378,0.55c-0.777,1.438 -2.163,2.494 -3.807,2.828l0.941,13.424l-11.927,0l0.94,-13.407c-2.591,-0.486 -4.554,-2.757 -4.561,-5.489l-0.009,-3.699l-0.012,0l0,-4.375l-0.001,-0.425l0.001,0l0,-12.393c0,-0.968 0.785,-1.752 1.753,-1.752c0.11,0 0.222,0 0.333,0c0.967,0 1.752,0.784 1.752,1.752l0,11.828l1.481,-0.219l0,-14.092c0,-0.968 0.784,-1.753 1.752,-1.753c0.111,0 0.222,0 0.333,0c0.968,0 1.752,0.785 1.752,1.753l0,13.527l1.287,-0.189Z" style="fill:#414141;"/><path d="M270.47,55.684l0,-9.42c0,-0.639 0.519,-1.158 1.158,-1.158c0.001,0 0.001,0 0.002,0c0.64,0 1.158,0.519 1.158,1.158l0,9.762l0.777,0.114l0,-8.069c0,-0.307 0.122,-0.602 0.339,-0.819c0.218,-0.217 0.512,-0.339 0.819,-0.339c0.001,0 0.001,0 0.002,0c0.307,0 0.601,0.122 0.819,0.339c0.217,0.217 0.339,0.512 0.339,0.819l0,8.411l0.894,0.132l0,-7.043c0,-0.308 0.122,-0.602 0.339,-0.819c0.217,-0.217 0.512,-0.339 0.819,-0.339c0.001,0 0.001,0 0.002,0c0.307,0 0.601,0.122 0.818,0.339c0.218,0.217 0.34,0.511 0.34,0.819l0,7.384l0,0l0,0.257l0,2.642l-0.007,0l0,0.022c-0.005,2.047 -1.109,3.835 -2.751,4.807l0.58,8.277l-7.203,0l0.577,-8.238c-0.09,-0.052 -0.179,-0.106 -0.266,-0.163c-0.722,-0.138 -1.383,-0.576 -1.782,-1.262c-1.223,-2.105 -2.991,-5.146 -3.939,-6.778c-0.365,-0.627 -0.152,-1.432 0.476,-1.796c0.001,-0.001 0.002,-0.001 0.002,-0.002c0.628,-0.365 1.432,-0.152 1.797,0.476l0.683,1.175l0,-8.301c0,-0.307 0.122,-0.602 0.339,-0.819c0.217,-0.217 0.512,-0.339 0.819,-0.339c0,0 0.001,0 0.001,0c0.308,0 0.602,0.122 0.819,0.339c0.218,0.217 0.34,0.512 0.34,0.819l0,7.482l0.89,0.131Z" style="fill:#00a1f4;"/><path d="M303.427,63.206l0,-5.809c0,-0.381 0.309,-0.689 0.689,-0.689c0.001,0 0.001,0 0.001,0c0.381,0 0.689,0.308 0.689,0.689l0,5.605l0.531,-0.078l0,-4.452c0,-0.381 0.308,-0.689 0.689,-0.689c0,0 0,0 0.001,0c0.38,0 0.689,0.308 0.689,0.689l0,4.939l0.406,-0.698c0.217,-0.374 0.696,-0.501 1.07,-0.283c0,0 0,0 0,0c0.374,0.217 0.501,0.696 0.283,1.07c-0.564,0.971 -1.616,2.78 -2.343,4.032c-0.209,0.359 -0.551,0.621 -0.953,0.727c-0.089,0.024 -0.18,0.039 -0.271,0.047l0.349,4.976l-4.286,0l0.341,-4.873c-0.972,-0.548 -1.63,-1.589 -1.633,-2.785l0,-0.14l-0.004,0l0,-1.573l-0.001,-0.152l0.001,0l0,-4.395c0,-0.38 0.308,-0.689 0.689,-0.689c0,0 0,0 0.001,0c0.38,0 0.689,0.309 0.689,0.689l0,4.191l0.532,-0.078l0,-5.005c0,-0.381 0.308,-0.689 0.689,-0.689c0,0 0,0 0.001,0c0.38,0 0.689,0.308 0.689,0.689l0,4.802l0.462,-0.068Z" style="fill:#9df;"/></g></g></svg>