<?xml version="1.0" encoding="UTF-8" standalone="no"?><!DOCTYPE svg PUBLIC "-//W3C//DTD SVG 1.1//EN" "http://www.w3.org/Graphics/SVG/1.1/DTD/svg11.dtd"><svg width="100%" height="100%" viewBox="0 0 321 116" version="1.1" xmlns="http://www.w3.org/2000/svg" xmlns:xlink="http://www.w3.org/1999/xlink" xml:space="preserve" xmlns:serif="http://www.serif.com/" style="fill-rule:evenodd;clip-rule:evenodd;stroke-linecap:round;stroke-linejoin:round;stroke-miterlimit:1.5;"><rect id="governance" x="0" y="0" width="321" height="116" style="fill:none;"/><clipPath id="_clip1"><rect x="0" y="0" width="321" height="116"/></clipPath><g clip-path="url(#_clip1)"><rect x="0" y="0" width="321" height="116" style="fill:#ebebeb;"/><rect x="-21.221" y="108.309" width="387.574" height="13.191" style="fill:#1ed2f4;"/><path d="M90.48,98.17C91.43,98.93 91.905,100.05 91.905,101.53C91.905,103.23 91.15,104.535 89.64,105.445C88.13,106.355 86.075,106.81 83.475,106.81C80.855,106.81 78.92,106.5 77.67,105.88C76.42,105.26 75.795,104.39 75.795,103.27C75.795,102.61 76.025,102.03 76.485,101.53C76.945,101.03 77.645,100.67 78.585,100.45C77.045,99.79 76.275,98.75 76.275,97.33C76.275,96.63 76.495,96.01 76.935,95.47C77.375,94.93 77.975,94.53 78.735,94.27C77.095,93.39 76.275,92.02 76.275,90.16C76.275,88.54 76.915,87.285 78.195,86.395C79.475,85.505 81.275,85.06 83.595,85.06C84.675,85.06 85.675,85.17 86.595,85.39C86.795,84.19 87.245,83.21 87.945,82.45C88.645,81.69 89.615,81.31 90.855,81.31L91.335,81.34L91.905,84.73C91.505,84.69 91.225,84.67 91.065,84.67C90.385,84.67 89.82,84.79 89.37,85.03C88.92,85.27 88.595,85.6 88.395,86.02C90.075,86.9 90.915,88.28 90.915,90.16C90.915,91.78 90.275,93.03 88.995,93.91C87.715,94.79 85.915,95.23 83.595,95.23C82.515,95.23 81.555,95.14 80.715,94.96C80.095,95.12 79.785,95.47 79.785,96.01C79.785,96.69 80.305,97.03 81.345,97.03L86.445,97.03C88.185,97.03 89.53,97.41 90.48,98.17ZM81.99,88.57C81.58,88.97 81.375,89.5 81.375,90.16C81.375,90.82 81.58,91.345 81.99,91.735C82.4,92.125 82.935,92.32 83.595,92.32C84.255,92.32 84.79,92.125 85.2,91.735C85.61,91.345 85.815,90.82 85.815,90.16C85.815,89.5 85.61,88.97 85.2,88.57C84.79,88.17 84.255,87.97 83.595,87.97C82.935,87.97 82.4,88.17 81.99,88.57ZM86.85,103.105C87.54,102.835 87.885,102.48 87.885,102.04C87.885,101.72 87.745,101.48 87.465,101.32C87.185,101.16 86.715,101.08 86.055,101.08L81.945,101.08C81.125,101.08 80.54,101.165 80.19,101.335C79.84,101.505 79.665,101.77 79.665,102.13C79.665,103.05 81.055,103.51 83.835,103.51C85.155,103.51 86.16,103.375 86.85,103.105Z" style="fill:#414141;fill-rule:nonzero;"/><path d="M106.95,87.115C108.34,88.485 109.035,90.4 109.035,92.86C109.035,95.32 108.34,97.235 106.95,98.605C105.56,99.975 103.615,100.66 101.115,100.66C98.615,100.66 96.67,99.975 95.28,98.605C93.89,97.235 93.195,95.32 93.195,92.86C93.195,90.4 93.89,88.485 95.28,87.115C96.67,85.745 98.615,85.06 101.115,85.06C103.615,85.06 105.56,85.745 106.95,87.115ZM98.985,89.68C98.525,90.34 98.295,91.4 98.295,92.86C98.295,94.32 98.525,95.38 98.985,96.04C99.445,96.7 100.155,97.03 101.115,97.03C102.075,97.03 102.785,96.7 103.245,96.04C103.705,95.38 103.935,94.32 103.935,92.86C103.935,91.4 103.705,90.34 103.245,89.68C102.785,89.02 102.075,88.69 101.115,88.69C100.155,88.69 99.445,89.02 98.985,89.68Z" style="fill:#414141;fill-rule:nonzero;"/><path d="M126.675,85.36L121.275,100.36L115.185,100.36L109.785,85.36L115.155,85.36L118.245,97.12L121.395,85.36L126.675,85.36Z" style="fill:#414141;fill-rule:nonzero;"/><path d="M142.605,94.33L132.375,94.33C132.535,95.27 132.88,95.96 133.41,96.4C133.94,96.84 134.645,97.06 135.525,97.06C136.265,97.06 136.87,96.92 137.34,96.64C137.81,96.36 138.125,95.95 138.285,95.41L142.425,96.73C142.005,98.01 141.19,98.985 139.98,99.655C138.77,100.325 137.285,100.66 135.525,100.66C132.905,100.66 130.9,99.98 129.51,98.62C128.12,97.26 127.425,95.34 127.425,92.86C127.425,90.38 128.105,88.46 129.465,87.1C130.825,85.74 132.755,85.06 135.255,85.06C137.675,85.06 139.53,85.725 140.82,87.055C142.11,88.385 142.755,90.25 142.755,92.65C142.755,93.33 142.705,93.89 142.605,94.33ZM132.345,91.57L137.985,91.57C137.745,89.61 136.825,88.63 135.225,88.63C133.605,88.63 132.645,89.61 132.345,91.57Z" style="fill:#414141;fill-rule:nonzero;"/><path d="M156.495,85.39L155.955,89.71C155.755,89.59 155.485,89.485 155.145,89.395C154.805,89.305 154.445,89.26 154.065,89.26C153.105,89.26 152.305,89.565 151.665,90.175C151.025,90.785 150.705,91.66 150.705,92.8L150.705,100.36L145.605,100.36L145.605,85.36L150.105,85.36L150.315,88.6C150.675,87.46 151.24,86.585 152.01,85.975C152.78,85.365 153.735,85.06 154.875,85.06C155.555,85.06 156.095,85.17 156.495,85.39Z" style="fill:#414141;fill-rule:nonzero;"/><path d="M172.125,86.44C173.065,87.36 173.535,88.67 173.535,90.37L173.535,100.36L168.435,100.36L168.435,91.78C168.435,90.76 168.25,90.035 167.88,89.605C167.51,89.175 166.985,88.96 166.305,88.96C165.505,88.96 164.855,89.245 164.355,89.815C163.855,90.385 163.605,91.26 163.605,92.44L163.605,100.36L158.505,100.36L158.505,85.36L163.065,85.36L163.215,88.24C163.695,87.18 164.375,86.385 165.255,85.855C166.135,85.325 167.165,85.06 168.345,85.06C169.925,85.06 171.185,85.52 172.125,86.44Z" style="fill:#414141;fill-rule:nonzero;"/><path d="M192.525,97.33L192.135,100.18C191.555,100.5 190.875,100.66 190.095,100.66C187.935,100.66 186.645,99.89 186.225,98.35C185.325,99.89 183.545,100.66 180.885,100.66C179.385,100.66 178.235,100.34 177.435,99.7C176.635,99.06 176.235,98.13 176.235,96.91C176.235,95.63 176.69,94.595 177.6,93.805C178.51,93.015 180.005,92.41 182.085,91.99L185.475,91.33L185.475,90.79C185.475,90.11 185.285,89.57 184.905,89.17C184.525,88.77 184.005,88.57 183.345,88.57C182.585,88.57 181.965,88.75 181.485,89.11C181.005,89.47 180.695,90.06 180.555,90.88L176.415,89.68C176.675,88.22 177.395,87.085 178.575,86.275C179.755,85.465 181.345,85.06 183.345,85.06C185.685,85.06 187.465,85.54 188.685,86.5C189.905,87.46 190.515,88.9 190.515,90.82L190.515,96.28C190.515,97.06 190.875,97.45 191.595,97.45C191.975,97.45 192.285,97.41 192.525,97.33ZM184.635,96.775C185.195,96.385 185.475,95.87 185.475,95.23L185.475,93.94L183.045,94.51C182.405,94.67 181.95,94.865 181.68,95.095C181.41,95.325 181.275,95.65 181.275,96.07C181.275,96.49 181.405,96.81 181.665,97.03C181.925,97.25 182.285,97.36 182.745,97.36C183.445,97.36 184.075,97.165 184.635,96.775Z" style="fill:#414141;fill-rule:nonzero;"/><path d="M208.155,86.44C209.095,87.36 209.565,88.67 209.565,90.37L209.565,100.36L204.465,100.36L204.465,91.78C204.465,90.76 204.28,90.035 203.91,89.605C203.54,89.175 203.015,88.96 202.335,88.96C201.535,88.96 200.885,89.245 200.385,89.815C199.885,90.385 199.635,91.26 199.635,92.44L199.635,100.36L194.535,100.36L194.535,85.36L199.095,85.36L199.245,88.24C199.725,87.18 200.405,86.385 201.285,85.855C202.165,85.325 203.195,85.06 204.375,85.06C205.955,85.06 207.215,85.52 208.155,86.44Z" style="fill:#414141;fill-rule:nonzero;"/><path d="M225.405,86.35C226.545,87.21 227.255,88.33 227.535,89.71L222.795,91.27C222.595,89.55 221.825,88.69 220.485,88.69C218.505,88.69 217.515,90.1 217.515,92.92C217.515,95.66 218.505,97.03 220.485,97.03C221.905,97.03 222.735,96.22 222.975,94.6L227.565,96.07C227.345,97.43 226.62,98.535 225.39,99.385C224.16,100.235 222.535,100.66 220.515,100.66C217.915,100.66 215.915,99.98 214.515,98.62C213.115,97.26 212.415,95.34 212.415,92.86C212.415,90.4 213.11,88.485 214.5,87.115C215.89,85.745 217.825,85.06 220.305,85.06C222.565,85.06 224.265,85.49 225.405,86.35Z" style="fill:#414141;fill-rule:nonzero;"/><path d="M244.725,94.33L234.495,94.33C234.655,95.27 235,95.96 235.53,96.4C236.06,96.84 236.765,97.06 237.645,97.06C238.385,97.06 238.99,96.92 239.46,96.64C239.93,96.36 240.245,95.95 240.405,95.41L244.545,96.73C244.125,98.01 243.31,98.985 242.1,99.655C240.89,100.325 239.405,100.66 237.645,100.66C235.025,100.66 233.02,99.98 231.63,98.62C230.24,97.26 229.545,95.34 229.545,92.86C229.545,90.38 230.225,88.46 231.585,87.1C232.945,85.74 234.875,85.06 237.375,85.06C239.795,85.06 241.65,85.725 242.94,87.055C244.23,88.385 244.875,90.25 244.875,92.65C244.875,93.33 244.825,93.89 244.725,94.33ZM234.465,91.57L240.105,91.57C239.865,89.61 238.945,88.63 237.345,88.63C235.725,88.63 234.765,89.61 234.465,91.57Z" style="fill:#414141;fill-rule:nonzero;"/><path d="M172.26,54.61C173.65,55.51 174.345,56.87 174.345,58.69C174.345,62.05 172.445,63.94 168.645,64.36L168.345,66.94L163.965,66.94L163.695,62.38C165.535,62.24 166.855,61.925 167.655,61.435C168.455,60.945 168.855,60.29 168.855,59.47C168.855,58.81 168.64,58.3 168.21,57.94C167.78,57.58 167.135,57.4 166.275,57.4C165.395,57.4 164.695,57.655 164.175,58.165C163.655,58.675 163.355,59.43 163.275,60.43L158.355,58.54C158.595,56.94 159.39,55.66 160.74,54.7C162.09,53.74 164.055,53.26 166.635,53.26C168.995,53.26 170.87,53.71 172.26,54.61ZM168.3,69.19C168.81,69.63 169.065,70.25 169.065,71.05C169.065,71.85 168.81,72.475 168.3,72.925C167.79,73.375 167.085,73.6 166.185,73.6C165.265,73.6 164.55,73.375 164.04,72.925C163.53,72.475 163.275,71.85 163.275,71.05C163.275,70.25 163.53,69.63 164.04,69.19C164.55,68.75 165.265,68.53 166.185,68.53C167.085,68.53 167.79,68.75 168.3,69.19Z" style="fill:#9df;fill-rule:nonzero;"/><path d="M146.052,20.695C148.605,20.889 150.553,22.222 151.898,24.693C154.381,29.255 153.198,33.225 148.35,36.603L149.849,40.328L143.903,43.564L140.166,37.573C142.561,36.023 144.12,34.62 144.844,33.364C145.568,32.107 145.627,30.922 145.021,29.809C144.533,28.913 143.865,28.379 143.015,28.208C142.165,28.037 141.156,28.27 139.989,28.905C138.794,29.556 138.032,30.419 137.703,31.496C137.374,32.572 137.525,33.819 138.155,35.236L130.079,36.306C129.222,33.956 129.356,31.631 130.479,29.33C131.602,27.029 133.915,24.925 137.418,23.019C140.622,21.275 143.5,20.5 146.052,20.695ZM151.451,43.415C152.468,43.636 153.273,44.289 153.864,45.375C154.455,46.461 154.571,47.498 154.211,48.486C153.851,49.474 153.06,50.301 151.838,50.966C150.589,51.646 149.452,51.868 148.427,51.634C147.402,51.4 146.594,50.74 146.003,49.654C145.412,48.568 145.3,47.538 145.667,46.564C146.034,45.589 146.843,44.762 148.092,44.082C149.313,43.417 150.433,43.195 151.451,43.415Z" style="fill:#00a1f4;fill-rule:nonzero;"/><path d="M194.293,20.016C195.632,22.197 195.696,24.557 194.484,27.096C192.247,31.783 188.338,33.154 182.757,31.21L180.621,34.609L174.511,31.692L177.171,25.151C179.831,26.181 181.882,26.621 183.324,26.47C184.766,26.319 185.76,25.672 186.306,24.528C186.746,23.608 186.786,22.753 186.426,21.964C186.065,21.176 185.286,20.495 184.086,19.923C182.858,19.337 181.712,19.226 180.647,19.591C179.582,19.956 178.661,20.81 177.883,22.152L172.279,16.239C173.679,14.167 175.64,12.911 178.163,12.47C180.685,12.03 183.746,12.669 187.345,14.387C190.637,15.959 192.953,17.835 194.293,20.016ZM179.06,37.718C179.478,38.671 179.421,39.706 178.888,40.822C178.355,41.938 177.583,42.64 176.572,42.928C175.561,43.216 174.428,43.06 173.173,42.461C171.889,41.848 171.042,41.058 170.63,40.091C170.218,39.124 170.279,38.082 170.811,36.966C171.344,35.85 172.113,35.155 173.117,34.881C174.122,34.607 175.265,34.776 176.549,35.388C177.804,35.988 178.641,36.764 179.06,37.718Z" style="fill:#414141;fill-rule:nonzero;"/><path d="M86.978,17.284L119.926,29.932L54.03,29.932L86.978,17.284Z" style="fill:#414141;stroke:#00a1f4;stroke-width:1.52px;"/><path d="M119.049,66.972L54.906,66.972L59.987,59.745L113.969,59.745L119.049,66.972Z" style="fill:#414141;stroke:#00a1f4;stroke-width:1.65px;"/><rect x="63.037" y="32.642" width="4.517" height="24.392" style="fill:#414141;stroke:#00a1f4;stroke-width:1.36px;"/><rect x="72.071" y="32.642" width="4.517" height="24.392" style="fill:#414141;stroke:#00a1f4;stroke-width:1.36px;"/><rect x="81.106" y="32.642" width="4.517" height="24.392" style="fill:#414141;stroke:#00a1f4;stroke-width:1.36px;"/><rect x="90.14" y="32.642" width="4.517" height="24.392" style="fill:#414141;stroke:#00a1f4;stroke-width:1.36px;"/><rect x="99.174" y="32.642" width="4.517" height="24.392" style="fill:#414141;stroke:#00a1f4;stroke-width:1.36px;"/><rect x="108.208" y="32.642" width="4.517" height="24.392" style="fill:#414141;stroke:#00a1f4;stroke-width:1.36px;"/><g><circle cx="231.074" cy="48.903" r="14.455" style="fill:#00a1f4;stroke:#414141;stroke-width:1.36px;"/><g><path d="M236.946,29.932C233.019,31.332 229.105,31.261 225.202,29.932C227.019,26.773 227.869,23.437 228.138,19.994L234.01,19.994C234.484,23.292 235.389,26.602 236.946,29.932Z" style="fill:#9df;stroke:#00a1f4;stroke-width:1.36px;"/><path d="M235.591,19.994C235.591,19.495 235.186,19.09 234.688,19.09L227.46,19.09C226.962,19.09 226.557,19.495 226.557,19.994L226.557,21.801C226.557,22.299 226.962,22.704 227.46,22.704L234.688,22.704C235.186,22.704 235.591,22.299 235.591,21.801L235.591,19.994Z" style="fill:#9df;stroke:#00a1f4;stroke-width:1.36px;"/></g><g><path d="M250.44,44.503C247.264,41.802 245.368,38.377 244.568,34.332C248.212,34.327 251.526,33.395 254.642,31.906L257.578,36.991C254.959,39.051 252.544,41.49 250.44,44.503Z" style="fill:#9df;stroke:#00a1f4;stroke-width:1.36px;"/><path d="M258.369,38.361C258.801,38.111 258.949,37.558 258.7,37.126L255.086,30.867C254.837,30.436 254.284,30.287 253.852,30.537L252.287,31.44C251.855,31.689 251.707,32.242 251.956,32.674L255.57,38.933C255.819,39.365 256.372,39.513 256.804,39.264L258.369,38.361Z" style="fill:#9df;stroke:#00a1f4;stroke-width:1.36px;"/></g><g><path d="M244.568,63.475C245.319,59.374 247.337,56.019 250.44,53.304C252.267,56.457 254.731,58.861 257.578,60.815L254.642,65.901C251.549,64.662 248.23,63.79 244.568,63.475Z" style="fill:#9df;stroke:#00a1f4;stroke-width:1.36px;"/><path d="M253.852,67.27C254.284,67.519 254.837,67.371 255.086,66.939L258.7,60.68C258.949,60.249 258.801,59.696 258.369,59.446L256.804,58.543C256.372,58.294 255.819,58.442 255.57,58.874L251.956,65.133C251.707,65.564 251.855,66.117 252.287,66.367L253.852,67.27Z" style="fill:#9df;stroke:#00a1f4;stroke-width:1.36px;"/></g><g><path d="M225.202,67.875C229.129,66.475 233.043,66.546 236.946,67.875C235.129,71.034 234.279,74.37 234.01,77.813L228.138,77.813C227.664,74.515 226.759,71.204 225.202,67.875Z" style="fill:#9df;stroke:#00a1f4;stroke-width:1.36px;"/><path d="M226.557,77.813C226.557,78.312 226.962,78.716 227.46,78.716L234.688,78.716C235.186,78.716 235.591,78.312 235.591,77.813L235.591,76.006C235.591,75.508 235.186,75.103 234.688,75.103L227.46,75.103C226.962,75.103 226.557,75.508 226.557,76.006L226.557,77.813Z" style="fill:#9df;stroke:#00a1f4;stroke-width:1.36px;"/></g><g><path d="M211.708,53.304C214.884,56.004 216.78,59.43 217.58,63.475C213.936,63.48 210.622,64.412 207.506,65.901L204.569,60.815C207.189,58.756 209.603,56.317 211.708,53.304Z" style="fill:#9df;stroke:#00a1f4;stroke-width:1.36px;"/><path d="M203.779,59.446C203.347,59.696 203.199,60.249 203.448,60.68L207.062,66.939C207.311,67.371 207.864,67.519 208.296,67.27L209.861,66.367C210.293,66.117 210.441,65.564 210.192,65.133L206.578,58.874C206.329,58.442 205.776,58.294 205.344,58.543L203.779,59.446Z" style="fill:#9df;stroke:#00a1f4;stroke-width:1.36px;"/></g><g><path d="M217.58,34.332C216.829,38.433 214.811,41.787 211.708,44.503C209.881,41.35 207.417,38.945 204.569,36.991L207.506,31.906C210.599,33.145 213.918,34.016 217.58,34.332Z" style="fill:#9df;stroke:#00a1f4;stroke-width:1.36px;"/><path d="M208.296,30.537C207.864,30.287 207.311,30.436 207.062,30.867L203.448,37.126C203.199,37.558 203.347,38.111 203.779,38.361L205.344,39.264C205.776,39.513 206.329,39.365 206.578,38.933L210.192,32.674C210.441,32.242 210.293,31.689 209.861,31.44L208.296,30.537Z" style="fill:#9df;stroke:#00a1f4;stroke-width:1.36px;"/></g></g></g></svg>