<?xml version="1.0" encoding="UTF-8" standalone="no"?><!DOCTYPE svg PUBLIC "-//W3C//DTD SVG 1.1//EN" "http://www.w3.org/Graphics/SVG/1.1/DTD/svg11.dtd"><svg width="100%" height="100%" viewBox="0 0 800 600" version="1.1" xmlns="http://www.w3.org/2000/svg" xmlns:xlink="http://www.w3.org/1999/xlink" xml:space="preserve" xmlns:serif="http://www.serif.com/" style="fill-rule:evenodd;clip-rule:evenodd;stroke-linejoin:round;stroke-miterlimit:1.5;"><rect x="0" y="0" width="800" height="600" style="fill:#0b3954;"/><path d="M386.5,244.775c0,-1.797 -0.714,-3.52 -1.984,-4.791c-1.271,-1.27 -2.994,-1.984 -4.791,-1.984c-27.764,0 -132.686,0 -160.45,0c-1.797,0 -3.52,0.714 -4.791,1.984c-1.27,1.271 -1.984,2.994 -1.984,4.791c0,23.576 0,101.874 0,125.45c0,1.797 0.714,3.52 1.984,4.791c1.271,1.27 2.994,1.984 4.791,1.984c27.764,0 132.686,0 160.45,0c1.797,0 3.52,-0.714 4.791,-1.984c1.27,-1.271 1.984,-2.994 1.984,-4.791c0,-23.576 0,-101.874 0,-125.45Z" style="fill:#ebebeb;"/><clipPath id="_clip1"><path d="M386.5,244.775c0,-1.797 -0.714,-3.52 -1.984,-4.791c-1.271,-1.27 -2.994,-1.984 -4.791,-1.984c-27.764,0 -132.686,0 -160.45,0c-1.797,0 -3.52,0.714 -4.791,1.984c-1.27,1.271 -1.984,2.994 -1.984,4.791c0,23.576 0,101.874 0,125.45c0,1.797 0.714,3.52 1.984,4.791c1.271,1.27 2.994,1.984 4.791,1.984c27.764,0 132.686,0 160.45,0c1.797,0 3.52,-0.714 4.791,-1.984c1.27,-1.271 1.984,-2.994 1.984,-4.791c0,-23.576 0,-101.874 0,-125.45Z"/></clipPath><g clip-path="url(#_clip1)"><rect x="212.5" y="238" width="174" height="40" style="fill:#68afcb;"/><text x="236.49px" y="264.804px" style="font-family:'AndaleMono', 'Andale Mono', monospace;font-size:15px;fill:#fff;">Street Address</text><text x="234.5px" y="314.3px" style="font-family:'AndaleMono', 'Andale Mono', monospace;font-size:14px;fill:#2c2c2c;">Address Line 1</text><text x="234.5px" y="332.496px" style="font-family:'AndaleMono', 'Andale Mono', monospace;font-size:14px;fill:#2c2c2c;">Address Line 2</text><text x="234.5px" y="350.693px" style="font-family:'AndaleMono', 'Andale Mono', monospace;font-size:14px;fill:#2c2c2c;">Address Line 3</text><text x="234.5px" y="299.104px" style="font-family:'AndaleMono', 'Andale Mono', monospace;font-size:14px;fill:#2c2c2c;">Country Code</text></g><path d="M386.5,62.775c0,-1.797 -0.714,-3.52 -1.984,-4.791c-1.271,-1.27 -2.994,-1.984 -4.791,-1.984c-27.764,0 -132.686,0 -160.45,0c-1.797,0 -3.52,0.714 -4.791,1.984c-1.27,1.271 -1.984,2.994 -1.984,4.791c0,11.736 0,35.714 0,47.45c0,1.797 0.714,3.52 1.984,4.791c1.271,1.27 2.994,1.984 4.791,1.984c27.764,0 132.686,0 160.45,0c1.797,0 3.52,-0.714 4.791,-1.984c1.27,-1.271 1.984,-2.994 1.984,-4.791c0,-11.736 0,-35.714 0,-47.45Z" style="fill:#ebebeb;"/><clipPath id="_clip2"><path d="M386.5,62.775c0,-1.797 -0.714,-3.52 -1.984,-4.791c-1.271,-1.27 -2.994,-1.984 -4.791,-1.984c-27.764,0 -132.686,0 -160.45,0c-1.797,0 -3.52,0.714 -4.791,1.984c-1.27,1.271 -1.984,2.994 -1.984,4.791c0,11.736 0,35.714 0,47.45c0,1.797 0.714,3.52 1.984,4.791c1.271,1.27 2.994,1.984 4.791,1.984c27.764,0 132.686,0 160.45,0c1.797,0 3.52,-0.714 4.791,-1.984c1.27,-1.271 1.984,-2.994 1.984,-4.791c0,-11.736 0,-35.714 0,-47.45Z"/></clipPath><g clip-path="url(#_clip2)"><rect x="212.5" y="56" width="174" height="40" style="fill:#68afcb;"/><text id="Address" x="267.995px" y="79.535px" style="font-family:'AndaleMono', 'Andale Mono', monospace;font-size:15px;fill:#fff;">Address</text></g><path d="M777.5,271.775c0,-1.797 -0.714,-3.52 -1.984,-4.791c-1.271,-1.27 -2.994,-1.984 -4.791,-1.984c-27.764,0 -132.686,0 -160.45,0c-1.797,0 -3.52,0.714 -4.791,1.984c-1.27,1.271 -1.984,2.994 -1.984,4.791c0,11.736 0,35.714 0,47.45c0,1.797 0.714,3.52 1.984,4.791c1.271,1.27 2.994,1.984 4.791,1.984c27.764,0 132.686,0 160.45,0c1.797,0 3.52,-0.714 4.791,-1.984c1.27,-1.271 1.984,-2.994 1.984,-4.791c0,-11.736 0,-35.714 0,-47.45Z" style="fill:#ebebeb;"/><clipPath id="_clip3"><path d="M777.5,271.775c0,-1.797 -0.714,-3.52 -1.984,-4.791c-1.271,-1.27 -2.994,-1.984 -4.791,-1.984c-27.764,0 -132.686,0 -160.45,0c-1.797,0 -3.52,0.714 -4.791,1.984c-1.27,1.271 -1.984,2.994 -1.984,4.791c0,11.736 0,35.714 0,47.45c0,1.797 0.714,3.52 1.984,4.791c1.271,1.27 2.994,1.984 4.791,1.984c27.764,0 132.686,0 160.45,0c1.797,0 3.52,-0.714 4.791,-1.984c1.27,-1.271 1.984,-2.994 1.984,-4.791c0,-11.736 0,-35.714 0,-47.45Z"/></clipPath><g clip-path="url(#_clip3)"><rect x="603.5" y="265" width="174" height="40" style="fill:#68afcb;"/><text id="Address1" serif:id="Address" x="658.995px" y="288.535px" style="font-family:'AndaleMono', 'Andale Mono', monospace;font-size:15px;fill:#fff;">Country</text></g><path d="M319,535.775c0,-1.797 -0.714,-3.52 -1.984,-4.791c-1.271,-1.27 -2.994,-1.984 -4.791,-1.984c-27.764,0 -132.686,0 -160.45,0c-1.797,0 -3.52,0.714 -4.791,1.984c-1.27,1.271 -1.984,2.994 -1.984,4.791c0,11.736 0,35.714 0,47.45c0,1.797 0.714,3.52 1.984,4.791c1.271,1.27 2.994,1.984 4.791,1.984c27.764,0 132.686,0 160.45,0c1.797,0 3.52,-0.714 4.791,-1.984c1.27,-1.271 1.984,-2.994 1.984,-4.791c0,-11.736 0,-35.714 0,-47.45Z" style="fill:#ebebeb;"/><clipPath id="_clip4"><path d="M319,535.775c0,-1.797 -0.714,-3.52 -1.984,-4.791c-1.271,-1.27 -2.994,-1.984 -4.791,-1.984c-27.764,0 -132.686,0 -160.45,0c-1.797,0 -3.52,0.714 -4.791,1.984c-1.27,1.271 -1.984,2.994 -1.984,4.791c0,11.736 0,35.714 0,47.45c0,1.797 0.714,3.52 1.984,4.791c1.271,1.27 2.994,1.984 4.791,1.984c27.764,0 132.686,0 160.45,0c1.797,0 3.52,-0.714 4.791,-1.984c1.27,-1.271 1.984,-2.994 1.984,-4.791c0,-11.736 0,-35.714 0,-47.45Z"/></clipPath><g clip-path="url(#_clip4)"><rect x="145" y="529" width="174" height="40" style="fill:#68afcb;"/><text id="Address2" serif:id="Address" x="177.991px" y="552.535px" style="font-family:'AndaleMono', 'Andale Mono', monospace;font-size:15px;fill:#fff;">Organisation</text></g><path d="M340,295.5l259.5,0" style="fill:none;stroke:#ed6a5a;stroke-width:3px;"/><path d="M232,524.75l0,-143.75" style="fill:none;stroke:#ed6a5a;stroke-width:3px;"/><g transform="matrix(1,0,0,1,-137,6)"><text x="456px" y="137.794px" style="font-family:'LucidaGrande-Bold', 'Lucida Grande', sans-serif;font-weight:600;font-size:14px;fill:#fff;">skos</text><text x="489.633px" y="137.794px" style="font-family:'ArialHebrew-Bold', 'Arial Hebrew';font-weight:700;font-size:14px;fill:#fff;">:</text><text x="493.609px" y="137.794px" style="font-family:'LucidaGrande-Bold', 'Lucida Grande', sans-serif;font-weight:600;font-size:14px;fill:#fff;">subClassOf</text><rect x="456" y="139.194" width="119.914" height="0.7" style="fill:#fff;"/><text x="456px" y="163.794px" style="font-family:'LucidaGrande-Bold', 'Lucida Grande', sans-serif;font-weight:600;font-size:14px;fill:#c76182;">Street</text><text x="502.008px" y="163.794px" style="font-family:'LucidaGrande-Bold', 'Lucida Grande', sans-serif;font-weight:600;font-size:14px;fill:#c76182;">Address</text><text x="565.161px" y="163.794px" style="font-family:'LucidaGrande', 'Lucida Grande', sans-serif;font-weight:500;font-size:14px;fill:#fff;">is</text><text x="580.237px" y="163.794px" style="font-family:'LucidaGrande', 'Lucida Grande', sans-serif;font-weight:500;font-size:14px;fill:#fff;">a</text><text x="591.86px" y="163.794px" style="font-family:'LucidaGrande', 'Lucida Grande', sans-serif;font-weight:500;font-size:14px;fill:#fff;">type</text><text x="624.914px" y="163.794px" style="font-family:'LucidaGrande', 'Lucida Grande', sans-serif;font-weight:500;font-size:14px;fill:#fff;">of</text><text x="642.553px" y="163.794px" style="font-family:'LucidaGrande-Bold', 'Lucida Grande', sans-serif;font-weight:600;font-size:14px;fill:#c76182;">Address</text><text x="701.814px" y="163.794px" style="font-family:'ArialHebrew', 'Arial Hebrew';font-size:14px;fill:#fff;">.</text><text x="456px" y="177.794px" style="font-family:'LucidaGrande', 'Lucida Grande', sans-serif;font-weight:500;font-size:14px;fill:#fff;">Subclasses</text><text x="533.091px" y="177.794px" style="font-family:'LucidaGrande', 'Lucida Grande', sans-serif;font-weight:500;font-size:14px;fill:#fff;">don</text><text x="559.191px" y="177.794px" style="font-family:'ArialHebrew', 'Arial Hebrew';font-size:14px;fill:#fff;">&apos;</text><text x="562.495px" y="177.794px" style="font-family:'LucidaGrande', 'Lucida Grande', sans-serif;font-weight:500;font-size:14px;fill:#fff;">t</text><text x="571.623px" y="177.794px" style="font-family:'LucidaGrande', 'Lucida Grande', sans-serif;font-weight:500;font-size:14px;fill:#fff;">inherit</text><text x="619.751px" y="177.794px" style="font-family:'LucidaGrande', 'Lucida Grande', sans-serif;font-weight:500;font-size:14px;fill:#fff;">members</text><text x="683.167px" y="177.794px" style="font-family:'ArialHebrew', 'Arial Hebrew';font-size:14px;fill:#fff;">.</text><text x="456px" y="201.794px" style="font-family:'LucidaGrande', 'Lucida Grande', sans-serif;font-weight:500;font-size:12px;fill:#999;">This</text><text x="483.957px" y="201.794px" style="font-family:'LucidaGrande', 'Lucida Grande', sans-serif;font-weight:500;font-size:12px;fill:#999;">is</text><text x="496.879px" y="201.794px" style="font-family:'LucidaGrande', 'Lucida Grande', sans-serif;font-weight:500;font-size:12px;fill:#999;">a</text><text x="506.842px" y="201.794px" style="font-family:'LucidaGrande', 'Lucida Grande', sans-serif;font-weight:500;font-size:12px;fill:#999;">directed</text><text x="557.668px" y="201.794px" style="font-family:'LucidaGrande', 'Lucida Grande', sans-serif;font-weight:500;font-size:12px;fill:#999;">relationship</text><text x="626.721px" y="201.794px" style="font-family:'ArialHebrew', 'Arial Hebrew';font-size:12px;fill:#999;">.</text></g><g transform="matrix(1,0,0,1,-48.5,185.061)"><text x="456px" y="137.794px" style="font-family:'LucidaGrande-Bold', 'Lucida Grande', sans-serif;font-weight:600;font-size:14px;fill:#fff;">rdfs</text><text x="485.36px" y="137.794px" style="font-family:'ArialHebrew-Bold', 'Arial Hebrew';font-weight:700;font-size:14px;fill:#fff;">:</text><text x="489.336px" y="137.794px" style="font-family:'LucidaGrande-Bold', 'Lucida Grande', sans-serif;font-weight:600;font-size:14px;fill:#fff;">related</text><rect x="456" y="139.194" width="83.84" height="0.7" style="fill:#fff;"/><text x="456px" y="165.794px" style="font-family:'LucidaGrande-Bold', 'Lucida Grande', sans-serif;font-weight:600;font-size:14px;fill:#c76182;">Country</text><text x="517.396px" y="165.794px" style="font-family:'LucidaGrande-Bold', 'Lucida Grande', sans-serif;font-weight:600;font-size:14px;fill:#c76182;">Code</text><text x="557.682px" y="165.794px" style="font-family:'LucidaGrande', 'Lucida Grande', sans-serif;font-weight:500;font-size:14px;fill:#fff;">is</text><text x="572.758px" y="165.794px" style="font-family:'LucidaGrande', 'Lucida Grande', sans-serif;font-weight:500;font-size:14px;fill:#fff;">related</text><text x="623.804px" y="165.794px" style="font-family:'LucidaGrande', 'Lucida Grande', sans-serif;font-weight:500;font-size:14px;fill:#fff;">to</text><text x="641.532px" y="165.794px" style="font-family:'LucidaGrande-Bold', 'Lucida Grande', sans-serif;font-weight:600;font-size:14px;fill:#c76182;">Country</text><text x="699.036px" y="165.794px" style="font-family:'ArialHebrew', 'Arial Hebrew';font-size:14px;fill:#fff;">.</text><text x="456px" y="191.794px" style="font-family:'LucidaGrande', 'Lucida Grande', sans-serif;font-weight:500;font-size:12px;fill:#999;">This</text><text x="483.957px" y="191.794px" style="font-family:'LucidaGrande', 'Lucida Grande', sans-serif;font-weight:500;font-size:12px;fill:#999;">is</text><text x="496.879px" y="191.794px" style="font-family:'LucidaGrande', 'Lucida Grande', sans-serif;font-weight:500;font-size:12px;fill:#999;">an</text><text x="514.289px" y="191.794px" style="font-family:'LucidaGrande', 'Lucida Grande', sans-serif;font-weight:500;font-size:12px;fill:#999;">undirected</text><text x="580.01px" y="191.794px" style="font-family:'LucidaGrande', 'Lucida Grande', sans-serif;font-weight:500;font-size:12px;fill:#999;">relationship</text><text x="649.063px" y="191.794px" style="font-family:'ArialHebrew', 'Arial Hebrew';font-size:12px;fill:#999;">.</text></g><g transform="matrix(1,0,0,1,-212,286)"><text x="456px" y="137.794px" style="font-family:'LucidaGrande-Bold', 'Lucida Grande', sans-serif;font-weight:600;font-size:14px;fill:#fff;">rdfs</text><text x="485.36px" y="137.794px" style="font-family:'ArialHebrew-Bold', 'Arial Hebrew';font-weight:700;font-size:14px;fill:#fff;">:</text><text x="489.336px" y="137.794px" style="font-family:'LucidaGrande-Bold', 'Lucida Grande', sans-serif;font-weight:600;font-size:14px;fill:#fff;">seeAlso</text><rect x="456" y="139.194" width="89.377" height="0.7" style="fill:#fff;"/><text x="456px" y="163.794px" style="font-family:'LucidaGrande', 'Lucida Grande', sans-serif;font-weight:500;font-size:14px;fill:#fff;">It</text><text x="465.27px" y="163.794px" style="font-family:'ArialHebrew', 'Arial Hebrew';font-size:14px;fill:#fff;">&apos;</text><text x="468.574px" y="163.794px" style="font-family:'LucidaGrande', 'Lucida Grande', sans-serif;font-weight:500;font-size:14px;fill:#fff;">s</text><text x="479.602px" y="163.794px" style="font-family:'LucidaGrande', 'Lucida Grande', sans-serif;font-weight:500;font-size:14px;fill:#fff;">likely</text><text x="518.932px" y="163.794px" style="font-family:'LucidaGrande', 'Lucida Grande', sans-serif;font-weight:500;font-size:14px;fill:#fff;">that</text><text x="549.716px" y="163.794px" style="font-family:'LucidaGrande', 'Lucida Grande', sans-serif;font-weight:500;font-size:14px;fill:#fff;">you</text><text x="578.211px" y="163.794px" style="font-family:'LucidaGrande', 'Lucida Grande', sans-serif;font-weight:500;font-size:14px;fill:#fff;">will</text><text x="605.031px" y="163.794px" style="font-family:'LucidaGrande', 'Lucida Grande', sans-serif;font-weight:500;font-size:14px;fill:#fff;">use</text><text x="456px" y="177.794px" style="font-family:'LucidaGrande-Bold', 'Lucida Grande', sans-serif;font-weight:600;font-size:14px;fill:#c76182;">Organisation</text><text x="553.503px" y="177.794px" style="font-family:'LucidaGrande', 'Lucida Grande', sans-serif;font-weight:500;font-size:14px;fill:#fff;">and</text><text x="456px" y="191.794px" style="font-family:'LucidaGrande-Bold', 'Lucida Grande', sans-serif;font-weight:600;font-size:14px;fill:#c76182;">Street</text><text x="502.008px" y="191.794px" style="font-family:'LucidaGrande-Bold', 'Lucida Grande', sans-serif;font-weight:600;font-size:14px;fill:#c76182;">Address</text><text x="565.161px" y="191.794px" style="font-family:'LucidaGrande', 'Lucida Grande', sans-serif;font-weight:500;font-size:14px;fill:#fff;">together</text><text x="622.979px" y="191.794px" style="font-family:'ArialHebrew', 'Arial Hebrew';font-size:14px;fill:#fff;">.</text><text x="456px" y="217.794px" style="font-family:'LucidaGrande', 'Lucida Grande', sans-serif;font-weight:500;font-size:12px;fill:#999;">This</text><text x="483.957px" y="217.794px" style="font-family:'LucidaGrande', 'Lucida Grande', sans-serif;font-weight:500;font-size:12px;fill:#999;">is</text><text x="496.879px" y="217.794px" style="font-family:'LucidaGrande', 'Lucida Grande', sans-serif;font-weight:500;font-size:12px;fill:#999;">an</text><text x="514.289px" y="217.794px" style="font-family:'LucidaGrande', 'Lucida Grande', sans-serif;font-weight:500;font-size:12px;fill:#999;">undirected</text><text x="580.01px" y="217.794px" style="font-family:'LucidaGrande', 'Lucida Grande', sans-serif;font-weight:500;font-size:12px;fill:#999;">relationship</text><text x="649.063px" y="217.794px" style="font-family:'ArialHebrew', 'Arial Hebrew';font-size:12px;fill:#999;">.</text></g><g transform="matrix(1,0,0,1,-429.012,185.461)"><text x="456px" y="137.794px" style="font-family:'LucidaGrande-Bold', 'Lucida Grande', sans-serif;font-weight:600;font-size:14px;fill:#fff;">skos</text><text x="489.633px" y="137.794px" style="font-family:'ArialHebrew-Bold', 'Arial Hebrew';font-weight:700;font-size:14px;fill:#fff;">:</text><text x="493.609px" y="137.794px" style="font-family:'LucidaGrande-Bold', 'Lucida Grande', sans-serif;font-weight:600;font-size:14px;fill:#fff;">member</text><rect x="456" y="139.194" width="96.808" height="0.7" style="fill:#fff;"/><text x="456px" y="165.794px" style="font-family:'LucidaGrande-Bold', 'Lucida Grande', sans-serif;font-weight:600;font-size:14px;fill:#c76182;">Address</text><text x="519.153px" y="165.794px" style="font-family:'LucidaGrande-Bold', 'Lucida Grande', sans-serif;font-weight:600;font-size:14px;fill:#c76182;">Line</text><text x="553.137px" y="165.794px" style="font-family:'ArialHebrew-Bold', 'Arial Hebrew';font-weight:700;font-size:14px;fill:#c76182;">2</text><text x="564.029px" y="165.794px" style="font-family:'LucidaGrande', 'Lucida Grande', sans-serif;font-weight:500;font-size:14px;fill:#fff;">is</text><text x="579.104px" y="165.794px" style="font-family:'LucidaGrande', 'Lucida Grande', sans-serif;font-weight:500;font-size:14px;fill:#fff;">a</text><text x="456px" y="179.794px" style="font-family:'LucidaGrande', 'Lucida Grande', sans-serif;font-weight:500;font-size:14px;fill:#fff;">member</text><text x="516.172px" y="179.794px" style="font-family:'LucidaGrande', 'Lucida Grande', sans-serif;font-weight:500;font-size:14px;fill:#fff;">of</text><text x="456px" y="193.794px" style="font-family:'LucidaGrande-Bold', 'Lucida Grande', sans-serif;font-weight:600;font-size:14px;fill:#c76182;">Street</text><text x="502.008px" y="193.794px" style="font-family:'LucidaGrande-Bold', 'Lucida Grande', sans-serif;font-weight:600;font-size:14px;fill:#c76182;">Address</text><text x="561.269px" y="193.794px" style="font-family:'ArialHebrew', 'Arial Hebrew';font-size:14px;fill:#fff;">.</text><text x="456px" y="217.794px" style="font-family:'LucidaGrande', 'Lucida Grande', sans-serif;font-weight:500;font-size:12px;fill:#999;">This</text><text x="483.957px" y="217.794px" style="font-family:'LucidaGrande', 'Lucida Grande', sans-serif;font-weight:500;font-size:12px;fill:#999;">is</text><text x="496.879px" y="217.794px" style="font-family:'LucidaGrande', 'Lucida Grande', sans-serif;font-weight:500;font-size:12px;fill:#999;">a</text><text x="506.842px" y="217.794px" style="font-family:'LucidaGrande', 'Lucida Grande', sans-serif;font-weight:500;font-size:12px;fill:#999;">directed</text><text x="557.668px" y="217.794px" style="font-family:'LucidaGrande', 'Lucida Grande', sans-serif;font-weight:500;font-size:12px;fill:#999;">relationship</text><text x="626.721px" y="217.794px" style="font-family:'ArialHebrew', 'Arial Hebrew';font-size:12px;fill:#999;">.</text></g><path d="M299.5,233.75l0,-110.25" style="fill:none;stroke:#ed6a5a;stroke-width:3px;"/><path d="M209,260.961l-29,0l0,62.039l29,0" style="fill:none;stroke:#ed6a5a;stroke-width:3px;"/><path d="M291,129.75l8.5,-8.5l8.5,8.5" style="fill:none;stroke:#ed6a5a;stroke-width:3px;stroke-linecap:round;stroke-linejoin:miter;"/><path d="M200.5,252.461l8.5,8.5l-8.5,8.5" style="fill:none;stroke:#ed6a5a;stroke-width:3px;stroke-linecap:round;stroke-linejoin:miter;"/><g id="Address3" serif:id="Address" transform="matrix(1,0,0,1,-240,-153.965)"><text x="339.436px" y="183.144px" style="font-family:'AvenirNext-Bold', 'Avenir Next', sans-serif;font-weight:700;font-size:24px;fill:#fff;">Semantic R<tspan x="468.196px " y="183.144px ">e</tspan>la<tspan x="502.996px " y="183.144px ">t</tspan>ionships in the Deﬁnitions C<tspan x="837.556px 850.9px " y="183.144px 183.144px ">at</tspan>alogue</text><rect x="339.436" y="184.944" width="601.128" height="1.2" style="fill:#fff;"/></g></svg>