<?xml version="1.0" encoding="UTF-8" standalone="no"?><!DOCTYPE svg PUBLIC "-//W3C//DTD SVG 1.1//EN" "http://www.w3.org/Graphics/SVG/1.1/DTD/svg11.dtd"><svg width="100%" height="100%" viewBox="0 0 321 117" version="1.1" xmlns="http://www.w3.org/2000/svg" xmlns:xlink="http://www.w3.org/1999/xlink" xml:space="preserve" xmlns:serif="http://www.serif.com/" style="fill-rule:evenodd;clip-rule:evenodd;stroke-linecap:round;stroke-linejoin:round;stroke-miterlimit:1.5;"><rect id="standards" x="0" y="0.036" width="321" height="116" style="fill:none;"/><clipPath id="_clip1"><rect x="0" y="0.036" width="321" height="116"/></clipPath><g clip-path="url(#_clip1)"><rect x="0" y="0.036" width="321" height="116" style="fill:#ebebeb;"/><rect x="-21.221" y="108.345" width="387.574" height="13.191" style="fill:#1ed2f4;"/><path d="M85.455,99.526l1.38,-3.69c0.82,0.56 1.75,0.995 2.79,1.305c1.04,0.31 2.06,0.465 3.06,0.465c0.62,0 1.1,-0.09 1.44,-0.27c0.34,-0.18 0.51,-0.43 0.51,-0.75c0,-0.28 -0.125,-0.505 -0.375,-0.675c-0.25,-0.17 -0.725,-0.325 -1.425,-0.465l-2.46,-0.57c-1.56,-0.32 -2.685,-0.825 -3.375,-1.515c-0.69,-0.69 -1.035,-1.645 -1.035,-2.865c0,-0.98 0.29,-1.85 0.87,-2.61c0.58,-0.76 1.385,-1.355 2.415,-1.785c1.03,-0.43 2.215,-0.645 3.555,-0.645c1.1,0 2.18,0.16 3.24,0.48c1.06,0.32 2.05,0.77 2.97,1.35l-1.44,3.6c-0.8,-0.52 -1.62,-0.92 -2.46,-1.2c-0.84,-0.28 -1.63,-0.42 -2.37,-0.42c-0.6,0 -1.07,0.095 -1.41,0.285c-0.34,0.19 -0.51,0.465 -0.51,0.825c0,0.22 0.1,0.395 0.3,0.525c0.2,0.13 0.58,0.265 1.14,0.405l2.55,0.57c1.62,0.38 2.785,0.935 3.495,1.665c0.71,0.73 1.065,1.725 1.065,2.985c0,1.5 -0.595,2.68 -1.785,3.54c-1.19,0.86 -2.835,1.29 -4.935,1.29c-3.04,0 -5.44,-0.61 -7.2,-1.83Z" style="fill:#414141;fill-rule:nonzero;"/><path d="M112.005,96.796l0,4.11c-0.74,0.3 -1.68,0.45 -2.82,0.45c-2.06,0 -3.625,-0.58 -4.695,-1.74c-1.07,-1.16 -1.605,-2.77 -1.605,-4.83l0,-4.92l-2.85,0l0,-3.99l2.85,0l0,-3.45l5.43,-1.74l0,5.19l3.66,0l0,3.99l-3.66,0l0,4.92c0,0.72 0.215,1.265 0.645,1.635c0.43,0.37 0.965,0.555 1.605,0.555c0.36,0 0.84,-0.06 1.44,-0.18Z" style="fill:#414141;fill-rule:nonzero;"/><path d="M130.095,85.876l0,15.24l-5.34,0l0,-2.07c-0.44,0.72 -1.08,1.285 -1.92,1.695c-0.84,0.41 -1.76,0.615 -2.76,0.615c-1.3,0 -2.46,-0.32 -3.48,-0.96c-1.02,-0.64 -1.815,-1.555 -2.385,-2.745c-0.57,-1.19 -0.855,-2.565 -0.855,-4.125c0,-1.58 0.29,-2.98 0.87,-4.2c0.58,-1.22 1.38,-2.17 2.4,-2.85c1.02,-0.68 2.17,-1.02 3.45,-1.02c1,0 1.915,0.215 2.745,0.645c0.83,0.43 1.475,1.005 1.935,1.725l0,-1.95l5.34,0Zm-6.12,10.44c0.52,-0.66 0.78,-1.61 0.78,-2.85c0,-1.26 -0.26,-2.225 -0.78,-2.895c-0.52,-0.67 -1.26,-1.005 -2.22,-1.005c-0.94,0 -1.68,0.345 -2.22,1.035c-0.54,0.69 -0.81,1.665 -0.81,2.925c0,1.22 0.26,2.155 0.78,2.805c0.52,0.65 1.27,0.975 2.25,0.975c0.96,0 1.7,-0.33 2.22,-0.99Z" style="fill:#414141;fill-rule:nonzero;"/><path d="M147.57,87.091c0.89,1.09 1.335,2.735 1.335,4.935l0,9.09l-5.43,0l0,-8.85c0,-0.94 -0.16,-1.615 -0.48,-2.025c-0.32,-0.41 -0.82,-0.615 -1.5,-0.615c-0.82,0 -1.48,0.275 -1.98,0.825c-0.5,0.55 -0.75,1.275 -0.75,2.175l0,8.49l-5.43,0l0,-10.86c0,-1.64 -0.08,-3.1 -0.24,-4.38l5.1,0l0.27,2.25c0.58,-0.86 1.3,-1.52 2.16,-1.98c0.86,-0.46 1.83,-0.69 2.91,-0.69c1.8,0 3.145,0.545 4.035,1.635Z" style="fill:#414141;fill-rule:nonzero;"/><path d="M168.105,79.036l0,22.08l-5.34,0l0,-2.07c-0.44,0.72 -1.08,1.285 -1.92,1.695c-0.84,0.41 -1.76,0.615 -2.76,0.615c-1.3,0 -2.46,-0.335 -3.48,-1.005c-1.02,-0.67 -1.815,-1.61 -2.385,-2.82c-0.57,-1.21 -0.855,-2.605 -0.855,-4.185c0,-1.56 0.285,-2.94 0.855,-4.14c0.57,-1.2 1.365,-2.125 2.385,-2.775c1.02,-0.65 2.18,-0.975 3.48,-0.975c0.96,0 1.845,0.2 2.655,0.6c0.81,0.4 1.455,0.94 1.935,1.62l0,-8.64l5.43,0Zm-6.12,17.265c0.52,-0.67 0.78,-1.635 0.78,-2.895c0,-1.22 -0.265,-2.165 -0.795,-2.835c-0.53,-0.67 -1.265,-1.005 -2.205,-1.005c-0.98,0 -1.73,0.325 -2.25,0.975c-0.52,0.65 -0.78,1.585 -0.78,2.805c0,1.26 0.265,2.235 0.795,2.925c0.53,0.69 1.275,1.035 2.235,1.035c0.96,0 1.7,-0.335 2.22,-1.005Z" style="fill:#414141;fill-rule:nonzero;"/><path d="M187.395,85.876l0,15.24l-5.34,0l0,-2.07c-0.44,0.72 -1.08,1.285 -1.92,1.695c-0.84,0.41 -1.76,0.615 -2.76,0.615c-1.3,0 -2.46,-0.32 -3.48,-0.96c-1.02,-0.64 -1.815,-1.555 -2.385,-2.745c-0.57,-1.19 -0.855,-2.565 -0.855,-4.125c0,-1.58 0.29,-2.98 0.87,-4.2c0.58,-1.22 1.38,-2.17 2.4,-2.85c1.02,-0.68 2.17,-1.02 3.45,-1.02c1,0 1.915,0.215 2.745,0.645c0.83,0.43 1.475,1.005 1.935,1.725l0,-1.95l5.34,0Zm-6.12,10.44c0.52,-0.66 0.78,-1.61 0.78,-2.85c0,-1.26 -0.26,-2.225 -0.78,-2.895c-0.52,-0.67 -1.26,-1.005 -2.22,-1.005c-0.94,0 -1.68,0.345 -2.22,1.035c-0.54,0.69 -0.81,1.665 -0.81,2.925c0,1.22 0.26,2.155 0.78,2.805c0.52,0.65 1.27,0.975 2.25,0.975c0.96,0 1.7,-0.33 2.22,-0.99Z" style="fill:#414141;fill-rule:nonzero;"/><path d="M201.975,85.846l0,4.95c-0.86,-0.4 -1.69,-0.6 -2.49,-0.6c-2.28,0 -3.42,1.09 -3.42,3.27l0,7.65l-5.43,0l0,-10.86c0,-1.64 -0.08,-3.1 -0.24,-4.38l5.1,0l0.33,2.55c0.36,-0.94 0.94,-1.66 1.74,-2.16c0.8,-0.5 1.7,-0.75 2.7,-0.75c0.74,0 1.31,0.11 1.71,0.33Z" style="fill:#414141;fill-rule:nonzero;"/><path d="M219.285,79.036l0,22.08l-5.34,0l0,-2.07c-0.44,0.72 -1.08,1.285 -1.92,1.695c-0.84,0.41 -1.76,0.615 -2.76,0.615c-1.3,0 -2.46,-0.335 -3.48,-1.005c-1.02,-0.67 -1.815,-1.61 -2.385,-2.82c-0.57,-1.21 -0.855,-2.605 -0.855,-4.185c0,-1.56 0.285,-2.94 0.855,-4.14c0.57,-1.2 1.365,-2.125 2.385,-2.775c1.02,-0.65 2.18,-0.975 3.48,-0.975c0.96,0 1.845,0.2 2.655,0.6c0.81,0.4 1.455,0.94 1.935,1.62l0,-8.64l5.43,0Zm-6.12,17.265c0.52,-0.67 0.78,-1.635 0.78,-2.895c0,-1.22 -0.265,-2.165 -0.795,-2.835c-0.53,-0.67 -1.265,-1.005 -2.205,-1.005c-0.98,0 -1.73,0.325 -2.25,0.975c-0.52,0.65 -0.78,1.585 -0.78,2.805c0,1.26 0.265,2.235 0.795,2.925c0.53,0.69 1.275,1.035 2.235,1.035c0.96,0 1.7,-0.335 2.22,-1.005Z" style="fill:#414141;fill-rule:nonzero;"/><path d="M221.475,99.526l1.38,-3.69c0.82,0.56 1.75,0.995 2.79,1.305c1.04,0.31 2.06,0.465 3.06,0.465c0.62,0 1.1,-0.09 1.44,-0.27c0.34,-0.18 0.51,-0.43 0.51,-0.75c0,-0.28 -0.125,-0.505 -0.375,-0.675c-0.25,-0.17 -0.725,-0.325 -1.425,-0.465l-2.46,-0.57c-1.56,-0.32 -2.685,-0.825 -3.375,-1.515c-0.69,-0.69 -1.035,-1.645 -1.035,-2.865c0,-0.98 0.29,-1.85 0.87,-2.61c0.58,-0.76 1.385,-1.355 2.415,-1.785c1.03,-0.43 2.215,-0.645 3.555,-0.645c1.1,0 2.18,0.16 3.24,0.48c1.06,0.32 2.05,0.77 2.97,1.35l-1.44,3.6c-0.8,-0.52 -1.62,-0.92 -2.46,-1.2c-0.84,-0.28 -1.63,-0.42 -2.37,-0.42c-0.6,0 -1.07,0.095 -1.41,0.285c-0.34,0.19 -0.51,0.465 -0.51,0.825c0,0.22 0.1,0.395 0.3,0.525c0.2,0.13 0.58,0.265 1.14,0.405l2.55,0.57c1.62,0.38 2.785,0.935 3.495,1.665c0.71,0.73 1.065,1.725 1.065,2.985c0,1.5 -0.595,2.68 -1.785,3.54c-1.19,0.86 -2.835,1.29 -4.935,1.29c-3.04,0 -5.44,-0.61 -7.2,-1.83Z" style="fill:#414141;fill-rule:nonzero;"/><g><rect x="58" y="20.036" width="11" height="11" style="fill:#9df;stroke:#00a1f4;stroke-width:1.5px;"/><path d="M146,28.036l-70,0" style="fill:none;stroke:#00a1f4;stroke-width:1.5px;"/><path d="M146,24.036l-70,0" style="fill:none;stroke:#00a1f4;stroke-width:1.5px;"/></g><g><rect x="58" y="40.036" width="11" height="11" style="fill:#9df;stroke:#00a1f4;stroke-width:1.5px;"/><path d="M146,48.036l-70,0" style="fill:none;stroke:#00a1f4;stroke-width:1.5px;"/><path d="M146,44.036l-70,0" style="fill:none;stroke:#00a1f4;stroke-width:1.5px;"/></g><g><rect x="58" y="60.036" width="11" height="11" style="fill:#9df;stroke:#00a1f4;stroke-width:1.5px;"/><path d="M146,68.036l-70,0" style="fill:none;stroke:#00a1f4;stroke-width:1.5px;"/><path d="M146,64.036l-70,0" style="fill:none;stroke:#00a1f4;stroke-width:1.5px;"/></g><path d="M72.06,16.082c0.328,0.329 0.513,0.775 0.513,1.239c0,0.465 -0.185,0.91 -0.513,1.239c-2.475,2.475 -7.971,7.971 -10.065,10.065c-0.221,0.22 -0.52,0.344 -0.832,0.344c-0.312,0 -0.611,-0.124 -0.831,-0.344c-1.166,-1.166 -3.286,-3.285 -4.565,-4.565c-0.263,-0.263 -0.395,-0.629 -0.36,-0.999c0.034,-0.37 0.232,-0.706 0.539,-0.915c0.001,0 0.001,-0.001 0.002,-0.001c0.708,-0.483 1.667,-0.349 2.216,0.31c0.643,0.772 1.482,1.779 2.109,2.532c0.222,0.266 0.549,0.421 0.895,0.423c0.346,0.003 0.676,-0.147 0.901,-0.41c1.76,-2.05 5.637,-6.566 7.579,-8.828c0.298,-0.347 0.728,-0.554 1.185,-0.572c0.457,-0.017 0.901,0.157 1.225,0.48c0.001,0.001 0.001,0.002 0.002,0.002Z" style="fill:#414141;"/><path d="M72.06,35.974c0.328,0.328 0.513,0.774 0.513,1.239c0,0.464 -0.185,0.91 -0.513,1.238c-2.475,2.475 -7.971,7.972 -10.065,10.065c-0.221,0.221 -0.52,0.345 -0.832,0.345c-0.312,0 -0.611,-0.124 -0.831,-0.345c-1.166,-1.165 -3.286,-3.285 -4.565,-4.565c-0.263,-0.263 -0.395,-0.629 -0.36,-0.999c0.034,-0.37 0.232,-0.705 0.539,-0.915c0.001,0 0.001,0 0.002,-0.001c0.708,-0.482 1.667,-0.348 2.216,0.31c0.643,0.773 1.482,1.78 2.109,2.532c0.222,0.266 0.549,0.421 0.895,0.424c0.346,0.002 0.676,-0.148 0.901,-0.411c1.76,-2.049 5.637,-6.566 7.579,-8.828c0.298,-0.347 0.728,-0.554 1.185,-0.572c0.457,-0.017 0.901,0.157 1.225,0.481c0.001,0 0.001,0.001 0.002,0.002Z" style="fill:#414141;"/><path d="M72.06,55.865c0.328,0.329 0.513,0.774 0.513,1.239c0,0.465 -0.185,0.91 -0.513,1.239c-2.475,2.474 -7.971,7.971 -10.065,10.064c-0.221,0.221 -0.52,0.345 -0.832,0.345c-0.312,0 -0.611,-0.124 -0.831,-0.345c-1.166,-1.165 -3.286,-3.285 -4.565,-4.565c-0.263,-0.262 -0.395,-0.629 -0.36,-0.999c0.034,-0.37 0.232,-0.705 0.539,-0.914c0.001,-0.001 0.001,-0.001 0.002,-0.001c0.708,-0.483 1.667,-0.349 2.216,0.31c0.643,0.772 1.482,1.779 2.109,2.532c0.222,0.265 0.549,0.42 0.895,0.423c0.346,0.002 0.676,-0.148 0.901,-0.41c1.76,-2.05 5.637,-6.566 7.579,-8.828c0.298,-0.348 0.728,-0.555 1.185,-0.572c0.457,-0.018 0.901,0.156 1.225,0.48c0.001,0.001 0.001,0.001 0.002,0.002Z" style="fill:#414141;"/><path d="M266.725,38.526c0.895,2.845 1.377,5.872 1.377,9.01c0,16.586 -13.465,30.051 -30.051,30.051c-16.586,0 -30.051,-13.465 -30.051,-30.051c0,-16.585 13.465,-30.051 30.051,-30.051c9.506,0 17.987,4.424 23.495,11.322l4.587,-5.343c0.892,-1.039 2.177,-1.659 3.546,-1.711c1.368,-0.052 2.697,0.469 3.665,1.437c0.293,0.293 0.589,0.589 0.88,0.88c0.923,0.923 1.441,2.174 1.441,3.479c0,1.305 -0.518,2.556 -1.441,3.478l-7.499,7.499Z" style="fill:#9df;"/><path d="M238.287,15.692l0.235,0.003l0.235,0.004l0.234,0.006l0.234,0.008l0.234,0.009l0.233,0.011l0.233,0.013l0.232,0.014l0.233,0.016l0.231,0.018l0.231,0.019l0.231,0.021l0.23,0.023l0.229,0.024l0.23,0.026l0.228,0.028l0.229,0.029l0.227,0.03l0.227,0.033l0.227,0.034l0.226,0.035l0.226,0.037l0.225,0.039l0.225,0.04l0.224,0.042l0.224,0.044l0.223,0.045l0.222,0.046l0.222,0.048l0.221,0.05l0.221,0.051l0.22,0.053l0.22,0.054l0.219,0.056l0.218,0.057l0.218,0.059l0.217,0.06l0.216,0.062l0.216,0.063l0.215,0.065l0.215,0.066l0.214,0.067l0.213,0.07l0.213,0.07l0.212,0.072l0.211,0.074l0.211,0.074l0.21,0.077l0.209,0.078l0.209,0.079l0.208,0.08l0.207,0.082l0.206,0.084l0.206,0.085l0.205,0.086l0.204,0.087l0.204,0.089l0.202,0.091l0.202,0.091l0.202,0.093l0.2,0.095l0.2,0.096l0.199,0.097l0.198,0.098l0.198,0.1l0.196,0.101l0.196,0.103l0.195,0.103l0.194,0.105l0.194,0.107l0.192,0.107l0.192,0.109l0.191,0.111l0.19,0.111l0.189,0.113l0.189,0.114l0.187,0.115l0.187,0.117l0.186,0.117l0.185,0.12l0.183,0.12l0.184,0.121l0.182,0.123l0.181,0.124l0.181,0.125l0.179,0.126l0.179,0.128l0.178,0.129l0.177,0.13l0.175,0.131l0.175,0.132l0.174,0.134l0.173,0.134l0.172,0.136l0.172,0.137l0.17,0.138l0.169,0.139l0.168,0.141l0.167,0.141l0.167,0.143l0.165,0.144l0.164,0.145l0.163,0.145l0.162,0.147l0.162,0.149l0.16,0.149l0.159,0.15l0.158,0.152l0.157,0.152l0.156,0.154l0.155,0.154l0.154,0.156l0.153,0.157l0.152,0.158l0.15,0.158l0.15,0.16l0.149,0.161l0.024,0.027l3.227,-3.76l0.054,-0.061l0.058,-0.066l0.059,-0.064l0.06,-0.064l0.06,-0.062l0.061,-0.062l0.063,-0.061l0.062,-0.06l0.064,-0.059l0.064,-0.059l0.064,-0.057l0.066,-0.056l0.066,-0.056l0.067,-0.055l0.068,-0.054l0.067,-0.053l0.07,-0.052l0.069,-0.051l0.069,-0.05l0.071,-0.049l0.071,-0.049l0.072,-0.047l0.073,-0.047l0.072,-0.045l0.074,-0.044l0.073,-0.044l0.075,-0.043l0.075,-0.041l0.075,-0.041l0.077,-0.04l0.076,-0.039l0.077,-0.037l0.078,-0.037l0.077,-0.036l0.079,-0.035l0.079,-0.034l0.079,-0.032l0.08,-0.032l0.08,-0.031l0.08,-0.03l0.082,-0.029l0.081,-0.027l0.082,-0.027l0.082,-0.026l0.082,-0.024l0.083,-0.024l0.083,-0.022l0.083,-0.021l0.084,-0.021l0.085,-0.019l0.084,-0.018l0.085,-0.018l0.084,-0.016l0.086,-0.015l0.086,-0.014l0.085,-0.012l0.086,-0.012l0.087,-0.011l0.086,-0.009l0.086,-0.009l0.088,-0.007l0.087,-0.006l0.087,-0.005l0.088,-0.004l0.087,-0.003l0.087,-0.001l0.087,-0.001l0.088,0.001l0.087,0.002l0.087,0.002l0.087,0.005l0.087,0.005l0.086,0.006l0.086,0.007l0.086,0.009l0.086,0.009l0.086,0.011l0.086,0.012l0.085,0.013l0.085,0.014l0.085,0.015l0.084,0.016l0.085,0.017l0.084,0.018l0.084,0.02l0.083,0.02l0.083,0.021l0.084,0.023l0.082,0.024l0.082,0.024l0.082,0.026l0.082,0.026l0.081,0.028l0.081,0.029l0.08,0.03l0.08,0.03l0.08,0.032l0.079,0.033l0.079,0.034l0.078,0.035l0.078,0.036l0.078,0.037l0.077,0.037l0.077,0.039l0.076,0.04l0.075,0.041l0.075,0.042l0.075,0.043l0.074,0.043l0.073,0.045l0.074,0.046l0.072,0.046l0.072,0.048l0.072,0.049l0.07,0.049l0.07,0.051l0.07,0.051l0.069,0.052l0.068,0.054l0.068,0.054l0.067,0.055l0.067,0.056l0.065,0.057l0.065,0.058l0.065,0.059l0.063,0.059l0.064,0.061l0.058,0.058l0.888,0.888l0.054,0.055l0.058,0.06l0.057,0.061l0.056,0.061l0.056,0.062l0.058,0.066l0.103,0.123l0.103,0.129l0.1,0.132l0.096,0.133l0.093,0.136l0.09,0.138l0.086,0.14l0.082,0.142l0.079,0.144l0.076,0.145l0.072,0.147l0.068,0.149l0.064,0.151l0.061,0.152l0.057,0.153l0.054,0.155l0.049,0.156l0.046,0.158l0.042,0.159l0.038,0.159l0.034,0.161l0.03,0.162l0.027,0.163l0.022,0.163l0.019,0.165l0.013,0.159l0.006,0.088l0.005,0.083l0.004,0.083l0.002,0.083l0.002,0.083l0,0.084l0,0.084l-0.002,0.082l-0.002,0.084l-0.004,0.083l-0.005,0.083l-0.006,0.088l-0.013,0.159l-0.019,0.165l-0.022,0.163l-0.027,0.163l-0.03,0.162l-0.034,0.161l-0.038,0.159l-0.042,0.159l-0.046,0.158l-0.049,0.156l-0.054,0.155l-0.057,0.153l-0.061,0.152l-0.064,0.151l-0.068,0.149l-0.072,0.147l-0.076,0.145l-0.079,0.144l-0.082,0.142l-0.086,0.14l-0.09,0.137l-0.093,0.136l-0.096,0.134l-0.1,0.132l-0.103,0.129l-0.103,0.123l-0.058,0.066l-0.056,0.062l-0.056,0.061l-0.057,0.061l-0.058,0.06l-0.054,0.055l-6.749,6.749l0.024,0.087l0.077,0.288l0.075,0.289l0.072,0.289l0.069,0.291l0.067,0.292l0.064,0.293l0.061,0.294l0.058,0.295l0.056,0.295l0.053,0.297l0.051,0.298l0.047,0.298l0.045,0.3l0.042,0.3l0.039,0.301l0.036,0.303l0.034,0.302l0.031,0.304l0.027,0.305l0.025,0.305l0.022,0.306l0.02,0.307l0.016,0.308l0.013,0.308l0.011,0.309l0.007,0.31l0.005,0.31l0.001,0.31l-0.001,0.207l-0.002,0.205l-0.003,0.205l-0.004,0.205l-0.006,0.204l-0.007,0.204l-0.009,0.204l-0.009,0.204l-0.011,0.203l-0.013,0.203l-0.013,0.202l-0.015,0.202l-0.016,0.202l-0.017,0.202l-0.019,0.201l-0.019,0.201l-0.021,0.2l-0.023,0.2l-0.023,0.2l-0.025,0.199l-0.026,0.199l-0.027,0.199l-0.029,0.198l-0.029,0.198l-0.031,0.197l-0.032,0.197l-0.033,0.197l-0.035,0.196l-0.035,0.196l-0.037,0.195l-0.038,0.195l-0.039,0.194l-0.041,0.195l-0.041,0.193l-0.043,0.194l-0.044,0.193l-0.045,0.192l-0.046,0.192l-0.048,0.191l-0.048,0.191l-0.05,0.191l-0.051,0.19l-0.052,0.19l-0.053,0.189l-0.054,0.189l-0.056,0.188l-0.056,0.188l-0.058,0.187l-0.059,0.187l-0.06,0.186l-0.061,0.186l-0.062,0.185l-0.063,0.184l-0.064,0.185l-0.066,0.184l-0.066,0.183l-0.068,0.183l-0.069,0.182l-0.069,0.181l-0.071,0.181l-0.072,0.181l-0.073,0.18l-0.074,0.179l-0.075,0.179l-0.076,0.178l-0.077,0.178l-0.079,0.178l-0.079,0.176l-0.08,0.176l-0.081,0.176l-0.083,0.175l-0.083,0.174l-0.085,0.174l-0.085,0.173l-0.087,0.173l-0.087,0.172l-0.089,0.171l-0.089,0.171l-0.091,0.17l-0.091,0.169l-0.092,0.169l-0.094,0.169l-0.094,0.167l-0.096,0.167l-0.096,0.167l-0.098,0.165l-0.098,0.165l-0.099,0.165l-0.1,0.164l-0.102,0.163l-0.102,0.162l-0.103,0.162l-0.104,0.161l-0.105,0.161l-0.106,0.16l-0.107,0.159l-0.108,0.158l-0.108,0.158l-0.11,0.157l-0.11,0.157l-0.112,0.156l-0.112,0.154l-0.114,0.155l-0.114,0.153l-0.115,0.153l-0.116,0.152l-0.117,0.152l-0.117,0.15l-0.119,0.15l-0.12,0.15l-0.12,0.148l-0.121,0.148l-0.122,0.147l-0.123,0.146l-0.124,0.146l-0.125,0.145l-0.125,0.144l-0.127,0.143l-0.127,0.143l-0.128,0.141l-0.129,0.141l-0.13,0.14l-0.13,0.14l-0.132,0.139l-0.132,0.137l-0.133,0.137l-0.134,0.137l-0.134,0.135l-0.136,0.135l-0.136,0.134l-0.137,0.133l-0.138,0.132l-0.139,0.131l-0.139,0.131l-0.14,0.129l-0.141,0.129l-0.142,0.128l-0.142,0.128l-0.144,0.126l-0.144,0.126l-0.145,0.124l-0.145,0.124l-0.146,0.123l-0.147,0.122l-0.148,0.121l-0.149,0.121l-0.149,0.119l-0.15,0.119l-0.151,0.118l-0.151,0.117l-0.152,0.116l-0.153,0.115l-0.154,0.114l-0.154,0.113l-0.155,0.112l-0.156,0.112l-0.156,0.11l-0.157,0.11l-0.158,0.109l-0.159,0.108l-0.159,0.106l-0.16,0.106l-0.16,0.105l-0.161,0.104l-0.162,0.104l-0.163,0.102l-0.163,0.101l-0.163,0.1l-0.165,0.1l-0.165,0.098l-0.166,0.097l-0.166,0.097l-0.167,0.095l-0.168,0.095l-0.168,0.093l-0.169,0.093l-0.17,0.091l-0.17,0.09l-0.17,0.09l-0.172,0.088l-0.172,0.088l-0.172,0.086l-0.174,0.086l-0.173,0.084l-0.175,0.084l-0.175,0.082l-0.175,0.081l-0.176,0.081l-0.177,0.079l-0.177,0.078l-0.178,0.077l-0.178,0.076l-0.179,0.075l-0.18,0.075l-0.18,0.073l-0.18,0.071l-0.181,0.071l-0.182,0.07l-0.182,0.069l-0.183,0.067l-0.183,0.067l-0.183,0.065l-0.185,0.064l-0.185,0.064l-0.185,0.062l-0.186,0.061l-0.186,0.06l-0.187,0.058l-0.187,0.058l-0.188,0.057l-0.188,0.055l-0.189,0.054l-0.189,0.053l-0.189,0.052l-0.19,0.051l-0.191,0.05l-0.191,0.049l-0.191,0.047l-0.193,0.046l-0.192,0.045l-0.193,0.044l-0.193,0.043l-0.194,0.042l-0.194,0.04l-0.195,0.039l-0.194,0.038l-0.196,0.037l-0.196,0.036l-0.196,0.034l-0.196,0.033l-0.197,0.032l-0.198,0.031l-0.198,0.03l-0.198,0.028l-0.198,0.027l-0.199,0.026l-0.2,0.025l-0.199,0.024l-0.201,0.022l-0.2,0.021l-0.201,0.02l-0.201,0.018l-0.201,0.018l-0.202,0.016l-0.202,0.014l-0.203,0.014l-0.203,0.012l-0.203,0.011l-0.203,0.01l-0.204,0.008l-0.204,0.007l-0.205,0.006l-0.204,0.005l-0.205,0.003l-0.205,0.002l-0.206,0l-0.206,0l-0.205,-0.002l-0.205,-0.003l-0.205,-0.005l-0.204,-0.006l-0.204,-0.007l-0.204,-0.008l-0.203,-0.01l-0.204,-0.011l-0.203,-0.012l-0.202,-0.014l-0.202,-0.014l-0.202,-0.016l-0.202,-0.018l-0.201,-0.018l-0.2,-0.02l-0.2,-0.021l-0.201,-0.022l-0.199,-0.024l-0.2,-0.025l-0.199,-0.026l-0.198,-0.027l-0.198,-0.028l-0.198,-0.03l-0.198,-0.031l-0.197,-0.032l-0.196,-0.033l-0.196,-0.034l-0.196,-0.036l-0.196,-0.037l-0.195,-0.038l-0.194,-0.039l-0.194,-0.04l-0.194,-0.042l-0.193,-0.043l-0.193,-0.044l-0.193,-0.045l-0.192,-0.046l-0.191,-0.047l-0.191,-0.049l-0.191,-0.05l-0.19,-0.051l-0.189,-0.052l-0.189,-0.053l-0.189,-0.054l-0.189,-0.055l-0.187,-0.057l-0.187,-0.058l-0.187,-0.058l-0.186,-0.06l-0.186,-0.061l-0.185,-0.062l-0.185,-0.064l-0.185,-0.064l-0.183,-0.065l-0.183,-0.067l-0.183,-0.067l-0.182,-0.069l-0.182,-0.07l-0.181,-0.071l-0.18,-0.071l-0.181,-0.074l-0.179,-0.074l-0.179,-0.075l-0.178,-0.076l-0.178,-0.077l-0.177,-0.078l-0.177,-0.079l-0.176,-0.081l-0.175,-0.081l-0.175,-0.082l-0.175,-0.084l-0.174,-0.084l-0.173,-0.086l-0.172,-0.086l-0.172,-0.088l-0.172,-0.088l-0.17,-0.09l-0.17,-0.09l-0.17,-0.091l-0.169,-0.093l-0.168,-0.093l-0.168,-0.095l-0.167,-0.095l-0.166,-0.097l-0.166,-0.097l-0.165,-0.098l-0.165,-0.1l-0.163,-0.1l-0.163,-0.101l-0.163,-0.102l-0.162,-0.104l-0.161,-0.103l-0.161,-0.106l-0.16,-0.106l-0.158,-0.106l-0.159,-0.108l-0.158,-0.109l-0.157,-0.11l-0.156,-0.11l-0.156,-0.112l-0.155,-0.112l-0.154,-0.113l-0.154,-0.114l-0.153,-0.115l-0.152,-0.116l-0.151,-0.117l-0.151,-0.118l-0.15,-0.119l-0.149,-0.119l-0.149,-0.121l-0.148,-0.121l-0.147,-0.122l-0.146,-0.123l-0.146,-0.124l-0.144,-0.124l-0.144,-0.126l-0.144,-0.126l-0.142,-0.128l-0.142,-0.128l-0.141,-0.129l-0.14,-0.129l-0.14,-0.131l-0.138,-0.131l-0.138,-0.132l-0.137,-0.133l-0.136,-0.134l-0.136,-0.135l-0.134,-0.135l-0.134,-0.137l-0.133,-0.137l-0.132,-0.138l-0.132,-0.138l-0.13,-0.14l-0.13,-0.14l-0.129,-0.141l-0.128,-0.141l-0.127,-0.143l-0.127,-0.143l-0.125,-0.144l-0.125,-0.145l-0.124,-0.146l-0.123,-0.146l-0.122,-0.147l-0.121,-0.148l-0.121,-0.148l-0.119,-0.15l-0.119,-0.15l-0.117,-0.15l-0.117,-0.152l-0.116,-0.152l-0.115,-0.153l-0.115,-0.153l-0.113,-0.155l-0.112,-0.154l-0.112,-0.156l-0.11,-0.157l-0.11,-0.157l-0.108,-0.158l-0.108,-0.158l-0.107,-0.159l-0.106,-0.16l-0.105,-0.161l-0.104,-0.161l-0.103,-0.162l-0.102,-0.162l-0.102,-0.163l-0.1,-0.164l-0.099,-0.165l-0.099,-0.165l-0.097,-0.165l-0.096,-0.167l-0.096,-0.167l-0.094,-0.167l-0.094,-0.169l-0.092,-0.169l-0.092,-0.169l-0.09,-0.17l-0.089,-0.171l-0.089,-0.171l-0.087,-0.172l-0.087,-0.173l-0.085,-0.173l-0.085,-0.174l-0.083,-0.174l-0.083,-0.175l-0.081,-0.176l-0.08,-0.176l-0.08,-0.176l-0.078,-0.178l-0.077,-0.178l-0.076,-0.178l-0.075,-0.179l-0.074,-0.179l-0.073,-0.18l-0.072,-0.181l-0.071,-0.181l-0.07,-0.181l-0.068,-0.183l-0.068,-0.182l-0.066,-0.183l-0.066,-0.184l-0.064,-0.184l-0.063,-0.185l-0.062,-0.185l-0.061,-0.186l-0.06,-0.186l-0.059,-0.187l-0.058,-0.187l-0.056,-0.188l-0.056,-0.188l-0.054,-0.189l-0.053,-0.189l-0.052,-0.19l-0.051,-0.19l-0.05,-0.191l-0.048,-0.191l-0.048,-0.191l-0.046,-0.192l-0.045,-0.193l-0.044,-0.192l-0.043,-0.194l-0.041,-0.193l-0.041,-0.194l-0.039,-0.195l-0.038,-0.195l-0.037,-0.195l-0.035,-0.196l-0.035,-0.196l-0.033,-0.197l-0.032,-0.197l-0.031,-0.197l-0.03,-0.198l-0.028,-0.198l-0.027,-0.199l-0.026,-0.199l-0.025,-0.199l-0.023,-0.2l-0.023,-0.2l-0.021,-0.2l-0.019,-0.201l-0.019,-0.201l-0.017,-0.202l-0.016,-0.202l-0.015,-0.202l-0.013,-0.202l-0.013,-0.203l-0.011,-0.203l-0.009,-0.204l-0.009,-0.203l-0.007,-0.205l-0.006,-0.204l-0.004,-0.205l-0.003,-0.205l-0.002,-0.205l-0.001,-0.206l0.001,-0.205l0.002,-0.206l0.003,-0.205l0.004,-0.204l0.006,-0.205l0.007,-0.204l0.009,-0.204l0.009,-0.203l0.011,-0.203l0.013,-0.203l0.013,-0.202l0.015,-0.203l0.016,-0.201l0.017,-0.202l0.019,-0.201l0.019,-0.201l0.021,-0.2l0.023,-0.2l0.023,-0.2l0.025,-0.199l0.026,-0.199l0.027,-0.199l0.028,-0.198l0.03,-0.198l0.031,-0.197l0.032,-0.197l0.033,-0.197l0.035,-0.196l0.035,-0.196l0.037,-0.195l0.038,-0.195l0.039,-0.195l0.041,-0.194l0.041,-0.194l0.043,-0.193l0.044,-0.193l0.045,-0.192l0.046,-0.192l0.048,-0.192l0.048,-0.19l0.05,-0.191l0.051,-0.19l0.052,-0.19l0.053,-0.189l0.054,-0.189l0.056,-0.188l0.056,-0.188l0.058,-0.187l0.059,-0.187l0.06,-0.186l0.061,-0.186l0.062,-0.185l0.063,-0.185l0.064,-0.184l0.066,-0.184l0.066,-0.183l0.068,-0.183l0.068,-0.182l0.07,-0.181l0.071,-0.182l0.072,-0.18l0.073,-0.18l0.074,-0.179l0.075,-0.179l0.076,-0.179l0.077,-0.178l0.078,-0.177l0.08,-0.176l0.08,-0.177l0.081,-0.175l0.083,-0.175l0.083,-0.174l0.085,-0.174l0.085,-0.173l0.087,-0.173l0.087,-0.172l0.089,-0.171l0.089,-0.171l0.09,-0.17l0.092,-0.169l0.092,-0.169l0.094,-0.169l0.094,-0.167l0.096,-0.167l0.096,-0.167l0.097,-0.166l0.099,-0.165l0.099,-0.164l0.1,-0.164l0.102,-0.163l0.102,-0.163l0.103,-0.162l0.104,-0.161l0.105,-0.16l0.106,-0.16l0.107,-0.159l0.108,-0.159l0.108,-0.157l0.11,-0.157l0.11,-0.157l0.112,-0.156l0.112,-0.155l0.114,-0.154l0.114,-0.154l0.115,-0.152l0.116,-0.153l0.117,-0.151l0.117,-0.151l0.119,-0.15l0.119,-0.149l0.121,-0.149l0.121,-0.147l0.122,-0.147l0.123,-0.147l0.124,-0.145l0.125,-0.145l0.125,-0.144l0.127,-0.143l0.127,-0.143l0.128,-0.141l0.129,-0.141l0.13,-0.141l0.13,-0.139l0.132,-0.139l0.132,-0.138l0.133,-0.137l0.134,-0.136l0.134,-0.135l0.136,-0.135l0.136,-0.134l0.137,-0.133l0.138,-0.132l0.138,-0.131l0.14,-0.131l0.14,-0.13l0.141,-0.129l0.142,-0.128l0.142,-0.127l0.144,-0.126l0.144,-0.126l0.144,-0.125l0.146,-0.123l0.146,-0.123l0.147,-0.123l0.148,-0.121l0.149,-0.12l0.149,-0.12l0.15,-0.118l0.15,-0.118l0.152,-0.117l0.152,-0.116l0.153,-0.115l0.154,-0.114l0.154,-0.113l0.155,-0.113l0.156,-0.111l0.156,-0.111l0.157,-0.109l0.158,-0.109l0.159,-0.108l0.158,-0.107l0.16,-0.106l0.161,-0.105l0.161,-0.104l0.162,-0.103l0.162,-0.102l0.164,-0.101l0.163,-0.1l0.165,-0.1l0.165,-0.098l0.166,-0.097l0.166,-0.097l0.167,-0.095l0.168,-0.095l0.168,-0.093l0.169,-0.093l0.17,-0.091l0.17,-0.091l0.171,-0.089l0.171,-0.089l0.172,-0.087l0.172,-0.086l0.173,-0.086l0.174,-0.084l0.175,-0.084l0.175,-0.082l0.175,-0.082l0.176,-0.08l0.177,-0.079l0.177,-0.078l0.178,-0.078l0.178,-0.076l0.179,-0.075l0.179,-0.074l0.18,-0.073l0.181,-0.072l0.181,-0.07l0.182,-0.07l0.182,-0.069l0.183,-0.067l0.183,-0.067l0.183,-0.065l0.185,-0.065l0.185,-0.063l0.185,-0.062l0.186,-0.061l0.186,-0.06l0.187,-0.059l0.187,-0.057l0.187,-0.057l0.189,-0.055l0.189,-0.055l0.189,-0.053l0.189,-0.052l0.19,-0.05l0.191,-0.05l0.191,-0.049l0.192,-0.047l0.192,-0.046l0.192,-0.046l0.193,-0.043l0.193,-0.043l0.194,-0.042l0.194,-0.04l0.194,-0.039l0.195,-0.038l0.196,-0.037l0.196,-0.036l0.196,-0.034l0.196,-0.034l0.197,-0.032l0.198,-0.031l0.198,-0.029l0.198,-0.028l0.198,-0.028l0.199,-0.026l0.2,-0.024l0.199,-0.024l0.2,-0.022l0.201,-0.021l0.201,-0.02l0.201,-0.018l0.201,-0.018l0.202,-0.016l0.202,-0.015l0.202,-0.013l0.203,-0.012l0.204,-0.011l0.203,-0.01l0.204,-0.008l0.204,-0.007l0.204,-0.006l0.205,-0.005l0.205,-0.003l0.205,-0.002l0.206,-0.001l0.236,0.001Zm-0.43,1.794l-0.194,0.002l-0.194,0.003l-0.193,0.004l-0.193,0.006l-0.193,0.006l-0.192,0.008l-0.192,0.01l-0.192,0.01l-0.192,0.011l-0.191,0.013l-0.191,0.014l-0.19,0.015l-0.19,0.017l-0.19,0.017l-0.19,0.019l-0.189,0.02l-0.189,0.021l-0.188,0.022l-0.188,0.023l-0.188,0.025l-0.187,0.025l-0.187,0.027l-0.187,0.028l-0.186,0.029l-0.186,0.03l-0.186,0.032l-0.185,0.032l-0.184,0.034l-0.185,0.035l-0.184,0.035l-0.183,0.037l-0.183,0.039l-0.183,0.039l-0.182,0.04l-0.182,0.042l-0.182,0.042l-0.181,0.044l-0.18,0.044l-0.181,0.046l-0.179,0.047l-0.18,0.048l-0.178,0.049l-0.179,0.05l-0.178,0.051l-0.177,0.053l-0.178,0.053l-0.176,0.054l-0.176,0.056l-0.176,0.056l-0.175,0.058l-0.175,0.058l-0.174,0.06l-0.174,0.061l-0.173,0.061l-0.173,0.063l-0.172,0.064l-0.172,0.065l-0.172,0.065l-0.17,0.067l-0.171,0.068l-0.169,0.069l-0.17,0.07l-0.169,0.071l-0.168,0.071l-0.167,0.073l-0.168,0.074l-0.166,0.075l-0.166,0.076l-0.166,0.076l-0.165,0.078l-0.165,0.079l-0.163,0.079l-0.164,0.081l-0.163,0.082l-0.162,0.082l-0.162,0.084l-0.161,0.084l-0.16,0.085l-0.16,0.087l-0.16,0.087l-0.158,0.088l-0.159,0.089l-0.157,0.09l-0.157,0.091l-0.157,0.092l-0.155,0.093l-0.156,0.094l-0.154,0.094l-0.154,0.096l-0.154,0.096l-0.152,0.097l-0.152,0.099l-0.152,0.099l-0.151,0.1l-0.15,0.101l-0.15,0.101l-0.148,0.103l-0.149,0.103l-0.147,0.105l-0.147,0.105l-0.147,0.106l-0.145,0.107l-0.145,0.108l-0.145,0.108l-0.143,0.11l-0.143,0.11l-0.142,0.111l-0.142,0.112l-0.141,0.113l-0.14,0.114l-0.14,0.114l-0.138,0.115l-0.139,0.117l-0.137,0.116l-0.137,0.118l-0.136,0.119l-0.135,0.119l-0.134,0.12l-0.134,0.121l-0.133,0.122l-0.133,0.122l-0.131,0.123l-0.131,0.124l-0.13,0.125l-0.13,0.126l-0.128,0.126l-0.128,0.127l-0.127,0.128l-0.127,0.129l-0.125,0.129l-0.125,0.13l-0.124,0.131l-0.123,0.132l-0.123,0.132l-0.121,0.133l-0.121,0.134l-0.12,0.135l-0.12,0.135l-0.118,0.136l-0.118,0.136l-0.117,0.138l-0.116,0.138l-0.115,0.139l-0.115,0.139l-0.113,0.141l-0.113,0.14l-0.112,0.142l-0.111,0.142l-0.111,0.143l-0.109,0.144l-0.109,0.144l-0.107,0.145l-0.107,0.146l-0.106,0.146l-0.106,0.147l-0.104,0.148l-0.103,0.148l-0.103,0.149l-0.102,0.149l-0.101,0.151l-0.1,0.151l-0.099,0.151l-0.098,0.152l-0.097,0.153l-0.097,0.153l-0.095,0.154l-0.095,0.155l-0.094,0.155l-0.092,0.156l-0.092,0.156l-0.091,0.157l-0.09,0.158l-0.089,0.158l-0.089,0.159l-0.087,0.159l-0.086,0.16l-0.085,0.161l-0.085,0.161l-0.083,0.162l-0.083,0.162l-0.081,0.163l-0.081,0.163l-0.08,0.164l-0.078,0.164l-0.078,0.165l-0.077,0.166l-0.076,0.166l-0.074,0.167l-0.074,0.167l-0.073,0.168l-0.072,0.168l-0.071,0.169l-0.07,0.169l-0.068,0.17l-0.068,0.17l-0.067,0.171l-0.066,0.171l-0.065,0.172l-0.063,0.172l-0.063,0.173l-0.062,0.173l-0.06,0.174l-0.06,0.174l-0.059,0.175l-0.057,0.175l-0.057,0.176l-0.055,0.176l-0.054,0.177l-0.054,0.177l-0.052,0.178l-0.051,0.178l-0.05,0.178l-0.049,0.179l-0.048,0.179l-0.047,0.18l-0.046,0.18l-0.045,0.181l-0.043,0.181l-0.043,0.181l-0.041,0.182l-0.041,0.182l-0.039,0.183l-0.038,0.183l-0.037,0.184l-0.036,0.184l-0.035,0.184l-0.033,0.185l-0.033,0.185l-0.031,0.185l-0.03,0.186l-0.029,0.186l-0.028,0.187l-0.027,0.187l-0.026,0.187l-0.024,0.188l-0.024,0.188l-0.022,0.189l-0.021,0.189l-0.02,0.189l-0.018,0.189l-0.018,0.19l-0.016,0.19l-0.015,0.191l-0.014,0.191l-0.013,0.191l-0.012,0.191l-0.01,0.192l-0.009,0.192l-0.008,0.192l-0.007,0.193l-0.005,0.193l-0.004,0.194l-0.004,0.193l-0.001,0.194l-0.001,0.194l0.001,0.195l0.001,0.194l0.004,0.193l0.004,0.194l0.005,0.193l0.007,0.192l0.008,0.193l0.009,0.192l0.01,0.192l0.012,0.191l0.013,0.191l0.014,0.191l0.015,0.191l0.016,0.19l0.018,0.19l0.018,0.189l0.02,0.189l0.021,0.189l0.022,0.188l0.024,0.189l0.024,0.187l0.026,0.188l0.027,0.187l0.028,0.186l0.029,0.187l0.03,0.185l0.031,0.186l0.033,0.185l0.033,0.185l0.035,0.184l0.036,0.184l0.037,0.184l0.038,0.183l0.039,0.182l0.041,0.183l0.041,0.182l0.043,0.181l0.043,0.181l0.045,0.181l0.046,0.18l0.047,0.18l0.048,0.179l0.049,0.179l0.05,0.178l0.051,0.178l0.052,0.178l0.054,0.177l0.054,0.177l0.055,0.176l0.057,0.175l0.057,0.176l0.059,0.174l0.06,0.175l0.06,0.173l0.062,0.174l0.063,0.172l0.063,0.173l0.065,0.172l0.066,0.171l0.067,0.171l0.068,0.17l0.068,0.17l0.07,0.169l0.071,0.169l0.072,0.168l0.073,0.168l0.074,0.167l0.074,0.167l0.076,0.166l0.077,0.165l0.078,0.165l0.078,0.165l0.08,0.164l0.081,0.163l0.081,0.163l0.083,0.162l0.083,0.162l0.085,0.161l0.085,0.161l0.086,0.16l0.087,0.159l0.089,0.159l0.089,0.158l0.09,0.158l0.091,0.157l0.092,0.156l0.092,0.156l0.094,0.155l0.095,0.155l0.095,0.154l0.097,0.153l0.097,0.153l0.098,0.152l0.099,0.151l0.1,0.151l0.101,0.15l0.102,0.15l0.103,0.149l0.103,0.148l0.104,0.148l0.106,0.147l0.106,0.146l0.107,0.146l0.107,0.145l0.109,0.144l0.109,0.144l0.111,0.142l0.111,0.143l0.112,0.141l0.113,0.141l0.113,0.14l0.115,0.14l0.115,0.139l0.116,0.138l0.117,0.137l0.118,0.137l0.118,0.136l0.12,0.135l0.12,0.135l0.121,0.134l0.121,0.133l0.123,0.132l0.123,0.132l0.124,0.13l0.125,0.131l0.125,0.129l0.127,0.129l0.127,0.127l0.128,0.128l0.128,0.126l0.13,0.126l0.13,0.124l0.131,0.124l0.131,0.124l0.133,0.122l0.133,0.122l0.134,0.121l0.134,0.12l0.135,0.119l0.136,0.119l0.137,0.117l0.137,0.117l0.139,0.116l0.138,0.116l0.14,0.114l0.14,0.114l0.141,0.112l0.142,0.112l0.142,0.112l0.143,0.11l0.143,0.109l0.145,0.109l0.145,0.108l0.145,0.107l0.147,0.106l0.147,0.105l0.147,0.104l0.149,0.104l0.148,0.102l0.15,0.102l0.15,0.101l0.151,0.1l0.152,0.099l0.152,0.098l0.152,0.098l0.154,0.096l0.154,0.096l0.154,0.094l0.156,0.094l0.155,0.093l0.157,0.092l0.157,0.091l0.157,0.09l0.159,0.089l0.158,0.088l0.16,0.087l0.16,0.086l0.16,0.086l0.161,0.084l0.162,0.084l0.162,0.082l0.163,0.082l0.164,0.08l0.163,0.08l0.165,0.079l0.165,0.078l0.166,0.076l0.166,0.076l0.166,0.075l0.168,0.074l0.167,0.072l0.168,0.072l0.169,0.071l0.17,0.07l0.169,0.069l0.171,0.068l0.17,0.066l0.172,0.066l0.172,0.065l0.172,0.064l0.173,0.062l0.173,0.062l0.174,0.061l0.174,0.059l0.175,0.059l0.175,0.057l0.176,0.057l0.176,0.055l0.176,0.055l0.178,0.053l0.177,0.052l0.178,0.052l0.179,0.05l0.178,0.049l0.18,0.048l0.179,0.047l0.181,0.045l0.18,0.045l0.181,0.044l0.182,0.042l0.182,0.042l0.182,0.04l0.183,0.039l0.183,0.038l0.183,0.037l0.184,0.036l0.185,0.035l0.184,0.034l0.185,0.032l0.186,0.032l0.186,0.03l0.186,0.029l0.187,0.028l0.187,0.027l0.187,0.025l0.188,0.025l0.188,0.023l0.188,0.022l0.189,0.021l0.189,0.02l0.19,0.019l0.19,0.017l0.19,0.017l0.19,0.015l0.191,0.014l0.191,0.012l0.192,0.012l0.192,0.01l0.192,0.009l0.192,0.008l0.193,0.007l0.193,0.006l0.193,0.004l0.194,0.003l0.194,0.002l0.194,0l0.194,0l0.194,-0.002l0.194,-0.003l0.193,-0.004l0.193,-0.006l0.193,-0.007l0.192,-0.008l0.192,-0.009l0.192,-0.01l0.192,-0.012l0.191,-0.012l0.191,-0.014l0.19,-0.015l0.19,-0.017l0.19,-0.017l0.19,-0.019l0.189,-0.02l0.189,-0.021l0.188,-0.022l0.188,-0.023l0.188,-0.025l0.187,-0.025l0.187,-0.027l0.187,-0.028l0.186,-0.029l0.186,-0.03l0.185,-0.032l0.186,-0.032l0.184,-0.034l0.185,-0.035l0.184,-0.036l0.183,-0.037l0.183,-0.038l0.183,-0.039l0.182,-0.04l0.182,-0.042l0.182,-0.042l0.181,-0.044l0.18,-0.045l0.18,-0.045l0.18,-0.047l0.18,-0.048l0.178,-0.049l0.179,-0.05l0.178,-0.052l0.177,-0.052l0.177,-0.053l0.177,-0.055l0.176,-0.055l0.176,-0.057l0.175,-0.057l0.175,-0.059l0.174,-0.059l0.174,-0.061l0.173,-0.062l0.173,-0.062l0.172,-0.064l0.172,-0.065l0.171,-0.066l0.171,-0.066l0.171,-0.068l0.169,-0.069l0.17,-0.07l0.168,-0.071l0.169,-0.072l0.167,-0.072l0.168,-0.074l0.166,-0.075l0.166,-0.076l0.166,-0.076l0.165,-0.078l0.164,-0.079l0.164,-0.08l0.164,-0.08l0.163,-0.082l0.162,-0.082l0.161,-0.084l0.162,-0.084l0.16,-0.086l0.16,-0.086l0.159,-0.087l0.159,-0.088l0.158,-0.089l0.158,-0.09l0.157,-0.091l0.157,-0.092l0.155,-0.093l0.156,-0.094l0.154,-0.094l0.154,-0.096l0.153,-0.096l0.153,-0.098l0.152,-0.098l0.152,-0.099l0.151,-0.1l0.15,-0.101l0.149,-0.102l0.149,-0.102l0.149,-0.104l0.147,-0.104l0.147,-0.105l0.147,-0.106l0.145,-0.107l0.145,-0.108l0.144,-0.109l0.144,-0.109l0.143,-0.11l0.142,-0.112l0.142,-0.112l0.141,-0.112l0.14,-0.114l0.14,-0.114l0.138,-0.116l0.138,-0.116l0.138,-0.117l0.137,-0.117l0.136,-0.119l0.135,-0.119l0.134,-0.12l0.134,-0.121l0.133,-0.122l0.133,-0.122l0.131,-0.124l0.131,-0.124l0.13,-0.124l0.13,-0.126l0.128,-0.126l0.128,-0.128l0.127,-0.127l0.126,-0.129l0.126,-0.129l0.125,-0.131l0.124,-0.13l0.123,-0.132l0.123,-0.132l0.121,-0.133l0.121,-0.134l0.12,-0.135l0.12,-0.135l0.118,-0.136l0.118,-0.137l0.117,-0.137l0.116,-0.138l0.115,-0.139l0.115,-0.14l0.113,-0.14l0.113,-0.141l0.112,-0.141l0.111,-0.143l0.11,-0.142l0.11,-0.144l0.109,-0.144l0.107,-0.145l0.107,-0.146l0.106,-0.146l0.106,-0.147l0.104,-0.148l0.103,-0.148l0.103,-0.149l0.102,-0.15l0.101,-0.15l0.1,-0.151l0.099,-0.151l0.098,-0.152l0.097,-0.153l0.097,-0.153l0.095,-0.154l0.095,-0.155l0.093,-0.155l0.093,-0.156l0.092,-0.156l0.091,-0.157l0.09,-0.158l0.089,-0.158l0.088,-0.159l0.088,-0.159l0.086,-0.16l0.085,-0.161l0.085,-0.161l0.083,-0.162l0.083,-0.162l0.081,-0.163l0.081,-0.163l0.08,-0.164l0.078,-0.165l0.078,-0.165l0.077,-0.165l0.076,-0.166l0.074,-0.167l0.074,-0.167l0.073,-0.168l0.072,-0.168l0.071,-0.169l0.069,-0.169l0.069,-0.17l0.068,-0.17l0.067,-0.171l0.066,-0.171l0.064,-0.172l0.064,-0.173l0.063,-0.172l0.062,-0.174l0.06,-0.173l0.06,-0.175l0.058,-0.174l0.058,-0.176l0.056,-0.175l0.056,-0.176l0.054,-0.177l0.054,-0.177l0.052,-0.178l0.051,-0.178l0.05,-0.178l0.049,-0.179l0.048,-0.179l0.047,-0.18l0.046,-0.18l0.045,-0.181l0.043,-0.181l0.043,-0.181l0.041,-0.182l0.041,-0.183l0.039,-0.182l0.038,-0.183l0.037,-0.184l0.036,-0.184l0.035,-0.184l0.033,-0.185l0.033,-0.185l0.031,-0.186l0.03,-0.185l0.029,-0.187l0.028,-0.186l0.027,-0.187l0.026,-0.188l0.024,-0.187l0.024,-0.189l0.022,-0.188l0.021,-0.189l0.02,-0.189l0.018,-0.189l0.018,-0.19l0.016,-0.19l0.015,-0.191l0.014,-0.191l0.013,-0.191l0.011,-0.191l0.011,-0.192l0.009,-0.192l0.008,-0.193l0.007,-0.192l0.005,-0.193l0.004,-0.194l0.003,-0.193l0.002,-0.194l0.001,-0.195l-0.001,-0.294l-0.005,-0.293l-0.007,-0.292l-0.01,-0.292l-0.012,-0.291l-0.015,-0.291l-0.019,-0.289l-0.02,-0.289l-0.024,-0.289l-0.026,-0.287l-0.029,-0.287l-0.032,-0.286l-0.034,-0.285l-0.037,-0.284l-0.04,-0.283l-0.042,-0.283l-0.045,-0.281l-0.047,-0.281l-0.05,-0.28l-0.053,-0.279l-0.055,-0.278l-0.058,-0.278l-0.06,-0.276l-0.063,-0.275l-0.066,-0.274l-0.067,-0.274l-0.071,-0.272l-0.073,-0.271l-0.075,-0.271l-0.078,-0.269l-0.08,-0.268l-0.083,-0.268l7.499,-7.499l0.043,-0.043l0.043,-0.044l0.041,-0.044l0.041,-0.045l0.041,-0.046l0.04,-0.045l0.078,-0.093l0.076,-0.095l0.073,-0.096l0.07,-0.098l0.069,-0.1l0.065,-0.101l0.063,-0.102l0.061,-0.104l0.058,-0.106l0.055,-0.106l0.052,-0.108l0.05,-0.109l0.048,-0.11l0.044,-0.112l0.042,-0.112l0.039,-0.114l0.036,-0.114l0.034,-0.116l0.031,-0.116l0.028,-0.117l0.025,-0.118l0.022,-0.118l0.019,-0.12l0.017,-0.119l0.013,-0.121l0.011,-0.121l0.004,-0.06l0.003,-0.061l0.003,-0.061l0.002,-0.061l0.001,-0.061l0,-0.061l0,-0.061l-0.001,-0.061l-0.002,-0.061l-0.003,-0.061l-0.003,-0.061l-0.004,-0.06l-0.011,-0.121l-0.013,-0.121l-0.017,-0.12l-0.019,-0.119l-0.022,-0.118l-0.025,-0.118l-0.028,-0.117l-0.031,-0.116l-0.034,-0.116l-0.036,-0.114l-0.039,-0.114l-0.042,-0.112l-0.044,-0.112l-0.048,-0.11l-0.05,-0.109l-0.052,-0.108l-0.055,-0.107l-0.058,-0.105l-0.061,-0.104l-0.063,-0.102l-0.065,-0.101l-0.069,-0.1l-0.07,-0.098l-0.073,-0.096l-0.076,-0.095l-0.078,-0.093l-0.04,-0.045l-0.041,-0.046l-0.041,-0.045l-0.041,-0.044l-0.043,-0.044l-0.043,-0.044l-0.88,-0.88l-0.046,-0.045l-0.046,-0.044l-0.047,-0.044l-0.047,-0.043l-0.047,-0.043l-0.049,-0.041l-0.048,-0.041l-0.049,-0.041l-0.05,-0.04l-0.05,-0.039l-0.051,-0.038l-0.051,-0.038l-0.051,-0.037l-0.052,-0.036l-0.052,-0.035l-0.053,-0.035l-0.053,-0.035l-0.053,-0.033l-0.054,-0.033l-0.055,-0.032l-0.054,-0.031l-0.055,-0.031l-0.056,-0.03l-0.056,-0.029l-0.056,-0.028l-0.056,-0.028l-0.057,-0.027l-0.057,-0.027l-0.057,-0.025l-0.058,-0.025l-0.058,-0.024l-0.059,-0.023l-0.058,-0.023l-0.059,-0.022l-0.06,-0.021l-0.059,-0.02l-0.06,-0.02l-0.06,-0.018l-0.06,-0.018l-0.061,-0.018l-0.06,-0.016l-0.061,-0.016l-0.062,-0.015l-0.061,-0.014l-0.062,-0.013l-0.061,-0.013l-0.062,-0.012l-0.063,-0.011l-0.062,-0.01l-0.062,-0.009l-0.063,-0.009l-0.063,-0.008l-0.063,-0.007l-0.063,-0.006l-0.063,-0.006l-0.064,-0.004l-0.063,-0.004l-0.064,-0.003l-0.064,-0.002l-0.063,-0.001l-0.064,-0.001l-0.064,0.001l-0.064,0.001l-0.064,0.002l-0.065,0.003l-0.064,0.003l-0.063,0.005l-0.064,0.005l-0.064,0.006l-0.063,0.007l-0.063,0.008l-0.063,0.009l-0.063,0.009l-0.063,0.01l-0.062,0.011l-0.062,0.012l-0.063,0.013l-0.061,0.013l-0.062,0.014l-0.061,0.015l-0.062,0.016l-0.061,0.016l-0.06,0.017l-0.061,0.018l-0.06,0.019l-0.06,0.02l-0.059,0.02l-0.06,0.021l-0.059,0.022l-0.058,0.023l-0.059,0.023l-0.058,0.024l-0.058,0.025l-0.057,0.025l-0.057,0.026l-0.057,0.027l-0.056,0.028l-0.057,0.028l-0.055,0.03l-0.056,0.029l-0.055,0.031l-0.054,0.031l-0.054,0.032l-0.054,0.033l-0.054,0.033l-0.052,0.034l-0.053,0.035l-0.052,0.035l-0.052,0.036l-0.051,0.037l-0.051,0.038l-0.05,0.038l-0.05,0.039l-0.05,0.039l-0.049,0.04l-0.048,0.041l-0.048,0.041l-0.047,0.042l-0.047,0.043l-0.047,0.043l-0.046,0.044l-0.045,0.045l-0.045,0.045l-0.044,0.046l-0.044,0.047l-0.043,0.047l-0.043,0.048l-0.042,0.048l-4.587,5.343l-0.13,-0.161l-0.131,-0.16l-0.131,-0.16l-0.133,-0.158l-0.134,-0.158l-0.135,-0.156l-0.136,-0.156l-0.137,-0.155l-0.139,-0.153l-0.139,-0.153l-0.14,-0.152l-0.141,-0.151l-0.142,-0.15l-0.144,-0.149l-0.144,-0.148l-0.145,-0.147l-0.147,-0.146l-0.147,-0.145l-0.148,-0.144l-0.149,-0.143l-0.151,-0.142l-0.151,-0.141l-0.152,-0.139l-0.153,-0.139l-0.154,-0.138l-0.155,-0.137l-0.156,-0.136l-0.157,-0.134l-0.158,-0.134l-0.159,-0.132l-0.16,-0.132l-0.16,-0.13l-0.162,-0.129l-0.162,-0.129l-0.164,-0.127l-0.164,-0.126l-0.165,-0.125l-0.166,-0.123l-0.167,-0.123l-0.168,-0.122l-0.168,-0.12l-0.17,-0.119l-0.17,-0.118l-0.171,-0.117l-0.172,-0.116l-0.173,-0.115l-0.174,-0.113l-0.174,-0.113l-0.176,-0.111l-0.176,-0.11l-0.177,-0.109l-0.178,-0.107l-0.178,-0.107l-0.18,-0.105l-0.18,-0.104l-0.181,-0.103l-0.181,-0.101l-0.183,-0.101l-0.183,-0.099l-0.184,-0.098l-0.185,-0.096l-0.185,-0.096l-0.187,-0.094l-0.187,-0.093l-0.187,-0.091l-0.189,-0.091l-0.189,-0.089l-0.19,-0.088l-0.19,-0.086l-0.192,-0.085l-0.192,-0.084l-0.192,-0.083l-0.194,-0.081l-0.194,-0.08l-0.195,-0.079l-0.195,-0.077l-0.196,-0.076l-0.197,-0.075l-0.197,-0.073l-0.198,-0.072l-0.199,-0.071l-0.199,-0.069l-0.2,-0.068l-0.201,-0.067l-0.201,-0.065l-0.202,-0.064l-0.202,-0.062l-0.203,-0.061l-0.204,-0.06l-0.204,-0.058l-0.205,-0.057l-0.205,-0.055l-0.206,-0.054l-0.207,-0.053l-0.207,-0.051l-0.207,-0.05l-0.209,-0.048l-0.208,-0.047l-0.21,-0.045l-0.209,-0.044l-0.211,-0.042l-0.211,-0.041l-0.211,-0.04l-0.212,-0.038l-0.212,-0.036l-0.213,-0.035l-0.214,-0.034l-0.214,-0.032l-0.214,-0.031l-0.215,-0.029l-0.215,-0.027l-0.216,-0.026l-0.217,-0.024l-0.216,-0.023l-0.218,-0.022l-0.217,-0.02l-0.218,-0.018l-0.219,-0.017l-0.219,-0.015l-0.219,-0.013l-0.22,-0.012l-0.22,-0.011l-0.221,-0.008l-0.221,-0.008l-0.221,-0.005l-0.222,-0.004l-0.222,-0.003l-0.223,-0.001l-0.194,0.001Z" style="fill:#414141;"/><path d="M273.825,23.671c1.028,1.029 1.606,2.423 1.606,3.878c0,1.454 -0.578,2.849 -1.606,3.878c-8.879,8.879 -30.266,30.266 -34.746,34.746c-0.46,0.459 -1.204,0.459 -1.664,0c-2.651,-2.652 -11.029,-11.03 -16.118,-16.119c-1.002,-1.001 -1.505,-2.397 -1.372,-3.807c0.132,-1.41 0.886,-2.688 2.056,-3.486c0,0 0.001,0 0.001,0c1.91,-1.302 4.496,-0.94 5.976,0.836c2.917,3.502 7.485,8.984 9.399,11.281c0.221,0.266 0.549,0.421 0.895,0.424c0.346,0.002 0.676,-0.148 0.901,-0.41c3.889,-4.53 19.298,-22.48 26.583,-30.965c0.994,-1.159 2.427,-1.85 3.953,-1.908c1.525,-0.058 3.006,0.522 4.086,1.602c0.017,0.017 0.033,0.033 0.05,0.05Z" style="fill:#00a1f4;"/></g></svg>