<?xml version="1.0" encoding="UTF-8" standalone="no"?><!DOCTYPE svg PUBLIC "-//W3C//DTD SVG 1.1//EN" "http://www.w3.org/Graphics/SVG/1.1/DTD/svg11.dtd"><svg width="100%" height="100%" viewBox="0 0 321 116" version="1.1" xmlns="http://www.w3.org/2000/svg" xmlns:xlink="http://www.w3.org/1999/xlink" xml:space="preserve" xmlns:serif="http://www.serif.com/" style="fill-rule:evenodd;clip-rule:evenodd;stroke-linecap:round;stroke-linejoin:round;stroke-miterlimit:1.5;"><rect id="standards" x="0" y="0" width="321" height="116" style="fill:none;"/><clipPath id="_clip1"><rect x="0" y="0" width="321" height="116"/></clipPath><g clip-path="url(#_clip1)"><rect x="0" y="0" width="321" height="116" style="fill:#ebebeb;"/><rect x="-21.221" y="108.309" width="387.574" height="13.191" style="fill:#1ed2f4;"/><path d="M86.655,98.02L89.295,95.14C90.155,96.56 91.635,97.27 93.735,97.27C94.435,97.27 94.985,97.175 95.385,96.985C95.785,96.795 95.985,96.54 95.985,96.22C95.985,95.94 95.78,95.695 95.37,95.485C94.96,95.275 94.255,95.07 93.255,94.87C91.015,94.43 89.42,93.83 88.47,93.07C87.52,92.31 87.045,91.3 87.045,90.04C87.045,89.18 87.315,88.37 87.855,87.61C88.395,86.85 89.21,86.235 90.3,85.765C91.39,85.295 92.715,85.06 94.275,85.06C95.995,85.06 97.4,85.295 98.49,85.765C99.58,86.235 100.465,86.94 101.145,87.88L98.505,90.46C98.025,89.76 97.455,89.25 96.795,88.93C96.135,88.61 95.345,88.45 94.425,88.45C93.705,88.45 93.145,88.56 92.745,88.78C92.345,89 92.145,89.27 92.145,89.59C92.145,89.89 92.35,90.145 92.76,90.355C93.17,90.565 93.885,90.77 94.905,90.97C97.105,91.35 98.69,91.915 99.66,92.665C100.63,93.415 101.115,94.44 101.115,95.74C101.115,97.2 100.505,98.385 99.285,99.295C98.065,100.205 96.295,100.66 93.975,100.66C90.535,100.66 88.095,99.78 86.655,98.02Z" style="fill:#414141;fill-rule:nonzero;"/><path d="M114.645,99.52C114.145,99.86 113.51,100.135 112.74,100.345C111.97,100.555 111.195,100.66 110.415,100.66C108.635,100.66 107.275,100.28 106.335,99.52C105.395,98.76 104.915,97.54 104.895,95.86L104.895,88.99L102.315,88.99L102.315,85.36L104.895,85.36L104.895,82L109.995,80.59L109.995,85.36L114.495,85.36L114.495,88.99L109.995,88.99L109.995,95.02C109.995,96.36 110.655,97.03 111.975,97.03C112.795,97.03 113.515,96.81 114.135,96.37L114.645,99.52Z" style="fill:#414141;fill-rule:nonzero;"/><path d="M132.465,97.33L132.075,100.18C131.495,100.5 130.815,100.66 130.035,100.66C127.875,100.66 126.585,99.89 126.165,98.35C125.265,99.89 123.485,100.66 120.825,100.66C119.325,100.66 118.175,100.34 117.375,99.7C116.575,99.06 116.175,98.13 116.175,96.91C116.175,95.63 116.63,94.595 117.54,93.805C118.45,93.015 119.945,92.41 122.025,91.99L125.415,91.33L125.415,90.79C125.415,90.11 125.225,89.57 124.845,89.17C124.465,88.77 123.945,88.57 123.285,88.57C122.525,88.57 121.905,88.75 121.425,89.11C120.945,89.47 120.635,90.06 120.495,90.88L116.355,89.68C116.615,88.22 117.335,87.085 118.515,86.275C119.695,85.465 121.285,85.06 123.285,85.06C125.625,85.06 127.405,85.54 128.625,86.5C129.845,87.46 130.455,88.9 130.455,90.82L130.455,96.28C130.455,97.06 130.815,97.45 131.535,97.45C131.915,97.45 132.225,97.41 132.465,97.33ZM124.575,96.775C125.135,96.385 125.415,95.87 125.415,95.23L125.415,93.94L122.985,94.51C122.345,94.67 121.89,94.865 121.62,95.095C121.35,95.325 121.215,95.65 121.215,96.07C121.215,96.49 121.345,96.81 121.605,97.03C121.865,97.25 122.225,97.36 122.685,97.36C123.385,97.36 124.015,97.165 124.575,96.775Z" style="fill:#414141;fill-rule:nonzero;"/><path d="M148.095,86.44C149.035,87.36 149.505,88.67 149.505,90.37L149.505,100.36L144.405,100.36L144.405,91.78C144.405,90.76 144.22,90.035 143.85,89.605C143.48,89.175 142.955,88.96 142.275,88.96C141.475,88.96 140.825,89.245 140.325,89.815C139.825,90.385 139.575,91.26 139.575,92.44L139.575,100.36L134.475,100.36L134.475,85.36L139.035,85.36L139.185,88.24C139.665,87.18 140.345,86.385 141.225,85.855C142.105,85.325 143.135,85.06 144.315,85.06C145.895,85.06 147.155,85.52 148.095,86.44Z" style="fill:#414141;fill-rule:nonzero;"/><path d="M168.285,79L168.285,100.36L163.695,100.36L163.515,97.51C163.075,98.49 162.43,99.26 161.58,99.82C160.73,100.38 159.745,100.66 158.625,100.66C156.685,100.66 155.17,99.98 154.08,98.62C152.99,97.26 152.445,95.36 152.445,92.92C152.445,90.44 152.995,88.51 154.095,87.13C155.195,85.75 156.715,85.06 158.655,85.06C159.715,85.06 160.625,85.31 161.385,85.81C162.145,86.31 162.745,87 163.185,87.88L163.185,79L168.285,79ZM162.36,96.025C162.85,95.435 163.125,94.58 163.185,93.46L163.185,92.26C163.125,91.16 162.85,90.31 162.36,89.71C161.87,89.11 161.215,88.81 160.395,88.81C159.495,88.81 158.8,89.14 158.31,89.8C157.82,90.46 157.575,91.48 157.575,92.86C157.575,94.24 157.82,95.26 158.31,95.92C158.8,96.58 159.495,96.91 160.395,96.91C161.215,96.91 161.87,96.615 162.36,96.025Z" style="fill:#414141;fill-rule:nonzero;"/><path d="M187.335,97.33L186.945,100.18C186.365,100.5 185.685,100.66 184.905,100.66C182.745,100.66 181.455,99.89 181.035,98.35C180.135,99.89 178.355,100.66 175.695,100.66C174.195,100.66 173.045,100.34 172.245,99.7C171.445,99.06 171.045,98.13 171.045,96.91C171.045,95.63 171.5,94.595 172.41,93.805C173.32,93.015 174.815,92.41 176.895,91.99L180.285,91.33L180.285,90.79C180.285,90.11 180.095,89.57 179.715,89.17C179.335,88.77 178.815,88.57 178.155,88.57C177.395,88.57 176.775,88.75 176.295,89.11C175.815,89.47 175.505,90.06 175.365,90.88L171.225,89.68C171.485,88.22 172.205,87.085 173.385,86.275C174.565,85.465 176.155,85.06 178.155,85.06C180.495,85.06 182.275,85.54 183.495,86.5C184.715,87.46 185.325,88.9 185.325,90.82L185.325,96.28C185.325,97.06 185.685,97.45 186.405,97.45C186.785,97.45 187.095,97.41 187.335,97.33ZM179.445,96.775C180.005,96.385 180.285,95.87 180.285,95.23L180.285,93.94L177.855,94.51C177.215,94.67 176.76,94.865 176.49,95.095C176.22,95.325 176.085,95.65 176.085,96.07C176.085,96.49 176.215,96.81 176.475,97.03C176.735,97.25 177.095,97.36 177.555,97.36C178.255,97.36 178.885,97.165 179.445,96.775Z" style="fill:#414141;fill-rule:nonzero;"/><path d="M200.235,85.39L199.695,89.71C199.495,89.59 199.225,89.485 198.885,89.395C198.545,89.305 198.185,89.26 197.805,89.26C196.845,89.26 196.045,89.565 195.405,90.175C194.765,90.785 194.445,91.66 194.445,92.8L194.445,100.36L189.345,100.36L189.345,85.36L193.845,85.36L194.055,88.6C194.415,87.46 194.98,86.585 195.75,85.975C196.52,85.365 197.475,85.06 198.615,85.06C199.295,85.06 199.835,85.17 200.235,85.39Z" style="fill:#414141;fill-rule:nonzero;"/><path d="M217.275,79L217.275,100.36L212.685,100.36L212.505,97.51C212.065,98.49 211.42,99.26 210.57,99.82C209.72,100.38 208.735,100.66 207.615,100.66C205.675,100.66 204.16,99.98 203.07,98.62C201.98,97.26 201.435,95.36 201.435,92.92C201.435,90.44 201.985,88.51 203.085,87.13C204.185,85.75 205.705,85.06 207.645,85.06C208.705,85.06 209.615,85.31 210.375,85.81C211.135,86.31 211.735,87 212.175,87.88L212.175,79L217.275,79ZM211.35,96.025C211.84,95.435 212.115,94.58 212.175,93.46L212.175,92.26C212.115,91.16 211.84,90.31 211.35,89.71C210.86,89.11 210.205,88.81 209.385,88.81C208.485,88.81 207.79,89.14 207.3,89.8C206.81,90.46 206.565,91.48 206.565,92.86C206.565,94.24 206.81,95.26 207.3,95.92C207.79,96.58 208.485,96.91 209.385,96.91C210.205,96.91 210.86,96.615 211.35,96.025Z" style="fill:#414141;fill-rule:nonzero;"/><path d="M219.795,98.02L222.435,95.14C223.295,96.56 224.775,97.27 226.875,97.27C227.575,97.27 228.125,97.175 228.525,96.985C228.925,96.795 229.125,96.54 229.125,96.22C229.125,95.94 228.92,95.695 228.51,95.485C228.1,95.275 227.395,95.07 226.395,94.87C224.155,94.43 222.56,93.83 221.61,93.07C220.66,92.31 220.185,91.3 220.185,90.04C220.185,89.18 220.455,88.37 220.995,87.61C221.535,86.85 222.35,86.235 223.44,85.765C224.53,85.295 225.855,85.06 227.415,85.06C229.135,85.06 230.54,85.295 231.63,85.765C232.72,86.235 233.605,86.94 234.285,87.88L231.645,90.46C231.165,89.76 230.595,89.25 229.935,88.93C229.275,88.61 228.485,88.45 227.565,88.45C226.845,88.45 226.285,88.56 225.885,88.78C225.485,89 225.285,89.27 225.285,89.59C225.285,89.89 225.49,90.145 225.9,90.355C226.31,90.565 227.025,90.77 228.045,90.97C230.245,91.35 231.83,91.915 232.8,92.665C233.77,93.415 234.255,94.44 234.255,95.74C234.255,97.2 233.645,98.385 232.425,99.295C231.205,100.205 229.435,100.66 227.115,100.66C223.675,100.66 221.235,99.78 219.795,98.02Z" style="fill:#414141;fill-rule:nonzero;"/><g><rect x="58" y="20" width="11" height="11" style="fill:#9df;stroke:#00a1f4;stroke-width:1.5px;"/><path d="M146,28L76,28" style="fill:none;stroke:#00a1f4;stroke-width:1.5px;"/><path d="M146,24L76,24" style="fill:none;stroke:#00a1f4;stroke-width:1.5px;"/></g><g><rect x="58" y="40" width="11" height="11" style="fill:#9df;stroke:#00a1f4;stroke-width:1.5px;"/><path d="M146,48L76,48" style="fill:none;stroke:#00a1f4;stroke-width:1.5px;"/><path d="M146,44L76,44" style="fill:none;stroke:#00a1f4;stroke-width:1.5px;"/></g><g><rect x="58" y="60" width="11" height="11" style="fill:#9df;stroke:#00a1f4;stroke-width:1.5px;"/><path d="M146,68L76,68" style="fill:none;stroke:#00a1f4;stroke-width:1.5px;"/><path d="M146,64L76,64" style="fill:none;stroke:#00a1f4;stroke-width:1.5px;"/></g><path d="M72.06,16.046C72.388,16.375 72.573,16.82 72.573,17.285C72.573,17.749 72.388,18.195 72.06,18.524C69.585,20.998 64.089,26.495 61.995,28.588C61.774,28.809 61.475,28.933 61.163,28.933C60.851,28.933 60.552,28.809 60.332,28.588C59.166,27.423 57.046,25.303 55.767,24.023C55.504,23.761 55.372,23.394 55.407,23.024C55.441,22.654 55.639,22.319 55.946,22.11C55.947,22.109 55.947,22.109 55.948,22.109C56.656,21.626 57.615,21.76 58.164,22.418C58.807,23.191 59.646,24.198 60.273,24.951C60.495,25.216 60.822,25.371 61.168,25.374C61.514,25.376 61.844,25.226 62.069,24.964C63.829,22.914 67.706,18.398 69.648,16.136C69.946,15.788 70.376,15.581 70.833,15.564C71.29,15.546 71.734,15.72 72.058,16.044C72.059,16.045 72.059,16.045 72.06,16.046Z" style="fill:#414141;"/><path d="M72.06,35.937C72.388,36.266 72.573,36.711 72.573,37.176C72.573,37.641 72.388,38.086 72.06,38.415C69.585,40.89 64.089,46.386 61.995,48.48C61.774,48.7 61.475,48.824 61.163,48.824C60.851,48.824 60.552,48.7 60.332,48.48C59.166,47.314 57.046,45.194 55.767,43.915C55.504,43.652 55.372,43.286 55.407,42.916C55.441,42.546 55.639,42.21 55.946,42.001C55.947,42.001 55.947,42 55.948,42C56.656,41.517 57.615,41.651 58.164,42.31C58.807,43.082 59.646,44.089 60.273,44.842C60.495,45.108 60.822,45.263 61.168,45.265C61.514,45.268 61.844,45.118 62.069,44.855C63.829,42.805 67.706,38.289 69.648,36.027C69.946,35.68 70.376,35.472 70.833,35.455C71.29,35.438 71.734,35.612 72.058,35.935C72.059,35.936 72.059,35.937 72.06,35.937Z" style="fill:#414141;"/><path d="M72.06,55.829C72.388,56.157 72.573,56.603 72.573,57.067C72.573,57.532 72.388,57.978 72.06,58.306C69.585,60.781 64.089,66.277 61.995,68.371C61.774,68.592 61.475,68.716 61.163,68.716C60.851,68.716 60.552,68.592 60.332,68.371C59.166,67.205 57.046,65.086 55.767,63.806C55.504,63.543 55.372,63.177 55.407,62.807C55.441,62.437 55.639,62.102 55.946,61.892C55.947,61.892 55.947,61.892 55.948,61.891C56.656,61.409 57.615,61.543 58.164,62.201C58.807,62.973 59.646,63.981 60.273,64.733C60.495,64.999 60.822,65.154 61.168,65.156C61.514,65.159 61.844,65.009 62.069,64.746C63.829,62.697 67.706,58.18 69.648,55.918C69.946,55.571 70.376,55.364 70.833,55.346C71.29,55.329 71.734,55.503 72.058,55.827C72.059,55.827 72.059,55.828 72.06,55.829Z" style="fill:#414141;"/><path d="M266.725,38.49C267.62,41.335 268.102,44.361 268.102,47.5C268.102,64.086 254.637,77.551 238.051,77.551C221.465,77.551 208,64.086 208,47.5C208,30.914 221.465,17.449 238.051,17.449C247.557,17.449 256.038,21.872 261.546,28.771L266.133,23.428C267.025,22.389 268.31,21.768 269.679,21.716C271.047,21.664 272.376,22.185 273.344,23.154C273.637,23.447 273.933,23.743 274.224,24.034C275.147,24.957 275.665,26.208 275.665,27.513C275.665,28.817 275.147,30.069 274.224,30.991L266.725,38.49Z" style="fill:#9df;"/><path d="M238.287,15.656L238.522,15.658L238.757,15.663L238.991,15.669L239.225,15.676L239.459,15.686L239.692,15.697L239.925,15.709L240.157,15.724L240.389,15.74L240.621,15.757L240.852,15.777L241.083,15.798L241.313,15.82L241.542,15.845L241.772,15.871L242,15.898L242.229,15.927L242.456,15.958L242.684,15.99L242.91,16.024L243.137,16.06L243.362,16.097L243.587,16.136L243.812,16.176L244.036,16.218L244.26,16.261L244.483,16.306L244.705,16.353L244.927,16.401L245.148,16.451L245.369,16.502L245.589,16.554L245.809,16.609L246.028,16.664L246.246,16.722L246.464,16.78L246.681,16.841L246.897,16.902L247.113,16.965L247.329,17.03L247.543,17.096L247.757,17.164L247.97,17.233L248.183,17.304L248.395,17.376L248.606,17.449L248.817,17.524L249.027,17.6L249.236,17.678L249.445,17.757L249.653,17.838L249.86,17.92L250.066,18.003L250.272,18.088L250.477,18.174L250.681,18.262L250.885,18.351L251.087,18.441L251.29,18.533L251.491,18.626L251.691,18.721L251.891,18.816L252.09,18.913L252.288,19.012L252.486,19.112L252.682,19.213L252.878,19.315L253.073,19.419L253.267,19.524L253.461,19.63L253.653,19.738L253.845,19.847L254.036,19.957L254.226,20.069L254.415,20.181L254.604,20.295L254.791,20.411L254.978,20.527L255.164,20.645L255.348,20.764L255.532,20.884L255.716,21.006L255.898,21.129L256.079,21.253L256.26,21.378L256.439,21.504L256.618,21.632L256.796,21.76L256.972,21.89L257.148,22.021L257.323,22.154L257.497,22.287L257.67,22.422L257.842,22.558L258.014,22.695L258.184,22.833L258.353,22.972L258.521,23.112L258.688,23.254L258.854,23.396L259.02,23.54L259.184,23.685L259.347,23.831L259.509,23.978L259.671,24.126L259.831,24.276L259.99,24.426L260.148,24.577L260.305,24.73L260.461,24.883L260.616,25.038L260.77,25.194L260.923,25.351L261.075,25.508L261.225,25.667L261.375,25.827L261.524,25.988L261.548,26.014L264.775,22.255L264.829,22.193L264.887,22.128L264.946,22.064L265.006,22L265.066,21.937L265.128,21.876L265.19,21.815L265.252,21.755L265.316,21.695L265.38,21.637L265.445,21.58L265.51,21.523L265.576,21.468L265.643,21.413L265.711,21.359L265.778,21.306L265.848,21.254L265.917,21.203L265.986,21.153L266.057,21.104L266.128,21.055L266.201,21.007L266.273,20.961L266.345,20.916L266.419,20.871L266.493,20.827L266.567,20.785L266.642,20.743L266.718,20.702L266.794,20.663L266.869,20.624L266.947,20.586L267.025,20.549L267.103,20.513L267.181,20.479L267.259,20.445L267.339,20.412L267.419,20.38L267.499,20.35L267.579,20.32L267.66,20.291L267.742,20.263L267.824,20.237L267.906,20.211L267.988,20.186L268.071,20.163L268.154,20.14L268.238,20.119L268.321,20.099L268.405,20.079L268.49,20.061L268.575,20.044L268.659,20.028L268.745,20.013L268.831,19.999L268.916,19.986L269.002,19.974L269.088,19.964L269.175,19.954L269.262,19.946L269.349,19.939L269.436,19.932L269.523,19.927L269.61,19.924L269.698,19.921L269.785,19.919L269.872,19.919L269.96,19.919L270.047,19.921L270.134,19.924L270.22,19.928L270.308,19.933L270.394,19.94L270.48,19.947L270.566,19.955L270.652,19.965L270.739,19.976L270.824,19.987L270.908,20L270.994,20.014L271.079,20.029L271.163,20.045L271.248,20.063L271.332,20.081L271.416,20.1L271.499,20.121L271.582,20.142L271.666,20.165L271.748,20.188L271.83,20.213L271.912,20.238L271.994,20.265L272.075,20.293L272.156,20.321L272.236,20.351L272.316,20.382L272.396,20.414L272.475,20.447L272.554,20.481L272.632,20.515L272.71,20.551L272.788,20.588L272.865,20.626L272.942,20.665L273.017,20.705L273.093,20.745L273.169,20.787L273.243,20.83L273.317,20.874L273.391,20.919L273.464,20.964L273.536,21.011L273.608,21.059L273.68,21.107L273.75,21.157L273.82,21.207L273.89,21.259L273.959,21.311L274.027,21.364L274.095,21.418L274.162,21.474L274.229,21.53L274.294,21.587L274.359,21.645L274.423,21.703L274.487,21.763L274.551,21.824L274.609,21.881L275.497,22.769L275.551,22.825L275.609,22.885L275.666,22.945L275.722,23.007L275.778,23.068L275.836,23.135L275.939,23.258L276.042,23.387L276.142,23.518L276.238,23.652L276.331,23.788L276.421,23.926L276.507,24.066L276.589,24.207L276.668,24.351L276.744,24.497L276.816,24.644L276.884,24.793L276.948,24.943L277.009,25.095L277.066,25.249L277.12,25.404L277.169,25.56L277.215,25.717L277.257,25.876L277.295,26.036L277.329,26.197L277.359,26.358L277.386,26.521L277.408,26.685L277.427,26.849L277.44,27.008L277.446,27.097L277.451,27.18L277.455,27.263L277.457,27.346L277.459,27.429L277.459,27.513L277.459,27.596L277.457,27.679L277.455,27.762L277.451,27.845L277.446,27.928L277.44,28.017L277.427,28.176L277.408,28.34L277.386,28.504L277.359,28.667L277.329,28.829L277.295,28.989L277.257,29.149L277.215,29.308L277.169,29.465L277.12,29.621L277.066,29.776L277.009,29.93L276.948,30.082L276.884,30.232L276.816,30.381L276.744,30.528L276.668,30.674L276.589,30.818L276.507,30.959L276.421,31.099L276.331,31.237L276.238,31.373L276.142,31.507L276.042,31.638L275.939,31.767L275.836,31.89L275.778,31.957L275.722,32.018L275.666,32.08L275.609,32.14L275.551,32.2L275.497,32.256L268.748,39.005L268.772,39.092L268.849,39.379L268.924,39.668L268.996,39.958L269.065,40.249L269.132,40.541L269.196,40.834L269.257,41.128L269.315,41.422L269.371,41.718L269.424,42.015L269.475,42.312L269.522,42.611L269.567,42.911L269.609,43.211L269.648,43.512L269.684,43.814L269.718,44.117L269.749,44.421L269.776,44.725L269.801,45.031L269.823,45.337L269.843,45.644L269.859,45.951L269.872,46.26L269.883,46.569L269.89,46.878L269.895,47.189L269.896,47.499L269.895,47.706L269.893,47.911L269.89,48.116L269.886,48.321L269.88,48.525L269.873,48.729L269.864,48.933L269.855,49.137L269.844,49.34L269.831,49.542L269.818,49.745L269.803,49.947L269.787,50.149L269.77,50.35L269.751,50.551L269.732,50.752L269.711,50.953L269.688,51.153L269.665,51.352L269.64,51.552L269.614,51.751L269.587,51.949L269.558,52.147L269.529,52.345L269.498,52.543L269.466,52.74L269.433,52.936L269.398,53.132L269.363,53.328L269.326,53.524L269.288,53.719L269.249,53.913L269.208,54.107L269.167,54.301L269.124,54.494L269.08,54.687L269.035,54.879L268.989,55.071L268.941,55.263L268.893,55.454L268.843,55.645L268.792,55.835L268.74,56.024L268.687,56.214L268.633,56.402L268.577,56.59L268.521,56.778L268.463,56.965L268.404,57.152L268.344,57.338L268.283,57.524L268.221,57.71L268.158,57.894L268.094,58.078L268.028,58.262L267.962,58.445L267.894,58.628L267.825,58.81L267.756,58.992L267.685,59.173L267.613,59.353L267.54,59.533L267.466,59.713L267.391,59.892L267.315,60.07L267.238,60.248L267.159,60.425L267.08,60.602L267,60.778L266.919,60.953L266.836,61.128L266.753,61.303L266.668,61.476L266.583,61.649L266.496,61.822L266.409,61.994L266.32,62.166L266.231,62.336L266.14,62.506L266.049,62.676L265.957,62.845L265.863,63.013L265.769,63.181L265.673,63.348L265.577,63.514L265.479,63.68L265.381,63.845L265.282,64.009L265.182,64.173L265.08,64.336L264.978,64.499L264.875,64.661L264.771,64.822L264.666,64.982L264.56,65.142L264.453,65.301L264.345,65.46L264.237,65.618L264.127,65.775L264.017,65.931L263.905,66.087L263.793,66.242L263.679,66.396L263.565,66.55L263.45,66.703L263.334,66.855L263.217,67.006L263.1,67.157L262.981,67.307L262.861,67.456L262.741,67.605L262.62,67.753L262.498,67.9L262.375,68.046L262.251,68.192L262.126,68.336L262.001,68.48L261.874,68.624L261.747,68.766L261.619,68.908L261.49,69.049L261.36,69.189L261.23,69.328L261.098,69.467L260.966,69.605L260.833,69.742L260.699,69.878L260.565,70.014L260.429,70.148L260.293,70.282L260.156,70.415L260.018,70.547L259.879,70.679L259.74,70.809L259.6,70.939L259.459,71.068L259.317,71.196L259.175,71.323L259.031,71.45L258.887,71.575L258.742,71.7L258.597,71.824L258.451,71.947L258.303,72.069L258.156,72.19L258.007,72.31L257.858,72.43L257.708,72.549L257.557,72.666L257.406,72.783L257.254,72.899L257.101,73.014L256.947,73.128L256.793,73.242L256.638,73.354L256.482,73.466L256.326,73.576L256.169,73.686L256.011,73.794L255.852,73.902L255.693,74.009L255.533,74.115L255.373,74.22L255.212,74.324L255.05,74.427L254.887,74.529L254.724,74.631L254.56,74.731L254.396,74.83L254.231,74.929L254.065,75.026L253.899,75.122L253.732,75.218L253.564,75.312L253.396,75.406L253.227,75.498L253.057,75.59L252.887,75.68L252.716,75.77L252.545,75.858L252.373,75.945L252.201,76.032L252.027,76.117L251.854,76.202L251.679,76.285L251.504,76.368L251.329,76.449L251.153,76.529L250.976,76.608L250.799,76.687L250.621,76.764L250.443,76.84L250.264,76.915L250.084,76.989L249.905,77.062L249.724,77.134L249.543,77.205L249.361,77.275L249.179,77.343L248.996,77.411L248.813,77.477L248.63,77.543L248.445,77.607L248.26,77.67L248.075,77.732L247.889,77.793L247.703,77.853L247.516,77.912L247.329,77.97L247.141,78.026L246.953,78.082L246.765,78.136L246.575,78.189L246.385,78.241L246.196,78.292L246.005,78.342L245.814,78.39L245.622,78.438L245.43,78.484L245.238,78.529L245.045,78.573L244.852,78.616L244.658,78.657L244.464,78.698L244.27,78.737L244.075,78.775L243.879,78.812L243.683,78.847L243.487,78.882L243.291,78.915L243.094,78.947L242.896,78.978L242.698,79.008L242.5,79.036L242.302,79.063L242.102,79.089L241.903,79.114L241.704,79.137L241.504,79.16L241.303,79.181L241.102,79.2L240.901,79.219L240.7,79.236L240.498,79.252L240.296,79.267L240.093,79.28L239.89,79.293L239.687,79.304L239.484,79.313L239.28,79.322L239.076,79.329L238.871,79.335L238.667,79.339L238.462,79.342L238.257,79.344L238.051,79.345L237.845,79.344L237.64,79.342L237.435,79.339L237.23,79.335L237.026,79.329L236.822,79.322L236.618,79.313L236.415,79.304L236.211,79.293L236.008,79.28L235.806,79.267L235.604,79.252L235.402,79.236L235.201,79.219L235,79.2L234.799,79.181L234.598,79.16L234.398,79.137L234.199,79.114L233.999,79.089L233.8,79.063L233.602,79.036L233.404,79.008L233.206,78.978L233.008,78.947L232.811,78.915L232.615,78.882L232.419,78.847L232.223,78.812L232.027,78.775L231.832,78.737L231.638,78.698L231.444,78.657L231.25,78.616L231.057,78.573L230.864,78.529L230.672,78.484L230.48,78.438L230.288,78.39L230.097,78.342L229.906,78.292L229.716,78.241L229.527,78.189L229.337,78.136L229.149,78.082L228.96,78.026L228.773,77.97L228.586,77.912L228.399,77.853L228.213,77.793L228.027,77.732L227.842,77.67L227.657,77.607L227.472,77.543L227.289,77.477L227.106,77.411L226.923,77.343L226.741,77.275L226.559,77.205L226.378,77.134L226.197,77.062L226.017,76.989L225.838,76.915L225.659,76.84L225.481,76.764L225.303,76.687L225.126,76.608L224.949,76.529L224.773,76.449L224.598,76.368L224.423,76.285L224.248,76.202L224.074,76.117L223.901,76.032L223.729,75.945L223.557,75.858L223.386,75.77L223.215,75.68L223.045,75.59L222.875,75.498L222.706,75.406L222.538,75.312L222.37,75.218L222.203,75.122L222.037,75.026L221.871,74.929L221.706,74.83L221.541,74.731L221.378,74.631L221.214,74.529L221.052,74.427L220.89,74.324L220.729,74.22L220.568,74.115L220.409,74.009L220.25,73.902L220.091,73.794L219.933,73.686L219.776,73.576L219.62,73.466L219.464,73.354L219.309,73.242L219.155,73.128L219.001,73.014L218.848,72.899L218.696,72.783L218.544,72.666L218.394,72.549L218.244,72.43L218.095,72.31L217.946,72.19L217.798,72.069L217.651,71.947L217.505,71.824L217.359,71.7L217.215,71.575L217.071,71.45L216.927,71.323L216.785,71.196L216.643,71.068L216.502,70.939L216.362,70.809L216.222,70.679L216.084,70.547L215.946,70.415L215.809,70.282L215.673,70.148L215.537,70.014L215.403,69.878L215.269,69.742L215.136,69.605L215.004,69.467L214.872,69.328L214.742,69.189L214.612,69.049L214.483,68.908L214.355,68.766L214.228,68.624L214.101,68.48L213.976,68.336L213.851,68.192L213.727,68.046L213.604,67.9L213.482,67.753L213.361,67.605L213.24,67.456L213.121,67.307L213.002,67.157L212.885,67.006L212.768,66.855L212.652,66.703L212.537,66.55L212.423,66.396L212.309,66.242L212.197,66.087L212.085,65.931L211.975,65.775L211.865,65.618L211.757,65.46L211.649,65.301L211.542,65.142L211.436,64.983L211.331,64.822L211.227,64.661L211.124,64.499L211.022,64.336L210.92,64.173L210.82,64.009L210.721,63.845L210.622,63.68L210.525,63.514L210.429,63.348L210.333,63.181L210.239,63.013L210.145,62.845L210.053,62.676L209.961,62.506L209.871,62.336L209.782,62.166L209.693,61.994L209.606,61.822L209.519,61.649L209.434,61.476L209.349,61.303L209.266,61.128L209.183,60.953L209.102,60.778L209.022,60.602L208.942,60.425L208.864,60.248L208.787,60.07L208.711,59.892L208.636,59.713L208.562,59.533L208.489,59.353L208.417,59.173L208.346,58.992L208.276,58.81L208.208,58.628L208.14,58.445L208.074,58.262L208.008,58.078L207.944,57.894L207.881,57.71L207.819,57.524L207.758,57.338L207.698,57.152L207.639,56.965L207.581,56.778L207.525,56.59L207.469,56.402L207.415,56.214L207.362,56.024L207.31,55.835L207.259,55.645L207.209,55.454L207.161,55.263L207.113,55.071L207.067,54.879L207.022,54.687L206.978,54.494L206.935,54.301L206.894,54.107L206.853,53.913L206.814,53.719L206.776,53.524L206.739,53.328L206.704,53.132L206.669,52.936L206.636,52.74L206.604,52.543L206.573,52.345L206.543,52.147L206.515,51.949L206.488,51.751L206.462,51.552L206.437,51.352L206.414,51.153L206.391,50.953L206.37,50.752L206.351,50.551L206.332,50.35L206.315,50.149L206.299,49.947L206.284,49.745L206.271,49.542L206.258,49.34L206.247,49.136L206.238,48.933L206.229,48.729L206.222,48.525L206.216,48.321L206.212,48.116L206.209,47.911L206.207,47.706L206.206,47.5L206.207,47.294L206.209,47.089L206.212,46.884L206.216,46.679L206.222,46.475L206.229,46.271L206.238,46.067L206.247,45.864L206.258,45.66L206.271,45.458L206.284,45.255L206.299,45.053L206.315,44.851L206.332,44.65L206.351,44.449L206.37,44.248L206.391,44.047L206.414,43.847L206.437,43.648L206.462,43.448L206.488,43.249L206.515,43.051L206.543,42.853L206.573,42.655L206.604,42.457L206.636,42.26L206.669,42.064L206.704,41.868L206.739,41.672L206.776,41.476L206.814,41.281L206.853,41.087L206.894,40.893L206.935,40.699L206.978,40.506L207.022,40.313L207.067,40.121L207.113,39.929L207.161,39.737L207.209,39.546L207.259,39.355L207.31,39.165L207.362,38.976L207.415,38.787L207.469,38.598L207.525,38.41L207.581,38.222L207.639,38.035L207.698,37.848L207.758,37.662L207.819,37.476L207.881,37.29L207.944,37.106L208.008,36.922L208.074,36.738L208.14,36.555L208.208,36.372L208.276,36.19L208.346,36.008L208.417,35.827L208.489,35.647L208.562,35.467L208.636,35.287L208.711,35.108L208.787,34.93L208.864,34.752L208.942,34.575L209.022,34.398L209.102,34.222L209.183,34.047L209.266,33.872L209.349,33.697L209.434,33.524L209.519,33.35L209.606,33.178L209.693,33.006L209.782,32.834L209.871,32.664L209.961,32.494L210.053,32.324L210.145,32.155L210.239,31.987L210.333,31.819L210.429,31.652L210.525,31.486L210.622,31.32L210.721,31.155L210.82,30.991L210.92,30.827L211.022,30.663L211.124,30.501L211.227,30.339L211.331,30.178L211.436,30.017L211.542,29.858L211.649,29.699L211.757,29.54L211.865,29.382L211.975,29.225L212.085,29.069L212.197,28.913L212.309,28.758L212.422,28.604L212.537,28.45L212.652,28.297L212.768,28.145L212.885,27.994L213.002,27.843L213.121,27.693L213.24,27.544L213.361,27.395L213.482,27.247L213.604,27.1L213.727,26.954L213.851,26.808L213.976,26.664L214.101,26.52L214.228,26.376L214.355,26.234L214.483,26.092L214.612,25.951L214.742,25.811L214.872,25.671L215.004,25.533L215.136,25.395L215.269,25.258L215.403,25.122L215.537,24.986L215.673,24.852L215.809,24.718L215.946,24.585L216.084,24.453L216.222,24.321L216.362,24.191L216.502,24.061L216.643,23.932L216.785,23.804L216.927,23.677L217.071,23.55L217.215,23.425L217.359,23.3L217.505,23.176L217.651,23.053L217.798,22.931L217.946,22.81L218.095,22.69L218.244,22.57L218.394,22.451L218.545,22.334L218.696,22.217L218.848,22.101L219.001,21.986L219.155,21.871L219.309,21.758L219.464,21.646L219.62,21.534L219.776,21.424L219.933,21.314L220.091,21.205L220.25,21.098L220.408,20.991L220.568,20.885L220.729,20.78L220.89,20.676L221.052,20.573L221.215,20.47L221.378,20.369L221.541,20.269L221.706,20.17L221.871,20.071L222.037,19.974L222.203,19.878L222.37,19.782L222.538,19.688L222.706,19.594L222.875,19.502L223.045,19.41L223.215,19.32L223.385,19.231L223.557,19.142L223.729,19.055L223.901,18.968L224.074,18.883L224.248,18.798L224.423,18.715L224.598,18.632L224.773,18.551L224.949,18.471L225.126,18.392L225.303,18.313L225.481,18.236L225.659,18.16L225.838,18.085L226.017,18.011L226.198,17.938L226.378,17.866L226.559,17.795L226.741,17.725L226.923,17.657L227.106,17.589L227.289,17.523L227.472,17.457L227.657,17.393L227.842,17.33L228.027,17.268L228.212,17.207L228.399,17.147L228.586,17.088L228.773,17.03L228.961,16.974L229.149,16.918L229.337,16.864L229.527,16.811L229.716,16.759L229.906,16.708L230.097,16.658L230.288,16.61L230.48,16.562L230.672,16.516L230.864,16.471L231.057,16.427L231.25,16.384L231.444,16.343L231.638,16.302L231.832,16.263L232.027,16.225L232.223,16.188L232.419,16.153L232.615,16.118L232.811,16.085L233.008,16.053L233.206,16.022L233.403,15.992L233.602,15.964L233.8,15.937L233.999,15.911L234.199,15.886L234.398,15.863L234.598,15.84L234.799,15.819L235,15.8L235.201,15.781L235.402,15.764L235.604,15.748L235.806,15.733L236.009,15.72L236.211,15.707L236.415,15.696L236.618,15.687L236.822,15.678L237.026,15.671L237.23,15.665L237.435,15.661L237.64,15.658L237.845,15.656L238.051,15.655L238.287,15.656ZM237.857,17.45L237.663,17.451L237.469,17.455L237.276,17.459L237.083,17.464L236.89,17.471L236.698,17.479L236.506,17.488L236.314,17.499L236.122,17.51L235.931,17.523L235.74,17.537L235.55,17.552L235.36,17.568L235.17,17.586L234.98,17.604L234.791,17.624L234.602,17.645L234.414,17.667L234.226,17.691L234.038,17.715L233.851,17.741L233.664,17.768L233.477,17.796L233.291,17.825L233.105,17.855L232.919,17.886L232.734,17.919L232.55,17.952L232.365,17.987L232.181,18.023L231.998,18.06L231.815,18.098L231.632,18.137L231.45,18.178L231.268,18.219L231.086,18.262L230.905,18.305L230.725,18.35L230.544,18.396L230.365,18.443L230.185,18.491L230.007,18.54L229.828,18.59L229.65,18.641L229.473,18.693L229.295,18.747L229.119,18.801L228.943,18.856L228.767,18.913L228.592,18.97L228.417,19.029L228.243,19.089L228.069,19.149L227.896,19.211L227.723,19.274L227.551,19.338L227.379,19.402L227.207,19.468L227.037,19.535L226.866,19.603L226.697,19.672L226.527,19.741L226.358,19.812L226.19,19.884L226.023,19.957L225.855,20.031L225.689,20.105L225.523,20.181L225.357,20.258L225.192,20.336L225.027,20.414L224.864,20.494L224.7,20.575L224.537,20.656L224.375,20.739L224.213,20.822L224.052,20.907L223.892,20.992L223.732,21.078L223.572,21.166L223.414,21.254L223.255,21.343L223.098,21.433L222.941,21.524L222.784,21.616L222.629,21.708L222.473,21.802L222.319,21.897L222.165,21.992L222.011,22.089L221.859,22.186L221.707,22.284L221.555,22.383L221.404,22.483L221.254,22.584L221.104,22.686L220.956,22.789L220.807,22.892L220.66,22.996L220.513,23.102L220.366,23.208L220.221,23.315L220.076,23.422L219.931,23.531L219.788,23.64L219.645,23.751L219.503,23.862L219.361,23.974L219.22,24.087L219.08,24.2L218.94,24.315L218.802,24.43L218.663,24.546L218.526,24.663L218.389,24.781L218.253,24.899L218.118,25.019L217.984,25.139L217.85,25.26L217.717,25.381L217.584,25.504L217.453,25.627L217.322,25.751L217.192,25.876L217.062,26.001L216.934,26.128L216.806,26.255L216.679,26.383L216.552,26.511L216.427,26.641L216.302,26.771L216.178,26.902L216.055,27.033L215.932,27.166L215.811,27.299L215.69,27.433L215.57,27.567L215.45,27.702L215.332,27.838L215.214,27.975L215.097,28.112L214.981,28.251L214.866,28.389L214.751,28.529L214.638,28.669L214.525,28.81L214.413,28.952L214.302,29.094L214.191,29.237L214.082,29.38L213.973,29.525L213.866,29.67L213.759,29.815L213.653,29.962L213.547,30.109L213.443,30.256L213.34,30.405L213.237,30.554L213.135,30.703L213.034,30.853L212.934,31.004L212.835,31.156L212.737,31.308L212.64,31.46L212.543,31.614L212.448,31.768L212.353,31.922L212.259,32.078L212.167,32.233L212.075,32.39L211.984,32.547L211.894,32.704L211.805,32.863L211.716,33.021L211.629,33.181L211.543,33.341L211.458,33.501L211.373,33.662L211.29,33.824L211.207,33.986L211.126,34.149L211.045,34.313L210.965,34.477L210.887,34.641L210.809,34.806L210.732,34.972L210.656,35.138L210.582,35.304L210.508,35.472L210.435,35.639L210.363,35.807L210.292,35.976L210.222,36.146L210.154,36.315L210.086,36.486L210.019,36.656L209.953,36.828L209.888,37L209.825,37.172L209.762,37.345L209.7,37.518L209.64,37.692L209.58,37.866L209.521,38.041L209.464,38.216L209.407,38.392L209.352,38.568L209.298,38.745L209.244,38.922L209.192,39.099L209.141,39.277L209.091,39.456L209.042,39.634L208.994,39.814L208.947,39.994L208.901,40.174L208.856,40.354L208.813,40.535L208.77,40.717L208.729,40.899L208.688,41.081L208.649,41.264L208.611,41.447L208.574,41.63L208.538,41.814L208.503,41.999L208.47,42.183L208.437,42.368L208.406,42.554L208.376,42.74L208.347,42.926L208.319,43.113L208.292,43.3L208.266,43.487L208.242,43.675L208.218,43.863L208.196,44.051L208.175,44.24L208.155,44.429L208.137,44.619L208.119,44.809L208.103,44.999L208.088,45.189L208.074,45.38L208.061,45.571L208.049,45.763L208.039,45.955L208.03,46.147L208.022,46.339L208.015,46.532L208.01,46.725L208.006,46.918L208.002,47.112L208.001,47.306L208,47.5L208.001,47.694L208.002,47.888L208.006,48.082L208.01,48.275L208.015,48.468L208.022,48.661L208.03,48.853L208.039,49.045L208.049,49.237L208.061,49.429L208.074,49.62L208.088,49.811L208.103,50.001L208.119,50.191L208.137,50.381L208.155,50.571L208.175,50.76L208.196,50.949L208.218,51.137L208.242,51.325L208.266,51.513L208.292,51.7L208.319,51.887L208.347,52.074L208.376,52.26L208.406,52.446L208.437,52.632L208.47,52.817L208.503,53.001L208.538,53.186L208.574,53.37L208.611,53.553L208.649,53.736L208.688,53.919L208.729,54.101L208.77,54.283L208.813,54.465L208.856,54.646L208.901,54.826L208.947,55.006L208.994,55.186L209.042,55.366L209.091,55.544L209.141,55.723L209.192,55.901L209.244,56.078L209.298,56.255L209.352,56.432L209.407,56.608L209.464,56.784L209.521,56.959L209.58,57.134L209.64,57.308L209.7,57.482L209.762,57.655L209.825,57.828L209.888,58L209.953,58.172L210.019,58.344L210.086,58.514L210.154,58.685L210.222,58.854L210.292,59.024L210.363,59.193L210.435,59.361L210.508,59.528L210.582,59.696L210.656,59.862L210.732,60.028L210.809,60.194L210.887,60.359L210.965,60.523L211.045,60.687L211.126,60.851L211.207,61.014L211.29,61.176L211.373,61.338L211.458,61.499L211.543,61.659L211.629,61.819L211.716,61.979L211.805,62.137L211.894,62.296L211.984,62.453L212.075,62.61L212.167,62.767L212.259,62.922L212.353,63.078L212.448,63.232L212.543,63.386L212.64,63.54L212.737,63.692L212.835,63.844L212.934,63.996L213.034,64.147L213.135,64.297L213.237,64.446L213.34,64.595L213.443,64.744L213.547,64.891L213.653,65.038L213.759,65.185L213.866,65.33L213.973,65.475L214.082,65.62L214.191,65.763L214.302,65.906L214.413,66.048L214.525,66.19L214.638,66.331L214.751,66.471L214.866,66.611L214.981,66.749L215.097,66.888L215.214,67.025L215.332,67.162L215.45,67.298L215.57,67.433L215.69,67.567L215.811,67.701L215.932,67.834L216.055,67.967L216.178,68.098L216.302,68.229L216.427,68.359L216.552,68.489L216.679,68.617L216.806,68.745L216.934,68.872L217.062,68.999L217.192,69.124L217.322,69.249L217.453,69.373L217.584,69.496L217.717,69.619L217.85,69.74L217.984,69.861L218.118,69.981L218.253,70.101L218.389,70.219L218.526,70.337L218.663,70.454L218.802,70.57L218.94,70.685L219.08,70.8L219.22,70.913L219.361,71.026L219.503,71.138L219.645,71.249L219.788,71.36L219.931,71.469L220.076,71.578L220.221,71.685L220.366,71.792L220.513,71.898L220.66,72.004L220.807,72.108L220.956,72.211L221.104,72.314L221.254,72.416L221.404,72.517L221.555,72.617L221.707,72.716L221.859,72.814L222.011,72.911L222.165,73.008L222.319,73.103L222.473,73.198L222.629,73.292L222.784,73.384L222.941,73.476L223.098,73.567L223.255,73.657L223.414,73.746L223.572,73.834L223.732,73.922L223.892,74.008L224.052,74.093L224.213,74.178L224.375,74.261L224.537,74.344L224.7,74.425L224.864,74.506L225.027,74.586L225.192,74.664L225.357,74.742L225.523,74.819L225.689,74.895L225.855,74.969L226.023,75.043L226.19,75.116L226.358,75.188L226.527,75.259L226.697,75.328L226.866,75.397L227.037,75.465L227.207,75.532L227.379,75.598L227.551,75.662L227.723,75.726L227.896,75.789L228.069,75.851L228.243,75.911L228.417,75.971L228.592,76.03L228.767,76.087L228.943,76.144L229.119,76.199L229.295,76.253L229.473,76.307L229.65,76.359L229.828,76.41L230.007,76.46L230.185,76.509L230.365,76.557L230.544,76.604L230.725,76.65L230.905,76.695L231.086,76.738L231.268,76.781L231.45,76.822L231.632,76.863L231.815,76.902L231.998,76.94L232.181,76.977L232.365,77.013L232.55,77.048L232.734,77.081L232.919,77.114L233.105,77.145L233.291,77.175L233.477,77.204L233.664,77.232L233.851,77.259L234.038,77.285L234.226,77.309L234.414,77.333L234.602,77.355L234.791,77.376L234.98,77.396L235.17,77.414L235.36,77.432L235.55,77.448L235.74,77.463L235.931,77.477L236.122,77.49L236.314,77.501L236.506,77.512L236.698,77.521L236.89,77.529L237.083,77.536L237.276,77.541L237.469,77.545L237.663,77.549L237.857,77.55L238.051,77.551L238.245,77.55L238.439,77.549L238.633,77.545L238.826,77.541L239.019,77.536L239.212,77.529L239.404,77.521L239.596,77.512L239.788,77.501L239.98,77.49L240.171,77.477L240.362,77.463L240.552,77.448L240.742,77.432L240.932,77.414L241.122,77.396L241.311,77.376L241.5,77.355L241.688,77.333L241.876,77.309L242.064,77.285L242.251,77.259L242.438,77.232L242.625,77.204L242.811,77.175L242.997,77.145L243.182,77.114L243.368,77.081L243.552,77.048L243.737,77.013L243.921,76.977L244.104,76.94L244.287,76.902L244.47,76.863L244.652,76.822L244.834,76.781L245.016,76.738L245.197,76.695L245.377,76.65L245.557,76.604L245.737,76.557L245.917,76.509L246.095,76.46L246.274,76.41L246.452,76.359L246.629,76.307L246.806,76.253L246.983,76.199L247.159,76.144L247.335,76.087L247.51,76.03L247.685,75.971L247.859,75.911L248.033,75.851L248.206,75.789L248.379,75.726L248.551,75.662L248.723,75.598L248.894,75.532L249.065,75.465L249.236,75.397L249.405,75.328L249.575,75.259L249.743,75.188L249.912,75.116L250.079,75.043L250.247,74.969L250.413,74.895L250.579,74.819L250.745,74.742L250.91,74.664L251.074,74.586L251.238,74.506L251.402,74.425L251.565,74.344L251.727,74.261L251.888,74.178L252.05,74.093L252.21,74.008L252.37,73.922L252.529,73.834L252.688,73.746L252.846,73.657L253.004,73.567L253.161,73.476L253.318,73.384L253.473,73.292L253.629,73.198L253.783,73.103L253.937,73.008L254.09,72.911L254.243,72.814L254.395,72.716L254.547,72.617L254.698,72.517L254.848,72.416L254.997,72.314L255.146,72.211L255.295,72.108L255.442,72.004L255.589,71.898L255.736,71.792L255.881,71.685L256.026,71.578L256.17,71.469L256.314,71.36L256.457,71.249L256.599,71.138L256.741,71.026L256.882,70.913L257.022,70.8L257.162,70.685L257.3,70.57L257.438,70.454L257.576,70.337L257.713,70.219L257.849,70.101L257.984,69.981L258.118,69.861L258.252,69.74L258.385,69.619L258.518,69.496L258.649,69.373L258.78,69.249L258.91,69.124L259.04,68.999L259.168,68.872L259.296,68.745L259.423,68.617L259.549,68.489L259.675,68.359L259.8,68.229L259.924,68.098L260.047,67.967L260.17,67.834L260.291,67.701L260.412,67.567L260.532,67.433L260.652,67.298L260.77,67.162L260.888,67.025L261.005,66.888L261.121,66.749L261.236,66.611L261.351,66.471L261.464,66.331L261.577,66.19L261.689,66.048L261.8,65.906L261.91,65.763L262.02,65.62L262.129,65.475L262.236,65.33L262.343,65.185L262.449,65.038L262.555,64.891L262.659,64.744L262.762,64.595L262.865,64.446L262.967,64.297L263.068,64.147L263.168,63.996L263.267,63.844L263.365,63.692L263.462,63.54L263.559,63.386L263.654,63.232L263.749,63.078L263.842,62.922L263.935,62.767L264.027,62.61L264.118,62.453L264.208,62.296L264.297,62.137L264.385,61.979L264.473,61.819L264.559,61.659L264.644,61.499L264.729,61.338L264.812,61.176L264.895,61.014L264.976,60.851L265.057,60.687L265.137,60.523L265.215,60.359L265.293,60.194L265.37,60.028L265.446,59.862L265.52,59.696L265.594,59.528L265.667,59.361L265.739,59.193L265.81,59.024L265.879,58.854L265.948,58.685L266.016,58.514L266.083,58.344L266.149,58.172L266.213,58L266.277,57.828L266.34,57.655L266.402,57.482L266.462,57.308L266.522,57.134L266.58,56.959L266.638,56.784L266.694,56.608L266.75,56.432L266.804,56.255L266.858,56.078L266.91,55.901L266.961,55.723L267.011,55.544L267.06,55.366L267.108,55.186L267.155,55.006L267.201,54.826L267.246,54.646L267.289,54.465L267.332,54.283L267.373,54.101L267.414,53.919L267.453,53.736L267.491,53.553L267.528,53.37L267.564,53.186L267.599,53.001L267.632,52.817L267.665,52.632L267.696,52.446L267.726,52.26L267.755,52.074L267.783,51.887L267.81,51.7L267.836,51.513L267.86,51.325L267.884,51.137L267.906,50.949L267.927,50.76L267.947,50.571L267.965,50.381L267.983,50.191L267.999,50.001L268.014,49.811L268.028,49.62L268.041,49.429L268.052,49.237L268.063,49.045L268.072,48.853L268.08,48.661L268.087,48.468L268.092,48.275L268.096,48.082L268.099,47.888L268.101,47.694L268.102,47.5L268.101,47.206L268.096,46.913L268.089,46.62L268.079,46.328L268.067,46.037L268.052,45.747L268.033,45.457L268.013,45.168L267.989,44.88L267.963,44.593L267.934,44.306L267.902,44.02L267.868,43.735L267.831,43.451L267.791,43.167L267.749,42.885L267.704,42.603L267.657,42.322L267.607,42.042L267.554,41.763L267.499,41.485L267.441,41.208L267.381,40.932L267.318,40.657L267.252,40.382L267.185,40.109L267.114,39.836L267.041,39.565L266.966,39.295L266.888,39.025L266.808,38.757L266.725,38.49L274.224,30.991L274.267,30.948L274.31,30.904L274.351,30.859L274.392,30.814L274.433,30.769L274.473,30.723L274.551,30.63L274.627,30.536L274.7,30.439L274.77,30.341L274.839,30.242L274.904,30.141L274.967,30.038L275.028,29.934L275.086,29.829L275.141,29.722L275.193,29.615L275.243,29.505L275.291,29.395L275.335,29.284L275.377,29.171L275.416,29.058L275.452,28.943L275.486,28.828L275.517,28.712L275.545,28.595L275.57,28.477L275.592,28.358L275.611,28.239L275.628,28.119L275.641,27.999L275.652,27.878L275.656,27.817L275.659,27.756L275.662,27.696L275.664,27.635L275.665,27.574L275.665,27.513L275.665,27.451L275.664,27.39L275.662,27.329L275.659,27.269L275.656,27.208L275.652,27.147L275.641,27.026L275.628,26.906L275.611,26.786L275.592,26.667L275.57,26.548L275.545,26.431L275.517,26.313L275.486,26.197L275.452,26.082L275.416,25.967L275.377,25.854L275.335,25.741L275.291,25.63L275.243,25.52L275.193,25.411L275.141,25.303L275.086,25.196L275.028,25.091L274.967,24.987L274.904,24.884L274.839,24.783L274.77,24.684L274.7,24.586L274.627,24.489L274.551,24.395L274.473,24.302L274.433,24.256L274.392,24.211L274.351,24.166L274.31,24.121L274.267,24.077L274.224,24.034L273.344,23.154L273.298,23.109L273.252,23.064L273.205,23.02L273.158,22.977L273.111,22.935L273.062,22.893L273.014,22.852L272.965,22.812L272.915,22.772L272.865,22.733L272.814,22.695L272.763,22.657L272.712,22.62L272.66,22.584L272.608,22.548L272.555,22.513L272.502,22.479L272.449,22.446L272.395,22.413L272.34,22.381L272.286,22.349L272.231,22.319L272.175,22.289L272.119,22.26L272.063,22.231L272.007,22.203L271.95,22.176L271.893,22.15L271.836,22.125L271.778,22.1L271.72,22.076L271.661,22.052L271.603,22.03L271.544,22.008L271.484,21.987L271.425,21.967L271.365,21.947L271.305,21.928L271.245,21.91L271.184,21.893L271.124,21.876L271.063,21.861L271.001,21.846L270.94,21.832L270.878,21.818L270.817,21.806L270.755,21.794L270.692,21.783L270.63,21.773L270.568,21.763L270.505,21.755L270.442,21.747L270.379,21.74L270.316,21.733L270.253,21.728L270.189,21.723L270.126,21.72L270.062,21.717L269.998,21.715L269.935,21.713L269.871,21.713L269.807,21.713L269.743,21.714L269.679,21.716L269.614,21.719L269.55,21.723L269.487,21.727L269.423,21.733L269.359,21.739L269.296,21.746L269.233,21.754L269.17,21.762L269.107,21.772L269.044,21.782L268.982,21.793L268.92,21.805L268.857,21.817L268.796,21.831L268.734,21.845L268.673,21.86L268.611,21.875L268.55,21.892L268.49,21.909L268.429,21.927L268.369,21.946L268.309,21.965L268.25,21.986L268.19,22.007L268.131,22.029L268.073,22.051L268.014,22.074L267.956,22.098L267.898,22.123L267.841,22.149L267.784,22.175L267.727,22.202L267.671,22.23L267.614,22.258L267.559,22.287L267.503,22.317L267.448,22.348L267.394,22.379L267.34,22.411L267.286,22.443L267.232,22.477L267.18,22.511L267.127,22.545L267.075,22.581L267.023,22.617L266.972,22.654L266.921,22.691L266.871,22.729L266.821,22.768L266.771,22.808L266.722,22.848L266.674,22.888L266.626,22.93L266.579,22.972L266.532,23.015L266.485,23.058L266.439,23.102L266.394,23.147L266.349,23.192L266.305,23.238L266.261,23.284L266.218,23.332L266.175,23.379L266.133,23.428L261.546,28.771L261.416,28.61L261.285,28.449L261.154,28.29L261.021,28.132L260.887,27.974L260.752,27.817L260.616,27.662L260.479,27.507L260.34,27.353L260.201,27.2L260.061,27.048L259.92,26.898L259.778,26.748L259.634,26.599L259.49,26.451L259.345,26.304L259.198,26.158L259.051,26.013L258.903,25.869L258.754,25.726L258.603,25.584L258.452,25.443L258.3,25.303L258.147,25.164L257.993,25.027L257.838,24.89L257.682,24.754L257.525,24.619L257.367,24.486L257.208,24.353L257.048,24.222L256.888,24.092L256.726,23.962L256.564,23.834L256.4,23.707L256.236,23.581L256.071,23.456L255.905,23.332L255.738,23.21L255.57,23.088L255.402,22.968L255.232,22.848L255.062,22.73L254.891,22.613L254.719,22.497L254.546,22.383L254.372,22.269L254.198,22.157L254.022,22.046L253.846,21.936L253.669,21.827L253.491,21.719L253.313,21.613L253.133,21.508L252.953,21.404L252.772,21.301L252.591,21.199L252.408,21.099L252.225,21L252.041,20.902L251.856,20.805L251.671,20.71L251.484,20.616L251.297,20.523L251.11,20.431L250.921,20.341L250.732,20.252L250.542,20.164L250.352,20.078L250.16,19.992L249.968,19.908L249.776,19.826L249.582,19.744L249.388,19.664L249.193,19.586L248.998,19.508L248.802,19.432L248.605,19.358L248.408,19.284L248.21,19.212L248.011,19.142L247.812,19.072L247.612,19.004L247.411,18.938L247.21,18.873L247.008,18.809L246.806,18.746L246.603,18.685L246.399,18.626L246.195,18.568L245.99,18.511L245.785,18.455L245.579,18.401L245.372,18.349L245.165,18.298L244.958,18.248L244.749,18.2L244.541,18.153L244.331,18.108L244.122,18.064L243.911,18.021L243.7,17.98L243.489,17.941L243.277,17.903L243.065,17.866L242.852,17.831L242.638,17.798L242.424,17.766L242.21,17.735L241.995,17.706L241.78,17.679L241.564,17.653L241.347,17.628L241.131,17.605L240.913,17.584L240.696,17.564L240.478,17.546L240.259,17.529L240.04,17.514L239.821,17.5L239.601,17.488L239.381,17.478L239.16,17.469L238.939,17.462L238.718,17.456L238.496,17.452L238.274,17.45L238.051,17.449L237.857,17.45Z" style="fill:#414141;"/><path d="M273.825,23.635C274.853,24.663 275.431,26.058 275.431,27.513C275.431,28.967 274.853,30.362 273.825,31.39C264.946,40.269 243.559,61.656 239.079,66.137C238.619,66.596 237.875,66.596 237.415,66.137C234.764,63.485 226.386,55.107 221.297,50.018C220.295,49.017 219.792,47.621 219.925,46.211C220.057,44.801 220.811,43.523 221.981,42.725C221.981,42.725 221.982,42.725 221.982,42.724C223.892,41.423 226.478,41.784 227.958,43.56C230.875,47.062 235.443,52.545 237.357,54.842C237.578,55.108 237.906,55.263 238.252,55.265C238.598,55.268 238.928,55.118 239.153,54.855C243.042,50.325 258.451,32.376 265.736,23.89C266.73,22.732 268.163,22.04 269.689,21.982C271.214,21.924 272.695,22.505 273.775,23.584C273.792,23.601 273.808,23.618 273.825,23.635Z" style="fill:#00a1f4;"/></g></svg>