<?xml version="1.0" encoding="UTF-8" standalone="no"?><!DOCTYPE svg PUBLIC "-//W3C//DTD SVG 1.1//EN" "http://www.w3.org/Graphics/SVG/1.1/DTD/svg11.dtd"><svg width="100%" height="100%" viewBox="0 0 321 116" version="1.1" xmlns="http://www.w3.org/2000/svg" xmlns:xlink="http://www.w3.org/1999/xlink" xml:space="preserve" xmlns:serif="http://www.serif.com/" style="fill-rule:evenodd;clip-rule:evenodd;stroke-linecap:round;stroke-linejoin:round;stroke-miterlimit:1.5;"><rect id="format" x="0" y="0" width="321" height="116" style="fill:none;"/><clipPath id="_clip1"><rect x="0" y="0" width="321" height="116"/></clipPath><g clip-path="url(#_clip1)"><rect x="0" y="0" width="321" height="116" style="fill:#ebebeb;"/><g id="Laptop"><path d="M99.472,20.67c0,-1.281 -1.038,-2.319 -2.319,-2.319c-10.546,0 -53.926,0 -64.473,0c-1.28,0 -2.318,1.038 -2.318,2.319c0,7.491 0,30.992 0,38.483c0,1.281 1.038,2.319 2.318,2.319c10.547,0 53.927,0 64.473,0c1.281,0 2.319,-1.038 2.319,-2.319c0,-7.491 0,-30.992 0,-38.483Z" style="fill:#414141;stroke:#00a1f4;stroke-width:1.57px;"/><rect x="32.539" y="20.817" width="64.756" height="35.113" style="fill:#9df;stroke:#00a1f4;stroke-width:1.57px;"/><path d="M102.936,59.895c0,-0.686 -0.556,-1.242 -1.242,-1.242c-9.031,0 -64.523,0 -73.555,0c-0.686,0 -1.242,0.556 -1.242,1.242c0,0.643 0,1.426 0,2.069c0,0.686 0.556,1.242 1.242,1.242c9.032,0 64.524,0 73.555,0c0.686,0 1.242,-0.556 1.242,-1.242c0,-0.643 0,-1.426 0,-2.069Z" style="fill:#414141;stroke:#00a1f4;stroke-width:1.57px;"/><path d="M56.003,60.212l17.827,0" style="fill:#9df;stroke:#00a1f4;stroke-width:1.57px;"/></g><path id="Cloud" d="M237.092,63.552c-9.746,-0.031 -17.648,-7.953 -17.648,-17.706c0,-9.772 7.933,-17.706 17.705,-17.706c1.051,0 2.081,0.092 3.081,0.268c1.745,-9.339 9.947,-16.417 19.788,-16.417c11.111,0 20.131,9.021 20.131,20.131c0,0.688 -0.035,1.367 -0.102,2.037c0.919,-0.179 1.869,-0.272 2.84,-0.272c8.186,0 14.833,6.646 14.833,14.832c0,8.154 -6.595,14.781 -14.737,14.832l-0.096,0.001l-45.738,0l-0.057,0Z" style="fill:#9df;stroke:#00a1f4;stroke-width:3.41px;"/><rect x="-21.221" y="108.309" width="387.574" height="13.191" style="fill:#1ed2f4;"/><path d="M90.615,96.76l0,4.11c-0.74,0.3 -1.68,0.45 -2.82,0.45c-2.06,0 -3.625,-0.58 -4.695,-1.74c-1.07,-1.16 -1.605,-2.77 -1.605,-4.83l0,-4.92l-2.85,0l0,-3.99l2.85,0l0,-3.45l5.43,-1.74l0,5.19l3.66,0l0,3.99l-3.66,0l0,4.92c0,0.72 0.215,1.265 0.645,1.635c0.43,0.37 0.965,0.555 1.605,0.555c0.36,0 0.84,-0.06 1.44,-0.18Z" style="fill:#414141;fill-rule:nonzero;"/><path d="M106.725,94l-9.57,0c0.1,1.18 0.44,2.03 1.02,2.55c0.58,0.52 1.43,0.78 2.55,0.78c0.76,0 1.52,-0.125 2.28,-0.375c0.76,-0.25 1.45,-0.595 2.07,-1.035l1.38,3.6c-0.76,0.56 -1.68,1 -2.76,1.32c-1.08,0.32 -2.16,0.48 -3.24,0.48c-1.74,0 -3.25,-0.32 -4.53,-0.96c-1.28,-0.64 -2.26,-1.555 -2.94,-2.745c-0.68,-1.19 -1.02,-2.595 -1.02,-4.215c0,-1.54 0.325,-2.915 0.975,-4.125c0.65,-1.21 1.55,-2.155 2.7,-2.835c1.15,-0.68 2.465,-1.02 3.945,-1.02c1.44,0 2.7,0.32 3.78,0.96c1.08,0.64 1.91,1.555 2.49,2.745c0.58,1.19 0.87,2.575 0.87,4.155l0,0.72Zm-9.51,-2.52l4.86,0c-0.2,-1.56 -0.98,-2.34 -2.34,-2.34c-1.34,0 -2.18,0.78 -2.52,2.34Z" style="fill:#414141;fill-rule:nonzero;"/><path d="M110.745,99.22c-1.46,-1.4 -2.19,-3.31 -2.19,-5.73c0,-1.6 0.355,-3.01 1.065,-4.23c0.71,-1.22 1.705,-2.165 2.985,-2.835c1.28,-0.67 2.76,-1.005 4.44,-1.005c1.12,0 2.22,0.165 3.3,0.495c1.08,0.33 1.94,0.775 2.58,1.335l-1.38,3.75c-0.54,-0.44 -1.17,-0.79 -1.89,-1.05c-0.72,-0.26 -1.41,-0.39 -2.07,-0.39c-1.12,0 -1.98,0.32 -2.58,0.96c-0.6,0.64 -0.9,1.59 -0.9,2.85c0,1.28 0.3,2.245 0.9,2.895c0.6,0.65 1.47,0.975 2.61,0.975c0.66,0 1.345,-0.13 2.055,-0.39c0.71,-0.26 1.335,-0.61 1.875,-1.05l1.38,3.69c-0.66,0.58 -1.535,1.03 -2.625,1.35c-1.09,0.32 -2.255,0.48 -3.495,0.48c-2.58,0 -4.6,-0.7 -6.06,-2.1Z" style="fill:#414141;fill-rule:nonzero;"/><path d="M138.93,87.055c0.89,1.09 1.335,2.735 1.335,4.935l0,9.09l-5.43,0l0,-8.85c0,-0.94 -0.16,-1.615 -0.48,-2.025c-0.32,-0.41 -0.82,-0.615 -1.5,-0.615c-0.82,0 -1.48,0.275 -1.98,0.825c-0.5,0.55 -0.75,1.275 -0.75,2.175l0,8.49l-5.43,0l0,-22.08l5.43,0l0,8.7c1.18,-1.52 2.77,-2.28 4.77,-2.28c1.8,0 3.145,0.545 4.035,1.635Z" style="fill:#414141;fill-rule:nonzero;"/><path d="M157.65,87.055c0.89,1.09 1.335,2.735 1.335,4.935l0,9.09l-5.43,0l0,-8.85c0,-0.94 -0.16,-1.615 -0.48,-2.025c-0.32,-0.41 -0.82,-0.615 -1.5,-0.615c-0.82,0 -1.48,0.275 -1.98,0.825c-0.5,0.55 -0.75,1.275 -0.75,2.175l0,8.49l-5.43,0l0,-10.86c0,-1.64 -0.08,-3.1 -0.24,-4.38l5.1,0l0.27,2.25c0.58,-0.86 1.3,-1.52 2.16,-1.98c0.86,-0.46 1.83,-0.69 2.91,-0.69c1.8,0 3.145,0.545 4.035,1.635Z" style="fill:#414141;fill-rule:nonzero;"/><path d="M165.375,100.36c-1.26,-0.64 -2.23,-1.56 -2.91,-2.76c-0.68,-1.2 -1.02,-2.61 -1.02,-4.23c0,-1.62 0.34,-3.03 1.02,-4.23c0.68,-1.2 1.65,-2.12 2.91,-2.76c1.26,-0.64 2.74,-0.96 4.44,-0.96c1.68,0 3.145,0.325 4.395,0.975c1.25,0.65 2.215,1.57 2.895,2.76c0.68,1.19 1.02,2.595 1.02,4.215c0,1.62 -0.34,3.025 -1.02,4.215c-0.68,1.19 -1.645,2.11 -2.895,2.76c-1.25,0.65 -2.715,0.975 -4.395,0.975c-1.7,0 -3.18,-0.32 -4.44,-0.96Zm7.38,-6.99c0,-1.32 -0.245,-2.295 -0.735,-2.925c-0.49,-0.63 -1.225,-0.945 -2.205,-0.945c-1,0 -1.75,0.315 -2.25,0.945c-0.5,0.63 -0.75,1.605 -0.75,2.925c0,1.34 0.25,2.325 0.75,2.955c0.5,0.63 1.25,0.945 2.25,0.945c1.96,0 2.94,-1.3 2.94,-3.9Z" style="fill:#414141;fill-rule:nonzero;"/><rect x="180.675" y="79" width="5.43" height="22.08" style="fill:#414141;fill-rule:nonzero;"/><path d="M192.585,100.36c-1.26,-0.64 -2.23,-1.56 -2.91,-2.76c-0.68,-1.2 -1.02,-2.61 -1.02,-4.23c0,-1.62 0.34,-3.03 1.02,-4.23c0.68,-1.2 1.65,-2.12 2.91,-2.76c1.26,-0.64 2.74,-0.96 4.44,-0.96c1.68,0 3.145,0.325 4.395,0.975c1.25,0.65 2.215,1.57 2.895,2.76c0.68,1.19 1.02,2.595 1.02,4.215c0,1.62 -0.34,3.025 -1.02,4.215c-0.68,1.19 -1.645,2.11 -2.895,2.76c-1.25,0.65 -2.715,0.975 -4.395,0.975c-1.7,0 -3.18,-0.32 -4.44,-0.96Zm7.38,-6.99c0,-1.32 -0.245,-2.295 -0.735,-2.925c-0.49,-0.63 -1.225,-0.945 -2.205,-0.945c-1,0 -1.75,0.315 -2.25,0.945c-0.5,0.63 -0.75,1.605 -0.75,2.925c0,1.34 0.25,2.325 0.75,2.955c0.5,0.63 1.25,0.945 2.25,0.945c1.96,0 2.94,-1.3 2.94,-3.9Z" style="fill:#414141;fill-rule:nonzero;"/><path d="M224.115,85.84l0,14.28c0,2.5 -0.75,4.405 -2.25,5.715c-1.5,1.31 -3.7,1.965 -6.6,1.965c-2.48,0 -4.63,-0.44 -6.45,-1.32l0.81,-3.96c0.9,0.4 1.825,0.715 2.775,0.945c0.95,0.23 1.845,0.345 2.685,0.345c1.24,0 2.155,-0.265 2.745,-0.795c0.59,-0.53 0.885,-1.355 0.885,-2.475l0,-2.25c-0.5,0.66 -1.175,1.22 -2.025,1.68c-0.85,0.46 -1.755,0.69 -2.715,0.69c-1.3,0 -2.465,-0.315 -3.495,-0.945c-1.03,-0.63 -1.835,-1.52 -2.415,-2.67c-0.58,-1.15 -0.87,-2.485 -0.87,-4.005c0,-1.5 0.29,-2.825 0.87,-3.975c0.58,-1.15 1.385,-2.045 2.415,-2.685c1.03,-0.64 2.195,-0.96 3.495,-0.96c1.02,0 1.95,0.21 2.79,0.63c0.84,0.42 1.49,0.99 1.95,1.71l0,-1.92l5.4,0Zm-6.21,9.825c0.54,-0.63 0.81,-1.505 0.81,-2.625c0,-1.08 -0.27,-1.935 -0.81,-2.565c-0.54,-0.63 -1.29,-0.945 -2.25,-0.945c-0.96,0 -1.715,0.31 -2.265,0.93c-0.55,0.62 -0.825,1.48 -0.825,2.58c0,1.1 0.28,1.97 0.84,2.61c0.56,0.64 1.31,0.96 2.25,0.96c0.96,0 1.71,-0.315 2.25,-0.945Z" style="fill:#414141;fill-rule:nonzero;"/><path d="M243.045,85.84l-6.99,15.78c-0.92,2.06 -2.075,3.565 -3.465,4.515c-1.39,0.95 -3.105,1.545 -5.145,1.785l-1.26,-4.14c1.4,-0.28 2.45,-0.64 3.15,-1.08c0.7,-0.44 1.23,-1.05 1.59,-1.83l0.39,-0.84l-6.21,-14.19l5.64,0l3.42,8.79l3.54,-8.79l5.34,0Z" style="fill:#414141;fill-rule:nonzero;"/><g><path d="M146.217,31.281c0.192,-6.757 5.737,-12.183 12.54,-12.183c6.924,0 12.546,5.621 12.546,12.546l-6.273,0c0,-3.462 -2.811,-6.273 -6.273,-6.273c-3.405,0 -6.18,2.719 -6.27,6.103l0,18.926l-6.276,0l0,-19.119l0.006,0Z" style="fill:#9df;stroke:#00a1f4;stroke-width:2.76px;"/><path d="M173.503,47.105c0,-2.225 -0.884,-4.359 -2.457,-5.932c-1.573,-1.573 -3.707,-2.457 -5.932,-2.457c-4.851,0 -10.937,0 -15.788,0c-2.225,0 -4.358,0.884 -5.932,2.457c-1.573,1.573 -2.457,3.707 -2.457,5.932c0,3.009 0,6.4 0,9.409c0,2.224 0.884,4.358 2.457,5.931c1.574,1.573 3.707,2.457 5.932,2.457c4.851,0 10.937,0 15.788,0c2.225,0 4.359,-0.884 5.932,-2.457c1.573,-1.573 2.457,-3.707 2.457,-5.931c0,-3.009 0,-6.4 0,-9.409Z" style="fill:#9df;stroke:#00a1f4;stroke-width:2.76px;"/></g></g></svg>