<?xml version="1.0" encoding="UTF-8" standalone="no"?><!DOCTYPE svg PUBLIC "-//W3C//DTD SVG 1.1//EN" "http://www.w3.org/Graphics/SVG/1.1/DTD/svg11.dtd"><svg width="100%" height="100%" viewBox="0 0 321 116" version="1.1" xmlns="http://www.w3.org/2000/svg" xmlns:xlink="http://www.w3.org/1999/xlink" xml:space="preserve" xmlns:serif="http://www.serif.com/" style="fill-rule:evenodd;clip-rule:evenodd;stroke-linecap:round;stroke-linejoin:round;stroke-miterlimit:1.5;"><rect id="technology" x="0" y="0" width="321" height="116" style="fill:none;"/><clipPath id="_clip1"><rect x="0" y="0" width="321" height="116"/></clipPath><g clip-path="url(#_clip1)"><rect x="0" y="0" width="321" height="116" style="fill:#ebebeb;"/><g><path id="Cloud" d="M149.683,55.106c-5.19,-0.016 -9.399,-4.235 -9.399,-9.428c0,-5.204 4.225,-9.429 9.429,-9.429c0.56,0 1.108,0.049 1.641,0.142c0.929,-4.973 5.296,-8.742 10.537,-8.742c5.917,0 10.72,4.804 10.72,10.72c0,0.367 -0.018,0.728 -0.054,1.085c0.489,-0.095 0.995,-0.145 1.512,-0.145c4.36,0 7.899,3.539 7.899,7.899c0,4.342 -3.512,7.871 -7.848,7.898l-0.051,0l-24.356,0l-0.03,0Z" style="fill:#9df;"/><clipPath id="_clip2"><path d="M149.683,55.106c-5.19,-0.016 -9.399,-4.235 -9.399,-9.428c0,-5.204 4.225,-9.429 9.429,-9.429c0.56,0 1.108,0.049 1.641,0.142c0.929,-4.973 5.296,-8.742 10.537,-8.742c5.917,0 10.72,4.804 10.72,10.72c0,0.367 -0.018,0.728 -0.054,1.085c0.489,-0.095 0.995,-0.145 1.512,-0.145c4.36,0 7.899,3.539 7.899,7.899c0,4.342 -3.512,7.871 -7.848,7.898l-0.051,0l-24.356,0l-0.03,0Z"/></clipPath><g clip-path="url(#_clip2)"><path d="M157.075,39.613c0.427,-3.179 3.355,-5.414 6.534,-4.987" style="fill:none;stroke:#00a1f4;stroke-width:1.81px;"/></g><path d="M149.683,55.106c-5.19,-0.016 -9.399,-4.235 -9.399,-9.428c0,-5.204 4.225,-9.429 9.429,-9.429c0.56,0 1.108,0.049 1.641,0.142c0.929,-4.973 5.296,-8.742 10.537,-8.742c5.917,0 10.72,4.804 10.72,10.72c0,0.367 -0.018,0.728 -0.054,1.085c0.489,-0.095 0.995,-0.145 1.512,-0.145c4.36,0 7.899,3.539 7.899,7.899c0,4.342 -3.512,7.871 -7.848,7.898l-0.051,0l-24.356,0l-0.03,0Z" style="fill:none;stroke:#00a1f4;stroke-width:1.81px;"/><g><path d="M188.889,43.672c0,-13.116 -9.147,-24.111 -21.405,-26.949" style="fill:none;stroke:#414141;stroke-width:2px;"/><path d="M170.395,22.528l-2.911,-5.836l5.827,-2.931" style="fill:none;stroke:#414141;stroke-width:2px;"/></g><g><path d="M161.23,16.012c-13.115,0 -24.111,9.148 -26.948,21.405" style="fill:none;stroke:#414141;stroke-width:2px;"/><path d="M140.087,34.507l-5.837,2.91l-2.93,-5.827" style="fill:none;stroke:#414141;stroke-width:2px;"/></g><g><path d="M133.57,43.672c0,13.115 9.148,24.11 21.406,26.948" style="fill:none;stroke:#414141;stroke-width:2px;"/><path d="M152.065,64.815l2.911,5.836l-5.827,2.931" style="fill:none;stroke:#414141;stroke-width:2px;"/></g><g><path d="M161.23,71.331c13.115,0 24.11,-9.148 26.948,-21.405" style="fill:none;stroke:#414141;stroke-width:2px;"/><path d="M182.373,52.836l5.837,-2.91l2.93,5.827" style="fill:none;stroke:#414141;stroke-width:2px;"/></g></g><rect x="-21.221" y="108.309" width="387.574" height="13.191" style="fill:#1ed2f4;"/><path d="M90.615,96.76l0,4.11c-0.74,0.3 -1.68,0.45 -2.82,0.45c-2.06,0 -3.625,-0.58 -4.695,-1.74c-1.07,-1.16 -1.605,-2.77 -1.605,-4.83l0,-4.92l-2.85,0l0,-3.99l2.85,0l0,-3.45l5.43,-1.74l0,5.19l3.66,0l0,3.99l-3.66,0l0,4.92c0,0.72 0.215,1.265 0.645,1.635c0.43,0.37 0.965,0.555 1.605,0.555c0.36,0 0.84,-0.06 1.44,-0.18Z" style="fill:#414141;fill-rule:nonzero;"/><path d="M106.725,94l-9.57,0c0.1,1.18 0.44,2.03 1.02,2.55c0.58,0.52 1.43,0.78 2.55,0.78c0.76,0 1.52,-0.125 2.28,-0.375c0.76,-0.25 1.45,-0.595 2.07,-1.035l1.38,3.6c-0.76,0.56 -1.68,1 -2.76,1.32c-1.08,0.32 -2.16,0.48 -3.24,0.48c-1.74,0 -3.25,-0.32 -4.53,-0.96c-1.28,-0.64 -2.26,-1.555 -2.94,-2.745c-0.68,-1.19 -1.02,-2.595 -1.02,-4.215c0,-1.54 0.325,-2.915 0.975,-4.125c0.65,-1.21 1.55,-2.155 2.7,-2.835c1.15,-0.68 2.465,-1.02 3.945,-1.02c1.44,0 2.7,0.32 3.78,0.96c1.08,0.64 1.91,1.555 2.49,2.745c0.58,1.19 0.87,2.575 0.87,4.155l0,0.72Zm-9.51,-2.52l4.86,0c-0.2,-1.56 -0.98,-2.34 -2.34,-2.34c-1.34,0 -2.18,0.78 -2.52,2.34Z" style="fill:#414141;fill-rule:nonzero;"/><path d="M110.745,99.22c-1.46,-1.4 -2.19,-3.31 -2.19,-5.73c0,-1.6 0.355,-3.01 1.065,-4.23c0.71,-1.22 1.705,-2.165 2.985,-2.835c1.28,-0.67 2.76,-1.005 4.44,-1.005c1.12,0 2.22,0.165 3.3,0.495c1.08,0.33 1.94,0.775 2.58,1.335l-1.38,3.75c-0.54,-0.44 -1.17,-0.79 -1.89,-1.05c-0.72,-0.26 -1.41,-0.39 -2.07,-0.39c-1.12,0 -1.98,0.32 -2.58,0.96c-0.6,0.64 -0.9,1.59 -0.9,2.85c0,1.28 0.3,2.245 0.9,2.895c0.6,0.65 1.47,0.975 2.61,0.975c0.66,0 1.345,-0.13 2.055,-0.39c0.71,-0.26 1.335,-0.61 1.875,-1.05l1.38,3.69c-0.66,0.58 -1.535,1.03 -2.625,1.35c-1.09,0.32 -2.255,0.48 -3.495,0.48c-2.58,0 -4.6,-0.7 -6.06,-2.1Z" style="fill:#414141;fill-rule:nonzero;"/><path d="M138.93,87.055c0.89,1.09 1.335,2.735 1.335,4.935l0,9.09l-5.43,0l0,-8.85c0,-0.94 -0.16,-1.615 -0.48,-2.025c-0.32,-0.41 -0.82,-0.615 -1.5,-0.615c-0.82,0 -1.48,0.275 -1.98,0.825c-0.5,0.55 -0.75,1.275 -0.75,2.175l0,8.49l-5.43,0l0,-22.08l5.43,0l0,8.7c1.18,-1.52 2.77,-2.28 4.77,-2.28c1.8,0 3.145,0.545 4.035,1.635Z" style="fill:#414141;fill-rule:nonzero;"/><path d="M157.65,87.055c0.89,1.09 1.335,2.735 1.335,4.935l0,9.09l-5.43,0l0,-8.85c0,-0.94 -0.16,-1.615 -0.48,-2.025c-0.32,-0.41 -0.82,-0.615 -1.5,-0.615c-0.82,0 -1.48,0.275 -1.98,0.825c-0.5,0.55 -0.75,1.275 -0.75,2.175l0,8.49l-5.43,0l0,-10.86c0,-1.64 -0.08,-3.1 -0.24,-4.38l5.1,0l0.27,2.25c0.58,-0.86 1.3,-1.52 2.16,-1.98c0.86,-0.46 1.83,-0.69 2.91,-0.69c1.8,0 3.145,0.545 4.035,1.635Z" style="fill:#414141;fill-rule:nonzero;"/><path d="M165.375,100.36c-1.26,-0.64 -2.23,-1.56 -2.91,-2.76c-0.68,-1.2 -1.02,-2.61 -1.02,-4.23c0,-1.62 0.34,-3.03 1.02,-4.23c0.68,-1.2 1.65,-2.12 2.91,-2.76c1.26,-0.64 2.74,-0.96 4.44,-0.96c1.68,0 3.145,0.325 4.395,0.975c1.25,0.65 2.215,1.57 2.895,2.76c0.68,1.19 1.02,2.595 1.02,4.215c0,1.62 -0.34,3.025 -1.02,4.215c-0.68,1.19 -1.645,2.11 -2.895,2.76c-1.25,0.65 -2.715,0.975 -4.395,0.975c-1.7,0 -3.18,-0.32 -4.44,-0.96Zm7.38,-6.99c0,-1.32 -0.245,-2.295 -0.735,-2.925c-0.49,-0.63 -1.225,-0.945 -2.205,-0.945c-1,0 -1.75,0.315 -2.25,0.945c-0.5,0.63 -0.75,1.605 -0.75,2.925c0,1.34 0.25,2.325 0.75,2.955c0.5,0.63 1.25,0.945 2.25,0.945c1.96,0 2.94,-1.3 2.94,-3.9Z" style="fill:#414141;fill-rule:nonzero;"/><rect x="180.675" y="79" width="5.43" height="22.08" style="fill:#414141;fill-rule:nonzero;"/><path d="M192.585,100.36c-1.26,-0.64 -2.23,-1.56 -2.91,-2.76c-0.68,-1.2 -1.02,-2.61 -1.02,-4.23c0,-1.62 0.34,-3.03 1.02,-4.23c0.68,-1.2 1.65,-2.12 2.91,-2.76c1.26,-0.64 2.74,-0.96 4.44,-0.96c1.68,0 3.145,0.325 4.395,0.975c1.25,0.65 2.215,1.57 2.895,2.76c0.68,1.19 1.02,2.595 1.02,4.215c0,1.62 -0.34,3.025 -1.02,4.215c-0.68,1.19 -1.645,2.11 -2.895,2.76c-1.25,0.65 -2.715,0.975 -4.395,0.975c-1.7,0 -3.18,-0.32 -4.44,-0.96Zm7.38,-6.99c0,-1.32 -0.245,-2.295 -0.735,-2.925c-0.49,-0.63 -1.225,-0.945 -2.205,-0.945c-1,0 -1.75,0.315 -2.25,0.945c-0.5,0.63 -0.75,1.605 -0.75,2.925c0,1.34 0.25,2.325 0.75,2.955c0.5,0.63 1.25,0.945 2.25,0.945c1.96,0 2.94,-1.3 2.94,-3.9Z" style="fill:#414141;fill-rule:nonzero;"/><path d="M224.115,85.84l0,14.28c0,2.5 -0.75,4.405 -2.25,5.715c-1.5,1.31 -3.7,1.965 -6.6,1.965c-2.48,0 -4.63,-0.44 -6.45,-1.32l0.81,-3.96c0.9,0.4 1.825,0.715 2.775,0.945c0.95,0.23 1.845,0.345 2.685,0.345c1.24,0 2.155,-0.265 2.745,-0.795c0.59,-0.53 0.885,-1.355 0.885,-2.475l0,-2.25c-0.5,0.66 -1.175,1.22 -2.025,1.68c-0.85,0.46 -1.755,0.69 -2.715,0.69c-1.3,0 -2.465,-0.315 -3.495,-0.945c-1.03,-0.63 -1.835,-1.52 -2.415,-2.67c-0.58,-1.15 -0.87,-2.485 -0.87,-4.005c0,-1.5 0.29,-2.825 0.87,-3.975c0.58,-1.15 1.385,-2.045 2.415,-2.685c1.03,-0.64 2.195,-0.96 3.495,-0.96c1.02,0 1.95,0.21 2.79,0.63c0.84,0.42 1.49,0.99 1.95,1.71l0,-1.92l5.4,0Zm-6.21,9.825c0.54,-0.63 0.81,-1.505 0.81,-2.625c0,-1.08 -0.27,-1.935 -0.81,-2.565c-0.54,-0.63 -1.29,-0.945 -2.25,-0.945c-0.96,0 -1.715,0.31 -2.265,0.93c-0.55,0.62 -0.825,1.48 -0.825,2.58c0,1.1 0.28,1.97 0.84,2.61c0.56,0.64 1.31,0.96 2.25,0.96c0.96,0 1.71,-0.315 2.25,-0.945Z" style="fill:#414141;fill-rule:nonzero;"/><path d="M243.045,85.84l-6.99,15.78c-0.92,2.06 -2.075,3.565 -3.465,4.515c-1.39,0.95 -3.105,1.545 -5.145,1.785l-1.26,-4.14c1.4,-0.28 2.45,-0.64 3.15,-1.08c0.7,-0.44 1.23,-1.05 1.59,-1.83l0.39,-0.84l-6.21,-14.19l5.64,0l3.42,8.79l3.54,-8.79l5.34,0Z" style="fill:#414141;fill-rule:nonzero;"/><path d="M169.881,46.079c-0.734,-0.108 -1.48,-0.108 -2.214,0l-0.329,1.213c-0.697,0.16 -1.362,0.436 -1.968,0.816l-1.09,-0.626c-0.596,0.442 -1.123,0.97 -1.565,1.566l0.625,1.09c-0.38,0.606 -0.656,1.271 -0.816,1.968l-1.212,0.329c-0.109,0.734 -0.109,1.48 0,2.214l1.212,0.329c0.16,0.697 0.436,1.362 0.816,1.968l-0.625,1.09c0.442,0.596 0.969,1.124 1.565,1.566l1.09,-0.625c0.606,0.379 1.271,0.655 1.968,0.815l0.329,1.213c0.734,0.109 1.48,0.109 2.214,0l0.329,-1.213c0.697,-0.16 1.362,-0.436 1.968,-0.815l1.09,0.625c0.596,-0.442 1.124,-0.97 1.566,-1.566l-0.625,-1.09c0.379,-0.606 0.655,-1.271 0.815,-1.968l1.213,-0.329c0.109,-0.734 0.109,-1.48 0,-2.214l-1.213,-0.329c-0.16,-0.697 -0.436,-1.362 -0.815,-1.968l0.625,-1.09c-0.442,-0.596 -0.97,-1.124 -1.566,-1.566l-1.09,0.626c-0.606,-0.38 -1.271,-0.656 -1.968,-0.816l-0.329,-1.213Zm-1.107,5.954c0.833,0 1.509,0.676 1.509,1.509c0,0.833 -0.676,1.509 -1.509,1.509c-0.833,0 -1.509,-0.676 -1.509,-1.509c0,-0.833 0.676,-1.509 1.509,-1.509Z" style="fill:none;stroke:#414141;stroke-width:1px;"/><path d="M57.549,28.25l12.196,12.197l0,29.84c0,1.82 -1.475,3.295 -3.294,3.295c-6.717,0 -21.925,0 -28.642,0c-1.82,0 -3.295,-1.475 -3.295,-3.295c0,-8.369 0,-30.373 0,-38.742c0,-1.82 1.475,-3.295 3.295,-3.295l19.74,0Z" style="fill:none;"/><clipPath id="_clip3"><path d="M57.549,28.25l12.196,12.197l0,29.84c0,1.82 -1.475,3.295 -3.294,3.295c-6.717,0 -21.925,0 -28.642,0c-1.82,0 -3.295,-1.475 -3.295,-3.295c0,-8.369 0,-30.373 0,-38.742c0,-1.82 1.475,-3.295 3.295,-3.295l19.74,0Z"/></clipPath><g clip-path="url(#_clip3)"><path d="M69.745,40.447l-8.902,0c-1.819,0 -3.294,-1.475 -3.294,-3.295l0,-8.902l12.196,12.197Z" style="fill:none;stroke:#414141;stroke-width:1.8px;"/></g><path d="M57.549,28.25l12.196,12.197l0,29.84c0,1.82 -1.475,3.295 -3.294,3.295c-6.717,0 -21.925,0 -28.642,0c-1.82,0 -3.295,-1.475 -3.295,-3.295c0,-8.369 0,-30.373 0,-38.742c0,-1.82 1.475,-3.295 3.295,-3.295l19.74,0Z" style="fill:none;stroke:#414141;stroke-width:1.8px;"/><path d="M53.626,24.432l12.197,12.196l0,29.84c0,1.82 -1.475,3.295 -3.294,3.295c-6.717,0 -21.925,0 -28.642,0c-1.82,0 -3.295,-1.475 -3.295,-3.295c0,-8.368 0,-30.373 0,-38.742c0,-1.819 1.475,-3.294 3.295,-3.294l19.739,0Z" style="fill:#eaeae6;"/><clipPath id="_clip4"><path d="M53.626,24.432l12.197,12.196l0,29.84c0,1.82 -1.475,3.295 -3.294,3.295c-6.717,0 -21.925,0 -28.642,0c-1.82,0 -3.295,-1.475 -3.295,-3.295c0,-8.368 0,-30.373 0,-38.742c0,-1.819 1.475,-3.294 3.295,-3.294l19.739,0Z"/></clipPath><g clip-path="url(#_clip4)"><path d="M65.823,36.628l-8.902,0c-1.82,0 -3.295,-1.475 -3.295,-3.294l0,-8.902l12.197,12.196Z" style="fill:none;stroke:#414141;stroke-width:1.8px;"/></g><path d="M53.626,24.432l12.197,12.196l0,29.84c0,1.82 -1.475,3.295 -3.294,3.295c-6.717,0 -21.925,0 -28.642,0c-1.82,0 -3.295,-1.475 -3.295,-3.295c0,-8.368 0,-30.373 0,-38.742c0,-1.819 1.475,-3.294 3.295,-3.294l19.739,0Z" style="fill:none;stroke:#414141;stroke-width:1.8px;"/><path d="M49.607,20.451l12.197,12.196l0,29.841c0,1.819 -1.475,3.294 -3.295,3.294c-6.717,0 -21.924,0 -28.641,0c-1.82,0 -3.295,-1.475 -3.295,-3.294c0,-8.369 0,-30.374 0,-38.743c0,-1.819 1.475,-3.294 3.295,-3.294l19.739,0Z" style="fill:#eaeae6;"/><clipPath id="_clip5"><path d="M49.607,20.451l12.197,12.196l0,29.841c0,1.819 -1.475,3.294 -3.295,3.294c-6.717,0 -21.924,0 -28.641,0c-1.82,0 -3.295,-1.475 -3.295,-3.294c0,-8.369 0,-30.374 0,-38.743c0,-1.819 1.475,-3.294 3.295,-3.294l19.739,0Z"/></clipPath><g clip-path="url(#_clip5)"><path d="M61.804,32.647l-8.902,0c-1.82,0 -3.295,-1.475 -3.295,-3.294l0,-8.902l12.197,12.196Z" style="fill:none;stroke:#414141;stroke-width:1.8px;"/></g><path d="M49.607,20.451l12.197,12.196l0,29.841c0,1.819 -1.475,3.294 -3.295,3.294c-6.717,0 -21.924,0 -28.641,0c-1.82,0 -3.295,-1.475 -3.295,-3.294c0,-8.369 0,-30.374 0,-38.743c0,-1.819 1.475,-3.294 3.295,-3.294l19.739,0Z" style="fill:none;stroke:#414141;stroke-width:1.8px;"/><rect x="32.065" y="29.44" width="3.911" height="3.911" style="fill:#9df;stroke:#00a1f4;stroke-width:1.8px;stroke-linecap:square;"/><rect x="32.065" y="37.856" width="3.911" height="3.911" style="fill:#9df;stroke:#00a1f4;stroke-width:1.8px;stroke-linecap:square;"/><rect x="32.065" y="45.877" width="3.911" height="3.911" style="fill:#9df;stroke:#00a1f4;stroke-width:1.8px;stroke-linecap:square;"/><rect x="32.065" y="53.947" width="3.911" height="3.911" style="fill:#9df;stroke:#00a1f4;stroke-width:1.8px;stroke-linecap:square;"/><path d="M39.48,29.888l10.335,0" style="fill:none;stroke:#414141;stroke-width:1.48px;"/><path d="M39.48,38.304l17.242,0" style="fill:none;stroke:#414141;stroke-width:1.8px;"/><path d="M39.48,46.324l17.242,0" style="fill:none;stroke:#414141;stroke-width:1.8px;"/><path d="M39.48,54.395l17.242,0" style="fill:none;stroke:#414141;stroke-width:1.8px;"/><path d="M39.352,33.069l11.062,0" style="fill:none;stroke:#414141;stroke-width:1.8px;"/><path d="M39.352,41.485l11.062,0" style="fill:none;stroke:#414141;stroke-width:1.8px;"/><path d="M39.352,49.505l11.062,0" style="fill:none;stroke:#414141;stroke-width:1.8px;"/><path d="M39.352,57.576l11.062,0" style="fill:none;stroke:#414141;stroke-width:1.8px;"/><rect x="249.002" y="39.412" width="3.911" height="3.911" style="fill:#00a1f4;stroke:#9df;stroke-width:1.8px;stroke-linecap:square;"/><rect x="249.002" y="47.828" width="3.911" height="3.911" style="fill:#00a1f4;stroke:#9df;stroke-width:1.8px;stroke-linecap:square;"/><rect x="249.002" y="55.848" width="3.911" height="3.911" style="fill:#9df;stroke:#00a1f4;stroke-width:1.8px;stroke-linecap:square;"/><rect x="257.499" y="47.828" width="3.911" height="3.911" style="fill:#9df;stroke:#00a1f4;stroke-width:1.8px;stroke-linecap:square;"/><rect x="257.499" y="63.919" width="3.911" height="3.911" style="fill:#9df;stroke:#00a1f4;stroke-width:1.8px;stroke-linecap:square;"/><rect x="266.348" y="39.412" width="3.911" height="3.911" style="fill:#9df;stroke:#00a1f4;stroke-width:1.8px;stroke-linecap:square;"/><rect x="266.348" y="47.828" width="3.911" height="3.911" style="fill:#00a1f4;stroke:#9df;stroke-width:1.8px;stroke-linecap:square;"/><rect x="266.348" y="55.848" width="3.911" height="3.911" style="fill:#9df;stroke:#00a1f4;stroke-width:1.8px;stroke-linecap:square;"/><rect x="266.348" y="63.919" width="3.911" height="3.911" style="fill:#00a1f4;stroke:#9df;stroke-width:1.8px;stroke-linecap:square;"/><rect x="274.844" y="39.412" width="3.911" height="3.911" style="fill:#00a1f4;stroke:#9df;stroke-width:1.8px;stroke-linecap:square;"/><rect x="274.844" y="47.828" width="3.911" height="3.911" style="fill:#00a1f4;stroke:#9df;stroke-width:1.8px;stroke-linecap:square;"/><rect x="249.002" y="31.269" width="3.911" height="3.911" style="fill:#9df;stroke:#00a1f4;stroke-width:1.8px;stroke-linecap:square;"/><rect x="257.499" y="22.853" width="3.911" height="3.911" style="fill:#9df;stroke:#00a1f4;stroke-width:1.8px;stroke-linecap:square;"/><rect x="257.499" y="31.269" width="3.911" height="3.911" style="fill:#00a1f4;stroke:#9df;stroke-width:1.8px;stroke-linecap:square;"/><rect x="266.348" y="22.853" width="3.911" height="3.911" style="fill:#9df;stroke:#00a1f4;stroke-width:1.8px;stroke-linecap:square;"/><rect x="266.348" y="31.269" width="3.911" height="3.911" style="fill:#00a1f4;stroke:#9df;stroke-width:1.8px;stroke-linecap:square;"/><rect x="274.844" y="22.853" width="3.911" height="3.911" style="fill:#9df;stroke:#00a1f4;stroke-width:1.8px;stroke-linecap:square;"/><rect x="274.844" y="31.269" width="3.911" height="3.911" style="fill:#00a1f4;stroke:#9df;stroke-width:1.8px;stroke-linecap:square;"/><rect x="274.844" y="55.848" width="3.911" height="3.911" style="fill:#9df;stroke:#00a1f4;stroke-width:1.8px;stroke-linecap:square;"/><rect x="274.844" y="63.919" width="3.911" height="3.911" style="fill:#9df;stroke:#00a1f4;stroke-width:1.8px;stroke-linecap:square;"/><rect x="282.969" y="39.412" width="3.911" height="3.911" style="fill:#9df;stroke:#00a1f4;stroke-width:1.8px;stroke-linecap:square;"/><rect x="282.969" y="47.828" width="3.911" height="3.911" style="fill:#9df;stroke:#00a1f4;stroke-width:1.8px;stroke-linecap:square;"/><rect x="282.969" y="22.853" width="3.911" height="3.911" style="fill:#00a1f4;stroke:#9df;stroke-width:1.8px;stroke-linecap:square;"/><rect x="282.969" y="31.269" width="3.911" height="3.911" style="fill:#9df;stroke:#00a1f4;stroke-width:1.8px;stroke-linecap:square;"/><path d="M292.733,23.741c0.328,0.328 0.513,0.774 0.513,1.239c0,0.464 -0.185,0.91 -0.513,1.238c-2.475,2.475 -7.972,7.972 -10.065,10.065c-0.221,0.221 -0.52,0.345 -0.832,0.345c-0.312,0 -0.611,-0.124 -0.832,-0.345c-1.165,-1.165 -3.285,-3.285 -4.565,-4.565c-0.262,-0.263 -0.394,-0.629 -0.36,-0.999c0.035,-0.37 0.233,-0.705 0.54,-0.915c0.001,0 0.001,0 0.002,-0.001c0.708,-0.482 1.667,-0.348 2.215,0.31c0.644,0.773 1.483,1.78 2.11,2.532c0.221,0.266 0.549,0.421 0.895,0.424c0.346,0.002 0.676,-0.148 0.901,-0.411c1.76,-2.049 5.637,-6.566 7.579,-8.828c0.298,-0.347 0.727,-0.554 1.185,-0.572c0.457,-0.017 0.901,0.157 1.225,0.481c0,0 0.001,0.001 0.002,0.002Z" style="fill:#414141;"/><path d="M291.654,18.758l0.16,0.004l0.158,0.008l0.159,0.013l0.157,0.016l0.157,0.021l0.156,0.024l0.155,0.029l0.155,0.032l0.153,0.037l0.151,0.04l0.151,0.044l0.15,0.048l0.148,0.052l0.147,0.055l0.146,0.059l0.144,0.063l0.142,0.067l0.14,0.07l0.139,0.074l0.137,0.077l0.135,0.081l0.134,0.085l0.131,0.088l0.129,0.091l0.127,0.095l0.124,0.099l0.123,0.102l0.119,0.104l0.117,0.108l0.097,0.095l0.042,0.042l0.086,0.088l0.105,0.114l0.103,0.116l0.099,0.118l0.096,0.121l0.093,0.121l0.089,0.124l0.088,0.128l0.083,0.129l0.08,0.129l0.077,0.132l0.074,0.135l0.069,0.135l0.067,0.136l0.064,0.14l0.06,0.14l0.057,0.141l0.053,0.144l0.05,0.144l0.046,0.146l0.042,0.146l0.039,0.147l0.036,0.149l0.032,0.15l0.028,0.15l0.024,0.152l0.021,0.153l0.018,0.154l0.013,0.153l0.009,0.152l0.006,0.155l0.002,0.157l-0.002,0.156l-0.006,0.153l-0.009,0.154l-0.014,0.154l-0.017,0.153l-0.021,0.153l-0.024,0.152l-0.028,0.15l-0.032,0.15l-0.036,0.149l-0.039,0.147l-0.042,0.146l-0.046,0.146l-0.05,0.144l-0.053,0.144l-0.057,0.141l-0.06,0.14l-0.063,0.139l-0.067,0.137l-0.071,0.136l-0.073,0.134l-0.077,0.131l-0.08,0.13l-0.084,0.13l-0.086,0.126l-0.089,0.124l-0.094,0.123l-0.096,0.12l-0.099,0.118l-0.103,0.116l-0.105,0.114l-0.089,0.091l-10.124,10.123l-0.163,0.156l-0.212,0.183l-0.221,0.172l-0.228,0.16l-0.235,0.148l-0.241,0.137l-0.248,0.125l-0.254,0.112l-0.257,0.099l-0.263,0.087l-0.268,0.075l-0.271,0.061l-0.275,0.048l-0.277,0.034l-0.28,0.021l-0.281,0.007l-0.281,-0.007l-0.28,-0.021l-0.277,-0.034l-0.275,-0.048l-0.271,-0.061l-0.268,-0.075l-0.262,-0.087l-0.259,-0.099l-0.253,-0.112l-0.248,-0.125l-0.241,-0.137l-0.235,-0.148l-0.228,-0.16l-0.221,-0.172l-0.212,-0.183l-0.163,-0.156l-4.627,-4.626l-0.09,-0.092l-0.108,-0.118l-0.104,-0.12l-0.101,-0.123l-0.098,-0.126l-0.093,-0.126l-0.09,-0.13l-0.087,-0.134l-0.082,-0.133l-0.078,-0.136l-0.075,-0.137l-0.071,-0.141l-0.067,-0.143l-0.063,-0.143l-0.059,-0.145l-0.055,-0.146l-0.051,-0.149l-0.048,-0.15l-0.042,-0.149l-0.039,-0.152l-0.035,-0.154l-0.03,-0.153l-0.027,-0.155l-0.022,-0.157l-0.018,-0.156l-0.014,-0.158l-0.009,-0.158l-0.005,-0.158l0,-0.158l0.004,-0.16l0.008,-0.16l0.013,-0.161l0.017,-0.158l0.021,-0.157l0.026,-0.158l0.03,-0.157l0.035,-0.155l0.038,-0.153l0.043,-0.151l0.047,-0.151l0.05,-0.149l0.055,-0.147l0.059,-0.147l0.063,-0.144l0.066,-0.141l0.07,-0.139l0.075,-0.14l0.078,-0.136l0.08,-0.133l0.086,-0.132l0.089,-0.13l0.091,-0.126l0.095,-0.124l0.1,-0.122l0.103,-0.12l0.106,-0.116l0.109,-0.114l0.112,-0.11l0.116,-0.109l0.12,-0.105l0.122,-0.102l0.124,-0.098l0.129,-0.096l0.106,-0.074l0.05,-0.034l0.098,-0.066l0.124,-0.078l0.126,-0.075l0.127,-0.072l0.128,-0.069l0.13,-0.065l0.131,-0.062l0.132,-0.06l0.133,-0.055l0.134,-0.053l0.134,-0.049l0.136,-0.046l0.136,-0.043l0.137,-0.04l0.137,-0.036l0.138,-0.033l0.138,-0.03l0.139,-0.026l0.139,-0.023l0.139,-0.021l0.139,-0.016l0.139,-0.014l0.14,-0.011l0.139,-0.007l0.139,-0.004l0.14,-0.001l0.139,0.002l0.138,0.005l0.139,0.009l0.138,0.011l0.138,0.015l0.138,0.017l0.137,0.021l0.136,0.024l0.137,0.027l0.135,0.03l0.135,0.033l0.134,0.036l0.134,0.039l0.133,0.042l0.132,0.046l0.131,0.048l0.13,0.051l0.129,0.055l0.128,0.057l0.128,0.061l0.125,0.063l0.125,0.067l0.124,0.07l0.121,0.071l0.122,0.076l0.119,0.079l0.118,0.081l0.116,0.085l0.114,0.087l0.112,0.09l0.111,0.093l0.109,0.096l0.107,0.099l0.072,0.07l5.059,-5.893l0.087,-0.098l0.108,-0.117l0.111,-0.113l0.115,-0.111l0.117,-0.109l0.119,-0.104l0.122,-0.101l0.124,-0.098l0.126,-0.094l0.129,-0.091l0.131,-0.088l0.132,-0.083l0.135,-0.081l0.137,-0.078l0.139,-0.073l0.14,-0.07l0.142,-0.067l0.145,-0.062l0.145,-0.06l0.147,-0.055l0.148,-0.051l0.151,-0.048l0.151,-0.045l0.152,-0.04l0.154,-0.036l0.155,-0.032l0.156,-0.029l0.157,-0.024l0.157,-0.021l0.159,-0.016l0.159,-0.013l0.16,-0.008l0.16,-0.004l0.159,0.001Zm-0.148,4.5l-0.043,0.003l-0.043,0.003l-0.042,0.004l-0.042,0.006l-0.042,0.006l-0.042,0.008l-0.041,0.009l-0.041,0.009l-0.041,0.011l-0.041,0.012l-0.04,0.013l-0.04,0.014l-0.039,0.014l-0.039,0.016l-0.038,0.017l-0.038,0.018l-0.038,0.018l-0.037,0.02l-0.037,0.021l-0.036,0.021l-0.035,0.023l-0.035,0.023l-0.035,0.025l-0.034,0.025l-0.033,0.026l-0.032,0.027l-0.032,0.028l-0.031,0.029l-0.031,0.029l-0.03,0.031l-0.029,0.031l-0.028,0.032l-7.579,8.828l-0.021,0.025l-0.022,0.023l-0.023,0.023l-0.023,0.023l-0.024,0.021l-0.024,0.021l-0.025,0.02l-0.025,0.02l-0.026,0.018l-0.026,0.018l-0.027,0.018l-0.027,0.016l-0.027,0.016l-0.028,0.015l-0.029,0.014l-0.028,0.014l-0.029,0.013l-0.03,0.012l-0.029,0.011l-0.03,0.01l-0.031,0.01l-0.03,0.008l-0.031,0.008l-0.031,0.007l-0.031,0.007l-0.032,0.005l-0.031,0.005l-0.032,0.003l-0.032,0.003l-0.032,0.002l-0.033,0.001l-0.032,0.001l-0.033,-0.001l-0.032,-0.002l-0.032,-0.002l-0.032,-0.003l-0.032,-0.005l-0.031,-0.005l-0.032,-0.006l-0.031,-0.006l-0.031,-0.008l-0.031,-0.008l-0.03,-0.009l-0.03,-0.01l-0.03,-0.011l-0.029,-0.012l-0.03,-0.012l-0.028,-0.013l-0.029,-0.014l-0.028,-0.015l-0.028,-0.015l-0.027,-0.017l-0.027,-0.017l-0.026,-0.017l-0.026,-0.019l-0.026,-0.019l-0.025,-0.02l-0.024,-0.02l-0.024,-0.021l-0.023,-0.022l-0.023,-0.023l-0.022,-0.023l-0.022,-0.024l-0.021,-0.025l-2.11,-2.532l-0.026,-0.03l-0.026,-0.03l-0.028,-0.029l-0.027,-0.028l-0.029,-0.028l-0.028,-0.026l-0.03,-0.026l-0.029,-0.025l-0.031,-0.024l-0.03,-0.024l-0.032,-0.022l-0.031,-0.022l-0.032,-0.021l-0.033,-0.021l-0.033,-0.019l-0.033,-0.019l-0.033,-0.018l-0.034,-0.017l-0.034,-0.016l-0.035,-0.016l-0.035,-0.014l-0.035,-0.014l-0.035,-0.013l-0.036,-0.012l-0.036,-0.012l-0.036,-0.01l-0.036,-0.01l-0.037,-0.009l-0.037,-0.008l-0.037,-0.008l-0.037,-0.006l-0.037,-0.006l-0.037,-0.004l-0.037,-0.004l-0.038,-0.004l-0.037,-0.002l-0.038,-0.001l-0.037,-0.001l-0.038,0l-0.038,0.002l-0.037,0.002l-0.038,0.002l-0.038,0.004l-0.037,0.005l-0.038,0.005l-0.037,0.006l-0.037,0.007l-0.038,0.008l-0.037,0.009l-0.037,0.01l-0.036,0.011l-0.037,0.011l-0.036,0.013l-0.037,0.013l-0.036,0.014l-0.035,0.015l-0.036,0.016l-0.035,0.017l-0.035,0.017l-0.035,0.019l-0.034,0.019l-0.034,0.021l-0.034,0.021l-0.033,0.022l-0.002,0.001l-0.028,0.02l-0.028,0.021l-0.027,0.022l-0.027,0.022l-0.026,0.022l-0.025,0.024l-0.024,0.024l-0.024,0.025l-0.023,0.025l-0.022,0.026l-0.022,0.026l-0.021,0.027l-0.02,0.028l-0.019,0.028l-0.018,0.028l-0.018,0.029l-0.017,0.03l-0.016,0.03l-0.015,0.03l-0.015,0.031l-0.013,0.031l-0.013,0.032l-0.012,0.032l-0.011,0.032l-0.01,0.033l-0.009,0.033l-0.009,0.033l-0.007,0.034l-0.007,0.034l-0.005,0.034l-0.005,0.034l-0.004,0.035l-0.002,0.035l-0.002,0.034l-0.001,0.035l0,0.034l0.001,0.035l0.002,0.034l0.003,0.034l0.004,0.034l0.005,0.034l0.005,0.034l0.007,0.033l0.008,0.033l0.008,0.033l0.009,0.033l0.011,0.033l0.011,0.032l0.012,0.032l0.013,0.031l0.013,0.031l0.015,0.031l0.015,0.031l0.016,0.03l0.017,0.029l0.018,0.029l0.019,0.029l0.02,0.028l0.02,0.028l0.021,0.027l0.022,0.027l0.023,0.026l0.023,0.025l0.024,0.025l4.565,4.565l0.043,0.04l0.044,0.038l0.045,0.036l0.047,0.033l0.049,0.031l0.05,0.028l0.051,0.026l0.053,0.023l0.053,0.021l0.055,0.018l0.055,0.015l0.056,0.013l0.057,0.01l0.058,0.007l0.058,0.004l0.058,0.002l0.058,-0.002l0.058,-0.004l0.058,-0.007l0.057,-0.01l0.056,-0.013l0.055,-0.015l0.055,-0.018l0.053,-0.021l0.053,-0.023l0.051,-0.026l0.05,-0.028l0.049,-0.031l0.047,-0.033l0.046,-0.036l0.044,-0.038l0.042,-0.04l10.065,-10.065l0.03,-0.031l0.029,-0.032l0.029,-0.032l0.028,-0.033l0.027,-0.034l0.026,-0.034l0.025,-0.035l0.024,-0.035l0.024,-0.036l0.022,-0.037l0.022,-0.037l0.02,-0.037l0.02,-0.038l0.019,-0.039l0.017,-0.039l0.017,-0.039l0.016,-0.04l0.015,-0.04l0.014,-0.04l0.013,-0.041l0.012,-0.041l0.011,-0.041l0.01,-0.042l0.009,-0.042l0.008,-0.042l0.006,-0.043l0.006,-0.042l0.005,-0.043l0.004,-0.043l0.003,-0.044l0.001,-0.043l0.001,-0.043l-0.001,-0.044l-0.001,-0.043l-0.003,-0.044l-0.004,-0.043l-0.005,-0.043l-0.006,-0.042l-0.006,-0.043l-0.008,-0.042l-0.009,-0.042l-0.01,-0.042l-0.011,-0.041l-0.012,-0.041l-0.013,-0.041l-0.014,-0.04l-0.015,-0.04l-0.016,-0.04l-0.017,-0.039l-0.017,-0.039l-0.019,-0.039l-0.02,-0.037l-0.02,-0.038l-0.022,-0.037l-0.022,-0.037l-0.024,-0.036l-0.024,-0.035l-0.025,-0.035l-0.026,-0.034l-0.027,-0.034l-0.028,-0.033l-0.029,-0.032l-0.029,-0.032l-0.03,-0.031l-0.002,-0.002l-0.031,-0.03l-0.031,-0.029l-0.032,-0.028l-0.033,-0.027l-0.033,-0.027l-0.034,-0.025l-0.035,-0.025l-0.035,-0.023l-0.036,-0.023l-0.036,-0.022l-0.036,-0.02l-0.038,-0.02l-0.037,-0.019l-0.038,-0.018l-0.039,-0.016l-0.039,-0.016l-0.039,-0.015l-0.04,-0.014l-0.04,-0.013l-0.04,-0.012l-0.041,-0.01l-0.041,-0.01l-0.041,-0.009l-0.041,-0.007l-0.042,-0.007l-0.042,-0.005l-0.042,-0.005l-0.043,-0.003l-0.042,-0.002l-0.043,-0.002l-0.042,0l-0.043,0.001Z" style="fill:#eaeae6;"/><g><path d="M258.87,37.421l0.157,0.003l0.156,0.005l0.156,0.007l0.155,0.009l0.155,0.011l0.154,0.012l0.154,0.015l0.153,0.017l0.153,0.018l0.152,0.02l0.152,0.023l0.151,0.024l0.151,0.026l0.15,0.028l0.149,0.029l0.149,0.032l0.148,0.033l0.148,0.035l0.146,0.037l0.147,0.038l0.145,0.041l0.145,0.042l0.144,0.044l0.143,0.045l0.142,0.047l0.142,0.049l0.141,0.051l0.14,0.052l0.139,0.054l0.138,0.056l0.138,0.057l0.136,0.059l0.136,0.06l0.135,0.062l0.134,0.064l0.133,0.065l0.132,0.067l0.131,0.068l0.13,0.07l0.129,0.071l0.128,0.072l0.128,0.075l0.126,0.075l0.125,0.078l0.124,0.078l0.123,0.08l0.123,0.082l0.121,0.083l0.12,0.084l0.119,0.085l0.117,0.088l0.117,0.088l0.116,0.09l0.114,0.091l0.114,0.092l0.112,0.094l0.111,0.095l0.11,0.096l0.108,0.098l0.108,0.099l0.106,0.1l0.105,0.101l0.104,0.103l0.103,0.104l0.101,0.105l0.101,0.107l0.098,0.107l0.098,0.109l0.097,0.11l0.095,0.111l0.093,0.112l0.093,0.113l0.091,0.115l0.09,0.116l0.088,0.116l0.087,0.118l0.086,0.119l0.084,0.12l0.083,0.121l0.081,0.122l0.08,0.123l0.079,0.124l0.077,0.125l0.076,0.127l0.074,0.127l0.073,0.128l0.071,0.129l0.07,0.131l0.068,0.131l0.067,0.132l0.065,0.133l0.063,0.134l0.062,0.135l0.061,0.135l0.059,0.137l0.057,0.137l0.055,0.139l0.054,0.139l0.052,0.14l0.051,0.141l0.049,0.141l0.047,0.143l0.046,0.143l0.044,0.144l0.042,0.144l0.04,0.146l0.039,0.146l0.037,0.147l0.035,0.147l0.033,0.148l0.031,0.149l0.03,0.15l0.028,0.15l0.026,0.15l0.024,0.151l0.022,0.152l0.021,0.153l0.018,0.153l0.017,0.153l0.014,0.153l0.013,0.155l0.011,0.155l0.009,0.155l0.007,0.156l0.004,0.155l0.003,0.157l0.001,0.157l-0.001,0.157l-0.003,0.156l-0.004,0.156l-0.007,0.156l-0.009,0.155l-0.011,0.155l-0.013,0.154l-0.014,0.154l-0.017,0.153l-0.018,0.153l-0.021,0.152l-0.022,0.152l-0.024,0.151l-0.026,0.151l-0.028,0.15l-0.03,0.149l-0.031,0.149l-0.033,0.148l-0.035,0.147l-0.037,0.147l-0.039,0.146l-0.04,0.146l-0.042,0.145l-0.044,0.144l-0.046,0.143l-0.047,0.142l-0.049,0.142l-0.051,0.141l-0.052,0.139l-0.054,0.139l-0.055,0.139l-0.057,0.138l-0.059,0.136l-0.061,0.136l-0.062,0.135l-0.063,0.134l-0.065,0.133l-0.067,0.131l-0.068,0.132l-0.07,0.13l-0.071,0.129l-0.073,0.128l-0.074,0.128l-0.076,0.126l-0.077,0.125l-0.079,0.124l-0.08,0.123l-0.081,0.122l-0.083,0.122l-0.084,0.12l-0.086,0.119l-0.087,0.117l-0.088,0.117l-0.09,0.116l-0.091,0.114l-0.093,0.114l-0.093,0.112l-0.095,0.111l-0.097,0.11l-0.098,0.109l-0.098,0.107l-0.101,0.106l-0.101,0.105l-0.103,0.104l-0.104,0.103l-0.105,0.101l-0.106,0.1l-0.108,0.099l-0.108,0.098l-0.11,0.096l-0.111,0.096l-0.112,0.093l-0.114,0.093l-0.114,0.091l-0.116,0.09l-0.117,0.088l-0.117,0.087l-0.119,0.086l-0.12,0.084l-0.121,0.083l-0.123,0.081l-0.123,0.08l-0.124,0.079l-0.125,0.077l-0.126,0.076l-0.128,0.074l-0.128,0.073l-0.129,0.071l-0.13,0.07l-0.131,0.068l-0.132,0.067l-0.133,0.065l-0.134,0.063l-0.135,0.062l-0.136,0.061l-0.136,0.059l-0.138,0.057l-0.138,0.055l-0.139,0.054l-0.14,0.052l-0.141,0.051l-0.142,0.049l-0.142,0.047l-0.143,0.046l-0.144,0.044l-0.145,0.042l-0.145,0.04l-0.146,0.039l-0.147,0.037l-0.148,0.035l-0.148,0.033l-0.149,0.031l-0.149,0.03l-0.15,0.028l-0.151,0.026l-0.151,0.024l-0.152,0.022l-0.152,0.02l-0.153,0.019l-0.153,0.016l-0.154,0.015l-0.154,0.013l-0.155,0.011l-0.155,0.009l-0.156,0.006l-0.156,0.005l-0.157,0.003l-0.156,0.001l-0.157,-0.001l-0.156,-0.003l-0.156,-0.005l-0.156,-0.006l-0.155,-0.009l-0.155,-0.011l-0.154,-0.013l-0.154,-0.015l-0.154,-0.016l-0.152,-0.019l-0.153,-0.02l-0.151,-0.022l-0.152,-0.024l-0.15,-0.026l-0.15,-0.028l-0.15,-0.03l-0.149,-0.031l-0.148,-0.033l-0.147,-0.035l-0.147,-0.037l-0.146,-0.039l-0.145,-0.04l-0.145,-0.042l-0.144,-0.044l-0.143,-0.046l-0.143,-0.047l-0.141,-0.049l-0.141,-0.051l-0.14,-0.052l-0.139,-0.054l-0.138,-0.055l-0.138,-0.057l-0.137,-0.059l-0.135,-0.061l-0.135,-0.062l-0.134,-0.063l-0.133,-0.065l-0.132,-0.067l-0.131,-0.068l-0.131,-0.07l-0.129,-0.071l-0.128,-0.073l-0.127,-0.074l-0.126,-0.076l-0.125,-0.077l-0.125,-0.079l-0.123,-0.08l-0.122,-0.081l-0.121,-0.083l-0.12,-0.084l-0.119,-0.086l-0.118,-0.087l-0.117,-0.089l-0.115,-0.089l-0.115,-0.091l-0.113,-0.093l-0.112,-0.094l-0.111,-0.095l-0.11,-0.096l-0.109,-0.098l-0.108,-0.099l-0.106,-0.099l-0.105,-0.102l-0.104,-0.103l-0.102,-0.104l-0.102,-0.105l-0.1,-0.106l-0.099,-0.108l-0.098,-0.108l-0.096,-0.11l-0.095,-0.111l-0.094,-0.113l-0.092,-0.113l-0.091,-0.114l-0.09,-0.116l-0.088,-0.117l-0.087,-0.117l-0.086,-0.119l-0.084,-0.12l-0.083,-0.121l-0.082,-0.122l-0.08,-0.124l-0.079,-0.124l-0.077,-0.125l-0.075,-0.126l-0.074,-0.127l-0.073,-0.129l-0.072,-0.129l-0.069,-0.13l-0.068,-0.131l-0.067,-0.132l-0.065,-0.133l-0.064,-0.135l-0.062,-0.134l-0.06,-0.136l-0.059,-0.136l-0.057,-0.138l-0.056,-0.138l-0.054,-0.14l-0.052,-0.14l-0.051,-0.14l-0.048,-0.142l-0.048,-0.142l-0.045,-0.144l-0.044,-0.144l-0.042,-0.144l-0.041,-0.145l-0.038,-0.146l-0.037,-0.148l-0.035,-0.147l-0.033,-0.148l-0.032,-0.149l-0.029,-0.149l-0.028,-0.15l-0.026,-0.151l-0.024,-0.151l-0.023,-0.152l-0.02,-0.152l-0.018,-0.153l-0.017,-0.153l-0.015,-0.154l-0.012,-0.155l-0.011,-0.154l-0.009,-0.155l-0.007,-0.156l-0.005,-0.156l-0.003,-0.157l-0.001,-0.156l0.001,-0.157l0.003,-0.157l0.005,-0.155l0.007,-0.156l0.009,-0.156l0.011,-0.154l0.012,-0.154l0.015,-0.154l0.017,-0.154l0.018,-0.153l0.02,-0.152l0.023,-0.151l0.024,-0.152l0.026,-0.151l0.028,-0.149l0.029,-0.15l0.032,-0.149l0.033,-0.148l0.035,-0.147l0.037,-0.147l0.038,-0.146l0.041,-0.146l0.042,-0.144l0.044,-0.144l0.045,-0.144l0.048,-0.142l0.048,-0.141l0.051,-0.141l0.052,-0.14l0.054,-0.139l0.056,-0.139l0.057,-0.137l0.059,-0.137l0.06,-0.135l0.062,-0.135l0.064,-0.134l0.065,-0.133l0.067,-0.132l0.068,-0.131l0.069,-0.13l0.072,-0.13l0.073,-0.128l0.074,-0.127l0.075,-0.126l0.077,-0.125l0.079,-0.125l0.08,-0.123l0.082,-0.122l0.083,-0.121l0.084,-0.12l0.086,-0.119l0.087,-0.118l0.088,-0.117l0.09,-0.115l0.091,-0.115l0.092,-0.113l0.094,-0.112l0.095,-0.111l0.096,-0.11l0.098,-0.109l0.099,-0.108l0.1,-0.106l0.102,-0.105l0.102,-0.104l0.104,-0.103l0.105,-0.101l0.107,-0.1l0.107,-0.099l0.109,-0.098l0.11,-0.096l0.111,-0.095l0.112,-0.094l0.113,-0.092l0.115,-0.091l0.115,-0.09l0.117,-0.088l0.118,-0.088l0.119,-0.085l0.12,-0.085l0.121,-0.082l0.122,-0.082l0.123,-0.08l0.125,-0.079l0.125,-0.077l0.126,-0.075l0.127,-0.074l0.128,-0.073l0.129,-0.071l0.131,-0.07l0.131,-0.068l0.132,-0.067l0.133,-0.065l0.134,-0.064l0.135,-0.062l0.135,-0.06l0.137,-0.059l0.138,-0.057l0.138,-0.056l0.139,-0.054l0.14,-0.052l0.141,-0.051l0.141,-0.049l0.143,-0.047l0.143,-0.045l0.144,-0.044l0.145,-0.042l0.145,-0.041l0.146,-0.038l0.147,-0.037l0.147,-0.035l0.148,-0.033l0.149,-0.032l0.15,-0.029l0.15,-0.028l0.15,-0.026l0.152,-0.024l0.151,-0.023l0.153,-0.02l0.153,-0.018l0.153,-0.017l0.154,-0.015l0.154,-0.012l0.155,-0.011l0.155,-0.009l0.156,-0.007l0.156,-0.005l0.156,-0.003l0.157,-0.001l0.156,0.001Zm-0.269,3.5l-0.112,0.002l-0.111,0.004l-0.112,0.004l-0.111,0.007l-0.11,0.008l-0.11,0.009l-0.11,0.01l-0.109,0.012l-0.109,0.013l-0.109,0.015l-0.108,0.015l-0.108,0.018l-0.107,0.018l-0.107,0.02l-0.106,0.021l-0.106,0.022l-0.106,0.024l-0.105,0.025l-0.104,0.026l-0.104,0.028l-0.103,0.028l-0.103,0.03l-0.103,0.032l-0.102,0.032l-0.101,0.034l-0.101,0.034l-0.1,0.036l-0.099,0.038l-0.099,0.038l-0.099,0.039l-0.098,0.041l-0.097,0.042l-0.097,0.043l-0.096,0.044l-0.095,0.045l-0.095,0.047l-0.094,0.047l-0.093,0.049l-0.093,0.05l-0.092,0.05l-0.092,0.052l-0.09,0.053l-0.09,0.054l-0.09,0.055l-0.088,0.056l-0.088,0.057l-0.087,0.059l-0.087,0.059l-0.085,0.06l-0.085,0.061l-0.084,0.062l-0.084,0.063l-0.082,0.064l-0.082,0.066l-0.081,0.066l-0.08,0.067l-0.079,0.067l-0.079,0.069l-0.078,0.07l-0.077,0.071l-0.075,0.071l-0.076,0.073l-0.074,0.073l-0.073,0.074l-0.073,0.075l-0.071,0.076l-0.071,0.077l-0.07,0.078l-0.069,0.078l-0.067,0.08l-0.067,0.08l-0.066,0.081l-0.066,0.082l-0.064,0.082l-0.063,0.084l-0.062,0.084l-0.061,0.085l-0.06,0.085l-0.059,0.087l-0.059,0.087l-0.057,0.088l-0.056,0.088l-0.055,0.09l-0.054,0.09l-0.053,0.09l-0.051,0.092l-0.051,0.092l-0.05,0.093l-0.049,0.093l-0.047,0.094l-0.046,0.095l-0.046,0.095l-0.044,0.096l-0.043,0.097l-0.042,0.097l-0.04,0.098l-0.04,0.099l-0.038,0.099l-0.038,0.099l-0.036,0.1l-0.034,0.101l-0.034,0.101l-0.032,0.102l-0.032,0.103l-0.03,0.103l-0.028,0.103l-0.028,0.104l-0.026,0.104l-0.025,0.105l-0.024,0.106l-0.022,0.106l-0.021,0.106l-0.02,0.107l-0.018,0.107l-0.017,0.108l-0.016,0.108l-0.015,0.108l-0.013,0.109l-0.012,0.11l-0.01,0.11l-0.009,0.11l-0.008,0.11l-0.006,0.111l-0.005,0.112l-0.004,0.111l-0.002,0.112l-0.001,0.113l0.001,0.112l0.002,0.112l0.004,0.112l0.005,0.111l0.006,0.111l0.008,0.111l0.009,0.11l0.01,0.11l0.012,0.109l0.013,0.109l0.015,0.109l0.016,0.108l0.017,0.107l0.018,0.108l0.02,0.107l0.021,0.106l0.022,0.106l0.024,0.105l0.025,0.105l0.026,0.105l0.028,0.104l0.028,0.103l0.03,0.103l0.032,0.102l0.032,0.102l0.034,0.101l0.034,0.101l0.036,0.1l0.038,0.1l0.038,0.099l0.04,0.098l0.04,0.098l0.042,0.098l0.043,0.096l0.044,0.096l0.046,0.096l0.046,0.094l0.047,0.094l0.049,0.094l0.05,0.093l0.051,0.092l0.051,0.091l0.053,0.091l0.054,0.09l0.055,0.089l0.056,0.089l0.057,0.088l0.059,0.087l0.059,0.086l0.06,0.086l0.061,0.085l0.062,0.084l0.063,0.083l0.064,0.083l0.066,0.082l0.066,0.081l0.067,0.08l0.067,0.079l0.069,0.079l0.07,0.077l0.071,0.077l0.071,0.076l0.073,0.075l0.073,0.074l0.074,0.074l0.076,0.072l0.075,0.072l0.077,0.07l0.078,0.07l0.079,0.069l0.079,0.068l0.08,0.067l0.081,0.066l0.082,0.065l0.082,0.064l0.084,0.063l0.084,0.062l0.085,0.062l0.085,0.06l0.087,0.059l0.087,0.058l0.088,0.057l0.088,0.056l0.09,0.055l0.09,0.054l0.09,0.053l0.092,0.052l0.092,0.051l0.093,0.049l0.093,0.049l0.094,0.048l0.095,0.046l0.095,0.045l0.096,0.044l0.097,0.043l0.097,0.042l0.098,0.041l0.099,0.04l0.099,0.038l0.099,0.037l0.1,0.036l0.101,0.035l0.101,0.034l0.102,0.032l0.103,0.031l0.103,0.03l0.103,0.029l0.104,0.027l0.104,0.026l0.105,0.025l0.106,0.024l0.106,0.022l0.106,0.022l0.107,0.019l0.107,0.019l0.108,0.017l0.108,0.016l0.109,0.014l0.109,0.014l0.109,0.011l0.11,0.011l0.11,0.009l0.11,0.008l0.111,0.006l0.112,0.005l0.111,0.003l0.112,0.003l0.113,0l0.112,0l0.112,-0.003l0.112,-0.003l0.111,-0.005l0.111,-0.006l0.111,-0.008l0.11,-0.009l0.11,-0.011l0.109,-0.011l0.109,-0.014l0.109,-0.014l0.108,-0.016l0.107,-0.017l0.108,-0.019l0.107,-0.019l0.106,-0.022l0.106,-0.022l0.105,-0.024l0.105,-0.025l0.105,-0.026l0.104,-0.027l0.103,-0.029l0.103,-0.03l0.102,-0.031l0.102,-0.032l0.101,-0.034l0.101,-0.035l0.1,-0.036l0.1,-0.037l0.099,-0.038l0.098,-0.04l0.098,-0.041l0.098,-0.042l0.096,-0.043l0.096,-0.044l0.096,-0.045l0.094,-0.046l0.094,-0.048l0.094,-0.049l0.093,-0.049l0.092,-0.051l0.091,-0.052l0.091,-0.053l0.09,-0.054l0.089,-0.055l0.089,-0.056l0.088,-0.057l0.087,-0.058l0.086,-0.059l0.086,-0.06l0.085,-0.062l0.084,-0.062l0.083,-0.063l0.083,-0.064l0.082,-0.065l0.081,-0.066l0.08,-0.067l0.079,-0.068l0.079,-0.069l0.077,-0.07l0.077,-0.07l0.076,-0.072l0.075,-0.072l0.074,-0.074l0.074,-0.074l0.072,-0.075l0.072,-0.076l0.07,-0.077l0.07,-0.077l0.069,-0.079l0.068,-0.079l0.067,-0.08l0.066,-0.081l0.065,-0.082l0.064,-0.083l0.063,-0.083l0.062,-0.084l0.062,-0.085l0.06,-0.086l0.059,-0.086l0.058,-0.087l0.057,-0.088l0.056,-0.089l0.055,-0.089l0.054,-0.09l0.053,-0.091l0.052,-0.091l0.051,-0.092l0.05,-0.093l0.048,-0.094l0.048,-0.094l0.046,-0.094l0.045,-0.096l0.044,-0.096l0.043,-0.096l0.042,-0.098l0.041,-0.098l0.04,-0.098l0.038,-0.099l0.037,-0.1l0.036,-0.1l0.035,-0.101l0.034,-0.101l0.032,-0.102l0.031,-0.102l0.03,-0.103l0.029,-0.103l0.027,-0.104l0.026,-0.105l0.025,-0.105l0.024,-0.105l0.022,-0.106l0.022,-0.106l0.019,-0.107l0.019,-0.108l0.017,-0.107l0.016,-0.108l0.014,-0.109l0.014,-0.109l0.011,-0.109l0.011,-0.11l0.009,-0.11l0.008,-0.111l0.006,-0.111l0.005,-0.111l0.004,-0.112l0.002,-0.112l0,-0.112l0,-0.113l-0.002,-0.112l-0.004,-0.111l-0.005,-0.112l-0.006,-0.111l-0.008,-0.11l-0.009,-0.11l-0.011,-0.11l-0.011,-0.11l-0.014,-0.109l-0.014,-0.108l-0.016,-0.108l-0.017,-0.108l-0.019,-0.107l-0.019,-0.107l-0.022,-0.106l-0.022,-0.106l-0.024,-0.106l-0.025,-0.105l-0.026,-0.104l-0.027,-0.104l-0.029,-0.103l-0.03,-0.103l-0.031,-0.103l-0.032,-0.102l-0.034,-0.101l-0.035,-0.101l-0.036,-0.1l-0.037,-0.099l-0.038,-0.099l-0.04,-0.099l-0.041,-0.098l-0.042,-0.097l-0.043,-0.097l-0.044,-0.096l-0.045,-0.095l-0.046,-0.095l-0.048,-0.094l-0.048,-0.093l-0.05,-0.093l-0.051,-0.092l-0.052,-0.092l-0.053,-0.09l-0.054,-0.09l-0.055,-0.09l-0.056,-0.088l-0.057,-0.088l-0.058,-0.087l-0.059,-0.087l-0.06,-0.085l-0.062,-0.085l-0.062,-0.084l-0.063,-0.084l-0.064,-0.082l-0.065,-0.082l-0.066,-0.081l-0.067,-0.08l-0.068,-0.08l-0.069,-0.078l-0.07,-0.078l-0.07,-0.077l-0.072,-0.076l-0.072,-0.075l-0.074,-0.074l-0.074,-0.073l-0.075,-0.073l-0.076,-0.071l-0.077,-0.071l-0.077,-0.07l-0.079,-0.069l-0.079,-0.067l-0.08,-0.067l-0.081,-0.066l-0.082,-0.066l-0.083,-0.064l-0.083,-0.063l-0.084,-0.062l-0.085,-0.061l-0.086,-0.06l-0.086,-0.059l-0.087,-0.059l-0.088,-0.057l-0.089,-0.056l-0.089,-0.055l-0.09,-0.054l-0.091,-0.053l-0.091,-0.052l-0.092,-0.05l-0.093,-0.05l-0.094,-0.049l-0.094,-0.047l-0.094,-0.047l-0.096,-0.045l-0.096,-0.044l-0.096,-0.043l-0.098,-0.042l-0.098,-0.041l-0.098,-0.039l-0.099,-0.038l-0.1,-0.038l-0.1,-0.036l-0.101,-0.034l-0.101,-0.034l-0.102,-0.032l-0.102,-0.032l-0.103,-0.03l-0.103,-0.028l-0.104,-0.028l-0.105,-0.026l-0.105,-0.025l-0.105,-0.024l-0.106,-0.022l-0.106,-0.021l-0.107,-0.02l-0.108,-0.018l-0.107,-0.018l-0.108,-0.015l-0.109,-0.015l-0.109,-0.013l-0.109,-0.012l-0.11,-0.01l-0.11,-0.009l-0.111,-0.008l-0.111,-0.007l-0.111,-0.004l-0.112,-0.004l-0.112,-0.002l-0.112,-0.001l-0.113,0.001Z" style="fill:#eaeae6;"/><path d="M252.138,59.026c0.355,-0.355 0.355,-0.931 0,-1.286l-1.286,-1.286c-0.355,-0.355 -0.932,-0.355 -1.287,0l-10.816,10.816c-0.355,0.355 -0.355,0.932 0,1.287l1.286,1.286c0.355,0.355 0.931,0.355 1.286,0l10.817,-10.817Z" style="fill:#414141;"/><path d="M250.321,54.734l0.113,0.008l0.113,0.014l0.112,0.019l0.111,0.024l0.11,0.03l0.11,0.035l0.108,0.041l0.106,0.046l0.105,0.051l0.102,0.057l0.1,0.063l0.097,0.068l0.095,0.073l0.091,0.078l0.074,0.07l1.312,1.313l0.071,0.074l0.078,0.091l0.073,0.094l0.068,0.097l0.062,0.1l0.057,0.103l0.052,0.105l0.046,0.106l0.041,0.108l0.035,0.109l0.03,0.111l0.024,0.111l0.019,0.112l0.013,0.112l0.008,0.113l0.003,0.113l-0.003,0.113l-0.008,0.113l-0.013,0.113l-0.019,0.112l-0.024,0.111l-0.03,0.11l-0.035,0.109l-0.041,0.109l-0.046,0.106l-0.052,0.104l-0.057,0.103l-0.062,0.1l-0.068,0.097l-0.073,0.095l-0.078,0.091l-0.071,0.074l-10.842,10.842l-0.074,0.071l-0.091,0.078l-0.095,0.073l-0.097,0.068l-0.1,0.062l-0.103,0.057l-0.104,0.052l-0.107,0.046l-0.108,0.041l-0.109,0.035l-0.11,0.03l-0.111,0.024l-0.112,0.019l-0.113,0.013l-0.113,0.009l-0.113,0.002l-0.113,-0.002l-0.113,-0.009l-0.112,-0.013l-0.112,-0.019l-0.111,-0.024l-0.111,-0.03l-0.109,-0.035l-0.108,-0.041l-0.106,-0.046l-0.105,-0.052l-0.103,-0.057l-0.1,-0.062l-0.097,-0.068l-0.094,-0.073l-0.091,-0.078l-0.074,-0.071l-1.313,-1.312l-0.07,-0.074l-0.078,-0.091l-0.073,-0.094l-0.068,-0.098l-0.062,-0.1l-0.058,-0.102l-0.051,-0.105l-0.046,-0.106l-0.041,-0.108l-0.035,-0.11l-0.03,-0.11l-0.025,-0.111l-0.018,-0.112l-0.014,-0.112l-0.008,-0.113l-0.003,-0.114l0.003,-0.113l0.008,-0.113l0.014,-0.112l0.018,-0.112l0.025,-0.111l0.03,-0.11l0.035,-0.11l0.041,-0.108l0.046,-0.106l0.051,-0.105l0.057,-0.102l0.063,-0.1l0.068,-0.098l0.073,-0.094l0.078,-0.091l0.07,-0.074l10.843,-10.843l0.074,-0.07l0.091,-0.078l0.094,-0.073l0.098,-0.068l0.1,-0.063l0.102,-0.057l0.105,-0.051l0.106,-0.046l0.108,-0.041l0.109,-0.035l0.111,-0.03l0.111,-0.024l0.112,-0.019l0.112,-0.014l0.113,-0.008l0.113,-0.003l0.113,0.003Zm-0.156,1.455l-0.044,0.003l-0.043,0.005l-0.043,0.007l-0.043,0.01l-0.043,0.011l-0.042,0.014l-0.041,0.015l-0.041,0.018l-0.04,0.02l-0.039,0.021l-0.038,0.024l-0.037,0.026l-0.037,0.028l-0.035,0.031l-0.034,0.032l-10.816,10.816l-0.033,0.034l-0.03,0.035l-0.028,0.037l-0.026,0.037l-0.024,0.038l-0.022,0.039l-0.019,0.04l-0.018,0.041l-0.016,0.042l-0.013,0.041l-0.012,0.043l-0.009,0.043l-0.007,0.043l-0.005,0.043l-0.003,0.044l-0.002,0.043l0.002,0.044l0.003,0.044l0.005,0.043l0.007,0.043l0.009,0.043l0.012,0.042l0.013,0.042l0.016,0.042l0.018,0.041l0.019,0.04l0.022,0.039l0.024,0.038l0.026,0.037l0.028,0.037l0.03,0.035l0.033,0.034l1.286,1.286l0.034,0.032l0.035,0.03l0.036,0.028l0.038,0.026l0.038,0.024l0.039,0.022l0.04,0.02l0.041,0.018l0.041,0.015l0.042,0.014l0.043,0.011l0.042,0.009l0.044,0.008l0.043,0.005l0.043,0.003l0.044,0.001l0.044,-0.001l0.043,-0.003l0.044,-0.005l0.043,-0.008l0.043,-0.009l0.042,-0.011l0.042,-0.014l0.041,-0.015l0.041,-0.018l0.04,-0.02l0.039,-0.022l0.039,-0.024l0.037,-0.026l0.036,-0.028l0.035,-0.03l0.034,-0.032l10.817,-10.817l0.032,-0.034l0.03,-0.035l0.028,-0.036l0.026,-0.037l0.024,-0.039l0.022,-0.039l0.02,-0.04l0.017,-0.04l0.016,-0.042l0.014,-0.042l0.011,-0.042l0.009,-0.043l0.008,-0.043l0.005,-0.044l0.003,-0.043l0.001,-0.044l-0.001,-0.043l-0.003,-0.044l-0.005,-0.043l-0.008,-0.044l-0.009,-0.042l-0.011,-0.043l-0.014,-0.042l-0.016,-0.041l-0.017,-0.041l-0.02,-0.04l-0.022,-0.039l-0.024,-0.038l-0.026,-0.038l-0.028,-0.036l-0.03,-0.035l-0.032,-0.034l-1.286,-1.286l-0.034,-0.032l-0.036,-0.031l-0.036,-0.028l-0.037,-0.026l-0.038,-0.024l-0.04,-0.021l-0.04,-0.02l-0.04,-0.018l-0.042,-0.015l-0.042,-0.014l-0.042,-0.011l-0.043,-0.01l-0.043,-0.007l-0.043,-0.005l-0.044,-0.003l-0.044,-0.001l-0.043,0.001Z" style="fill:#eaeae6;"/><path d="M258.842,39.613l0.129,0.003l0.128,0.004l0.128,0.005l0.127,0.008l0.127,0.008l0.126,0.011l0.127,0.012l0.125,0.014l0.126,0.015l0.125,0.016l0.124,0.019l0.124,0.019l0.124,0.022l0.123,0.023l0.122,0.024l0.122,0.026l0.122,0.027l0.121,0.029l0.12,0.03l0.12,0.032l0.119,0.033l0.119,0.034l0.118,0.036l0.117,0.037l0.117,0.039l0.116,0.04l0.116,0.042l0.115,0.043l0.114,0.044l0.113,0.046l0.113,0.046l0.112,0.049l0.111,0.049l0.111,0.051l0.11,0.052l0.109,0.054l0.108,0.054l0.108,0.056l0.106,0.057l0.106,0.059l0.106,0.06l0.104,0.06l0.103,0.062l0.103,0.064l0.102,0.064l0.101,0.066l0.1,0.067l0.1,0.068l0.098,0.069l0.098,0.07l0.096,0.072l0.096,0.072l0.095,0.074l0.094,0.075l0.093,0.075l0.092,0.077l0.091,0.078l0.09,0.079l0.089,0.08l0.089,0.082l0.087,0.082l0.086,0.083l0.085,0.084l0.085,0.085l0.083,0.087l0.082,0.087l0.081,0.088l0.08,0.089l0.079,0.091l0.078,0.091l0.077,0.092l0.076,0.093l0.075,0.094l0.073,0.095l0.073,0.095l0.071,0.097l0.071,0.097l0.069,0.099l0.068,0.099l0.067,0.1l0.065,0.101l0.065,0.102l0.063,0.103l0.062,0.104l0.061,0.104l0.06,0.105l0.058,0.106l0.057,0.107l0.056,0.107l0.055,0.109l0.053,0.109l0.052,0.11l0.051,0.11l0.05,0.112l0.048,0.112l0.047,0.112l0.046,0.114l0.044,0.114l0.043,0.115l0.041,0.115l0.04,0.116l0.039,0.117l0.037,0.117l0.036,0.118l0.035,0.119l0.033,0.119l0.032,0.12l0.03,0.12l0.029,0.122l0.027,0.121l0.026,0.122l0.024,0.123l0.023,0.123l0.021,0.123l0.02,0.124l0.018,0.125l0.017,0.125l0.015,0.125l0.014,0.126l0.012,0.126l0.01,0.127l0.009,0.127l0.007,0.127l0.006,0.128l0.004,0.128l0.002,0.128l0.001,0.129l-0.001,0.129l-0.002,0.128l-0.004,0.128l-0.006,0.127l-0.007,0.128l-0.009,0.127l-0.01,0.127l-0.012,0.126l-0.014,0.125l-0.015,0.126l-0.017,0.125l-0.018,0.124l-0.02,0.124l-0.021,0.124l-0.023,0.123l-0.024,0.123l-0.026,0.121l-0.027,0.122l-0.029,0.121l-0.03,0.12l-0.032,0.12l-0.033,0.119l-0.035,0.119l-0.036,0.118l-0.037,0.117l-0.039,0.117l-0.04,0.116l-0.041,0.116l-0.043,0.114l-0.044,0.115l-0.046,0.113l-0.047,0.113l-0.048,0.112l-0.05,0.111l-0.051,0.111l-0.052,0.11l-0.053,0.109l-0.055,0.108l-0.056,0.108l-0.057,0.106l-0.058,0.106l-0.06,0.106l-0.061,0.104l-0.062,0.104l-0.063,0.102l-0.065,0.102l-0.065,0.101l-0.067,0.1l-0.068,0.1l-0.069,0.098l-0.071,0.098l-0.071,0.096l-0.073,0.096l-0.073,0.095l-0.075,0.094l-0.076,0.093l-0.077,0.092l-0.078,0.091l-0.079,0.09l-0.08,0.089l-0.081,0.088l-0.082,0.088l-0.083,0.086l-0.085,0.085l-0.085,0.085l-0.086,0.083l-0.087,0.082l-0.089,0.081l-0.089,0.08l-0.09,0.079l-0.091,0.078l-0.092,0.077l-0.093,0.076l-0.094,0.075l-0.095,0.073l-0.096,0.073l-0.096,0.071l-0.098,0.071l-0.098,0.069l-0.1,0.068l-0.1,0.067l-0.101,0.065l-0.102,0.065l-0.103,0.063l-0.103,0.062l-0.104,0.061l-0.106,0.06l-0.106,0.058l-0.106,0.057l-0.108,0.056l-0.108,0.055l-0.109,0.053l-0.11,0.052l-0.111,0.051l-0.111,0.05l-0.112,0.048l-0.113,0.047l-0.113,0.046l-0.114,0.044l-0.115,0.043l-0.116,0.041l-0.116,0.04l-0.117,0.039l-0.117,0.037l-0.118,0.036l-0.119,0.035l-0.119,0.033l-0.12,0.032l-0.12,0.03l-0.121,0.029l-0.122,0.027l-0.122,0.026l-0.122,0.024l-0.123,0.023l-0.124,0.021l-0.124,0.02l-0.124,0.018l-0.125,0.017l-0.126,0.015l-0.125,0.014l-0.127,0.012l-0.126,0.01l-0.127,0.009l-0.127,0.007l-0.128,0.006l-0.128,0.004l-0.129,0.002l-0.128,0.001l-0.129,-0.001l-0.128,-0.002l-0.128,-0.004l-0.128,-0.006l-0.127,-0.007l-0.127,-0.009l-0.127,-0.01l-0.126,-0.012l-0.126,-0.014l-0.125,-0.015l-0.125,-0.017l-0.125,-0.018l-0.124,-0.02l-0.123,-0.021l-0.123,-0.023l-0.123,-0.024l-0.122,-0.026l-0.121,-0.027l-0.121,-0.029l-0.121,-0.03l-0.12,-0.032l-0.119,-0.033l-0.118,-0.035l-0.118,-0.036l-0.118,-0.037l-0.117,-0.039l-0.116,-0.04l-0.115,-0.041l-0.115,-0.043l-0.114,-0.044l-0.114,-0.046l-0.112,-0.047l-0.112,-0.048l-0.112,-0.05l-0.11,-0.051l-0.11,-0.052l-0.109,-0.053l-0.109,-0.055l-0.107,-0.056l-0.107,-0.057l-0.106,-0.058l-0.105,-0.06l-0.104,-0.061l-0.104,-0.062l-0.103,-0.063l-0.102,-0.065l-0.101,-0.066l-0.1,-0.066l-0.099,-0.068l-0.099,-0.069l-0.097,-0.071l-0.097,-0.071l-0.095,-0.073l-0.095,-0.073l-0.094,-0.075l-0.093,-0.076l-0.092,-0.077l-0.092,-0.078l-0.09,-0.079l-0.089,-0.08l-0.088,-0.081l-0.087,-0.082l-0.086,-0.083l-0.086,-0.085l-0.084,-0.085l-0.083,-0.086l-0.082,-0.087l-0.081,-0.089l-0.081,-0.089l-0.079,-0.09l-0.078,-0.091l-0.077,-0.092l-0.075,-0.093l-0.075,-0.094l-0.074,-0.095l-0.072,-0.096l-0.072,-0.096l-0.07,-0.098l-0.069,-0.098l-0.068,-0.1l-0.067,-0.1l-0.066,-0.101l-0.064,-0.102l-0.064,-0.103l-0.062,-0.103l-0.06,-0.104l-0.06,-0.106l-0.059,-0.106l-0.057,-0.106l-0.056,-0.108l-0.054,-0.108l-0.054,-0.109l-0.052,-0.11l-0.051,-0.111l-0.049,-0.111l-0.049,-0.112l-0.046,-0.113l-0.046,-0.113l-0.044,-0.115l-0.043,-0.114l-0.042,-0.116l-0.04,-0.116l-0.039,-0.117l-0.037,-0.117l-0.036,-0.118l-0.034,-0.119l-0.033,-0.119l-0.032,-0.12l-0.03,-0.12l-0.029,-0.121l-0.027,-0.122l-0.026,-0.122l-0.024,-0.122l-0.023,-0.123l-0.022,-0.124l-0.019,-0.124l-0.019,-0.124l-0.016,-0.125l-0.015,-0.125l-0.014,-0.126l-0.012,-0.127l-0.01,-0.126l-0.009,-0.127l-0.008,-0.128l-0.005,-0.127l-0.004,-0.128l-0.003,-0.129l-0.001,-0.128l0.001,-0.129l0.003,-0.128l0.004,-0.129l0.005,-0.127l0.008,-0.127l0.009,-0.127l0.01,-0.127l0.012,-0.126l0.014,-0.126l0.015,-0.125l0.016,-0.125l0.019,-0.125l0.019,-0.124l0.022,-0.123l0.023,-0.123l0.024,-0.123l0.026,-0.122l0.027,-0.122l0.029,-0.121l0.03,-0.12l0.032,-0.12l0.033,-0.119l0.034,-0.119l0.036,-0.117l0.037,-0.118l0.039,-0.117l0.04,-0.116l0.042,-0.115l0.043,-0.115l0.044,-0.114l0.046,-0.114l0.046,-0.112l0.049,-0.112l0.049,-0.112l0.051,-0.11l0.052,-0.11l0.054,-0.109l0.054,-0.109l0.056,-0.107l0.057,-0.107l0.059,-0.106l0.06,-0.105l0.06,-0.104l0.062,-0.104l0.064,-0.103l0.064,-0.102l0.066,-0.101l0.067,-0.1l0.068,-0.099l0.069,-0.099l0.07,-0.097l0.072,-0.097l0.072,-0.096l0.074,-0.094l0.075,-0.094l0.075,-0.093l0.077,-0.092l0.078,-0.092l0.079,-0.089l0.081,-0.09l0.081,-0.088l0.082,-0.087l0.083,-0.087l0.084,-0.085l0.086,-0.084l0.086,-0.083l0.087,-0.082l0.088,-0.082l0.089,-0.08l0.09,-0.079l0.092,-0.078l0.092,-0.077l0.093,-0.076l0.094,-0.074l0.095,-0.074l0.095,-0.072l0.097,-0.072l0.097,-0.07l0.099,-0.069l0.099,-0.068l0.1,-0.067l0.101,-0.066l0.102,-0.064l0.103,-0.064l0.104,-0.062l0.104,-0.06l0.105,-0.06l0.106,-0.059l0.107,-0.057l0.107,-0.056l0.109,-0.054l0.109,-0.054l0.11,-0.052l0.11,-0.051l0.112,-0.049l0.112,-0.049l0.112,-0.047l0.114,-0.045l0.114,-0.044l0.115,-0.043l0.115,-0.042l0.116,-0.04l0.117,-0.039l0.118,-0.037l0.118,-0.036l0.118,-0.034l0.119,-0.033l0.12,-0.032l0.121,-0.03l0.121,-0.029l0.121,-0.027l0.122,-0.026l0.123,-0.024l0.123,-0.023l0.123,-0.022l0.124,-0.019l0.125,-0.019l0.125,-0.016l0.125,-0.015l0.126,-0.014l0.126,-0.012l0.127,-0.011l0.127,-0.008l0.127,-0.008l0.128,-0.005l0.128,-0.004l0.128,-0.003l0.129,-0.001l0.128,0.001Zm-0.224,2.566l-0.096,0.002l-0.096,0.003l-0.095,0.004l-0.095,0.006l-0.094,0.006l-0.095,0.008l-0.093,0.009l-0.094,0.01l-0.093,0.011l-0.093,0.013l-0.093,0.013l-0.092,0.015l-0.092,0.016l-0.091,0.017l-0.091,0.018l-0.09,0.019l-0.091,0.02l-0.089,0.021l-0.09,0.023l-0.089,0.023l-0.088,0.025l-0.088,0.026l-0.088,0.026l-0.087,0.028l-0.086,0.029l-0.087,0.029l-0.085,0.031l-0.086,0.032l-0.084,0.033l-0.084,0.034l-0.084,0.035l-0.083,0.035l-0.083,0.037l-0.082,0.038l-0.082,0.039l-0.081,0.039l-0.08,0.041l-0.08,0.042l-0.079,0.042l-0.079,0.043l-0.078,0.045l-0.078,0.045l-0.077,0.046l-0.076,0.047l-0.076,0.048l-0.075,0.049l-0.075,0.05l-0.074,0.05l-0.073,0.052l-0.073,0.052l-0.072,0.053l-0.071,0.054l-0.071,0.055l-0.07,0.056l-0.069,0.056l-0.068,0.058l-0.068,0.058l-0.067,0.059l-0.067,0.059l-0.066,0.061l-0.065,0.061l-0.064,0.062l-0.063,0.063l-0.063,0.063l-0.062,0.064l-0.061,0.065l-0.061,0.066l-0.059,0.067l-0.059,0.067l-0.058,0.068l-0.058,0.068l-0.056,0.069l-0.056,0.07l-0.055,0.071l-0.054,0.071l-0.053,0.072l-0.052,0.073l-0.052,0.073l-0.05,0.074l-0.05,0.075l-0.049,0.075l-0.048,0.076l-0.047,0.076l-0.046,0.077l-0.045,0.078l-0.045,0.078l-0.043,0.078l-0.042,0.08l-0.042,0.08l-0.041,0.08l-0.039,0.081l-0.039,0.082l-0.038,0.082l-0.037,0.083l-0.035,0.083l-0.035,0.084l-0.034,0.084l-0.033,0.084l-0.032,0.086l-0.031,0.085l-0.029,0.086l-0.029,0.087l-0.028,0.087l-0.026,0.088l-0.026,0.088l-0.025,0.088l-0.023,0.089l-0.023,0.09l-0.021,0.089l-0.02,0.09l-0.019,0.091l-0.018,0.091l-0.017,0.091l-0.016,0.092l-0.015,0.092l-0.013,0.093l-0.013,0.093l-0.011,0.093l-0.01,0.093l-0.009,0.094l-0.008,0.095l-0.006,0.094l-0.006,0.095l-0.004,0.095l-0.003,0.096l-0.002,0.096l-0.001,0.096l0.001,0.096l0.002,0.096l0.003,0.095l0.004,0.095l0.006,0.095l0.006,0.095l0.008,0.094l0.009,0.094l0.01,0.094l0.011,0.093l0.013,0.093l0.013,0.092l0.015,0.092l0.016,0.092l0.017,0.091l0.018,0.091l0.019,0.091l0.02,0.09l0.021,0.09l0.023,0.089l0.023,0.089l0.025,0.089l0.026,0.088l0.026,0.087l0.028,0.087l0.029,0.087l0.029,0.086l0.031,0.086l0.032,0.085l0.033,0.085l0.034,0.084l0.035,0.084l0.035,0.083l0.037,0.083l0.038,0.082l0.039,0.081l0.039,0.081l0.041,0.081l0.042,0.08l0.042,0.079l0.043,0.079l0.045,0.078l0.045,0.078l0.046,0.077l0.047,0.076l0.048,0.076l0.049,0.075l0.05,0.074l0.05,0.074l0.052,0.074l0.052,0.072l0.053,0.072l0.054,0.071l0.055,0.071l0.056,0.07l0.056,0.069l0.058,0.069l0.058,0.068l0.059,0.067l0.059,0.066l0.061,0.066l0.061,0.065l0.062,0.064l0.063,0.064l0.063,0.063l0.064,0.062l0.065,0.061l0.066,0.06l0.067,0.06l0.067,0.059l0.068,0.058l0.068,0.057l0.069,0.057l0.07,0.055l0.071,0.055l0.071,0.054l0.072,0.053l0.073,0.053l0.073,0.051l0.074,0.051l0.075,0.049l0.075,0.049l0.076,0.048l0.076,0.047l0.077,0.046l0.078,0.046l0.078,0.044l0.079,0.043l0.079,0.043l0.08,0.042l0.08,0.04l0.081,0.04l0.082,0.039l0.082,0.037l0.083,0.037l0.083,0.036l0.084,0.035l0.084,0.034l0.084,0.032l0.086,0.032l0.085,0.031l0.087,0.03l0.086,0.029l0.087,0.027l0.088,0.027l0.088,0.026l0.088,0.024l0.089,0.024l0.09,0.022l0.089,0.021l0.091,0.021l0.09,0.019l0.091,0.018l0.091,0.017l0.092,0.016l0.092,0.014l0.093,0.014l0.093,0.012l0.093,0.011l0.094,0.011l0.093,0.009l0.095,0.007l0.094,0.007l0.095,0.005l0.095,0.005l0.096,0.003l0.096,0.001l0.096,0.001l0.096,-0.001l0.096,-0.001l0.095,-0.003l0.095,-0.005l0.095,-0.005l0.095,-0.007l0.094,-0.007l0.094,-0.009l0.094,-0.011l0.093,-0.011l0.093,-0.012l0.092,-0.014l0.092,-0.014l0.092,-0.016l0.091,-0.017l0.091,-0.018l0.091,-0.019l0.09,-0.021l0.09,-0.021l0.089,-0.022l0.089,-0.024l0.089,-0.024l0.088,-0.026l0.087,-0.027l0.087,-0.027l0.087,-0.029l0.086,-0.03l0.086,-0.031l0.085,-0.032l0.085,-0.032l0.084,-0.034l0.084,-0.035l0.083,-0.036l0.083,-0.037l0.082,-0.037l0.081,-0.039l0.081,-0.04l0.081,-0.04l0.08,-0.042l0.079,-0.043l0.079,-0.043l0.078,-0.044l0.078,-0.046l0.077,-0.046l0.076,-0.047l0.076,-0.048l0.075,-0.049l0.074,-0.049l0.074,-0.051l0.074,-0.051l0.072,-0.053l0.072,-0.053l0.072,-0.054l0.07,-0.055l0.07,-0.055l0.069,-0.057l0.069,-0.057l0.068,-0.058l0.067,-0.059l0.066,-0.06l0.066,-0.06l0.065,-0.061l0.064,-0.062l0.064,-0.063l0.063,-0.064l0.062,-0.064l0.061,-0.065l0.06,-0.066l0.06,-0.066l0.059,-0.067l0.058,-0.068l0.057,-0.069l0.057,-0.069l0.055,-0.07l0.055,-0.071l0.054,-0.071l0.053,-0.072l0.053,-0.072l0.051,-0.074l0.051,-0.074l0.049,-0.074l0.049,-0.075l0.048,-0.076l0.047,-0.076l0.046,-0.077l0.046,-0.078l0.044,-0.078l0.044,-0.079l0.042,-0.079l0.042,-0.08l0.04,-0.081l0.04,-0.081l0.039,-0.081l0.037,-0.082l0.037,-0.083l0.036,-0.083l0.035,-0.084l0.034,-0.084l0.032,-0.085l0.032,-0.085l0.031,-0.086l0.03,-0.086l0.029,-0.087l0.027,-0.087l0.027,-0.087l0.026,-0.088l0.024,-0.089l0.024,-0.089l0.022,-0.089l0.021,-0.09l0.021,-0.09l0.019,-0.091l0.018,-0.091l0.017,-0.091l0.016,-0.092l0.014,-0.092l0.014,-0.092l0.012,-0.093l0.012,-0.093l0.01,-0.094l0.009,-0.094l0.007,-0.094l0.007,-0.095l0.005,-0.095l0.005,-0.095l0.003,-0.095l0.001,-0.096l0.001,-0.096l-0.001,-0.096l-0.001,-0.096l-0.003,-0.096l-0.005,-0.095l-0.005,-0.095l-0.007,-0.094l-0.007,-0.095l-0.009,-0.094l-0.01,-0.093l-0.012,-0.093l-0.012,-0.093l-0.014,-0.093l-0.014,-0.092l-0.016,-0.092l-0.017,-0.091l-0.018,-0.091l-0.019,-0.091l-0.021,-0.09l-0.021,-0.089l-0.022,-0.09l-0.024,-0.089l-0.024,-0.088l-0.026,-0.088l-0.027,-0.088l-0.027,-0.087l-0.029,-0.087l-0.03,-0.086l-0.031,-0.085l-0.032,-0.086l-0.032,-0.084l-0.034,-0.084l-0.035,-0.084l-0.036,-0.083l-0.037,-0.083l-0.037,-0.082l-0.039,-0.082l-0.04,-0.081l-0.04,-0.08l-0.042,-0.08l-0.042,-0.08l-0.044,-0.078l-0.044,-0.078l-0.046,-0.078l-0.046,-0.077l-0.047,-0.076l-0.048,-0.076l-0.049,-0.075l-0.049,-0.075l-0.051,-0.074l-0.051,-0.073l-0.053,-0.073l-0.053,-0.072l-0.054,-0.071l-0.055,-0.071l-0.055,-0.07l-0.057,-0.069l-0.057,-0.068l-0.058,-0.068l-0.059,-0.067l-0.06,-0.067l-0.06,-0.066l-0.061,-0.065l-0.062,-0.064l-0.063,-0.063l-0.064,-0.063l-0.064,-0.062l-0.065,-0.061l-0.066,-0.061l-0.066,-0.059l-0.067,-0.059l-0.068,-0.058l-0.069,-0.058l-0.069,-0.056l-0.07,-0.056l-0.07,-0.055l-0.072,-0.054l-0.072,-0.053l-0.072,-0.052l-0.074,-0.052l-0.074,-0.05l-0.074,-0.05l-0.075,-0.049l-0.076,-0.048l-0.076,-0.047l-0.077,-0.046l-0.078,-0.045l-0.078,-0.045l-0.079,-0.043l-0.079,-0.042l-0.08,-0.042l-0.081,-0.041l-0.081,-0.039l-0.081,-0.039l-0.082,-0.038l-0.083,-0.037l-0.083,-0.035l-0.084,-0.035l-0.084,-0.034l-0.085,-0.033l-0.085,-0.032l-0.086,-0.031l-0.086,-0.029l-0.087,-0.029l-0.087,-0.028l-0.087,-0.026l-0.088,-0.026l-0.089,-0.025l-0.089,-0.023l-0.089,-0.023l-0.09,-0.021l-0.09,-0.02l-0.091,-0.019l-0.091,-0.018l-0.091,-0.017l-0.092,-0.016l-0.092,-0.015l-0.092,-0.013l-0.093,-0.013l-0.093,-0.011l-0.094,-0.01l-0.094,-0.009l-0.094,-0.008l-0.095,-0.006l-0.095,-0.006l-0.095,-0.004l-0.095,-0.003l-0.096,-0.002l-0.096,-0.001l-0.096,0.001Z" style="fill:#414141;"/><path d="M253.016,58.148c0.355,-0.355 0.355,-0.931 0,-1.286l-1.286,-1.286c-0.355,-0.355 -0.932,-0.355 -1.287,0l-11.694,11.694c-0.355,0.355 -0.355,0.932 0,1.287l1.286,1.286c0.355,0.355 0.931,0.355 1.286,0l11.695,-11.695Z" style="fill:#414141;"/><path d="M260.94,48.977c0.257,0 0.504,0.103 0.687,0.285c0.182,0.182 0.284,0.429 0.284,0.687c0,0.005 0,0.011 0,0.016c0,0.258 -0.102,0.505 -0.284,0.687c-0.183,0.182 -0.43,0.285 -0.687,0.285c-0.493,0 -0.988,0 -0.988,0c0,0 0,0.495 0,0.987c0,0.258 -0.103,0.505 -0.285,0.687c-0.182,0.183 -0.429,0.285 -0.687,0.285c-0.005,0 -0.011,0 -0.016,0c-0.258,0 -0.505,-0.102 -0.687,-0.285c-0.182,-0.182 -0.285,-0.429 -0.285,-0.687c0,-0.492 0,-0.987 0,-0.987c0,0 -0.495,0 -0.987,0c-0.258,0 -0.505,-0.103 -0.687,-0.285c-0.183,-0.182 -0.285,-0.429 -0.285,-0.687c0,-0.005 0,-0.011 0,-0.016c0,-0.258 0.102,-0.505 0.285,-0.687c0.182,-0.182 0.429,-0.285 0.687,-0.285c0.492,0 0.987,0 0.987,0c0,0 0,-0.495 0,-0.988c0,-0.257 0.103,-0.504 0.285,-0.687c0.182,-0.182 0.429,-0.284 0.687,-0.284c0.005,0 0.011,0 0.016,0c0.258,0 0.505,0.102 0.687,0.284c0.182,0.183 0.285,0.43 0.285,0.687c0,0.493 0,0.988 0,0.988c0,0 0.495,0 0.988,0Z" style="fill:#414141;"/><path d="M259.066,46.272l0.084,0.006l0.084,0.01l0.083,0.015l0.083,0.018l0.081,0.023l0.079,0.026l0.078,0.03l0.077,0.034l0.075,0.038l0.073,0.041l0.071,0.045l0.07,0.049l0.066,0.052l0.065,0.055l0.061,0.059l0.059,0.062l0.056,0.064l0.052,0.067l0.048,0.069l0.045,0.071l0.042,0.074l0.037,0.074l0.034,0.077l0.03,0.078l0.027,0.08l0.022,0.081l0.019,0.082l0.014,0.083l0.011,0.084l0.006,0.085l0.002,0.076l0,0.249l0.249,0l0.076,0.002l0.085,0.006l0.084,0.011l0.083,0.014l0.082,0.019l0.081,0.022l0.08,0.027l0.078,0.03l0.077,0.034l0.075,0.037l0.073,0.042l0.071,0.045l0.069,0.048l0.067,0.052l0.064,0.056l0.062,0.059l0.059,0.061l0.055,0.065l0.052,0.066l0.049,0.07l0.045,0.071l0.041,0.073l0.038,0.075l0.034,0.077l0.03,0.078l0.026,0.079l0.023,0.082l0.018,0.082l0.015,0.083l0.01,0.084l0.006,0.084l0.002,0.076l0,0.035l-0.002,0.076l-0.006,0.085l-0.01,0.084l-0.015,0.083l-0.018,0.082l-0.023,0.081l-0.026,0.08l-0.03,0.078l-0.034,0.077l-0.038,0.075l-0.041,0.073l-0.045,0.071l-0.049,0.069l-0.052,0.067l-0.055,0.064l-0.059,0.062l-0.062,0.059l-0.064,0.055l-0.067,0.052l-0.069,0.049l-0.071,0.045l-0.073,0.041l-0.075,0.038l-0.077,0.034l-0.078,0.03l-0.08,0.027l-0.081,0.022l-0.082,0.019l-0.083,0.014l-0.084,0.011l-0.085,0.006l-0.076,0.002l-0.249,0l0,0.249l-0.002,0.076l-0.006,0.084l-0.011,0.084l-0.014,0.084l-0.019,0.082l-0.022,0.081l-0.027,0.079l-0.03,0.079l-0.034,0.076l-0.037,0.075l-0.042,0.073l-0.045,0.072l-0.048,0.069l-0.052,0.066l-0.056,0.065l-0.059,0.062l-0.061,0.058l-0.065,0.056l-0.066,0.052l-0.069,0.048l-0.072,0.045l-0.073,0.042l-0.075,0.037l-0.077,0.034l-0.078,0.031l-0.079,0.026l-0.082,0.022l-0.082,0.019l-0.083,0.014l-0.084,0.011l-0.084,0.006l-0.076,0.002l-0.035,0l-0.076,-0.002l-0.085,-0.006l-0.084,-0.011l-0.083,-0.014l-0.082,-0.019l-0.081,-0.022l-0.08,-0.026l-0.078,-0.031l-0.077,-0.034l-0.075,-0.037l-0.073,-0.042l-0.071,-0.045l-0.069,-0.048l-0.067,-0.052l-0.064,-0.056l-0.062,-0.058l-0.059,-0.062l-0.055,-0.065l-0.052,-0.066l-0.049,-0.069l-0.045,-0.072l-0.041,-0.073l-0.038,-0.075l-0.034,-0.076l-0.03,-0.079l-0.027,-0.079l-0.022,-0.081l-0.019,-0.082l-0.014,-0.084l-0.011,-0.084l-0.006,-0.084l-0.002,-0.076l0,-0.249l-0.249,0l-0.076,-0.002l-0.084,-0.006l-0.084,-0.011l-0.084,-0.014l-0.082,-0.019l-0.081,-0.022l-0.079,-0.027l-0.079,-0.03l-0.076,-0.034l-0.075,-0.038l-0.074,-0.041l-0.071,-0.045l-0.069,-0.049l-0.066,-0.052l-0.065,-0.055l-0.062,-0.059l-0.058,-0.062l-0.056,-0.064l-0.052,-0.067l-0.048,-0.069l-0.045,-0.071l-0.042,-0.073l-0.037,-0.075l-0.034,-0.077l-0.031,-0.078l-0.026,-0.08l-0.022,-0.081l-0.019,-0.082l-0.014,-0.083l-0.011,-0.084l-0.006,-0.085l-0.002,-0.076l0,-0.035l0.002,-0.076l0.006,-0.084l0.011,-0.084l0.014,-0.083l0.019,-0.082l0.022,-0.082l0.026,-0.079l0.031,-0.078l0.034,-0.077l0.037,-0.075l0.042,-0.073l0.045,-0.072l0.048,-0.069l0.052,-0.066l0.056,-0.065l0.058,-0.061l0.062,-0.059l0.065,-0.056l0.066,-0.052l0.069,-0.048l0.071,-0.045l0.074,-0.042l0.075,-0.037l0.076,-0.034l0.079,-0.03l0.079,-0.027l0.081,-0.022l0.082,-0.019l0.084,-0.014l0.084,-0.011l0.084,-0.006l0.076,-0.002l0.249,0l0,-0.249l0.002,-0.076l0.006,-0.085l0.011,-0.084l0.014,-0.083l0.019,-0.082l0.022,-0.081l0.027,-0.08l0.03,-0.078l0.034,-0.077l0.038,-0.075l0.041,-0.073l0.045,-0.071l0.049,-0.069l0.052,-0.067l0.055,-0.064l0.059,-0.062l0.062,-0.059l0.064,-0.055l0.067,-0.052l0.069,-0.049l0.071,-0.045l0.073,-0.041l0.075,-0.038l0.077,-0.034l0.078,-0.03l0.08,-0.026l0.081,-0.023l0.082,-0.018l0.083,-0.015l0.084,-0.01l0.085,-0.006l0.076,-0.002l0.035,0l0.076,0.002Zm-0.15,0.747l-0.048,0.004l-0.048,0.005l-0.047,0.009l-0.046,0.01l-0.046,0.013l-0.045,0.015l-0.044,0.017l-0.043,0.019l-0.043,0.021l-0.041,0.024l-0.04,0.025l-0.039,0.027l-0.038,0.03l-0.036,0.031l-0.035,0.033l-0.033,0.035l-0.032,0.037l-0.029,0.037l-0.027,0.039l-0.026,0.041l-0.023,0.041l-0.021,0.042l-0.02,0.044l-0.017,0.044l-0.015,0.045l-0.012,0.045l-0.011,0.047l-0.008,0.047l-0.006,0.047l-0.003,0.048l-0.002,0.048l0,0.988l-0.987,0l-0.049,0.001l-0.048,0.004l-0.047,0.006l-0.047,0.008l-0.046,0.01l-0.046,0.013l-0.045,0.015l-0.044,0.017l-0.044,0.019l-0.042,0.022l-0.041,0.023l-0.04,0.025l-0.039,0.028l-0.038,0.029l-0.037,0.032l-0.034,0.033l-0.034,0.035l-0.031,0.036l-0.029,0.038l-0.028,0.039l-0.025,0.04l-0.024,0.041l-0.021,0.043l-0.019,0.043l-0.017,0.044l-0.015,0.045l-0.013,0.046l-0.01,0.046l-0.008,0.047l-0.006,0.048l-0.004,0.048l-0.001,0.048l0,0.016l0.001,0.048l0.004,0.048l0.006,0.048l0.008,0.047l0.01,0.046l0.013,0.046l0.015,0.045l0.017,0.044l0.019,0.043l0.021,0.043l0.024,0.041l0.025,0.04l0.028,0.039l0.029,0.038l0.031,0.036l0.034,0.035l0.034,0.033l0.037,0.032l0.038,0.029l0.039,0.027l0.04,0.026l0.041,0.023l0.042,0.021l0.044,0.02l0.044,0.017l0.045,0.015l0.046,0.012l0.046,0.011l0.047,0.008l0.047,0.006l0.048,0.003l0.049,0.002l0.987,0l0,0.987l0.002,0.049l0.003,0.048l0.006,0.047l0.008,0.047l0.011,0.046l0.012,0.046l0.015,0.045l0.017,0.044l0.02,0.044l0.021,0.042l0.023,0.041l0.026,0.04l0.027,0.039l0.029,0.038l0.032,0.037l0.033,0.034l0.035,0.034l0.036,0.031l0.038,0.029l0.039,0.028l0.04,0.025l0.041,0.024l0.043,0.021l0.043,0.019l0.044,0.017l0.045,0.015l0.046,0.013l0.046,0.01l0.047,0.008l0.048,0.006l0.048,0.004l0.048,0.001l0.016,0l0.048,-0.001l0.048,-0.004l0.048,-0.006l0.047,-0.008l0.046,-0.01l0.046,-0.013l0.045,-0.015l0.044,-0.017l0.043,-0.019l0.043,-0.021l0.041,-0.024l0.04,-0.025l0.039,-0.028l0.038,-0.029l0.036,-0.031l0.035,-0.034l0.033,-0.034l0.032,-0.037l0.029,-0.038l0.028,-0.039l0.025,-0.04l0.023,-0.041l0.022,-0.042l0.019,-0.044l0.017,-0.044l0.015,-0.045l0.013,-0.046l0.01,-0.046l0.008,-0.047l0.006,-0.047l0.004,-0.048l0.001,-0.049l0,-0.987l0.988,0l0.048,-0.002l0.048,-0.003l0.047,-0.006l0.047,-0.008l0.047,-0.011l0.045,-0.012l0.045,-0.015l0.044,-0.017l0.044,-0.02l0.042,-0.021l0.041,-0.023l0.041,-0.026l0.039,-0.027l0.037,-0.029l0.037,-0.032l0.035,-0.033l0.033,-0.035l0.031,-0.036l0.03,-0.038l0.027,-0.039l0.025,-0.04l0.024,-0.041l0.021,-0.043l0.019,-0.043l0.017,-0.044l0.015,-0.045l0.013,-0.046l0.01,-0.046l0.009,-0.047l0.005,-0.048l0.004,-0.048l0.001,-0.048l0,-0.016l-0.001,-0.048l-0.004,-0.048l-0.005,-0.048l-0.009,-0.047l-0.01,-0.046l-0.013,-0.046l-0.015,-0.045l-0.017,-0.044l-0.019,-0.043l-0.021,-0.043l-0.024,-0.041l-0.025,-0.04l-0.027,-0.039l-0.03,-0.038l-0.031,-0.036l-0.033,-0.035l-0.035,-0.033l-0.037,-0.032l-0.037,-0.029l-0.039,-0.028l-0.041,-0.025l-0.041,-0.023l-0.042,-0.022l-0.044,-0.019l-0.044,-0.017l-0.045,-0.015l-0.045,-0.013l-0.047,-0.01l-0.047,-0.008l-0.047,-0.006l-0.048,-0.004l-0.048,-0.001l-0.988,0l0,-0.988l-0.001,-0.048l-0.004,-0.048l-0.006,-0.047l-0.008,-0.047l-0.01,-0.047l-0.013,-0.045l-0.015,-0.045l-0.017,-0.044l-0.019,-0.044l-0.022,-0.042l-0.023,-0.041l-0.025,-0.041l-0.028,-0.039l-0.029,-0.037l-0.032,-0.037l-0.033,-0.035l-0.035,-0.033l-0.036,-0.031l-0.038,-0.03l-0.039,-0.027l-0.04,-0.025l-0.041,-0.024l-0.043,-0.021l-0.043,-0.019l-0.044,-0.017l-0.045,-0.015l-0.046,-0.013l-0.046,-0.01l-0.047,-0.009l-0.048,-0.005l-0.048,-0.004l-0.048,-0.001l-0.016,0l-0.048,0.001Z" style="fill:#eaeae6;"/></g></g></svg>